%TF.GenerationSoftware,KiCad,Pcbnew,10.0.6*%
%TF.CreationDate,2026-09-24T12:55:53-05:00*%
%TF.ProjectId,SensorPack_v1,53656e73-6f72-4506-9163-6b5f76312e6b,rev?*%
%TF.SameCoordinates,Original*%
%TF.FileFunction,Soldermask,Top*%
%TF.FilePolarity,Negative*%
%FSLAX46Y46*%
G04 Gerber Fmt 4.6, Leading zero omitted, Abs format (unit mm)*
G04 Created by KiCad (PCBNEW 10.0.6) date 2026-09-24 12:55:53*
%MOMM*%
%LPD*%
G01*
G04 APERTURE LIST*
G04 Aperture macros list*
%AMRoundRect*
0 Rectangle with rounded corners*
0 $1 Rounding radius*
0 $2 $3 $4 $5 $6 $7 $8 $9 X,Y pos of 4 corners*
0 Add a 4 corners polygon primitive as box body*
4,1,4,$2,$3,$4,$5,$6,$7,$8,$9,$2,$3,0*
0 Add four circle primitives for the rounded corners*
1,1,$1+$1,$2,$3*
1,1,$1+$1,$4,$5*
1,1,$1+$1,$6,$7*
1,1,$1+$1,$8,$9*
0 Add four rect primitives between the rounded corners*
20,1,$1+$1,$2,$3,$4,$5,0*
20,1,$1+$1,$4,$5,$6,$7,0*
20,1,$1+$1,$6,$7,$8,$9,0*
20,1,$1+$1,$8,$9,$2,$3,0*%
G04 Aperture macros list end*
%ADD10RoundRect,0.237500X-0.250000X-0.237500X0.250000X-0.237500X0.250000X0.237500X-0.250000X0.237500X0*%
%ADD11RoundRect,0.237500X-0.237500X0.250000X-0.237500X-0.250000X0.237500X-0.250000X0.237500X0.250000X0*%
%ADD12RoundRect,0.160000X0.740000X0.240000X-0.740000X0.240000X-0.740000X-0.240000X0.740000X-0.240000X0*%
%ADD13RoundRect,0.237500X0.250000X0.237500X-0.250000X0.237500X-0.250000X-0.237500X0.250000X-0.237500X0*%
%ADD14R,1.700000X1.700000*%
%ADD15C,1.700000*%
%ADD16RoundRect,0.250000X-1.000000X-0.650000X1.000000X-0.650000X1.000000X0.650000X-1.000000X0.650000X0*%
%ADD17RoundRect,0.237500X0.237500X-0.300000X0.237500X0.300000X-0.237500X0.300000X-0.237500X-0.300000X0*%
%ADD18C,1.800000*%
%ADD19RoundRect,0.150000X-0.512500X-0.150000X0.512500X-0.150000X0.512500X0.150000X-0.512500X0.150000X0*%
%ADD20RoundRect,0.250000X-0.475000X0.337500X-0.475000X-0.337500X0.475000X-0.337500X0.475000X0.337500X0*%
%ADD21RoundRect,0.150000X0.512500X0.150000X-0.512500X0.150000X-0.512500X-0.150000X0.512500X-0.150000X0*%
%ADD22RoundRect,0.150000X-0.150000X0.512500X-0.150000X-0.512500X0.150000X-0.512500X0.150000X0.512500X0*%
%ADD23RoundRect,0.237500X0.237500X-0.250000X0.237500X0.250000X-0.237500X0.250000X-0.237500X-0.250000X0*%
%ADD24R,1.800000X1.800000*%
%ADD25RoundRect,0.237500X-0.237500X0.300000X-0.237500X-0.300000X0.237500X-0.300000X0.237500X0.300000X0*%
%ADD26RoundRect,0.125000X0.353553X0.530330X-0.530330X-0.353553X-0.353553X-0.530330X0.530330X0.353553X0*%
%ADD27RoundRect,0.125000X-0.353553X0.530330X-0.530330X0.353553X0.353553X-0.530330X0.530330X-0.353553X0*%
%ADD28RoundRect,0.150000X0.825000X0.150000X-0.825000X0.150000X-0.825000X-0.150000X0.825000X-0.150000X0*%
%ADD29RoundRect,0.360000X-0.940000X0.840000X-0.940000X-0.840000X0.940000X-0.840000X0.940000X0.840000X0*%
%ADD30RoundRect,0.250000X-0.400000X-0.625000X0.400000X-0.625000X0.400000X0.625000X-0.400000X0.625000X0*%
G04 APERTURE END LIST*
D10*
%TO.C,R8*%
X125087500Y-85000000D03*
X126912500Y-85000000D03*
%TD*%
D11*
%TO.C,TH1*%
X127800000Y-66087500D03*
X127800000Y-67912500D03*
%TD*%
D12*
%TO.C,CM1*%
X136450000Y-96750000D03*
X134050000Y-96750000D03*
X136450000Y-95750000D03*
X134050000Y-95750000D03*
%TD*%
D13*
%TO.C,C1*%
X137662500Y-87150000D03*
X135837500Y-87150000D03*
%TD*%
D10*
%TO.C,R16*%
X110087500Y-85000000D03*
X111912500Y-85000000D03*
%TD*%
D14*
%TO.C,J8*%
X104000000Y-54000000D03*
D15*
X104000000Y-56540000D03*
X104000000Y-59080000D03*
X104000000Y-61620000D03*
X104000000Y-64160000D03*
X104000000Y-66700000D03*
%TD*%
D16*
%TO.C,D2*%
X138500000Y-54250000D03*
X142500000Y-54250000D03*
%TD*%
D10*
%TO.C,R17*%
X110087500Y-86500000D03*
X111912500Y-86500000D03*
%TD*%
D14*
%TO.C,J5*%
X118500000Y-96650000D03*
D15*
X118500000Y-94110000D03*
X118500000Y-91570000D03*
X118500000Y-89030000D03*
%TD*%
D13*
%TO.C,R6*%
X127412500Y-59250000D03*
X125587500Y-59250000D03*
%TD*%
D10*
%TO.C,R1*%
X141487500Y-71460000D03*
X143312500Y-71460000D03*
%TD*%
%TO.C,R9*%
X125087500Y-86500000D03*
X126912500Y-86500000D03*
%TD*%
D17*
%TO.C,C3*%
X134800000Y-72212500D03*
X134800000Y-70487500D03*
%TD*%
D11*
%TO.C,JP2*%
X121000000Y-93850000D03*
X121000000Y-95675000D03*
X121000000Y-97500000D03*
%TD*%
%TO.C,JP1*%
X128500000Y-93850000D03*
X128500000Y-95675000D03*
X128500000Y-97500000D03*
%TD*%
%TO.C,JP4*%
X113500000Y-93850000D03*
X113500000Y-95675000D03*
X113500000Y-97500000D03*
%TD*%
D18*
%TO.C,J2*%
X146732233Y-88232233D03*
X146732233Y-91767767D03*
X150267767Y-91767767D03*
X150267767Y-88232233D03*
X148500000Y-90000000D03*
%TD*%
D19*
%TO.C,D1*%
X142200500Y-95300000D03*
X142200500Y-97200000D03*
X144475500Y-96250000D03*
%TD*%
D13*
%TO.C,R15*%
X112412500Y-67250000D03*
X110587500Y-67250000D03*
%TD*%
D18*
%TO.C,J1*%
X146732233Y-58232233D03*
X146732233Y-61767767D03*
X150267767Y-61767767D03*
X150267767Y-58232233D03*
X148500000Y-60000000D03*
%TD*%
D14*
%TO.C,J6*%
X111500000Y-54000000D03*
D15*
X111500000Y-56540000D03*
X111500000Y-59080000D03*
X111500000Y-61620000D03*
%TD*%
D20*
%TO.C,C6*%
X131800000Y-64962500D03*
X131800000Y-67037500D03*
%TD*%
D21*
%TO.C,Q1*%
X143137500Y-76610000D03*
X143137500Y-74710000D03*
X140862500Y-75660000D03*
%TD*%
D10*
%TO.C,JP5*%
X110587500Y-64250000D03*
X112412500Y-64250000D03*
%TD*%
%TO.C,R14*%
X110587500Y-65750000D03*
X112412500Y-65750000D03*
%TD*%
D11*
%TO.C,C7*%
X131800000Y-68687500D03*
X131800000Y-70512500D03*
%TD*%
D22*
%TO.C,U2*%
X131200000Y-53112500D03*
X130250000Y-53112500D03*
X129300000Y-53112500D03*
X129300000Y-55387500D03*
X131200000Y-55387500D03*
%TD*%
D23*
%TO.C,C5*%
X132750000Y-55162500D03*
X132750000Y-53337500D03*
%TD*%
D14*
%TO.C,J3*%
X126000000Y-96650000D03*
D15*
X126000000Y-94110000D03*
X126000000Y-91570000D03*
X126000000Y-89030000D03*
%TD*%
D10*
%TO.C,R12*%
X117587500Y-85000000D03*
X119412500Y-85000000D03*
%TD*%
%TO.C,R4*%
X138425500Y-95500000D03*
X140250500Y-95500000D03*
%TD*%
D24*
%TO.C,LED1*%
X146500000Y-77540000D03*
D18*
X146500000Y-75000000D03*
X146500000Y-72460000D03*
%TD*%
D14*
%TO.C,J4*%
X119000000Y-54000000D03*
D15*
X119000000Y-56540000D03*
X119000000Y-59080000D03*
X119000000Y-61620000D03*
%TD*%
D20*
%TO.C,C4*%
X134500000Y-53112500D03*
X134500000Y-55187500D03*
%TD*%
D13*
%TO.C,R11*%
X119912500Y-67250000D03*
X118087500Y-67250000D03*
%TD*%
D25*
%TO.C,C2*%
X134800000Y-66987500D03*
X134800000Y-68712500D03*
%TD*%
D26*
%TO.C,U3*%
X131932070Y-74027728D03*
X131366384Y-73462043D03*
X130800699Y-72896357D03*
X130235014Y-72330672D03*
X129669328Y-71764986D03*
X129103643Y-71199301D03*
X128537957Y-70633616D03*
X127972272Y-70067930D03*
D27*
X126027728Y-70067930D03*
X125462043Y-70633616D03*
X124896357Y-71199301D03*
X124330672Y-71764986D03*
X123764986Y-72330672D03*
X123199301Y-72896357D03*
X122633616Y-73462043D03*
X122067930Y-74027728D03*
D26*
X122067930Y-75972272D03*
X122633616Y-76537957D03*
X123199301Y-77103643D03*
X123764986Y-77669328D03*
X124330672Y-78235014D03*
X124896357Y-78800699D03*
X125462043Y-79366384D03*
X126027728Y-79932070D03*
D27*
X127972272Y-79932070D03*
X128537957Y-79366384D03*
X129103643Y-78800699D03*
X129669328Y-78235014D03*
X130235014Y-77669328D03*
X130800699Y-77103643D03*
X131366384Y-76537957D03*
X131932070Y-75972272D03*
%TD*%
D10*
%TO.C,JP3*%
X118087500Y-64250000D03*
X119912500Y-64250000D03*
%TD*%
D14*
%TO.C,J7*%
X111000000Y-96650000D03*
D15*
X111000000Y-94110000D03*
X111000000Y-91570000D03*
X111000000Y-89030000D03*
%TD*%
D14*
%TO.C,TH2*%
X126500000Y-54000000D03*
D15*
X126500000Y-56540000D03*
%TD*%
D11*
%TO.C,JP6*%
X106500000Y-53000000D03*
X106500000Y-54825000D03*
X106500000Y-56650000D03*
%TD*%
D28*
%TO.C,U1*%
X139225000Y-92655000D03*
X139225000Y-91385000D03*
X139225000Y-90115000D03*
X139225000Y-88845000D03*
X134275000Y-88845000D03*
X134275000Y-90115000D03*
X134275000Y-91385000D03*
X134275000Y-92655000D03*
%TD*%
D29*
%TO.C,Y1*%
X138000000Y-67200000D03*
X138000000Y-72000000D03*
%TD*%
D10*
%TO.C,C8*%
X129337500Y-57250000D03*
X131162500Y-57250000D03*
%TD*%
%TO.C,R10*%
X118087500Y-65750000D03*
X119912500Y-65750000D03*
%TD*%
D23*
%TO.C,FB1*%
X136250000Y-55162500D03*
X136250000Y-53337500D03*
%TD*%
D10*
%TO.C,R13*%
X117587500Y-86500000D03*
X119412500Y-86500000D03*
%TD*%
D23*
%TO.C,R7*%
X126300000Y-67912500D03*
X126300000Y-66087500D03*
%TD*%
D10*
%TO.C,R2*%
X141487500Y-73060000D03*
X143312500Y-73060000D03*
%TD*%
D14*
%TO.C,J9*%
X104000000Y-96540000D03*
D15*
X104000000Y-94000000D03*
X104000000Y-91460000D03*
X104000000Y-88920000D03*
%TD*%
D30*
%TO.C,F1*%
X137950000Y-57250000D03*
X141050000Y-57250000D03*
%TD*%
D10*
%TO.C,R5*%
X138425500Y-97000000D03*
X140250500Y-97000000D03*
%TD*%
%TO.C,R3*%
X141487500Y-78260000D03*
X143312500Y-78260000D03*
%TD*%
D14*
%TO.C,J10*%
X101250000Y-77540000D03*
D15*
X103790000Y-77540000D03*
X101250000Y-75000000D03*
X103790000Y-75000000D03*
X101250000Y-72460000D03*
X103790000Y-72460000D03*
%TD*%
M02*
