%TF.GenerationSoftware,KiCad,Pcbnew,10.0.6*%
%TF.CreationDate,2026-09-24T12:55:53-05:00*%
%TF.ProjectId,SensorPack_v1,53656e73-6f72-4506-9163-6b5f76312e6b,rev?*%
%TF.SameCoordinates,Original*%
%TF.FileFunction,Soldermask,Bot*%
%TF.FilePolarity,Negative*%
%FSLAX46Y46*%
G04 Gerber Fmt 4.6, Leading zero omitted, Abs format (unit mm)*
G04 Created by KiCad (PCBNEW 10.0.6) date 2026-09-24 12:55:53*
%MOMM*%
%LPD*%
G01*
G04 APERTURE LIST*
%ADD10R,1.700000X1.700000*%
%ADD11C,1.700000*%
%ADD12C,1.800000*%
%ADD13R,1.800000X1.800000*%
G04 APERTURE END LIST*
D10*
%TO.C,J8*%
X104000000Y-54000000D03*
D11*
X104000000Y-56540000D03*
X104000000Y-59080000D03*
X104000000Y-61620000D03*
X104000000Y-64160000D03*
X104000000Y-66700000D03*
%TD*%
D10*
%TO.C,J5*%
X118500000Y-96650000D03*
D11*
X118500000Y-94110000D03*
X118500000Y-91570000D03*
X118500000Y-89030000D03*
%TD*%
D12*
%TO.C,J2*%
X146732233Y-88232233D03*
X146732233Y-91767767D03*
X150267767Y-91767767D03*
X150267767Y-88232233D03*
X148500000Y-90000000D03*
%TD*%
%TO.C,J1*%
X146732233Y-58232233D03*
X146732233Y-61767767D03*
X150267767Y-61767767D03*
X150267767Y-58232233D03*
X148500000Y-60000000D03*
%TD*%
D10*
%TO.C,J6*%
X111500000Y-54000000D03*
D11*
X111500000Y-56540000D03*
X111500000Y-59080000D03*
X111500000Y-61620000D03*
%TD*%
D10*
%TO.C,J3*%
X126000000Y-96650000D03*
D11*
X126000000Y-94110000D03*
X126000000Y-91570000D03*
X126000000Y-89030000D03*
%TD*%
D13*
%TO.C,LED1*%
X146500000Y-77540000D03*
D12*
X146500000Y-75000000D03*
X146500000Y-72460000D03*
%TD*%
D10*
%TO.C,J4*%
X119000000Y-54000000D03*
D11*
X119000000Y-56540000D03*
X119000000Y-59080000D03*
X119000000Y-61620000D03*
%TD*%
D10*
%TO.C,J7*%
X111000000Y-96650000D03*
D11*
X111000000Y-94110000D03*
X111000000Y-91570000D03*
X111000000Y-89030000D03*
%TD*%
D10*
%TO.C,TH2*%
X126500000Y-54000000D03*
D11*
X126500000Y-56540000D03*
%TD*%
D10*
%TO.C,J9*%
X104000000Y-96540000D03*
D11*
X104000000Y-94000000D03*
X104000000Y-91460000D03*
X104000000Y-88920000D03*
%TD*%
D10*
%TO.C,J10*%
X101250000Y-77540000D03*
D11*
X103790000Y-77540000D03*
X101250000Y-75000000D03*
X103790000Y-75000000D03*
X101250000Y-72460000D03*
X103790000Y-72460000D03*
%TD*%
M02*
