%TF.GenerationSoftware,KiCad,Pcbnew,10.0.6*%
%TF.CreationDate,2026-09-24T12:55:53-05:00*%
%TF.ProjectId,SensorPack_v1,53656e73-6f72-4506-9163-6b5f76312e6b,rev?*%
%TF.SameCoordinates,Original*%
%TF.FileFunction,Copper,L2,Inr*%
%TF.FilePolarity,Positive*%
%FSLAX46Y46*%
G04 Gerber Fmt 4.6, Leading zero omitted, Abs format (unit mm)*
G04 Created by KiCad (PCBNEW 10.0.6) date 2026-09-24 12:55:53*
%MOMM*%
%LPD*%
G01*
G04 APERTURE LIST*
%TA.AperFunction,ComponentPad*%
%ADD10R,1.700000X1.700000*%
%TD*%
%TA.AperFunction,ComponentPad*%
%ADD11C,1.700000*%
%TD*%
%TA.AperFunction,ComponentPad*%
%ADD12C,1.800000*%
%TD*%
%TA.AperFunction,ComponentPad*%
%ADD13R,1.800000X1.800000*%
%TD*%
%TA.AperFunction,ViaPad*%
%ADD14C,0.600000*%
%TD*%
G04 APERTURE END LIST*
D10*
%TO.N,Net-(J8-Pin_1)*%
%TO.C,J8*%
X104000000Y-54000000D03*
D11*
%TO.N,GND*%
X104000000Y-56540000D03*
%TO.N,/SPI1_CS1*%
X104000000Y-59080000D03*
%TO.N,/SPI1_SCK*%
X104000000Y-61620000D03*
%TO.N,/SPI1_MISO*%
X104000000Y-64160000D03*
%TO.N,/SPI1_MOSI*%
X104000000Y-66700000D03*
%TD*%
D10*
%TO.N,Net-(J5-Pin_1)*%
%TO.C,J5*%
X118500000Y-96650000D03*
D11*
%TO.N,GND*%
X118500000Y-94110000D03*
%TO.N,/I2C2_SDA1*%
X118500000Y-91570000D03*
%TO.N,/I2C2_SCL1*%
X118500000Y-89030000D03*
%TD*%
D12*
%TO.N,+5Vin*%
%TO.C,J2*%
X146732233Y-88232233D03*
%TO.N,/CANH*%
X146732233Y-91767767D03*
%TO.N,GND*%
X150267767Y-91767767D03*
%TO.N,/CANL*%
X150267767Y-88232233D03*
%TO.N,unconnected-(J2-Pin_5-Pad5)*%
X148500000Y-90000000D03*
%TD*%
%TO.N,+5Vin*%
%TO.C,J1*%
X146732233Y-58232233D03*
%TO.N,/CANH*%
X146732233Y-61767767D03*
%TO.N,GND*%
X150267767Y-61767767D03*
%TO.N,/CANL*%
X150267767Y-58232233D03*
%TO.N,unconnected-(J1-Pin_5-Pad5)*%
X148500000Y-60000000D03*
%TD*%
D10*
%TO.N,+5V*%
%TO.C,J6*%
X111500000Y-54000000D03*
D11*
%TO.N,+3V3*%
X111500000Y-56540000D03*
%TO.N,GND*%
X111500000Y-59080000D03*
%TO.N,Net-(J6-Pin_4)*%
X111500000Y-61620000D03*
%TD*%
D10*
%TO.N,Net-(J3-Pin_1)*%
%TO.C,J3*%
X126000000Y-96650000D03*
D11*
%TO.N,GND*%
X126000000Y-94110000D03*
%TO.N,/I2C2_SDA2*%
X126000000Y-91570000D03*
%TO.N,/I2C2_SCL2*%
X126000000Y-89030000D03*
%TD*%
D13*
%TO.N,Net-(LED1-K1)*%
%TO.C,LED1*%
X146500000Y-77540000D03*
D12*
%TO.N,+5V*%
X146500000Y-75000000D03*
%TO.N,Net-(LED1-K2)*%
X146500000Y-72460000D03*
%TD*%
D10*
%TO.N,+5V*%
%TO.C,J4*%
X119000000Y-54000000D03*
D11*
%TO.N,+3V3*%
X119000000Y-56540000D03*
%TO.N,GND*%
X119000000Y-59080000D03*
%TO.N,Net-(J4-Pin_4)*%
X119000000Y-61620000D03*
%TD*%
D10*
%TO.N,Net-(J7-Pin_1)*%
%TO.C,J7*%
X111000000Y-96650000D03*
D11*
%TO.N,GND*%
X111000000Y-94110000D03*
%TO.N,/I2C1_SDA*%
X111000000Y-91570000D03*
%TO.N,/I2C1_SCL*%
X111000000Y-89030000D03*
%TD*%
D10*
%TO.N,+3V3*%
%TO.C,TH2*%
X126500000Y-54000000D03*
D11*
%TO.N,/VNTC1*%
X126500000Y-56540000D03*
%TD*%
D10*
%TO.N,GND*%
%TO.C,J9*%
X104000000Y-96540000D03*
D11*
%TO.N,/USART2_RX*%
X104000000Y-94000000D03*
%TO.N,/USART2_CK*%
X104000000Y-91460000D03*
%TO.N,/USART2_TX*%
X104000000Y-88920000D03*
%TD*%
D10*
%TO.N,/SWDIO*%
%TO.C,J10*%
X101250000Y-77540000D03*
D11*
%TO.N,/SWCLK*%
X103790000Y-77540000D03*
%TO.N,/NRST*%
X101250000Y-75000000D03*
%TO.N,+3V3*%
X103790000Y-75000000D03*
%TO.N,GND*%
X101250000Y-72460000D03*
X103790000Y-72460000D03*
%TD*%
D14*
%TO.N,+3V3*%
X110087500Y-85750000D03*
X113500000Y-98300000D03*
X128500000Y-98300000D03*
X121000000Y-98300000D03*
X131200000Y-56400000D03*
X131283000Y-71282800D03*
X127800000Y-65200000D03*
X117587500Y-85750000D03*
X105000000Y-75000000D03*
X125087500Y-85750000D03*
X131800000Y-64000000D03*
X132955000Y-88845000D03*
X140700000Y-78260000D03*
%TO.N,+5V*%
X137662000Y-89527500D03*
X128500000Y-93000000D03*
X113500000Y-93000000D03*
X121000000Y-93000000D03*
X137000000Y-52750000D03*
%TO.N,GND*%
X127000000Y-78592100D03*
X133800000Y-67000000D03*
X128796000Y-73203900D03*
X123000000Y-55000000D03*
X101000000Y-51000000D03*
X127000000Y-75000000D03*
X134000000Y-76500000D03*
X144300000Y-58700000D03*
X123408000Y-75000000D03*
X134500000Y-56250000D03*
X132750000Y-56250000D03*
X101000000Y-94000000D03*
X151000000Y-79000000D03*
X116000000Y-78000000D03*
X142100000Y-94100000D03*
X102500000Y-71500000D03*
X134750000Y-87150000D03*
X139600000Y-83400000D03*
X152000000Y-99000000D03*
X117000000Y-67250000D03*
X122000000Y-51000000D03*
X146600000Y-70400000D03*
X108200000Y-73000000D03*
X128000000Y-83000000D03*
X101000000Y-86000000D03*
X101000000Y-99000000D03*
X109500000Y-67250000D03*
X133800000Y-94300000D03*
X101000000Y-80000000D03*
X107200000Y-75000000D03*
X140000000Y-69600000D03*
X136600000Y-65400000D03*
X132000000Y-81000000D03*
X132000000Y-61000000D03*
X119000000Y-73000000D03*
X144300000Y-54250000D03*
X125200000Y-66100000D03*
X142500000Y-55700000D03*
X146600000Y-79400000D03*
X142000000Y-51000000D03*
X122000000Y-99000000D03*
X133400000Y-73200000D03*
X129000000Y-91000000D03*
X142000000Y-99000000D03*
X152000000Y-51000000D03*
X140000000Y-73200000D03*
X101000000Y-65000000D03*
X143100000Y-75600000D03*
X131800000Y-67900000D03*
X130250000Y-52000000D03*
X145588000Y-96250000D03*
X134800000Y-69600000D03*
X130592000Y-75000000D03*
X132000000Y-99000000D03*
X132800000Y-69600000D03*
X121000000Y-78000000D03*
X107500000Y-99000000D03*
X140000000Y-66118300D03*
X142500000Y-52800000D03*
X139500000Y-80300000D03*
X125204000Y-73203900D03*
X137750000Y-91350000D03*
X111000000Y-83000000D03*
X122000000Y-91000000D03*
X128796000Y-76796100D03*
X136600000Y-73800000D03*
X151000000Y-70000000D03*
X128300000Y-57250000D03*
X112500000Y-68800000D03*
X116500000Y-83500000D03*
X125204000Y-76796100D03*
X112000000Y-51000000D03*
X130417000Y-71017200D03*
X127000000Y-71407900D03*
X124000000Y-83000000D03*
X144000000Y-65500000D03*
X108500000Y-55300000D03*
X140000000Y-61000000D03*
%TO.N,/NRST*%
X130000000Y-69800000D03*
%TO.N,/SWDIO*%
X125800000Y-81000000D03*
%TO.N,/SWCLK*%
X128200000Y-81200000D03*
%TD*%
%TA.AperFunction,Conductor*%
%TO.N,GND*%
G36*
X102556630Y-72467052D02*
G01*
X102614863Y-72505662D01*
X102642473Y-72566120D01*
X102668317Y-72729293D01*
X102724251Y-72901444D01*
X102724252Y-72901447D01*
X102806432Y-73062731D01*
X102877424Y-73160442D01*
X102877425Y-73160443D01*
X103346329Y-72691538D01*
X103389901Y-72767007D01*
X103482993Y-72860099D01*
X103558460Y-72903670D01*
X103089555Y-73372574D01*
X103187268Y-73443567D01*
X103348552Y-73525747D01*
X103348558Y-73525749D01*
X103451610Y-73559232D01*
X103509286Y-73598669D01*
X103536485Y-73663027D01*
X103524571Y-73731874D01*
X103477327Y-73783350D01*
X103451613Y-73795094D01*
X103309969Y-73841118D01*
X103134594Y-73930476D01*
X103043741Y-73996485D01*
X102975354Y-74046172D01*
X102975352Y-74046174D01*
X102975351Y-74046174D01*
X102836174Y-74185351D01*
X102836174Y-74185352D01*
X102836172Y-74185354D01*
X102786733Y-74253400D01*
X102720476Y-74344594D01*
X102630485Y-74521213D01*
X102582511Y-74572009D01*
X102514690Y-74588804D01*
X102448555Y-74566267D01*
X102409515Y-74521213D01*
X102337170Y-74379228D01*
X102319524Y-74344595D01*
X102203828Y-74185354D01*
X102064646Y-74046172D01*
X101905405Y-73930476D01*
X101730029Y-73841117D01*
X101588387Y-73795094D01*
X101530712Y-73755656D01*
X101503514Y-73691297D01*
X101515429Y-73622450D01*
X101562674Y-73570975D01*
X101588389Y-73559232D01*
X101691441Y-73525749D01*
X101691447Y-73525747D01*
X101852730Y-73443568D01*
X101950442Y-73372574D01*
X101950443Y-73372574D01*
X101481539Y-72903670D01*
X101557007Y-72860099D01*
X101650099Y-72767007D01*
X101693670Y-72691539D01*
X102162574Y-73160443D01*
X102162574Y-73160442D01*
X102233568Y-73062730D01*
X102315747Y-72901447D01*
X102315748Y-72901444D01*
X102371682Y-72729293D01*
X102397527Y-72566120D01*
X102427456Y-72502985D01*
X102486768Y-72466054D01*
X102556630Y-72467052D01*
G37*
%TD.AperFunction*%
%TA.AperFunction,Conductor*%
G36*
X152442539Y-50520185D02*
G01*
X152488294Y-50572989D01*
X152499500Y-50624500D01*
X152499500Y-99375500D01*
X152479815Y-99442539D01*
X152427011Y-99488294D01*
X152375500Y-99499500D01*
X99624500Y-99499500D01*
X99557461Y-99479815D01*
X99511706Y-99427011D01*
X99500500Y-99375500D01*
X99500500Y-98368995D01*
X112799499Y-98368995D01*
X112826418Y-98504322D01*
X112826421Y-98504332D01*
X112879221Y-98631804D01*
X112879228Y-98631817D01*
X112955885Y-98746541D01*
X112955888Y-98746545D01*
X113053454Y-98844111D01*
X113053458Y-98844114D01*
X113168182Y-98920771D01*
X113168195Y-98920778D01*
X113295667Y-98973578D01*
X113295672Y-98973580D01*
X113295676Y-98973580D01*
X113295677Y-98973581D01*
X113431004Y-99000500D01*
X113431007Y-99000500D01*
X113568995Y-99000500D01*
X113660041Y-98982389D01*
X113704328Y-98973580D01*
X113831811Y-98920775D01*
X113946542Y-98844114D01*
X114044114Y-98746542D01*
X114120775Y-98631811D01*
X114173580Y-98504328D01*
X114200500Y-98368995D01*
X120299499Y-98368995D01*
X120326418Y-98504322D01*
X120326421Y-98504332D01*
X120379221Y-98631804D01*
X120379228Y-98631817D01*
X120455885Y-98746541D01*
X120455888Y-98746545D01*
X120553454Y-98844111D01*
X120553458Y-98844114D01*
X120668182Y-98920771D01*
X120668195Y-98920778D01*
X120795667Y-98973578D01*
X120795672Y-98973580D01*
X120795676Y-98973580D01*
X120795677Y-98973581D01*
X120931004Y-99000500D01*
X120931007Y-99000500D01*
X121068995Y-99000500D01*
X121160041Y-98982389D01*
X121204328Y-98973580D01*
X121331811Y-98920775D01*
X121446542Y-98844114D01*
X121544114Y-98746542D01*
X121620775Y-98631811D01*
X121673580Y-98504328D01*
X121700500Y-98368995D01*
X127799499Y-98368995D01*
X127826418Y-98504322D01*
X127826421Y-98504332D01*
X127879221Y-98631804D01*
X127879228Y-98631817D01*
X127955885Y-98746541D01*
X127955888Y-98746545D01*
X128053454Y-98844111D01*
X128053458Y-98844114D01*
X128168182Y-98920771D01*
X128168195Y-98920778D01*
X128295667Y-98973578D01*
X128295672Y-98973580D01*
X128295676Y-98973580D01*
X128295677Y-98973581D01*
X128431004Y-99000500D01*
X128431007Y-99000500D01*
X128568995Y-99000500D01*
X128660041Y-98982389D01*
X128704328Y-98973580D01*
X128831811Y-98920775D01*
X128946542Y-98844114D01*
X129044114Y-98746542D01*
X129120775Y-98631811D01*
X129173580Y-98504328D01*
X129200500Y-98368993D01*
X129200500Y-98231007D01*
X129200500Y-98231004D01*
X129173581Y-98095677D01*
X129173580Y-98095676D01*
X129173580Y-98095672D01*
X129173578Y-98095667D01*
X129120778Y-97968195D01*
X129120771Y-97968182D01*
X129044114Y-97853458D01*
X129044111Y-97853454D01*
X128946545Y-97755888D01*
X128946541Y-97755885D01*
X128831817Y-97679228D01*
X128831804Y-97679221D01*
X128704332Y-97626421D01*
X128704322Y-97626418D01*
X128568995Y-97599500D01*
X128568993Y-97599500D01*
X128431007Y-97599500D01*
X128431005Y-97599500D01*
X128295677Y-97626418D01*
X128295667Y-97626421D01*
X128168195Y-97679221D01*
X128168182Y-97679228D01*
X128053458Y-97755885D01*
X128053454Y-97755888D01*
X127955888Y-97853454D01*
X127955885Y-97853458D01*
X127879228Y-97968182D01*
X127879221Y-97968195D01*
X127826421Y-98095667D01*
X127826418Y-98095677D01*
X127799500Y-98231004D01*
X127799500Y-98231007D01*
X127799500Y-98368993D01*
X127799500Y-98368995D01*
X127799499Y-98368995D01*
X121700500Y-98368995D01*
X121700500Y-98368993D01*
X121700500Y-98231007D01*
X121700500Y-98231004D01*
X121673581Y-98095677D01*
X121673580Y-98095676D01*
X121673580Y-98095672D01*
X121673578Y-98095667D01*
X121620778Y-97968195D01*
X121620771Y-97968182D01*
X121544114Y-97853458D01*
X121544111Y-97853454D01*
X121446545Y-97755888D01*
X121446541Y-97755885D01*
X121331817Y-97679228D01*
X121331804Y-97679221D01*
X121204332Y-97626421D01*
X121204322Y-97626418D01*
X121068995Y-97599500D01*
X121068993Y-97599500D01*
X120931007Y-97599500D01*
X120931005Y-97599500D01*
X120795677Y-97626418D01*
X120795667Y-97626421D01*
X120668195Y-97679221D01*
X120668182Y-97679228D01*
X120553458Y-97755885D01*
X120553454Y-97755888D01*
X120455888Y-97853454D01*
X120455885Y-97853458D01*
X120379228Y-97968182D01*
X120379221Y-97968195D01*
X120326421Y-98095667D01*
X120326418Y-98095677D01*
X120299500Y-98231004D01*
X120299500Y-98231007D01*
X120299500Y-98368993D01*
X120299500Y-98368995D01*
X120299499Y-98368995D01*
X114200500Y-98368995D01*
X114200500Y-98368993D01*
X114200500Y-98231007D01*
X114200500Y-98231004D01*
X114173581Y-98095677D01*
X114173580Y-98095676D01*
X114173580Y-98095672D01*
X114173578Y-98095667D01*
X114120778Y-97968195D01*
X114120771Y-97968182D01*
X114044114Y-97853458D01*
X114044111Y-97853454D01*
X113946545Y-97755888D01*
X113946541Y-97755885D01*
X113831817Y-97679228D01*
X113831804Y-97679221D01*
X113704332Y-97626421D01*
X113704322Y-97626418D01*
X113568995Y-97599500D01*
X113568993Y-97599500D01*
X113431007Y-97599500D01*
X113431005Y-97599500D01*
X113295677Y-97626418D01*
X113295667Y-97626421D01*
X113168195Y-97679221D01*
X113168182Y-97679228D01*
X113053458Y-97755885D01*
X113053454Y-97755888D01*
X112955888Y-97853454D01*
X112955885Y-97853458D01*
X112879228Y-97968182D01*
X112879221Y-97968195D01*
X112826421Y-98095667D01*
X112826418Y-98095677D01*
X112799500Y-98231004D01*
X112799500Y-98231007D01*
X112799500Y-98368993D01*
X112799500Y-98368995D01*
X112799499Y-98368995D01*
X99500500Y-98368995D01*
X99500500Y-88821577D01*
X102749500Y-88821577D01*
X102749500Y-89018422D01*
X102780290Y-89212826D01*
X102841117Y-89400029D01*
X102915239Y-89545500D01*
X102930476Y-89575405D01*
X103046172Y-89734646D01*
X103185354Y-89873828D01*
X103344595Y-89989524D01*
X103467992Y-90052397D01*
X103521213Y-90079515D01*
X103572009Y-90127489D01*
X103588804Y-90195310D01*
X103566267Y-90261445D01*
X103521213Y-90300485D01*
X103344594Y-90390476D01*
X103253741Y-90456485D01*
X103185354Y-90506172D01*
X103185352Y-90506174D01*
X103185351Y-90506174D01*
X103046174Y-90645351D01*
X103046174Y-90645352D01*
X103046172Y-90645354D01*
X102996485Y-90713741D01*
X102930476Y-90804594D01*
X102841117Y-90979970D01*
X102780290Y-91167173D01*
X102749500Y-91361577D01*
X102749500Y-91558422D01*
X102780290Y-91752826D01*
X102841117Y-91940029D01*
X102930476Y-92115405D01*
X103046172Y-92274646D01*
X103185354Y-92413828D01*
X103344595Y-92529524D01*
X103467992Y-92592397D01*
X103521213Y-92619515D01*
X103572009Y-92667489D01*
X103588804Y-92735310D01*
X103566267Y-92801445D01*
X103521213Y-92840485D01*
X103344594Y-92930476D01*
X103286084Y-92972987D01*
X103185354Y-93046172D01*
X103185352Y-93046174D01*
X103185351Y-93046174D01*
X103046174Y-93185351D01*
X103046174Y-93185352D01*
X103046172Y-93185354D01*
X103037403Y-93197424D01*
X102930476Y-93344594D01*
X102841117Y-93519970D01*
X102780290Y-93707173D01*
X102749500Y-93901577D01*
X102749500Y-94098422D01*
X102780290Y-94292826D01*
X102841117Y-94480029D01*
X102889979Y-94575925D01*
X102930476Y-94655405D01*
X103046172Y-94814646D01*
X103185354Y-94953828D01*
X103279974Y-95022574D01*
X103344596Y-95069525D01*
X103513363Y-95155515D01*
X103564160Y-95203489D01*
X103580955Y-95271310D01*
X103558418Y-95337445D01*
X103503703Y-95380897D01*
X103457069Y-95390000D01*
X103105214Y-95390000D01*
X103105191Y-95390002D01*
X103080130Y-95392908D01*
X103080126Y-95392909D01*
X102977525Y-95438211D01*
X102977520Y-95438214D01*
X102898214Y-95517520D01*
X102898211Y-95517525D01*
X102852910Y-95620122D01*
X102852910Y-95620124D01*
X102850000Y-95645205D01*
X102850000Y-96390000D01*
X103522555Y-96390000D01*
X103500000Y-96474174D01*
X103500000Y-96605826D01*
X103522555Y-96690000D01*
X102850001Y-96690000D01*
X102850001Y-97434785D01*
X102850002Y-97434808D01*
X102852908Y-97459869D01*
X102852909Y-97459873D01*
X102898211Y-97562474D01*
X102898214Y-97562479D01*
X102977520Y-97641785D01*
X102977525Y-97641788D01*
X103080123Y-97687089D01*
X103105206Y-97689999D01*
X103849999Y-97689999D01*
X103850000Y-97689998D01*
X103850000Y-97017445D01*
X103934174Y-97040000D01*
X104065826Y-97040000D01*
X104150000Y-97017445D01*
X104150000Y-97689999D01*
X104894786Y-97689999D01*
X104894808Y-97689997D01*
X104919869Y-97687091D01*
X104919873Y-97687090D01*
X105022474Y-97641788D01*
X105022479Y-97641785D01*
X105101785Y-97562479D01*
X105101788Y-97562474D01*
X105147089Y-97459877D01*
X105147089Y-97459875D01*
X105149999Y-97434794D01*
X105150000Y-97434791D01*
X105150000Y-96690000D01*
X104477445Y-96690000D01*
X104500000Y-96605826D01*
X104500000Y-96474174D01*
X104477445Y-96390000D01*
X105149999Y-96390000D01*
X105149999Y-95645214D01*
X105149997Y-95645191D01*
X105147091Y-95620130D01*
X105147090Y-95620126D01*
X105101788Y-95517525D01*
X105101785Y-95517520D01*
X105022479Y-95438214D01*
X105022474Y-95438211D01*
X104919876Y-95392910D01*
X104894794Y-95390000D01*
X104542931Y-95390000D01*
X104475892Y-95370315D01*
X104430137Y-95317511D01*
X104420193Y-95248353D01*
X104449218Y-95184797D01*
X104486637Y-95155515D01*
X104655403Y-95069525D01*
X104655402Y-95069525D01*
X104655405Y-95069524D01*
X104814646Y-94953828D01*
X104953828Y-94814646D01*
X105069524Y-94655405D01*
X105158884Y-94480025D01*
X105219709Y-94292826D01*
X105238240Y-94175826D01*
X105250500Y-94098422D01*
X105250500Y-93901577D01*
X105219709Y-93707173D01*
X105158882Y-93519970D01*
X105102623Y-93409556D01*
X105069524Y-93344595D01*
X104953828Y-93185354D01*
X104814646Y-93046172D01*
X104713913Y-92972985D01*
X104655403Y-92930474D01*
X104478787Y-92840485D01*
X104427990Y-92792511D01*
X104411195Y-92724690D01*
X104433732Y-92658555D01*
X104478787Y-92619515D01*
X104655403Y-92529525D01*
X104655402Y-92529525D01*
X104655405Y-92529524D01*
X104814646Y-92413828D01*
X104953828Y-92274646D01*
X105069524Y-92115405D01*
X105158884Y-91940025D01*
X105219709Y-91752826D01*
X105250500Y-91558422D01*
X105250500Y-91361577D01*
X105219709Y-91167173D01*
X105162780Y-90991966D01*
X105158884Y-90979975D01*
X105158882Y-90979972D01*
X105158882Y-90979970D01*
X105069523Y-90804594D01*
X104953828Y-90645354D01*
X104814646Y-90506172D01*
X104735025Y-90448324D01*
X104655403Y-90390474D01*
X104478787Y-90300485D01*
X104427990Y-90252511D01*
X104411195Y-90184690D01*
X104433732Y-90118555D01*
X104478787Y-90079515D01*
X104655403Y-89989525D01*
X104655402Y-89989525D01*
X104655405Y-89989524D01*
X104814646Y-89873828D01*
X104953828Y-89734646D01*
X105069524Y-89575405D01*
X105158884Y-89400025D01*
X105219709Y-89212826D01*
X105240595Y-89080958D01*
X105250500Y-89018422D01*
X105250500Y-88931577D01*
X109749500Y-88931577D01*
X109749500Y-89128422D01*
X109780290Y-89322826D01*
X109841117Y-89510029D01*
X109930476Y-89685405D01*
X110046172Y-89844646D01*
X110185354Y-89983828D01*
X110344595Y-90099524D01*
X110381946Y-90118555D01*
X110521213Y-90189515D01*
X110572009Y-90237489D01*
X110588804Y-90305310D01*
X110566267Y-90371445D01*
X110521213Y-90410485D01*
X110344594Y-90500476D01*
X110291325Y-90539179D01*
X110185354Y-90616172D01*
X110185352Y-90616174D01*
X110185351Y-90616174D01*
X110046174Y-90755351D01*
X110046174Y-90755352D01*
X110046172Y-90755354D01*
X110010397Y-90804594D01*
X109930476Y-90914594D01*
X109841117Y-91089970D01*
X109780290Y-91277173D01*
X109749500Y-91471577D01*
X109749500Y-91668422D01*
X109780290Y-91862826D01*
X109841117Y-92050029D01*
X109930476Y-92225405D01*
X110046172Y-92384646D01*
X110185354Y-92523828D01*
X110344595Y-92639524D01*
X110423463Y-92679709D01*
X110519970Y-92728882D01*
X110519972Y-92728882D01*
X110519975Y-92728884D01*
X110637171Y-92766963D01*
X110661612Y-92774905D01*
X110719287Y-92814343D01*
X110746485Y-92878702D01*
X110734570Y-92947548D01*
X110687326Y-92999024D01*
X110661611Y-93010767D01*
X110558555Y-93044251D01*
X110558552Y-93044252D01*
X110397265Y-93126434D01*
X110299556Y-93197423D01*
X110299556Y-93197425D01*
X110768461Y-93666329D01*
X110692993Y-93709901D01*
X110599901Y-93802993D01*
X110556329Y-93878460D01*
X110087425Y-93409556D01*
X110087423Y-93409556D01*
X110016434Y-93507265D01*
X109934252Y-93668552D01*
X109934251Y-93668555D01*
X109878317Y-93840706D01*
X109850000Y-94019493D01*
X109850000Y-94200506D01*
X109878317Y-94379293D01*
X109934251Y-94551444D01*
X109934252Y-94551447D01*
X110016432Y-94712731D01*
X110087424Y-94810442D01*
X110087425Y-94810443D01*
X110556329Y-94341538D01*
X110599901Y-94417007D01*
X110692993Y-94510099D01*
X110768460Y-94553670D01*
X110299555Y-95022574D01*
X110397268Y-95093567D01*
X110537491Y-95165015D01*
X110588287Y-95212990D01*
X110605082Y-95280811D01*
X110582544Y-95346946D01*
X110527829Y-95390397D01*
X110481196Y-95399500D01*
X110118482Y-95399500D01*
X110037519Y-95412323D01*
X110024696Y-95414354D01*
X109911658Y-95471950D01*
X109911657Y-95471951D01*
X109911652Y-95471954D01*
X109821954Y-95561652D01*
X109821951Y-95561657D01*
X109764352Y-95674698D01*
X109749500Y-95768475D01*
X109749500Y-97531517D01*
X109754404Y-97562479D01*
X109764354Y-97625304D01*
X109821950Y-97738342D01*
X109821952Y-97738344D01*
X109821954Y-97738347D01*
X109911652Y-97828045D01*
X109911654Y-97828046D01*
X109911658Y-97828050D01*
X110024694Y-97885645D01*
X110024698Y-97885647D01*
X110118475Y-97900499D01*
X110118481Y-97900500D01*
X111881518Y-97900499D01*
X111975304Y-97885646D01*
X112088342Y-97828050D01*
X112178050Y-97738342D01*
X112235646Y-97625304D01*
X112235646Y-97625302D01*
X112235647Y-97625301D01*
X112250499Y-97531524D01*
X112250500Y-97531519D01*
X112250499Y-95768482D01*
X112235646Y-95674696D01*
X112178050Y-95561658D01*
X112178046Y-95561654D01*
X112178045Y-95561652D01*
X112088347Y-95471954D01*
X112088344Y-95471952D01*
X112088342Y-95471950D01*
X112011517Y-95432805D01*
X111975301Y-95414352D01*
X111881524Y-95399500D01*
X111518804Y-95399500D01*
X111451765Y-95379815D01*
X111406010Y-95327011D01*
X111396066Y-95257853D01*
X111425091Y-95194297D01*
X111462509Y-95165015D01*
X111602730Y-95093568D01*
X111700442Y-95022574D01*
X111700443Y-95022574D01*
X111231539Y-94553670D01*
X111307007Y-94510099D01*
X111400099Y-94417007D01*
X111443670Y-94341539D01*
X111912574Y-94810443D01*
X111912574Y-94810442D01*
X111983568Y-94712730D01*
X112065747Y-94551447D01*
X112065748Y-94551444D01*
X112121682Y-94379293D01*
X112150000Y-94200506D01*
X112150000Y-94019493D01*
X112121682Y-93840706D01*
X112065748Y-93668555D01*
X112065747Y-93668552D01*
X111983567Y-93507268D01*
X111912574Y-93409556D01*
X111912574Y-93409555D01*
X111443670Y-93878460D01*
X111400099Y-93802993D01*
X111307007Y-93709901D01*
X111231539Y-93666329D01*
X111700443Y-93197425D01*
X111700442Y-93197424D01*
X111602731Y-93126432D01*
X111490005Y-93068995D01*
X112799499Y-93068995D01*
X112826418Y-93204322D01*
X112826421Y-93204332D01*
X112879221Y-93331804D01*
X112879228Y-93331817D01*
X112955885Y-93446541D01*
X112955888Y-93446545D01*
X113053454Y-93544111D01*
X113053458Y-93544114D01*
X113168182Y-93620771D01*
X113168195Y-93620778D01*
X113295667Y-93673578D01*
X113295672Y-93673580D01*
X113295676Y-93673580D01*
X113295677Y-93673581D01*
X113431004Y-93700500D01*
X113431007Y-93700500D01*
X113568995Y-93700500D01*
X113660041Y-93682389D01*
X113704328Y-93673580D01*
X113831811Y-93620775D01*
X113946542Y-93544114D01*
X114044114Y-93446542D01*
X114120775Y-93331811D01*
X114173580Y-93204328D01*
X114200500Y-93068993D01*
X114200500Y-92931007D01*
X114200500Y-92931004D01*
X114173581Y-92795677D01*
X114173580Y-92795676D01*
X114173580Y-92795672D01*
X114154455Y-92749500D01*
X114120778Y-92668195D01*
X114120771Y-92668182D01*
X114044114Y-92553457D01*
X113946545Y-92455888D01*
X113946541Y-92455885D01*
X113831817Y-92379228D01*
X113831804Y-92379221D01*
X113704332Y-92326421D01*
X113704322Y-92326418D01*
X113568995Y-92299500D01*
X113568993Y-92299500D01*
X113431007Y-92299500D01*
X113431005Y-92299500D01*
X113295677Y-92326418D01*
X113295667Y-92326421D01*
X113168195Y-92379221D01*
X113168182Y-92379228D01*
X113053458Y-92455885D01*
X113053454Y-92455888D01*
X112955888Y-92553454D01*
X112955886Y-92553457D01*
X112879228Y-92668182D01*
X112879221Y-92668195D01*
X112826421Y-92795667D01*
X112826418Y-92795677D01*
X112799500Y-92931004D01*
X112799500Y-92931007D01*
X112799500Y-93068993D01*
X112799500Y-93068995D01*
X112799499Y-93068995D01*
X111490005Y-93068995D01*
X111441447Y-93044253D01*
X111437117Y-93042846D01*
X111437117Y-93042845D01*
X111338388Y-93010767D01*
X111280713Y-92971330D01*
X111253514Y-92906971D01*
X111265428Y-92838125D01*
X111312672Y-92786649D01*
X111338385Y-92774905D01*
X111480025Y-92728884D01*
X111655405Y-92639524D01*
X111814646Y-92523828D01*
X111953828Y-92384646D01*
X112069524Y-92225405D01*
X112158884Y-92050025D01*
X112219709Y-91862826D01*
X112224339Y-91833593D01*
X112250500Y-91668422D01*
X112250500Y-91471577D01*
X112219709Y-91277173D01*
X112183967Y-91167173D01*
X112158884Y-91089975D01*
X112158882Y-91089972D01*
X112158882Y-91089970D01*
X112105917Y-90986020D01*
X112069524Y-90914595D01*
X111953828Y-90755354D01*
X111814646Y-90616172D01*
X111708675Y-90539179D01*
X111655403Y-90500474D01*
X111478787Y-90410485D01*
X111427990Y-90362511D01*
X111411195Y-90294690D01*
X111433732Y-90228555D01*
X111478787Y-90189515D01*
X111655403Y-90099525D01*
X111655402Y-90099525D01*
X111655405Y-90099524D01*
X111814646Y-89983828D01*
X111953828Y-89844646D01*
X112069524Y-89685405D01*
X112158884Y-89510025D01*
X112219709Y-89322826D01*
X112235330Y-89224199D01*
X112250500Y-89128422D01*
X112250500Y-88931577D01*
X117249500Y-88931577D01*
X117249500Y-89128422D01*
X117280290Y-89322826D01*
X117341117Y-89510029D01*
X117430476Y-89685405D01*
X117546172Y-89844646D01*
X117685354Y-89983828D01*
X117844595Y-90099524D01*
X117881946Y-90118555D01*
X118021213Y-90189515D01*
X118072009Y-90237489D01*
X118088804Y-90305310D01*
X118066267Y-90371445D01*
X118021213Y-90410485D01*
X117844594Y-90500476D01*
X117791325Y-90539179D01*
X117685354Y-90616172D01*
X117685352Y-90616174D01*
X117685351Y-90616174D01*
X117546174Y-90755351D01*
X117546174Y-90755352D01*
X117546172Y-90755354D01*
X117510397Y-90804594D01*
X117430476Y-90914594D01*
X117341117Y-91089970D01*
X117280290Y-91277173D01*
X117249500Y-91471577D01*
X117249500Y-91668422D01*
X117280290Y-91862826D01*
X117341117Y-92050029D01*
X117430476Y-92225405D01*
X117546172Y-92384646D01*
X117685354Y-92523828D01*
X117844595Y-92639524D01*
X117923463Y-92679709D01*
X118019970Y-92728882D01*
X118019972Y-92728882D01*
X118019975Y-92728884D01*
X118137171Y-92766963D01*
X118161612Y-92774905D01*
X118219287Y-92814343D01*
X118246485Y-92878702D01*
X118234570Y-92947548D01*
X118187326Y-92999024D01*
X118161611Y-93010767D01*
X118058555Y-93044251D01*
X118058552Y-93044252D01*
X117897265Y-93126434D01*
X117799556Y-93197423D01*
X117799556Y-93197425D01*
X118268461Y-93666329D01*
X118192993Y-93709901D01*
X118099901Y-93802993D01*
X118056329Y-93878460D01*
X117587425Y-93409556D01*
X117587423Y-93409556D01*
X117516434Y-93507265D01*
X117434252Y-93668552D01*
X117434251Y-93668555D01*
X117378317Y-93840706D01*
X117350000Y-94019493D01*
X117350000Y-94200506D01*
X117378317Y-94379293D01*
X117434251Y-94551444D01*
X117434252Y-94551447D01*
X117516432Y-94712731D01*
X117587424Y-94810442D01*
X117587425Y-94810443D01*
X118056329Y-94341538D01*
X118099901Y-94417007D01*
X118192993Y-94510099D01*
X118268460Y-94553670D01*
X117799555Y-95022574D01*
X117897268Y-95093567D01*
X118037491Y-95165015D01*
X118088287Y-95212990D01*
X118105082Y-95280811D01*
X118082544Y-95346946D01*
X118027829Y-95390397D01*
X117981196Y-95399500D01*
X117618482Y-95399500D01*
X117537519Y-95412323D01*
X117524696Y-95414354D01*
X117411658Y-95471950D01*
X117411657Y-95471951D01*
X117411652Y-95471954D01*
X117321954Y-95561652D01*
X117321951Y-95561657D01*
X117264352Y-95674698D01*
X117249500Y-95768475D01*
X117249500Y-97531517D01*
X117254404Y-97562479D01*
X117264354Y-97625304D01*
X117321950Y-97738342D01*
X117321952Y-97738344D01*
X117321954Y-97738347D01*
X117411652Y-97828045D01*
X117411654Y-97828046D01*
X117411658Y-97828050D01*
X117524694Y-97885645D01*
X117524698Y-97885647D01*
X117618475Y-97900499D01*
X117618481Y-97900500D01*
X119381518Y-97900499D01*
X119475304Y-97885646D01*
X119588342Y-97828050D01*
X119678050Y-97738342D01*
X119735646Y-97625304D01*
X119735646Y-97625302D01*
X119735647Y-97625301D01*
X119750499Y-97531524D01*
X119750500Y-97531519D01*
X119750499Y-95768482D01*
X119735646Y-95674696D01*
X119678050Y-95561658D01*
X119678046Y-95561654D01*
X119678045Y-95561652D01*
X119588347Y-95471954D01*
X119588344Y-95471952D01*
X119588342Y-95471950D01*
X119511517Y-95432805D01*
X119475301Y-95414352D01*
X119381524Y-95399500D01*
X119018804Y-95399500D01*
X118951765Y-95379815D01*
X118906010Y-95327011D01*
X118896066Y-95257853D01*
X118925091Y-95194297D01*
X118962509Y-95165015D01*
X119102730Y-95093568D01*
X119200442Y-95022574D01*
X119200443Y-95022574D01*
X118731539Y-94553670D01*
X118807007Y-94510099D01*
X118900099Y-94417007D01*
X118943670Y-94341538D01*
X119412574Y-94810443D01*
X119412574Y-94810442D01*
X119483568Y-94712730D01*
X119565747Y-94551447D01*
X119565748Y-94551444D01*
X119621682Y-94379293D01*
X119650000Y-94200506D01*
X119650000Y-94019493D01*
X119621682Y-93840706D01*
X119565748Y-93668555D01*
X119565747Y-93668552D01*
X119483567Y-93507268D01*
X119412574Y-93409556D01*
X119412574Y-93409555D01*
X118943670Y-93878460D01*
X118900099Y-93802993D01*
X118807007Y-93709901D01*
X118731539Y-93666329D01*
X119200443Y-93197425D01*
X119200442Y-93197424D01*
X119102731Y-93126432D01*
X118990005Y-93068995D01*
X120299499Y-93068995D01*
X120326418Y-93204322D01*
X120326421Y-93204332D01*
X120379221Y-93331804D01*
X120379228Y-93331817D01*
X120455885Y-93446541D01*
X120455888Y-93446545D01*
X120553454Y-93544111D01*
X120553458Y-93544114D01*
X120668182Y-93620771D01*
X120668195Y-93620778D01*
X120795667Y-93673578D01*
X120795672Y-93673580D01*
X120795676Y-93673580D01*
X120795677Y-93673581D01*
X120931004Y-93700500D01*
X120931007Y-93700500D01*
X121068995Y-93700500D01*
X121160041Y-93682389D01*
X121204328Y-93673580D01*
X121331811Y-93620775D01*
X121446542Y-93544114D01*
X121544114Y-93446542D01*
X121620775Y-93331811D01*
X121673580Y-93204328D01*
X121700500Y-93068993D01*
X121700500Y-92931007D01*
X121700500Y-92931004D01*
X121673581Y-92795677D01*
X121673580Y-92795676D01*
X121673580Y-92795672D01*
X121654455Y-92749500D01*
X121620778Y-92668195D01*
X121620771Y-92668182D01*
X121544114Y-92553457D01*
X121446545Y-92455888D01*
X121446541Y-92455885D01*
X121331817Y-92379228D01*
X121331804Y-92379221D01*
X121204332Y-92326421D01*
X121204322Y-92326418D01*
X121068995Y-92299500D01*
X121068993Y-92299500D01*
X120931007Y-92299500D01*
X120931005Y-92299500D01*
X120795677Y-92326418D01*
X120795667Y-92326421D01*
X120668195Y-92379221D01*
X120668182Y-92379228D01*
X120553458Y-92455885D01*
X120553454Y-92455888D01*
X120455888Y-92553454D01*
X120455886Y-92553457D01*
X120379228Y-92668182D01*
X120379221Y-92668195D01*
X120326421Y-92795667D01*
X120326418Y-92795677D01*
X120299500Y-92931004D01*
X120299500Y-92931007D01*
X120299500Y-93068993D01*
X120299500Y-93068995D01*
X120299499Y-93068995D01*
X118990005Y-93068995D01*
X118941447Y-93044253D01*
X118937117Y-93042846D01*
X118937117Y-93042845D01*
X118838388Y-93010767D01*
X118780713Y-92971330D01*
X118753514Y-92906971D01*
X118765428Y-92838125D01*
X118812672Y-92786649D01*
X118838385Y-92774905D01*
X118980025Y-92728884D01*
X119155405Y-92639524D01*
X119314646Y-92523828D01*
X119453828Y-92384646D01*
X119569524Y-92225405D01*
X119658884Y-92050025D01*
X119719709Y-91862826D01*
X119724339Y-91833593D01*
X119750500Y-91668422D01*
X119750500Y-91471577D01*
X119719709Y-91277173D01*
X119683967Y-91167173D01*
X119658884Y-91089975D01*
X119658882Y-91089972D01*
X119658882Y-91089970D01*
X119605917Y-90986020D01*
X119569524Y-90914595D01*
X119453828Y-90755354D01*
X119314646Y-90616172D01*
X119208675Y-90539179D01*
X119155403Y-90500474D01*
X118978787Y-90410485D01*
X118927990Y-90362511D01*
X118911195Y-90294690D01*
X118933732Y-90228555D01*
X118978787Y-90189515D01*
X119155403Y-90099525D01*
X119155402Y-90099525D01*
X119155405Y-90099524D01*
X119314646Y-89983828D01*
X119453828Y-89844646D01*
X119569524Y-89685405D01*
X119658884Y-89510025D01*
X119719709Y-89322826D01*
X119735330Y-89224199D01*
X119750500Y-89128422D01*
X119750500Y-88931577D01*
X124749500Y-88931577D01*
X124749500Y-89128422D01*
X124780290Y-89322826D01*
X124841117Y-89510029D01*
X124930476Y-89685405D01*
X125046172Y-89844646D01*
X125185354Y-89983828D01*
X125344595Y-90099524D01*
X125381946Y-90118555D01*
X125521213Y-90189515D01*
X125572009Y-90237489D01*
X125588804Y-90305310D01*
X125566267Y-90371445D01*
X125521213Y-90410485D01*
X125344594Y-90500476D01*
X125291325Y-90539179D01*
X125185354Y-90616172D01*
X125185352Y-90616174D01*
X125185351Y-90616174D01*
X125046174Y-90755351D01*
X125046174Y-90755352D01*
X125046172Y-90755354D01*
X125010397Y-90804594D01*
X124930476Y-90914594D01*
X124841117Y-91089970D01*
X124780290Y-91277173D01*
X124749500Y-91471577D01*
X124749500Y-91668422D01*
X124780290Y-91862826D01*
X124841117Y-92050029D01*
X124930476Y-92225405D01*
X125046172Y-92384646D01*
X125185354Y-92523828D01*
X125344595Y-92639524D01*
X125423463Y-92679709D01*
X125519970Y-92728882D01*
X125519972Y-92728882D01*
X125519975Y-92728884D01*
X125637171Y-92766963D01*
X125661612Y-92774905D01*
X125719287Y-92814343D01*
X125746485Y-92878702D01*
X125734570Y-92947548D01*
X125687326Y-92999024D01*
X125661611Y-93010767D01*
X125558555Y-93044251D01*
X125558552Y-93044252D01*
X125397265Y-93126434D01*
X125299556Y-93197423D01*
X125299556Y-93197425D01*
X125768461Y-93666329D01*
X125692993Y-93709901D01*
X125599901Y-93802993D01*
X125556329Y-93878460D01*
X125087425Y-93409556D01*
X125087423Y-93409556D01*
X125016434Y-93507265D01*
X124934252Y-93668552D01*
X124934251Y-93668555D01*
X124878317Y-93840706D01*
X124850000Y-94019493D01*
X124850000Y-94200506D01*
X124878317Y-94379293D01*
X124934251Y-94551444D01*
X124934252Y-94551447D01*
X125016432Y-94712731D01*
X125087424Y-94810442D01*
X125087425Y-94810443D01*
X125556329Y-94341538D01*
X125599901Y-94417007D01*
X125692993Y-94510099D01*
X125768460Y-94553670D01*
X125299555Y-95022574D01*
X125397268Y-95093567D01*
X125537491Y-95165015D01*
X125588287Y-95212990D01*
X125605082Y-95280811D01*
X125582544Y-95346946D01*
X125527829Y-95390397D01*
X125481196Y-95399500D01*
X125118482Y-95399500D01*
X125037519Y-95412323D01*
X125024696Y-95414354D01*
X124911658Y-95471950D01*
X124911657Y-95471951D01*
X124911652Y-95471954D01*
X124821954Y-95561652D01*
X124821951Y-95561657D01*
X124764352Y-95674698D01*
X124749500Y-95768475D01*
X124749500Y-97531517D01*
X124754404Y-97562479D01*
X124764354Y-97625304D01*
X124821950Y-97738342D01*
X124821952Y-97738344D01*
X124821954Y-97738347D01*
X124911652Y-97828045D01*
X124911654Y-97828046D01*
X124911658Y-97828050D01*
X125024694Y-97885645D01*
X125024698Y-97885647D01*
X125118475Y-97900499D01*
X125118481Y-97900500D01*
X126881518Y-97900499D01*
X126975304Y-97885646D01*
X127088342Y-97828050D01*
X127178050Y-97738342D01*
X127235646Y-97625304D01*
X127235646Y-97625302D01*
X127235647Y-97625301D01*
X127250499Y-97531524D01*
X127250500Y-97531519D01*
X127250499Y-95768482D01*
X127235646Y-95674696D01*
X127178050Y-95561658D01*
X127178046Y-95561654D01*
X127178045Y-95561652D01*
X127088347Y-95471954D01*
X127088344Y-95471952D01*
X127088342Y-95471950D01*
X127011517Y-95432805D01*
X126975301Y-95414352D01*
X126881524Y-95399500D01*
X126518804Y-95399500D01*
X126451765Y-95379815D01*
X126406010Y-95327011D01*
X126396066Y-95257853D01*
X126425091Y-95194297D01*
X126462509Y-95165015D01*
X126602730Y-95093568D01*
X126700442Y-95022574D01*
X126700443Y-95022574D01*
X126231539Y-94553670D01*
X126307007Y-94510099D01*
X126400099Y-94417007D01*
X126443670Y-94341539D01*
X126912574Y-94810443D01*
X126912574Y-94810442D01*
X126983568Y-94712730D01*
X127065747Y-94551447D01*
X127065748Y-94551444D01*
X127121682Y-94379293D01*
X127150000Y-94200506D01*
X127150000Y-94019493D01*
X127121682Y-93840706D01*
X127065748Y-93668555D01*
X127065747Y-93668552D01*
X126983567Y-93507268D01*
X126912574Y-93409556D01*
X126912574Y-93409555D01*
X126443670Y-93878460D01*
X126400099Y-93802993D01*
X126307007Y-93709901D01*
X126231539Y-93666329D01*
X126700443Y-93197425D01*
X126700442Y-93197424D01*
X126602731Y-93126432D01*
X126490005Y-93068995D01*
X127799499Y-93068995D01*
X127826418Y-93204322D01*
X127826421Y-93204332D01*
X127879221Y-93331804D01*
X127879228Y-93331817D01*
X127955885Y-93446541D01*
X127955888Y-93446545D01*
X128053454Y-93544111D01*
X128053458Y-93544114D01*
X128168182Y-93620771D01*
X128168195Y-93620778D01*
X128295667Y-93673578D01*
X128295672Y-93673580D01*
X128295676Y-93673580D01*
X128295677Y-93673581D01*
X128431004Y-93700500D01*
X128431007Y-93700500D01*
X128568995Y-93700500D01*
X128660041Y-93682389D01*
X128704328Y-93673580D01*
X128831811Y-93620775D01*
X128946542Y-93544114D01*
X129044114Y-93446542D01*
X129120775Y-93331811D01*
X129173580Y-93204328D01*
X129200500Y-93068993D01*
X129200500Y-92931007D01*
X129200500Y-92931004D01*
X129173581Y-92795677D01*
X129173580Y-92795676D01*
X129173580Y-92795672D01*
X129154455Y-92749500D01*
X129120778Y-92668195D01*
X129120771Y-92668182D01*
X129044114Y-92553457D01*
X128946545Y-92455888D01*
X128946541Y-92455885D01*
X128831817Y-92379228D01*
X128831804Y-92379221D01*
X128704332Y-92326421D01*
X128704322Y-92326418D01*
X128568995Y-92299500D01*
X128568993Y-92299500D01*
X128431007Y-92299500D01*
X128431005Y-92299500D01*
X128295677Y-92326418D01*
X128295667Y-92326421D01*
X128168195Y-92379221D01*
X128168182Y-92379228D01*
X128053458Y-92455885D01*
X128053454Y-92455888D01*
X127955888Y-92553454D01*
X127955886Y-92553457D01*
X127879228Y-92668182D01*
X127879221Y-92668195D01*
X127826421Y-92795667D01*
X127826418Y-92795677D01*
X127799500Y-92931004D01*
X127799500Y-92931007D01*
X127799500Y-93068993D01*
X127799500Y-93068995D01*
X127799499Y-93068995D01*
X126490005Y-93068995D01*
X126441447Y-93044253D01*
X126437117Y-93042846D01*
X126437117Y-93042845D01*
X126338388Y-93010767D01*
X126280713Y-92971330D01*
X126253514Y-92906971D01*
X126265428Y-92838125D01*
X126312672Y-92786649D01*
X126338385Y-92774905D01*
X126480025Y-92728884D01*
X126655405Y-92639524D01*
X126814646Y-92523828D01*
X126953828Y-92384646D01*
X127069524Y-92225405D01*
X127158884Y-92050025D01*
X127219709Y-91862826D01*
X127224339Y-91833593D01*
X127250500Y-91668422D01*
X127250500Y-91471577D01*
X127219709Y-91277173D01*
X127183967Y-91167173D01*
X127158884Y-91089975D01*
X127158882Y-91089972D01*
X127158882Y-91089970D01*
X127105917Y-90986020D01*
X127069524Y-90914595D01*
X126953828Y-90755354D01*
X126814646Y-90616172D01*
X126708675Y-90539179D01*
X126655403Y-90500474D01*
X126478787Y-90410485D01*
X126427990Y-90362511D01*
X126411195Y-90294690D01*
X126433732Y-90228555D01*
X126478787Y-90189515D01*
X126655403Y-90099525D01*
X126655402Y-90099525D01*
X126655405Y-90099524D01*
X126814646Y-89983828D01*
X126953828Y-89844646D01*
X127069524Y-89685405D01*
X127114826Y-89596495D01*
X136961499Y-89596495D01*
X136988418Y-89731822D01*
X136988421Y-89731832D01*
X137041221Y-89859304D01*
X137041228Y-89859317D01*
X137117885Y-89974041D01*
X137117888Y-89974045D01*
X137215454Y-90071611D01*
X137215458Y-90071614D01*
X137330182Y-90148271D01*
X137330195Y-90148278D01*
X137443742Y-90195310D01*
X137457672Y-90201080D01*
X137457676Y-90201080D01*
X137457677Y-90201081D01*
X137593004Y-90228000D01*
X137593007Y-90228000D01*
X137730995Y-90228000D01*
X137823998Y-90209500D01*
X137866328Y-90201080D01*
X137993811Y-90148275D01*
X138108542Y-90071614D01*
X138206114Y-89974042D01*
X138282775Y-89859311D01*
X138335580Y-89731828D01*
X138362500Y-89596493D01*
X138362500Y-89458507D01*
X138362500Y-89458504D01*
X138335581Y-89323177D01*
X138335580Y-89323176D01*
X138335580Y-89323172D01*
X138322480Y-89291545D01*
X138282778Y-89195695D01*
X138282771Y-89195682D01*
X138206114Y-89080958D01*
X138206111Y-89080954D01*
X138108545Y-88983388D01*
X138108541Y-88983385D01*
X137993817Y-88906728D01*
X137993804Y-88906721D01*
X137866332Y-88853921D01*
X137866322Y-88853918D01*
X137730995Y-88827000D01*
X137730993Y-88827000D01*
X137593007Y-88827000D01*
X137593005Y-88827000D01*
X137457677Y-88853918D01*
X137457667Y-88853921D01*
X137330195Y-88906721D01*
X137330182Y-88906728D01*
X137215458Y-88983385D01*
X137215454Y-88983388D01*
X137117888Y-89080954D01*
X137117885Y-89080958D01*
X137041228Y-89195682D01*
X137041221Y-89195695D01*
X136988421Y-89323167D01*
X136988418Y-89323177D01*
X136961500Y-89458504D01*
X136961500Y-89458507D01*
X136961500Y-89596493D01*
X136961500Y-89596495D01*
X136961499Y-89596495D01*
X127114826Y-89596495D01*
X127158884Y-89510025D01*
X127219709Y-89322826D01*
X127235330Y-89224199D01*
X127250500Y-89128422D01*
X127250500Y-88931577D01*
X127247715Y-88913995D01*
X132254499Y-88913995D01*
X132281418Y-89049322D01*
X132281421Y-89049332D01*
X132334221Y-89176804D01*
X132334228Y-89176817D01*
X132410885Y-89291541D01*
X132410888Y-89291545D01*
X132508454Y-89389111D01*
X132508458Y-89389114D01*
X132623182Y-89465771D01*
X132623195Y-89465778D01*
X132750667Y-89518578D01*
X132750672Y-89518580D01*
X132750676Y-89518580D01*
X132750677Y-89518581D01*
X132886004Y-89545500D01*
X132886007Y-89545500D01*
X133023995Y-89545500D01*
X133115041Y-89527389D01*
X133159328Y-89518580D01*
X133286811Y-89465775D01*
X133401542Y-89389114D01*
X133401545Y-89389111D01*
X133425923Y-89364734D01*
X133499111Y-89291545D01*
X133499114Y-89291542D01*
X133575775Y-89176811D01*
X133628580Y-89049328D01*
X133652001Y-88931583D01*
X133655500Y-88913995D01*
X133655500Y-88776004D01*
X133628581Y-88640677D01*
X133628580Y-88640676D01*
X133628580Y-88640672D01*
X133609168Y-88593807D01*
X133575778Y-88513195D01*
X133575771Y-88513182D01*
X133499114Y-88398458D01*
X133499111Y-88398454D01*
X133401545Y-88300888D01*
X133401541Y-88300885D01*
X133292628Y-88228111D01*
X133286815Y-88224227D01*
X133286804Y-88224221D01*
X133159332Y-88171421D01*
X133159322Y-88171418D01*
X133023995Y-88144500D01*
X133023993Y-88144500D01*
X132886007Y-88144500D01*
X132886005Y-88144500D01*
X132750677Y-88171418D01*
X132750667Y-88171421D01*
X132623195Y-88224221D01*
X132623182Y-88224228D01*
X132508458Y-88300885D01*
X132508454Y-88300888D01*
X132410888Y-88398454D01*
X132410885Y-88398458D01*
X132334228Y-88513182D01*
X132334221Y-88513195D01*
X132281421Y-88640667D01*
X132281418Y-88640677D01*
X132254500Y-88776004D01*
X132254500Y-88776007D01*
X132254500Y-88913993D01*
X132254500Y-88913995D01*
X132254499Y-88913995D01*
X127247715Y-88913995D01*
X127227967Y-88789313D01*
X127225859Y-88776004D01*
X127219709Y-88737174D01*
X127158884Y-88549975D01*
X127158882Y-88549972D01*
X127158882Y-88549970D01*
X127111743Y-88457455D01*
X127069524Y-88374595D01*
X126953828Y-88215354D01*
X126868355Y-88129881D01*
X145431733Y-88129881D01*
X145431733Y-88334584D01*
X145463755Y-88536767D01*
X145527014Y-88731456D01*
X145559280Y-88794780D01*
X145616319Y-88906725D01*
X145619948Y-88913846D01*
X145740261Y-89079446D01*
X145885019Y-89224204D01*
X146039982Y-89336789D01*
X146050623Y-89344520D01*
X146138138Y-89389111D01*
X146233009Y-89437451D01*
X146233011Y-89437451D01*
X146233014Y-89437453D01*
X146337370Y-89471360D01*
X146427698Y-89500710D01*
X146525870Y-89516259D01*
X146629881Y-89532733D01*
X146629882Y-89532733D01*
X146834584Y-89532733D01*
X146834585Y-89532733D01*
X147036767Y-89500710D01*
X147093805Y-89482176D01*
X147163644Y-89480180D01*
X147223478Y-89516259D01*
X147254307Y-89578959D01*
X147250056Y-89638423D01*
X147231523Y-89695464D01*
X147205573Y-89859304D01*
X147199500Y-89897648D01*
X147199500Y-90102352D01*
X147214223Y-90195310D01*
X147231523Y-90304535D01*
X147231524Y-90304542D01*
X147250055Y-90361574D01*
X147252050Y-90431415D01*
X147215969Y-90491247D01*
X147153268Y-90522075D01*
X147093807Y-90517822D01*
X147036775Y-90499291D01*
X147036768Y-90499290D01*
X146935676Y-90483278D01*
X146834585Y-90467267D01*
X146629881Y-90467267D01*
X146605562Y-90471118D01*
X146427698Y-90499289D01*
X146233009Y-90562548D01*
X146050619Y-90655482D01*
X145885019Y-90775795D01*
X145740261Y-90920553D01*
X145619948Y-91086153D01*
X145527014Y-91268543D01*
X145463755Y-91463232D01*
X145431733Y-91665415D01*
X145431733Y-91870118D01*
X145463755Y-92072301D01*
X145527014Y-92266990D01*
X145584200Y-92379221D01*
X145601831Y-92413825D01*
X145619948Y-92449380D01*
X145740261Y-92614980D01*
X145885019Y-92759738D01*
X146039982Y-92872323D01*
X146050623Y-92880054D01*
X146149578Y-92930474D01*
X146233009Y-92972985D01*
X146233011Y-92972985D01*
X146233014Y-92972987D01*
X146313148Y-92999024D01*
X146427698Y-93036244D01*
X146528790Y-93052255D01*
X146629881Y-93068267D01*
X146629882Y-93068267D01*
X146834584Y-93068267D01*
X146834585Y-93068267D01*
X147036767Y-93036244D01*
X147231452Y-92972987D01*
X147413843Y-92880054D01*
X147534337Y-92792511D01*
X147579446Y-92759738D01*
X147579448Y-92759735D01*
X147579452Y-92759733D01*
X147724199Y-92614986D01*
X147724201Y-92614982D01*
X147724204Y-92614980D01*
X147776965Y-92542357D01*
X147844520Y-92449377D01*
X147937453Y-92266986D01*
X148000710Y-92072301D01*
X148032733Y-91870119D01*
X148032733Y-91665415D01*
X148000710Y-91463233D01*
X147982175Y-91406190D01*
X147980180Y-91336353D01*
X148016260Y-91276519D01*
X148078961Y-91245690D01*
X148138423Y-91249942D01*
X148195466Y-91268477D01*
X148397648Y-91300500D01*
X148397649Y-91300500D01*
X148602351Y-91300500D01*
X148602352Y-91300500D01*
X148804534Y-91268477D01*
X148979718Y-91211555D01*
X149049559Y-91209561D01*
X149109392Y-91245641D01*
X149140220Y-91308342D01*
X149135967Y-91367805D01*
X149097315Y-91486762D01*
X149097315Y-91486765D01*
X149076567Y-91617767D01*
X149790322Y-91617767D01*
X149767767Y-91701941D01*
X149767767Y-91833593D01*
X149790322Y-91917767D01*
X149076567Y-91917767D01*
X149097315Y-92048768D01*
X149097315Y-92048771D01*
X149155681Y-92228404D01*
X149241437Y-92396707D01*
X149352452Y-92549508D01*
X149352456Y-92549513D01*
X149486020Y-92683077D01*
X149486025Y-92683081D01*
X149638826Y-92794096D01*
X149807129Y-92879852D01*
X149986763Y-92938218D01*
X150117767Y-92958967D01*
X150117767Y-92245212D01*
X150201941Y-92267767D01*
X150333593Y-92267767D01*
X150417767Y-92245212D01*
X150417767Y-92958966D01*
X150548768Y-92938218D01*
X150548771Y-92938218D01*
X150728404Y-92879852D01*
X150896707Y-92794096D01*
X151049508Y-92683081D01*
X151049513Y-92683077D01*
X151183077Y-92549513D01*
X151183081Y-92549508D01*
X151294096Y-92396707D01*
X151379852Y-92228404D01*
X151438218Y-92048771D01*
X151438218Y-92048768D01*
X151458967Y-91917767D01*
X150745212Y-91917767D01*
X150767767Y-91833593D01*
X150767767Y-91701941D01*
X150745212Y-91617767D01*
X151458967Y-91617767D01*
X151438218Y-91486765D01*
X151438218Y-91486762D01*
X151379852Y-91307129D01*
X151294096Y-91138826D01*
X151183081Y-90986025D01*
X151183077Y-90986020D01*
X151049513Y-90852456D01*
X151049508Y-90852452D01*
X150896707Y-90741437D01*
X150728404Y-90655681D01*
X150548770Y-90597315D01*
X150417767Y-90576565D01*
X150417767Y-91290321D01*
X150333593Y-91267767D01*
X150201941Y-91267767D01*
X150117767Y-91290321D01*
X150117767Y-90576565D01*
X149986764Y-90597315D01*
X149986757Y-90597316D01*
X149867804Y-90635966D01*
X149797963Y-90637961D01*
X149738130Y-90601880D01*
X149707303Y-90539179D01*
X149711555Y-90479719D01*
X149768477Y-90304534D01*
X149800500Y-90102352D01*
X149800500Y-89897648D01*
X149768477Y-89695466D01*
X149749942Y-89638423D01*
X149747947Y-89568586D01*
X149784027Y-89508752D01*
X149846728Y-89477923D01*
X149906190Y-89482175D01*
X149963233Y-89500710D01*
X150165415Y-89532733D01*
X150165416Y-89532733D01*
X150370118Y-89532733D01*
X150370119Y-89532733D01*
X150572301Y-89500710D01*
X150766986Y-89437453D01*
X150949377Y-89344520D01*
X151042357Y-89276965D01*
X151114980Y-89224204D01*
X151114982Y-89224201D01*
X151114986Y-89224199D01*
X151259733Y-89079452D01*
X151259735Y-89079448D01*
X151259738Y-89079446D01*
X151367165Y-88931583D01*
X151380054Y-88913843D01*
X151472987Y-88731452D01*
X151536244Y-88536767D01*
X151568267Y-88334585D01*
X151568267Y-88129881D01*
X151542338Y-87966172D01*
X151536244Y-87927698D01*
X151472985Y-87733009D01*
X151439270Y-87666840D01*
X151380054Y-87550623D01*
X151372323Y-87539982D01*
X151259738Y-87385019D01*
X151114980Y-87240261D01*
X150949380Y-87119948D01*
X150949379Y-87119947D01*
X150949377Y-87119946D01*
X150892420Y-87090924D01*
X150766990Y-87027014D01*
X150572301Y-86963755D01*
X150397762Y-86936111D01*
X150370119Y-86931733D01*
X150165415Y-86931733D01*
X150141096Y-86935584D01*
X149963232Y-86963755D01*
X149768543Y-87027014D01*
X149586153Y-87119948D01*
X149420553Y-87240261D01*
X149275795Y-87385019D01*
X149155482Y-87550619D01*
X149062548Y-87733009D01*
X148999289Y-87927698D01*
X148967267Y-88129881D01*
X148967267Y-88334584D01*
X148999290Y-88536768D01*
X148999291Y-88536775D01*
X149017822Y-88593807D01*
X149019817Y-88663648D01*
X148983736Y-88723480D01*
X148921035Y-88754308D01*
X148861574Y-88750055D01*
X148804542Y-88731524D01*
X148804535Y-88731523D01*
X148703443Y-88715511D01*
X148602352Y-88699500D01*
X148397648Y-88699500D01*
X148330254Y-88710174D01*
X148195464Y-88731523D01*
X148138423Y-88750056D01*
X148068582Y-88752050D01*
X148008750Y-88715968D01*
X147977923Y-88653267D01*
X147982176Y-88593806D01*
X148000710Y-88536767D01*
X148032733Y-88334585D01*
X148032733Y-88129881D01*
X148006804Y-87966172D01*
X148000710Y-87927698D01*
X147937451Y-87733009D01*
X147903736Y-87666840D01*
X147844520Y-87550623D01*
X147836789Y-87539982D01*
X147724204Y-87385019D01*
X147579446Y-87240261D01*
X147413846Y-87119948D01*
X147413845Y-87119947D01*
X147413843Y-87119946D01*
X147356886Y-87090924D01*
X147231456Y-87027014D01*
X147036767Y-86963755D01*
X146862228Y-86936111D01*
X146834585Y-86931733D01*
X146629881Y-86931733D01*
X146605562Y-86935584D01*
X146427698Y-86963755D01*
X146233009Y-87027014D01*
X146050619Y-87119948D01*
X145885019Y-87240261D01*
X145740261Y-87385019D01*
X145619948Y-87550619D01*
X145527014Y-87733009D01*
X145463755Y-87927698D01*
X145431733Y-88129881D01*
X126868355Y-88129881D01*
X126814646Y-88076172D01*
X126655405Y-87960476D01*
X126480029Y-87871117D01*
X126292826Y-87810290D01*
X126098422Y-87779500D01*
X126098417Y-87779500D01*
X125901583Y-87779500D01*
X125901578Y-87779500D01*
X125707173Y-87810290D01*
X125519970Y-87871117D01*
X125344594Y-87960476D01*
X125336752Y-87966174D01*
X125185354Y-88076172D01*
X125185352Y-88076174D01*
X125185351Y-88076174D01*
X125046174Y-88215351D01*
X125046174Y-88215352D01*
X125046172Y-88215354D01*
X125010397Y-88264594D01*
X124930476Y-88374594D01*
X124841117Y-88549970D01*
X124780290Y-88737173D01*
X124749500Y-88931577D01*
X119750500Y-88931577D01*
X119719709Y-88737173D01*
X119673126Y-88593807D01*
X119658884Y-88549975D01*
X119658882Y-88549972D01*
X119658882Y-88549970D01*
X119611743Y-88457455D01*
X119569524Y-88374595D01*
X119453828Y-88215354D01*
X119314646Y-88076172D01*
X119155405Y-87960476D01*
X118980029Y-87871117D01*
X118792826Y-87810290D01*
X118598422Y-87779500D01*
X118598417Y-87779500D01*
X118401583Y-87779500D01*
X118401578Y-87779500D01*
X118207173Y-87810290D01*
X118019970Y-87871117D01*
X117844594Y-87960476D01*
X117836752Y-87966174D01*
X117685354Y-88076172D01*
X117685352Y-88076174D01*
X117685351Y-88076174D01*
X117546174Y-88215351D01*
X117546174Y-88215352D01*
X117546172Y-88215354D01*
X117510397Y-88264594D01*
X117430476Y-88374594D01*
X117341117Y-88549970D01*
X117280290Y-88737173D01*
X117249500Y-88931577D01*
X112250500Y-88931577D01*
X112219709Y-88737173D01*
X112173126Y-88593807D01*
X112158884Y-88549975D01*
X112158882Y-88549972D01*
X112158882Y-88549970D01*
X112111743Y-88457455D01*
X112069524Y-88374595D01*
X111953828Y-88215354D01*
X111814646Y-88076172D01*
X111655405Y-87960476D01*
X111480029Y-87871117D01*
X111292826Y-87810290D01*
X111098422Y-87779500D01*
X111098417Y-87779500D01*
X110901583Y-87779500D01*
X110901578Y-87779500D01*
X110707173Y-87810290D01*
X110519970Y-87871117D01*
X110344594Y-87960476D01*
X110336752Y-87966174D01*
X110185354Y-88076172D01*
X110185352Y-88076174D01*
X110185351Y-88076174D01*
X110046174Y-88215351D01*
X110046174Y-88215352D01*
X110046172Y-88215354D01*
X110010397Y-88264594D01*
X109930476Y-88374594D01*
X109841117Y-88549970D01*
X109780290Y-88737173D01*
X109749500Y-88931577D01*
X105250500Y-88931577D01*
X105250500Y-88821577D01*
X105219709Y-88627173D01*
X105182673Y-88513189D01*
X105158884Y-88439975D01*
X105158882Y-88439972D01*
X105158882Y-88439970D01*
X105088015Y-88300886D01*
X105069524Y-88264595D01*
X104953828Y-88105354D01*
X104814646Y-87966172D01*
X104655405Y-87850476D01*
X104480029Y-87761117D01*
X104292826Y-87700290D01*
X104098422Y-87669500D01*
X104098417Y-87669500D01*
X103901583Y-87669500D01*
X103901578Y-87669500D01*
X103707173Y-87700290D01*
X103519970Y-87761117D01*
X103344594Y-87850476D01*
X103316185Y-87871117D01*
X103185354Y-87966172D01*
X103185352Y-87966174D01*
X103185351Y-87966174D01*
X103046174Y-88105351D01*
X103046174Y-88105352D01*
X103046172Y-88105354D01*
X103028352Y-88129881D01*
X102930476Y-88264594D01*
X102841117Y-88439970D01*
X102780290Y-88627173D01*
X102749500Y-88821577D01*
X99500500Y-88821577D01*
X99500500Y-85818995D01*
X109386999Y-85818995D01*
X109413918Y-85954322D01*
X109413921Y-85954332D01*
X109466721Y-86081804D01*
X109466728Y-86081817D01*
X109543385Y-86196541D01*
X109543388Y-86196545D01*
X109640954Y-86294111D01*
X109640958Y-86294114D01*
X109755682Y-86370771D01*
X109755695Y-86370778D01*
X109883167Y-86423578D01*
X109883172Y-86423580D01*
X109883176Y-86423580D01*
X109883177Y-86423581D01*
X110018504Y-86450500D01*
X110018507Y-86450500D01*
X110156495Y-86450500D01*
X110247541Y-86432389D01*
X110291828Y-86423580D01*
X110419311Y-86370775D01*
X110534042Y-86294114D01*
X110631614Y-86196542D01*
X110708275Y-86081811D01*
X110761080Y-85954328D01*
X110788000Y-85818995D01*
X116886999Y-85818995D01*
X116913918Y-85954322D01*
X116913921Y-85954332D01*
X116966721Y-86081804D01*
X116966728Y-86081817D01*
X117043385Y-86196541D01*
X117043388Y-86196545D01*
X117140954Y-86294111D01*
X117140958Y-86294114D01*
X117255682Y-86370771D01*
X117255695Y-86370778D01*
X117383167Y-86423578D01*
X117383172Y-86423580D01*
X117383176Y-86423580D01*
X117383177Y-86423581D01*
X117518504Y-86450500D01*
X117518507Y-86450500D01*
X117656495Y-86450500D01*
X117747541Y-86432389D01*
X117791828Y-86423580D01*
X117919311Y-86370775D01*
X118034042Y-86294114D01*
X118131614Y-86196542D01*
X118208275Y-86081811D01*
X118261080Y-85954328D01*
X118288000Y-85818995D01*
X124386999Y-85818995D01*
X124413918Y-85954322D01*
X124413921Y-85954332D01*
X124466721Y-86081804D01*
X124466728Y-86081817D01*
X124543385Y-86196541D01*
X124543388Y-86196545D01*
X124640954Y-86294111D01*
X124640958Y-86294114D01*
X124755682Y-86370771D01*
X124755695Y-86370778D01*
X124883167Y-86423578D01*
X124883172Y-86423580D01*
X124883176Y-86423580D01*
X124883177Y-86423581D01*
X125018504Y-86450500D01*
X125018507Y-86450500D01*
X125156495Y-86450500D01*
X125247541Y-86432389D01*
X125291828Y-86423580D01*
X125419311Y-86370775D01*
X125534042Y-86294114D01*
X125631614Y-86196542D01*
X125708275Y-86081811D01*
X125761080Y-85954328D01*
X125788000Y-85818993D01*
X125788000Y-85681007D01*
X125788000Y-85681004D01*
X125761081Y-85545677D01*
X125761080Y-85545676D01*
X125761080Y-85545672D01*
X125761078Y-85545667D01*
X125708278Y-85418195D01*
X125708271Y-85418182D01*
X125631614Y-85303458D01*
X125631611Y-85303454D01*
X125534045Y-85205888D01*
X125534041Y-85205885D01*
X125419317Y-85129228D01*
X125419304Y-85129221D01*
X125291832Y-85076421D01*
X125291822Y-85076418D01*
X125156495Y-85049500D01*
X125156493Y-85049500D01*
X125018507Y-85049500D01*
X125018505Y-85049500D01*
X124883177Y-85076418D01*
X124883167Y-85076421D01*
X124755695Y-85129221D01*
X124755682Y-85129228D01*
X124640958Y-85205885D01*
X124640954Y-85205888D01*
X124543388Y-85303454D01*
X124543385Y-85303458D01*
X124466728Y-85418182D01*
X124466721Y-85418195D01*
X124413921Y-85545667D01*
X124413918Y-85545677D01*
X124387000Y-85681004D01*
X124387000Y-85681007D01*
X124387000Y-85818993D01*
X124387000Y-85818995D01*
X124386999Y-85818995D01*
X118288000Y-85818995D01*
X118288000Y-85818993D01*
X118288000Y-85681007D01*
X118288000Y-85681004D01*
X118261081Y-85545677D01*
X118261080Y-85545676D01*
X118261080Y-85545672D01*
X118261078Y-85545667D01*
X118208278Y-85418195D01*
X118208271Y-85418182D01*
X118131614Y-85303458D01*
X118131611Y-85303454D01*
X118034045Y-85205888D01*
X118034041Y-85205885D01*
X117919317Y-85129228D01*
X117919304Y-85129221D01*
X117791832Y-85076421D01*
X117791822Y-85076418D01*
X117656495Y-85049500D01*
X117656493Y-85049500D01*
X117518507Y-85049500D01*
X117518505Y-85049500D01*
X117383177Y-85076418D01*
X117383167Y-85076421D01*
X117255695Y-85129221D01*
X117255682Y-85129228D01*
X117140958Y-85205885D01*
X117140954Y-85205888D01*
X117043388Y-85303454D01*
X117043385Y-85303458D01*
X116966728Y-85418182D01*
X116966721Y-85418195D01*
X116913921Y-85545667D01*
X116913918Y-85545677D01*
X116887000Y-85681004D01*
X116887000Y-85681007D01*
X116887000Y-85818993D01*
X116887000Y-85818995D01*
X116886999Y-85818995D01*
X110788000Y-85818995D01*
X110788000Y-85818993D01*
X110788000Y-85681007D01*
X110788000Y-85681004D01*
X110761081Y-85545677D01*
X110761080Y-85545676D01*
X110761080Y-85545672D01*
X110761078Y-85545667D01*
X110708278Y-85418195D01*
X110708271Y-85418182D01*
X110631614Y-85303458D01*
X110631611Y-85303454D01*
X110534045Y-85205888D01*
X110534041Y-85205885D01*
X110419317Y-85129228D01*
X110419304Y-85129221D01*
X110291832Y-85076421D01*
X110291822Y-85076418D01*
X110156495Y-85049500D01*
X110156493Y-85049500D01*
X110018507Y-85049500D01*
X110018505Y-85049500D01*
X109883177Y-85076418D01*
X109883167Y-85076421D01*
X109755695Y-85129221D01*
X109755682Y-85129228D01*
X109640958Y-85205885D01*
X109640954Y-85205888D01*
X109543388Y-85303454D01*
X109543385Y-85303458D01*
X109466728Y-85418182D01*
X109466721Y-85418195D01*
X109413921Y-85545667D01*
X109413918Y-85545677D01*
X109387000Y-85681004D01*
X109387000Y-85681007D01*
X109387000Y-85818993D01*
X109387000Y-85818995D01*
X109386999Y-85818995D01*
X99500500Y-85818995D01*
X99500500Y-81068995D01*
X125099499Y-81068995D01*
X125126418Y-81204322D01*
X125126421Y-81204332D01*
X125179221Y-81331804D01*
X125179228Y-81331817D01*
X125255885Y-81446541D01*
X125255888Y-81446545D01*
X125353454Y-81544111D01*
X125353458Y-81544114D01*
X125468182Y-81620771D01*
X125468195Y-81620778D01*
X125595667Y-81673578D01*
X125595672Y-81673580D01*
X125595676Y-81673580D01*
X125595677Y-81673581D01*
X125731004Y-81700500D01*
X125731007Y-81700500D01*
X125868995Y-81700500D01*
X125960041Y-81682389D01*
X126004328Y-81673580D01*
X126131811Y-81620775D01*
X126246542Y-81544114D01*
X126344114Y-81446542D01*
X126420775Y-81331811D01*
X126446794Y-81268995D01*
X127499499Y-81268995D01*
X127526418Y-81404322D01*
X127526421Y-81404332D01*
X127579221Y-81531804D01*
X127579228Y-81531817D01*
X127655885Y-81646541D01*
X127655888Y-81646545D01*
X127753454Y-81744111D01*
X127753458Y-81744114D01*
X127868182Y-81820771D01*
X127868195Y-81820778D01*
X127995667Y-81873578D01*
X127995672Y-81873580D01*
X127995676Y-81873580D01*
X127995677Y-81873581D01*
X128131004Y-81900500D01*
X128131007Y-81900500D01*
X128268995Y-81900500D01*
X128360041Y-81882389D01*
X128404328Y-81873580D01*
X128531811Y-81820775D01*
X128646542Y-81744114D01*
X128744114Y-81646542D01*
X128820775Y-81531811D01*
X128873580Y-81404328D01*
X128882389Y-81360041D01*
X128900500Y-81268995D01*
X128900500Y-81131004D01*
X128873581Y-80995677D01*
X128873580Y-80995676D01*
X128873580Y-80995672D01*
X128846794Y-80931004D01*
X128820778Y-80868195D01*
X128820771Y-80868182D01*
X128744114Y-80753458D01*
X128744111Y-80753454D01*
X128646545Y-80655888D01*
X128646541Y-80655885D01*
X128531817Y-80579228D01*
X128531804Y-80579221D01*
X128404332Y-80526421D01*
X128404322Y-80526418D01*
X128268995Y-80499500D01*
X128268993Y-80499500D01*
X128131007Y-80499500D01*
X128131005Y-80499500D01*
X127995677Y-80526418D01*
X127995667Y-80526421D01*
X127868195Y-80579221D01*
X127868182Y-80579228D01*
X127753458Y-80655885D01*
X127753454Y-80655888D01*
X127655888Y-80753454D01*
X127655885Y-80753458D01*
X127579228Y-80868182D01*
X127579221Y-80868195D01*
X127526421Y-80995667D01*
X127526418Y-80995677D01*
X127499500Y-81131004D01*
X127499500Y-81131007D01*
X127499500Y-81268993D01*
X127499500Y-81268995D01*
X127499499Y-81268995D01*
X126446794Y-81268995D01*
X126473580Y-81204328D01*
X126488165Y-81131004D01*
X126494189Y-81100723D01*
X126494189Y-81100722D01*
X126500499Y-81068997D01*
X126500500Y-81068995D01*
X126500500Y-80931004D01*
X126473581Y-80795677D01*
X126473580Y-80795676D01*
X126473580Y-80795672D01*
X126473578Y-80795667D01*
X126420778Y-80668195D01*
X126420771Y-80668182D01*
X126344114Y-80553458D01*
X126344111Y-80553454D01*
X126246545Y-80455888D01*
X126246541Y-80455885D01*
X126131817Y-80379228D01*
X126131804Y-80379221D01*
X126004332Y-80326421D01*
X126004322Y-80326418D01*
X125868995Y-80299500D01*
X125868993Y-80299500D01*
X125731007Y-80299500D01*
X125731005Y-80299500D01*
X125595677Y-80326418D01*
X125595667Y-80326421D01*
X125468195Y-80379221D01*
X125468182Y-80379228D01*
X125353458Y-80455885D01*
X125353454Y-80455888D01*
X125255888Y-80553454D01*
X125255885Y-80553458D01*
X125179228Y-80668182D01*
X125179221Y-80668195D01*
X125126421Y-80795667D01*
X125126418Y-80795677D01*
X125099500Y-80931004D01*
X125099500Y-80931007D01*
X125099500Y-81068993D01*
X125099500Y-81068995D01*
X125099499Y-81068995D01*
X99500500Y-81068995D01*
X99500500Y-74901577D01*
X99999500Y-74901577D01*
X99999500Y-75098422D01*
X100030290Y-75292826D01*
X100091117Y-75480029D01*
X100162829Y-75620771D01*
X100180476Y-75655405D01*
X100296172Y-75814646D01*
X100435354Y-75953828D01*
X100588621Y-76065184D01*
X100631285Y-76120512D01*
X100637264Y-76190125D01*
X100604658Y-76251920D01*
X100543819Y-76286278D01*
X100515735Y-76289500D01*
X100368482Y-76289500D01*
X100287519Y-76302323D01*
X100274696Y-76304354D01*
X100161658Y-76361950D01*
X100161657Y-76361951D01*
X100161652Y-76361954D01*
X100071954Y-76451652D01*
X100071951Y-76451657D01*
X100014352Y-76564698D01*
X99999500Y-76658475D01*
X99999500Y-78421517D01*
X100010292Y-78489657D01*
X100014354Y-78515304D01*
X100071950Y-78628342D01*
X100071952Y-78628344D01*
X100071954Y-78628347D01*
X100161652Y-78718045D01*
X100161654Y-78718046D01*
X100161658Y-78718050D01*
X100259788Y-78768050D01*
X100274698Y-78775647D01*
X100368475Y-78790499D01*
X100368481Y-78790500D01*
X102131518Y-78790499D01*
X102225304Y-78775646D01*
X102338342Y-78718050D01*
X102428050Y-78628342D01*
X102485646Y-78515304D01*
X102485646Y-78515302D01*
X102485647Y-78515301D01*
X102500499Y-78421524D01*
X102500500Y-78421519D01*
X102500499Y-78274263D01*
X102520183Y-78207227D01*
X102572987Y-78161472D01*
X102642145Y-78151528D01*
X102705701Y-78180553D01*
X102724817Y-78201380D01*
X102836172Y-78354646D01*
X102975354Y-78493828D01*
X103134595Y-78609524D01*
X103217455Y-78651743D01*
X103309970Y-78698882D01*
X103309972Y-78698882D01*
X103309975Y-78698884D01*
X103368962Y-78718050D01*
X103497173Y-78759709D01*
X103691578Y-78790500D01*
X103691583Y-78790500D01*
X103888422Y-78790500D01*
X104082826Y-78759709D01*
X104270025Y-78698884D01*
X104445405Y-78609524D01*
X104604646Y-78493828D01*
X104743828Y-78354646D01*
X104762465Y-78328995D01*
X139999499Y-78328995D01*
X140026418Y-78464322D01*
X140026421Y-78464332D01*
X140079221Y-78591804D01*
X140079228Y-78591817D01*
X140155885Y-78706541D01*
X140155888Y-78706545D01*
X140253454Y-78804111D01*
X140253458Y-78804114D01*
X140368182Y-78880771D01*
X140368195Y-78880778D01*
X140495667Y-78933578D01*
X140495672Y-78933580D01*
X140495676Y-78933580D01*
X140495677Y-78933581D01*
X140631004Y-78960500D01*
X140631007Y-78960500D01*
X140768995Y-78960500D01*
X140860041Y-78942389D01*
X140904328Y-78933580D01*
X141031811Y-78880775D01*
X141146542Y-78804114D01*
X141244114Y-78706542D01*
X141320775Y-78591811D01*
X141373580Y-78464328D01*
X141395397Y-78354647D01*
X141400500Y-78328995D01*
X141400500Y-78191004D01*
X141373581Y-78055677D01*
X141373580Y-78055676D01*
X141373580Y-78055672D01*
X141358815Y-78020025D01*
X141320778Y-77928195D01*
X141320771Y-77928182D01*
X141244114Y-77813458D01*
X141244111Y-77813454D01*
X141146545Y-77715888D01*
X141146541Y-77715885D01*
X141031817Y-77639228D01*
X141031804Y-77639221D01*
X140904332Y-77586421D01*
X140904322Y-77586418D01*
X140768995Y-77559500D01*
X140768993Y-77559500D01*
X140631007Y-77559500D01*
X140631005Y-77559500D01*
X140495677Y-77586418D01*
X140495667Y-77586421D01*
X140368195Y-77639221D01*
X140368182Y-77639228D01*
X140253458Y-77715885D01*
X140253454Y-77715888D01*
X140155888Y-77813454D01*
X140155885Y-77813458D01*
X140079228Y-77928182D01*
X140079221Y-77928195D01*
X140026421Y-78055667D01*
X140026418Y-78055677D01*
X139999500Y-78191004D01*
X139999500Y-78191007D01*
X139999500Y-78328993D01*
X139999500Y-78328995D01*
X139999499Y-78328995D01*
X104762465Y-78328995D01*
X104859524Y-78195405D01*
X104948884Y-78020025D01*
X105009709Y-77832826D01*
X105028230Y-77715888D01*
X105040500Y-77638422D01*
X105040500Y-77441577D01*
X105009709Y-77247173D01*
X104948882Y-77059970D01*
X104859523Y-76884594D01*
X104855183Y-76878620D01*
X104743828Y-76725354D01*
X104604646Y-76586172D01*
X104506268Y-76514696D01*
X104445403Y-76470474D01*
X104268787Y-76380485D01*
X104217990Y-76332511D01*
X104201195Y-76264690D01*
X104223732Y-76198555D01*
X104268787Y-76159515D01*
X104445403Y-76069525D01*
X104445402Y-76069525D01*
X104445405Y-76069524D01*
X104604646Y-75953828D01*
X104743828Y-75814646D01*
X104793265Y-75746600D01*
X104848594Y-75703934D01*
X104917776Y-75697868D01*
X104931007Y-75700500D01*
X104931009Y-75700500D01*
X105068995Y-75700500D01*
X105163959Y-75681610D01*
X105204328Y-75673580D01*
X105331811Y-75620775D01*
X105446542Y-75544114D01*
X105544114Y-75446542D01*
X105620775Y-75331811D01*
X105673580Y-75204328D01*
X105682389Y-75160041D01*
X105700500Y-75068995D01*
X105700500Y-74931004D01*
X105673581Y-74795677D01*
X105673580Y-74795676D01*
X105673580Y-74795672D01*
X105636923Y-74707173D01*
X105620778Y-74668195D01*
X105620771Y-74668182D01*
X105544114Y-74553458D01*
X105544111Y-74553454D01*
X105446545Y-74455888D01*
X105446541Y-74455885D01*
X105331817Y-74379228D01*
X105331804Y-74379221D01*
X105204332Y-74326421D01*
X105204322Y-74326418D01*
X105068995Y-74299500D01*
X105068993Y-74299500D01*
X104931007Y-74299500D01*
X104931006Y-74299500D01*
X104917772Y-74302132D01*
X104848181Y-74295903D01*
X104793266Y-74253400D01*
X104743828Y-74185354D01*
X104604646Y-74046172D01*
X104445405Y-73930476D01*
X104270029Y-73841117D01*
X104128387Y-73795094D01*
X104070712Y-73755656D01*
X104043514Y-73691297D01*
X104055429Y-73622450D01*
X104102674Y-73570975D01*
X104128389Y-73559232D01*
X104231441Y-73525749D01*
X104231447Y-73525747D01*
X104392730Y-73443568D01*
X104490442Y-73372574D01*
X104490443Y-73372574D01*
X104021539Y-72903670D01*
X104097007Y-72860099D01*
X104190099Y-72767007D01*
X104233670Y-72691539D01*
X104702574Y-73160443D01*
X104702574Y-73160442D01*
X104773568Y-73062730D01*
X104855747Y-72901447D01*
X104855748Y-72901444D01*
X104911682Y-72729293D01*
X104940000Y-72550506D01*
X104940000Y-72369496D01*
X104938123Y-72357648D01*
X145199500Y-72357648D01*
X145199500Y-72562351D01*
X145231522Y-72764534D01*
X145294781Y-72959223D01*
X145387715Y-73141613D01*
X145508028Y-73307213D01*
X145652786Y-73451971D01*
X145754335Y-73525749D01*
X145818390Y-73572287D01*
X145870168Y-73598669D01*
X145911080Y-73619515D01*
X145961876Y-73667490D01*
X145978671Y-73735311D01*
X145956134Y-73801446D01*
X145911080Y-73840485D01*
X145818386Y-73887715D01*
X145652786Y-74008028D01*
X145508028Y-74152786D01*
X145387715Y-74318386D01*
X145294781Y-74500776D01*
X145231522Y-74695465D01*
X145199500Y-74897648D01*
X145199500Y-75102351D01*
X145231522Y-75304534D01*
X145294781Y-75499223D01*
X145317655Y-75544114D01*
X145383620Y-75673578D01*
X145387715Y-75681613D01*
X145508028Y-75847213D01*
X145652782Y-75991967D01*
X145652784Y-75991968D01*
X145684734Y-76015181D01*
X145727400Y-76070510D01*
X145733381Y-76140123D01*
X145700776Y-76201919D01*
X145639938Y-76236277D01*
X145611853Y-76239500D01*
X145568483Y-76239500D01*
X145499031Y-76250500D01*
X145474696Y-76254354D01*
X145361658Y-76311950D01*
X145361657Y-76311951D01*
X145361652Y-76311954D01*
X145271954Y-76401652D01*
X145271951Y-76401657D01*
X145214352Y-76514698D01*
X145199500Y-76608475D01*
X145199500Y-78471517D01*
X145203034Y-78493828D01*
X145214354Y-78565304D01*
X145271950Y-78678342D01*
X145271952Y-78678344D01*
X145271954Y-78678347D01*
X145361652Y-78768045D01*
X145361654Y-78768046D01*
X145361658Y-78768050D01*
X145474694Y-78825645D01*
X145474698Y-78825647D01*
X145568475Y-78840499D01*
X145568481Y-78840500D01*
X147431518Y-78840499D01*
X147525304Y-78825646D01*
X147638342Y-78768050D01*
X147728050Y-78678342D01*
X147785646Y-78565304D01*
X147785646Y-78565302D01*
X147785647Y-78565301D01*
X147800499Y-78471524D01*
X147800500Y-78471519D01*
X147800499Y-76608482D01*
X147785646Y-76514696D01*
X147728050Y-76401658D01*
X147728046Y-76401654D01*
X147728045Y-76401652D01*
X147638347Y-76311954D01*
X147638344Y-76311952D01*
X147638342Y-76311950D01*
X147555648Y-76269815D01*
X147525301Y-76254352D01*
X147431524Y-76239500D01*
X147431519Y-76239500D01*
X147388151Y-76239500D01*
X147321112Y-76219815D01*
X147275357Y-76167011D01*
X147265413Y-76097853D01*
X147294438Y-76034297D01*
X147315266Y-76015182D01*
X147347213Y-75991971D01*
X147347215Y-75991968D01*
X147347219Y-75991966D01*
X147491966Y-75847219D01*
X147491968Y-75847215D01*
X147491971Y-75847213D01*
X147544732Y-75774590D01*
X147612287Y-75681610D01*
X147705220Y-75499219D01*
X147768477Y-75304534D01*
X147800500Y-75102352D01*
X147800500Y-74897648D01*
X147784348Y-74795667D01*
X147768477Y-74695465D01*
X147722334Y-74553454D01*
X147705220Y-74500781D01*
X147705218Y-74500778D01*
X147705218Y-74500776D01*
X147671503Y-74434607D01*
X147612287Y-74318390D01*
X147595949Y-74295903D01*
X147491971Y-74152786D01*
X147347213Y-74008028D01*
X147181614Y-73887715D01*
X147175006Y-73884348D01*
X147088917Y-73840483D01*
X147038123Y-73792511D01*
X147021328Y-73724690D01*
X147043865Y-73658555D01*
X147088917Y-73619516D01*
X147181610Y-73572287D01*
X147245665Y-73525749D01*
X147347213Y-73451971D01*
X147347215Y-73451968D01*
X147347219Y-73451966D01*
X147491966Y-73307219D01*
X147491968Y-73307215D01*
X147491971Y-73307213D01*
X147544732Y-73234590D01*
X147612287Y-73141610D01*
X147705220Y-72959219D01*
X147768477Y-72764534D01*
X147800500Y-72562352D01*
X147800500Y-72357648D01*
X147768477Y-72155466D01*
X147767673Y-72152993D01*
X147705218Y-71960776D01*
X147637011Y-71826914D01*
X147612287Y-71778390D01*
X147576651Y-71729341D01*
X147491971Y-71612786D01*
X147347213Y-71468028D01*
X147181613Y-71347715D01*
X147181612Y-71347714D01*
X147181610Y-71347713D01*
X147107594Y-71310000D01*
X146999223Y-71254781D01*
X146804534Y-71191522D01*
X146629995Y-71163878D01*
X146602352Y-71159500D01*
X146397648Y-71159500D01*
X146373329Y-71163351D01*
X146195465Y-71191522D01*
X146000776Y-71254781D01*
X145818386Y-71347715D01*
X145652786Y-71468028D01*
X145508028Y-71612786D01*
X145387715Y-71778386D01*
X145294781Y-71960776D01*
X145231522Y-72155465D01*
X145199500Y-72357648D01*
X104938123Y-72357648D01*
X104911682Y-72190706D01*
X104855748Y-72018555D01*
X104855747Y-72018552D01*
X104773567Y-71857268D01*
X104702574Y-71759556D01*
X104702574Y-71759555D01*
X104233670Y-72228460D01*
X104190099Y-72152993D01*
X104097007Y-72059901D01*
X104021539Y-72016329D01*
X104490443Y-71547425D01*
X104490442Y-71547424D01*
X104392731Y-71476432D01*
X104231447Y-71394252D01*
X104231444Y-71394251D01*
X104100775Y-71351795D01*
X130582499Y-71351795D01*
X130609418Y-71487122D01*
X130609421Y-71487132D01*
X130662221Y-71614604D01*
X130662228Y-71614617D01*
X130738885Y-71729341D01*
X130738888Y-71729345D01*
X130836454Y-71826911D01*
X130836458Y-71826914D01*
X130951182Y-71903571D01*
X130951195Y-71903578D01*
X131078667Y-71956378D01*
X131078672Y-71956380D01*
X131078676Y-71956380D01*
X131078677Y-71956381D01*
X131214004Y-71983300D01*
X131214007Y-71983300D01*
X131351995Y-71983300D01*
X131443041Y-71965189D01*
X131487328Y-71956380D01*
X131614811Y-71903575D01*
X131729542Y-71826914D01*
X131827114Y-71729342D01*
X131903775Y-71614611D01*
X131956580Y-71487128D01*
X131965389Y-71442841D01*
X131983500Y-71351795D01*
X131983500Y-71213804D01*
X131956581Y-71078477D01*
X131956580Y-71078476D01*
X131956580Y-71078472D01*
X131956578Y-71078467D01*
X131903778Y-70950995D01*
X131903771Y-70950982D01*
X131827114Y-70836258D01*
X131827111Y-70836254D01*
X131729545Y-70738688D01*
X131729541Y-70738685D01*
X131614817Y-70662028D01*
X131614804Y-70662021D01*
X131487332Y-70609221D01*
X131487322Y-70609218D01*
X131351995Y-70582300D01*
X131351993Y-70582300D01*
X131214007Y-70582300D01*
X131214005Y-70582300D01*
X131078677Y-70609218D01*
X131078667Y-70609221D01*
X130951195Y-70662021D01*
X130951182Y-70662028D01*
X130836458Y-70738685D01*
X130836454Y-70738688D01*
X130738888Y-70836254D01*
X130738885Y-70836258D01*
X130662228Y-70950982D01*
X130662221Y-70950995D01*
X130609421Y-71078467D01*
X130609418Y-71078477D01*
X130582500Y-71213804D01*
X130582500Y-71213807D01*
X130582500Y-71351793D01*
X130582500Y-71351795D01*
X130582499Y-71351795D01*
X104100775Y-71351795D01*
X104059293Y-71338317D01*
X104007968Y-71330188D01*
X103880506Y-71310000D01*
X103699494Y-71310000D01*
X103520706Y-71338317D01*
X103348555Y-71394251D01*
X103348552Y-71394252D01*
X103187265Y-71476434D01*
X103089556Y-71547423D01*
X103089556Y-71547425D01*
X103558461Y-72016329D01*
X103482993Y-72059901D01*
X103389901Y-72152993D01*
X103346329Y-72228460D01*
X102877425Y-71759556D01*
X102877423Y-71759556D01*
X102806434Y-71857265D01*
X102724252Y-72018552D01*
X102724251Y-72018555D01*
X102668317Y-72190706D01*
X102642473Y-72353879D01*
X102612544Y-72417014D01*
X102553232Y-72453945D01*
X102483370Y-72452947D01*
X102425137Y-72414337D01*
X102397527Y-72353879D01*
X102371682Y-72190706D01*
X102315748Y-72018555D01*
X102315747Y-72018552D01*
X102233567Y-71857268D01*
X102162574Y-71759556D01*
X102162574Y-71759555D01*
X101693670Y-72228460D01*
X101650099Y-72152993D01*
X101557007Y-72059901D01*
X101481539Y-72016329D01*
X101950443Y-71547425D01*
X101950442Y-71547424D01*
X101852731Y-71476432D01*
X101691447Y-71394252D01*
X101691444Y-71394251D01*
X101519293Y-71338317D01*
X101340506Y-71310000D01*
X101159494Y-71310000D01*
X100980706Y-71338317D01*
X100808555Y-71394251D01*
X100808552Y-71394252D01*
X100647265Y-71476434D01*
X100549556Y-71547423D01*
X100549556Y-71547425D01*
X101018461Y-72016329D01*
X100942993Y-72059901D01*
X100849901Y-72152993D01*
X100806329Y-72228460D01*
X100337425Y-71759556D01*
X100337423Y-71759556D01*
X100266434Y-71857265D01*
X100184252Y-72018552D01*
X100184251Y-72018555D01*
X100128317Y-72190706D01*
X100100000Y-72369493D01*
X100100000Y-72550506D01*
X100128317Y-72729293D01*
X100184251Y-72901444D01*
X100184252Y-72901447D01*
X100266432Y-73062731D01*
X100337424Y-73160442D01*
X100337425Y-73160443D01*
X100806329Y-72691538D01*
X100849901Y-72767007D01*
X100942993Y-72860099D01*
X101018460Y-72903670D01*
X100549555Y-73372574D01*
X100647268Y-73443567D01*
X100808552Y-73525747D01*
X100808558Y-73525749D01*
X100911610Y-73559232D01*
X100969286Y-73598669D01*
X100996485Y-73663027D01*
X100984571Y-73731874D01*
X100937327Y-73783350D01*
X100911613Y-73795094D01*
X100769969Y-73841118D01*
X100594594Y-73930476D01*
X100503741Y-73996485D01*
X100435354Y-74046172D01*
X100435352Y-74046174D01*
X100435351Y-74046174D01*
X100296174Y-74185351D01*
X100296174Y-74185352D01*
X100296172Y-74185354D01*
X100246733Y-74253400D01*
X100180476Y-74344594D01*
X100091117Y-74519970D01*
X100030290Y-74707173D01*
X99999500Y-74901577D01*
X99500500Y-74901577D01*
X99500500Y-69868995D01*
X129299499Y-69868995D01*
X129326418Y-70004322D01*
X129326421Y-70004332D01*
X129379221Y-70131804D01*
X129379228Y-70131817D01*
X129455885Y-70246541D01*
X129455888Y-70246545D01*
X129553454Y-70344111D01*
X129553458Y-70344114D01*
X129668182Y-70420771D01*
X129668195Y-70420778D01*
X129795667Y-70473578D01*
X129795672Y-70473580D01*
X129795676Y-70473580D01*
X129795677Y-70473581D01*
X129931004Y-70500500D01*
X129931007Y-70500500D01*
X130068995Y-70500500D01*
X130160041Y-70482389D01*
X130204328Y-70473580D01*
X130331811Y-70420775D01*
X130446542Y-70344114D01*
X130544114Y-70246542D01*
X130620775Y-70131811D01*
X130673580Y-70004328D01*
X130700500Y-69868993D01*
X130700500Y-69731007D01*
X130700500Y-69731004D01*
X130673581Y-69595677D01*
X130673580Y-69595676D01*
X130673580Y-69595672D01*
X130673578Y-69595667D01*
X130620778Y-69468195D01*
X130620771Y-69468182D01*
X130544114Y-69353458D01*
X130544111Y-69353454D01*
X130446545Y-69255888D01*
X130446541Y-69255885D01*
X130331817Y-69179228D01*
X130331804Y-69179221D01*
X130204332Y-69126421D01*
X130204322Y-69126418D01*
X130068995Y-69099500D01*
X130068993Y-69099500D01*
X129931007Y-69099500D01*
X129931005Y-69099500D01*
X129795677Y-69126418D01*
X129795667Y-69126421D01*
X129668195Y-69179221D01*
X129668182Y-69179228D01*
X129553458Y-69255885D01*
X129553454Y-69255888D01*
X129455888Y-69353454D01*
X129455885Y-69353458D01*
X129379228Y-69468182D01*
X129379221Y-69468195D01*
X129326421Y-69595667D01*
X129326418Y-69595677D01*
X129299500Y-69731004D01*
X129299500Y-69731007D01*
X129299500Y-69868993D01*
X129299500Y-69868995D01*
X129299499Y-69868995D01*
X99500500Y-69868995D01*
X99500500Y-53118475D01*
X102749500Y-53118475D01*
X102749500Y-54881517D01*
X102760292Y-54949657D01*
X102764354Y-54975304D01*
X102821950Y-55088342D01*
X102821952Y-55088344D01*
X102821954Y-55088347D01*
X102911652Y-55178045D01*
X102911654Y-55178046D01*
X102911658Y-55178050D01*
X103024694Y-55235645D01*
X103024698Y-55235647D01*
X103118475Y-55250499D01*
X103118481Y-55250500D01*
X103481197Y-55250499D01*
X103548234Y-55270183D01*
X103593989Y-55322987D01*
X103603933Y-55392146D01*
X103574908Y-55455701D01*
X103537491Y-55484983D01*
X103397267Y-55556432D01*
X103299556Y-55627423D01*
X103299556Y-55627425D01*
X103768461Y-56096329D01*
X103692993Y-56139901D01*
X103599901Y-56232993D01*
X103556329Y-56308460D01*
X103087425Y-55839556D01*
X103087423Y-55839556D01*
X103016434Y-55937265D01*
X102934252Y-56098552D01*
X102934251Y-56098555D01*
X102878317Y-56270706D01*
X102850000Y-56449493D01*
X102850000Y-56630506D01*
X102878317Y-56809293D01*
X102934251Y-56981444D01*
X102934252Y-56981447D01*
X103016432Y-57142731D01*
X103087424Y-57240442D01*
X103087425Y-57240443D01*
X103556329Y-56771538D01*
X103599901Y-56847007D01*
X103692993Y-56940099D01*
X103768460Y-56983670D01*
X103299555Y-57452574D01*
X103397268Y-57523567D01*
X103558552Y-57605747D01*
X103558558Y-57605749D01*
X103661610Y-57639232D01*
X103719286Y-57678669D01*
X103746485Y-57743027D01*
X103734571Y-57811874D01*
X103687327Y-57863350D01*
X103661613Y-57875094D01*
X103519969Y-57921118D01*
X103344594Y-58010476D01*
X103253741Y-58076485D01*
X103185354Y-58126172D01*
X103185352Y-58126174D01*
X103185351Y-58126174D01*
X103046174Y-58265351D01*
X103046174Y-58265352D01*
X103046172Y-58265354D01*
X102996485Y-58333741D01*
X102930476Y-58424594D01*
X102841117Y-58599970D01*
X102780290Y-58787173D01*
X102749500Y-58981577D01*
X102749500Y-59178422D01*
X102780290Y-59372826D01*
X102841117Y-59560029D01*
X102930476Y-59735405D01*
X103046172Y-59894646D01*
X103185354Y-60033828D01*
X103344595Y-60149524D01*
X103402901Y-60179232D01*
X103521213Y-60239515D01*
X103572009Y-60287489D01*
X103588804Y-60355310D01*
X103566267Y-60421445D01*
X103521213Y-60460485D01*
X103344594Y-60550476D01*
X103273844Y-60601880D01*
X103185354Y-60666172D01*
X103185352Y-60666174D01*
X103185351Y-60666174D01*
X103046174Y-60805351D01*
X103046174Y-60805352D01*
X103046172Y-60805354D01*
X103015755Y-60847219D01*
X102930476Y-60964594D01*
X102841117Y-61139970D01*
X102780290Y-61327173D01*
X102749500Y-61521577D01*
X102749500Y-61718422D01*
X102780290Y-61912826D01*
X102841117Y-62100029D01*
X102875682Y-62167866D01*
X102930476Y-62275405D01*
X103046172Y-62434646D01*
X103185354Y-62573828D01*
X103344595Y-62689524D01*
X103467992Y-62752397D01*
X103521213Y-62779515D01*
X103572009Y-62827489D01*
X103588804Y-62895310D01*
X103566267Y-62961445D01*
X103521213Y-63000485D01*
X103344594Y-63090476D01*
X103253741Y-63156485D01*
X103185354Y-63206172D01*
X103185352Y-63206174D01*
X103185351Y-63206174D01*
X103046174Y-63345351D01*
X103046174Y-63345352D01*
X103046172Y-63345354D01*
X103021566Y-63379221D01*
X102930476Y-63504594D01*
X102841117Y-63679970D01*
X102780290Y-63867173D01*
X102749500Y-64061577D01*
X102749500Y-64258422D01*
X102780290Y-64452826D01*
X102841117Y-64640029D01*
X102930476Y-64815405D01*
X103046172Y-64974646D01*
X103185354Y-65113828D01*
X103344595Y-65229524D01*
X103422058Y-65268993D01*
X103521213Y-65319515D01*
X103572009Y-65367489D01*
X103588804Y-65435310D01*
X103566267Y-65501445D01*
X103521213Y-65540485D01*
X103344594Y-65630476D01*
X103253741Y-65696485D01*
X103185354Y-65746172D01*
X103185352Y-65746174D01*
X103185351Y-65746174D01*
X103046174Y-65885351D01*
X103046174Y-65885352D01*
X103046172Y-65885354D01*
X103035168Y-65900500D01*
X102930476Y-66044594D01*
X102841117Y-66219970D01*
X102780290Y-66407173D01*
X102749500Y-66601577D01*
X102749500Y-66798422D01*
X102780290Y-66992826D01*
X102841117Y-67180029D01*
X102930476Y-67355405D01*
X103046172Y-67514646D01*
X103185354Y-67653828D01*
X103344595Y-67769524D01*
X103427455Y-67811743D01*
X103519970Y-67858882D01*
X103519972Y-67858882D01*
X103519975Y-67858884D01*
X103620317Y-67891487D01*
X103707173Y-67919709D01*
X103901578Y-67950500D01*
X103901583Y-67950500D01*
X104098422Y-67950500D01*
X104292826Y-67919709D01*
X104480025Y-67858884D01*
X104655405Y-67769524D01*
X104814646Y-67653828D01*
X104953828Y-67514646D01*
X105069524Y-67355405D01*
X105158884Y-67180025D01*
X105219709Y-66992826D01*
X105250500Y-66798422D01*
X105250500Y-66601577D01*
X105219709Y-66407173D01*
X105158882Y-66219970D01*
X105069523Y-66044594D01*
X104953828Y-65885354D01*
X104814646Y-65746172D01*
X104735025Y-65688324D01*
X104655403Y-65630474D01*
X104478787Y-65540485D01*
X104427990Y-65492511D01*
X104411195Y-65424690D01*
X104433732Y-65358555D01*
X104478787Y-65319515D01*
X104577938Y-65268995D01*
X127099499Y-65268995D01*
X127126418Y-65404322D01*
X127126421Y-65404332D01*
X127179221Y-65531804D01*
X127179228Y-65531817D01*
X127255885Y-65646541D01*
X127255888Y-65646545D01*
X127353454Y-65744111D01*
X127353458Y-65744114D01*
X127468182Y-65820771D01*
X127468195Y-65820778D01*
X127595667Y-65873578D01*
X127595672Y-65873580D01*
X127595676Y-65873580D01*
X127595677Y-65873581D01*
X127731004Y-65900500D01*
X127731007Y-65900500D01*
X127868995Y-65900500D01*
X127960041Y-65882389D01*
X128004328Y-65873580D01*
X128131811Y-65820775D01*
X128246542Y-65744114D01*
X128344114Y-65646542D01*
X128420775Y-65531811D01*
X128473580Y-65404328D01*
X128482685Y-65358555D01*
X128500500Y-65268995D01*
X128500500Y-65131004D01*
X128473581Y-64995677D01*
X128473580Y-64995676D01*
X128473580Y-64995672D01*
X128464871Y-64974646D01*
X128420778Y-64868195D01*
X128420771Y-64868182D01*
X128344114Y-64753458D01*
X128344111Y-64753454D01*
X128246545Y-64655888D01*
X128246541Y-64655885D01*
X128131817Y-64579228D01*
X128131804Y-64579221D01*
X128004332Y-64526421D01*
X128004322Y-64526418D01*
X127868995Y-64499500D01*
X127868993Y-64499500D01*
X127731007Y-64499500D01*
X127731005Y-64499500D01*
X127595677Y-64526418D01*
X127595667Y-64526421D01*
X127468195Y-64579221D01*
X127468182Y-64579228D01*
X127353458Y-64655885D01*
X127353454Y-64655888D01*
X127255888Y-64753454D01*
X127255885Y-64753458D01*
X127179228Y-64868182D01*
X127179221Y-64868195D01*
X127126421Y-64995667D01*
X127126418Y-64995677D01*
X127099500Y-65131004D01*
X127099500Y-65131007D01*
X127099500Y-65268993D01*
X127099500Y-65268995D01*
X127099499Y-65268995D01*
X104577938Y-65268995D01*
X104655403Y-65229525D01*
X104655402Y-65229525D01*
X104655405Y-65229524D01*
X104814646Y-65113828D01*
X104953828Y-64974646D01*
X105069524Y-64815405D01*
X105158884Y-64640025D01*
X105219709Y-64452826D01*
X105238877Y-64331804D01*
X105250500Y-64258422D01*
X105250500Y-64068995D01*
X131099499Y-64068995D01*
X131126418Y-64204322D01*
X131126421Y-64204332D01*
X131179221Y-64331804D01*
X131179228Y-64331817D01*
X131255885Y-64446541D01*
X131255888Y-64446545D01*
X131353454Y-64544111D01*
X131353458Y-64544114D01*
X131468182Y-64620771D01*
X131468195Y-64620778D01*
X131595667Y-64673578D01*
X131595672Y-64673580D01*
X131595676Y-64673580D01*
X131595677Y-64673581D01*
X131731004Y-64700500D01*
X131731007Y-64700500D01*
X131868995Y-64700500D01*
X131960041Y-64682389D01*
X132004328Y-64673580D01*
X132131811Y-64620775D01*
X132246542Y-64544114D01*
X132344114Y-64446542D01*
X132420775Y-64331811D01*
X132473580Y-64204328D01*
X132500500Y-64068993D01*
X132500500Y-63931007D01*
X132500500Y-63931004D01*
X132473581Y-63795677D01*
X132473580Y-63795676D01*
X132473580Y-63795672D01*
X132425655Y-63679970D01*
X132420778Y-63668195D01*
X132420771Y-63668182D01*
X132344114Y-63553458D01*
X132344111Y-63553454D01*
X132246545Y-63455888D01*
X132246541Y-63455885D01*
X132131817Y-63379228D01*
X132131804Y-63379221D01*
X132004332Y-63326421D01*
X132004322Y-63326418D01*
X131868995Y-63299500D01*
X131868993Y-63299500D01*
X131731007Y-63299500D01*
X131731005Y-63299500D01*
X131595677Y-63326418D01*
X131595667Y-63326421D01*
X131468195Y-63379221D01*
X131468182Y-63379228D01*
X131353458Y-63455885D01*
X131353454Y-63455888D01*
X131255888Y-63553454D01*
X131255885Y-63553458D01*
X131179228Y-63668182D01*
X131179221Y-63668195D01*
X131126421Y-63795667D01*
X131126418Y-63795677D01*
X131099500Y-63931004D01*
X131099500Y-63931007D01*
X131099500Y-64068993D01*
X131099500Y-64068995D01*
X131099499Y-64068995D01*
X105250500Y-64068995D01*
X105250500Y-64061577D01*
X105231927Y-63944313D01*
X105219709Y-63867173D01*
X105158882Y-63679970D01*
X105069523Y-63504594D01*
X104953828Y-63345354D01*
X104814646Y-63206172D01*
X104735025Y-63148324D01*
X104655403Y-63090474D01*
X104478787Y-63000485D01*
X104427990Y-62952511D01*
X104411195Y-62884690D01*
X104433732Y-62818555D01*
X104478787Y-62779515D01*
X104655403Y-62689525D01*
X104655402Y-62689525D01*
X104655405Y-62689524D01*
X104814646Y-62573828D01*
X104953828Y-62434646D01*
X105069524Y-62275405D01*
X105158884Y-62100025D01*
X105219709Y-61912826D01*
X105232258Y-61833593D01*
X105250500Y-61718422D01*
X105250500Y-61521577D01*
X105219709Y-61327173D01*
X105181494Y-61209561D01*
X105158884Y-61139975D01*
X105158882Y-61139972D01*
X105158882Y-61139970D01*
X105080443Y-60986025D01*
X105069524Y-60964595D01*
X104953828Y-60805354D01*
X104814646Y-60666172D01*
X104726156Y-60601880D01*
X104655403Y-60550474D01*
X104478787Y-60460485D01*
X104427990Y-60412511D01*
X104411195Y-60344690D01*
X104433732Y-60278555D01*
X104478787Y-60239515D01*
X104655403Y-60149525D01*
X104655402Y-60149525D01*
X104655405Y-60149524D01*
X104814646Y-60033828D01*
X104953828Y-59894646D01*
X105069524Y-59735405D01*
X105158884Y-59560025D01*
X105219709Y-59372826D01*
X105235521Y-59272993D01*
X105250500Y-59178422D01*
X105250500Y-58981577D01*
X105219709Y-58787173D01*
X105171419Y-58638555D01*
X105158884Y-58599975D01*
X105158882Y-58599972D01*
X105158882Y-58599970D01*
X105096362Y-58477268D01*
X105069524Y-58424595D01*
X104953828Y-58265354D01*
X104814646Y-58126172D01*
X104655405Y-58010476D01*
X104480029Y-57921117D01*
X104338387Y-57875094D01*
X104280712Y-57835656D01*
X104253514Y-57771297D01*
X104265429Y-57702450D01*
X104312674Y-57650975D01*
X104338389Y-57639232D01*
X104441441Y-57605749D01*
X104441447Y-57605747D01*
X104602730Y-57523568D01*
X104700442Y-57452574D01*
X104700443Y-57452574D01*
X104231539Y-56983670D01*
X104307007Y-56940099D01*
X104400099Y-56847007D01*
X104443670Y-56771538D01*
X104912574Y-57240443D01*
X104912574Y-57240442D01*
X104983568Y-57142730D01*
X105065747Y-56981447D01*
X105065748Y-56981444D01*
X105121682Y-56809293D01*
X105150000Y-56630506D01*
X105150000Y-56449493D01*
X105121682Y-56270706D01*
X105065748Y-56098555D01*
X105065747Y-56098552D01*
X104983567Y-55937268D01*
X104912574Y-55839556D01*
X104912574Y-55839555D01*
X104443670Y-56308460D01*
X104400099Y-56232993D01*
X104307007Y-56139901D01*
X104231539Y-56096329D01*
X104700443Y-55627425D01*
X104700442Y-55627424D01*
X104602731Y-55556432D01*
X104462508Y-55484984D01*
X104411712Y-55437009D01*
X104394917Y-55369188D01*
X104417455Y-55303053D01*
X104472170Y-55259602D01*
X104518801Y-55250499D01*
X104881518Y-55250499D01*
X104975304Y-55235646D01*
X105088342Y-55178050D01*
X105178050Y-55088342D01*
X105235646Y-54975304D01*
X105235646Y-54975302D01*
X105235647Y-54975301D01*
X105250499Y-54881524D01*
X105250500Y-54881519D01*
X105250499Y-53118482D01*
X105250498Y-53118475D01*
X110249500Y-53118475D01*
X110249500Y-54881517D01*
X110260292Y-54949657D01*
X110264354Y-54975304D01*
X110321950Y-55088342D01*
X110321952Y-55088344D01*
X110321954Y-55088347D01*
X110411652Y-55178045D01*
X110411654Y-55178046D01*
X110411658Y-55178050D01*
X110524694Y-55235645D01*
X110524698Y-55235647D01*
X110618475Y-55250499D01*
X110618481Y-55250500D01*
X110765735Y-55250499D01*
X110832772Y-55270183D01*
X110878527Y-55322987D01*
X110888471Y-55392145D01*
X110859446Y-55455701D01*
X110838619Y-55474816D01*
X110685360Y-55586167D01*
X110685351Y-55586174D01*
X110546174Y-55725351D01*
X110546174Y-55725352D01*
X110546172Y-55725354D01*
X110545399Y-55726418D01*
X110430476Y-55884594D01*
X110341117Y-56059970D01*
X110280290Y-56247173D01*
X110249500Y-56441577D01*
X110249500Y-56638422D01*
X110280290Y-56832826D01*
X110341117Y-57020029D01*
X110392028Y-57119946D01*
X110430476Y-57195405D01*
X110546172Y-57354646D01*
X110685354Y-57493828D01*
X110844595Y-57609524D01*
X110902901Y-57639232D01*
X111019970Y-57698882D01*
X111019972Y-57698882D01*
X111019975Y-57698884D01*
X111125000Y-57733009D01*
X111161612Y-57744905D01*
X111219287Y-57784343D01*
X111246485Y-57848702D01*
X111234570Y-57917548D01*
X111187326Y-57969024D01*
X111161611Y-57980767D01*
X111058555Y-58014251D01*
X111058552Y-58014252D01*
X110897265Y-58096434D01*
X110799556Y-58167423D01*
X110799556Y-58167425D01*
X111268461Y-58636329D01*
X111192993Y-58679901D01*
X111099901Y-58772993D01*
X111056329Y-58848460D01*
X110587425Y-58379556D01*
X110587423Y-58379556D01*
X110516434Y-58477265D01*
X110434252Y-58638552D01*
X110434251Y-58638555D01*
X110378317Y-58810706D01*
X110350000Y-58989493D01*
X110350000Y-59170506D01*
X110378317Y-59349293D01*
X110434251Y-59521444D01*
X110434252Y-59521447D01*
X110516432Y-59682731D01*
X110587424Y-59780442D01*
X110587425Y-59780443D01*
X111056329Y-59311538D01*
X111099901Y-59387007D01*
X111192993Y-59480099D01*
X111268460Y-59523670D01*
X110799555Y-59992574D01*
X110897268Y-60063567D01*
X111058552Y-60145747D01*
X111058558Y-60145749D01*
X111161610Y-60179232D01*
X111219286Y-60218669D01*
X111246485Y-60283027D01*
X111234571Y-60351874D01*
X111187327Y-60403350D01*
X111161613Y-60415094D01*
X111019969Y-60461118D01*
X110844594Y-60550476D01*
X110773844Y-60601880D01*
X110685354Y-60666172D01*
X110685352Y-60666174D01*
X110685351Y-60666174D01*
X110546174Y-60805351D01*
X110546174Y-60805352D01*
X110546172Y-60805354D01*
X110515755Y-60847219D01*
X110430476Y-60964594D01*
X110341117Y-61139970D01*
X110280290Y-61327173D01*
X110249500Y-61521577D01*
X110249500Y-61718422D01*
X110280290Y-61912826D01*
X110341117Y-62100029D01*
X110375682Y-62167866D01*
X110430476Y-62275405D01*
X110546172Y-62434646D01*
X110685354Y-62573828D01*
X110844595Y-62689524D01*
X110927455Y-62731743D01*
X111019970Y-62778882D01*
X111019972Y-62778882D01*
X111019975Y-62778884D01*
X111120317Y-62811487D01*
X111207173Y-62839709D01*
X111401578Y-62870500D01*
X111401583Y-62870500D01*
X111598422Y-62870500D01*
X111792826Y-62839709D01*
X111830435Y-62827489D01*
X111980025Y-62778884D01*
X112155405Y-62689524D01*
X112314646Y-62573828D01*
X112453828Y-62434646D01*
X112569524Y-62275405D01*
X112658884Y-62100025D01*
X112719709Y-61912826D01*
X112732258Y-61833593D01*
X112750500Y-61718422D01*
X112750500Y-61521577D01*
X112719709Y-61327173D01*
X112681494Y-61209561D01*
X112658884Y-61139975D01*
X112658882Y-61139972D01*
X112658882Y-61139970D01*
X112580443Y-60986025D01*
X112569524Y-60964595D01*
X112453828Y-60805354D01*
X112314646Y-60666172D01*
X112155405Y-60550476D01*
X112155401Y-60550474D01*
X111980029Y-60461117D01*
X111838387Y-60415094D01*
X111780712Y-60375656D01*
X111753514Y-60311297D01*
X111765429Y-60242450D01*
X111812674Y-60190975D01*
X111838389Y-60179232D01*
X111941441Y-60145749D01*
X111941447Y-60145747D01*
X112102730Y-60063568D01*
X112200442Y-59992574D01*
X112200443Y-59992574D01*
X111731539Y-59523670D01*
X111807007Y-59480099D01*
X111900099Y-59387007D01*
X111943670Y-59311539D01*
X112412574Y-59780443D01*
X112412574Y-59780442D01*
X112483568Y-59682730D01*
X112565747Y-59521447D01*
X112565748Y-59521444D01*
X112621682Y-59349293D01*
X112650000Y-59170506D01*
X112650000Y-58989493D01*
X112621682Y-58810706D01*
X112565748Y-58638555D01*
X112565747Y-58638552D01*
X112483567Y-58477268D01*
X112412574Y-58379556D01*
X112412574Y-58379555D01*
X111943670Y-58848460D01*
X111900099Y-58772993D01*
X111807007Y-58679901D01*
X111731539Y-58636329D01*
X112200443Y-58167425D01*
X112200442Y-58167424D01*
X112102731Y-58096432D01*
X111941447Y-58014252D01*
X111941444Y-58014251D01*
X111838388Y-57980767D01*
X111780713Y-57941330D01*
X111753514Y-57876971D01*
X111765428Y-57808125D01*
X111812672Y-57756649D01*
X111838385Y-57744905D01*
X111980025Y-57698884D01*
X112155405Y-57609524D01*
X112314646Y-57493828D01*
X112453828Y-57354646D01*
X112569524Y-57195405D01*
X112658884Y-57020025D01*
X112719709Y-56832826D01*
X112735708Y-56731811D01*
X112750500Y-56638422D01*
X112750500Y-56441577D01*
X112719709Y-56247173D01*
X112671419Y-56098555D01*
X112658884Y-56059975D01*
X112658882Y-56059972D01*
X112658882Y-56059970D01*
X112596362Y-55937268D01*
X112569524Y-55884595D01*
X112453828Y-55725354D01*
X112314646Y-55586172D01*
X112161377Y-55474815D01*
X112118714Y-55419487D01*
X112112735Y-55349873D01*
X112145341Y-55288078D01*
X112206180Y-55253721D01*
X112234264Y-55250499D01*
X112381518Y-55250499D01*
X112475304Y-55235646D01*
X112588342Y-55178050D01*
X112678050Y-55088342D01*
X112735646Y-54975304D01*
X112735646Y-54975302D01*
X112735647Y-54975301D01*
X112750499Y-54881524D01*
X112750500Y-54881519D01*
X112750499Y-53118482D01*
X112750498Y-53118475D01*
X117749500Y-53118475D01*
X117749500Y-54881517D01*
X117760292Y-54949657D01*
X117764354Y-54975304D01*
X117821950Y-55088342D01*
X117821952Y-55088344D01*
X117821954Y-55088347D01*
X117911652Y-55178045D01*
X117911654Y-55178046D01*
X117911658Y-55178050D01*
X118024694Y-55235645D01*
X118024698Y-55235647D01*
X118118475Y-55250499D01*
X118118481Y-55250500D01*
X118265735Y-55250499D01*
X118332772Y-55270183D01*
X118378527Y-55322987D01*
X118388471Y-55392145D01*
X118359446Y-55455701D01*
X118338619Y-55474816D01*
X118185360Y-55586167D01*
X118185351Y-55586174D01*
X118046174Y-55725351D01*
X118046174Y-55725352D01*
X118046172Y-55725354D01*
X118045399Y-55726418D01*
X117930476Y-55884594D01*
X117841117Y-56059970D01*
X117780290Y-56247173D01*
X117749500Y-56441577D01*
X117749500Y-56638422D01*
X117780290Y-56832826D01*
X117841117Y-57020029D01*
X117892028Y-57119946D01*
X117930476Y-57195405D01*
X118046172Y-57354646D01*
X118185354Y-57493828D01*
X118344595Y-57609524D01*
X118402901Y-57639232D01*
X118519970Y-57698882D01*
X118519972Y-57698882D01*
X118519975Y-57698884D01*
X118625000Y-57733009D01*
X118661612Y-57744905D01*
X118719287Y-57784343D01*
X118746485Y-57848702D01*
X118734570Y-57917548D01*
X118687326Y-57969024D01*
X118661611Y-57980767D01*
X118558555Y-58014251D01*
X118558552Y-58014252D01*
X118397265Y-58096434D01*
X118299556Y-58167423D01*
X118299556Y-58167425D01*
X118768461Y-58636329D01*
X118692993Y-58679901D01*
X118599901Y-58772993D01*
X118556329Y-58848460D01*
X118087425Y-58379556D01*
X118087423Y-58379556D01*
X118016434Y-58477265D01*
X117934252Y-58638552D01*
X117934251Y-58638555D01*
X117878317Y-58810706D01*
X117850000Y-58989493D01*
X117850000Y-59170506D01*
X117878317Y-59349293D01*
X117934251Y-59521444D01*
X117934252Y-59521447D01*
X118016432Y-59682731D01*
X118087424Y-59780442D01*
X118087425Y-59780443D01*
X118556329Y-59311538D01*
X118599901Y-59387007D01*
X118692993Y-59480099D01*
X118768460Y-59523670D01*
X118299555Y-59992574D01*
X118397268Y-60063567D01*
X118558552Y-60145747D01*
X118558558Y-60145749D01*
X118661610Y-60179232D01*
X118719286Y-60218669D01*
X118746485Y-60283027D01*
X118734571Y-60351874D01*
X118687327Y-60403350D01*
X118661613Y-60415094D01*
X118519969Y-60461118D01*
X118344594Y-60550476D01*
X118273844Y-60601880D01*
X118185354Y-60666172D01*
X118185352Y-60666174D01*
X118185351Y-60666174D01*
X118046174Y-60805351D01*
X118046174Y-60805352D01*
X118046172Y-60805354D01*
X118015755Y-60847219D01*
X117930476Y-60964594D01*
X117841117Y-61139970D01*
X117780290Y-61327173D01*
X117749500Y-61521577D01*
X117749500Y-61718422D01*
X117780290Y-61912826D01*
X117841117Y-62100029D01*
X117875682Y-62167866D01*
X117930476Y-62275405D01*
X118046172Y-62434646D01*
X118185354Y-62573828D01*
X118344595Y-62689524D01*
X118427455Y-62731743D01*
X118519970Y-62778882D01*
X118519972Y-62778882D01*
X118519975Y-62778884D01*
X118620317Y-62811487D01*
X118707173Y-62839709D01*
X118901578Y-62870500D01*
X118901583Y-62870500D01*
X119098422Y-62870500D01*
X119292826Y-62839709D01*
X119330435Y-62827489D01*
X119480025Y-62778884D01*
X119655405Y-62689524D01*
X119814646Y-62573828D01*
X119953828Y-62434646D01*
X120069524Y-62275405D01*
X120158884Y-62100025D01*
X120219709Y-61912826D01*
X120232258Y-61833593D01*
X120250500Y-61718422D01*
X120250500Y-61521577D01*
X120219709Y-61327173D01*
X120181494Y-61209561D01*
X120158884Y-61139975D01*
X120158882Y-61139972D01*
X120158882Y-61139970D01*
X120080443Y-60986025D01*
X120069524Y-60964595D01*
X119953828Y-60805354D01*
X119814646Y-60666172D01*
X119655405Y-60550476D01*
X119655401Y-60550474D01*
X119480029Y-60461117D01*
X119338387Y-60415094D01*
X119280712Y-60375656D01*
X119253514Y-60311297D01*
X119265429Y-60242450D01*
X119312674Y-60190975D01*
X119338389Y-60179232D01*
X119441441Y-60145749D01*
X119441447Y-60145747D01*
X119602730Y-60063568D01*
X119700442Y-59992574D01*
X119700443Y-59992574D01*
X119231539Y-59523670D01*
X119307007Y-59480099D01*
X119400099Y-59387007D01*
X119443670Y-59311539D01*
X119912574Y-59780443D01*
X119912574Y-59780442D01*
X119983568Y-59682730D01*
X120065747Y-59521447D01*
X120065748Y-59521444D01*
X120121682Y-59349293D01*
X120150000Y-59170506D01*
X120150000Y-58989493D01*
X120121682Y-58810706D01*
X120065748Y-58638555D01*
X120065747Y-58638552D01*
X119983567Y-58477268D01*
X119912574Y-58379556D01*
X119912574Y-58379555D01*
X119443670Y-58848460D01*
X119400099Y-58772993D01*
X119307007Y-58679901D01*
X119231538Y-58636329D01*
X119700443Y-58167424D01*
X119648770Y-58129881D01*
X145431733Y-58129881D01*
X145431733Y-58334584D01*
X145463755Y-58536767D01*
X145527014Y-58731456D01*
X145559280Y-58794780D01*
X145606272Y-58887007D01*
X145619948Y-58913846D01*
X145740261Y-59079446D01*
X145885019Y-59224204D01*
X146039982Y-59336789D01*
X146050623Y-59344520D01*
X146166840Y-59403736D01*
X146233009Y-59437451D01*
X146233011Y-59437451D01*
X146233014Y-59437453D01*
X146337370Y-59471360D01*
X146427698Y-59500710D01*
X146478473Y-59508752D01*
X146629881Y-59532733D01*
X146629882Y-59532733D01*
X146834584Y-59532733D01*
X146834585Y-59532733D01*
X147036767Y-59500710D01*
X147093805Y-59482176D01*
X147163644Y-59480180D01*
X147223478Y-59516259D01*
X147254307Y-59578959D01*
X147250056Y-59638423D01*
X147231523Y-59695464D01*
X147231523Y-59695466D01*
X147199500Y-59897648D01*
X147199500Y-60102352D01*
X147206972Y-60149525D01*
X147231523Y-60304535D01*
X147231524Y-60304542D01*
X147250055Y-60361574D01*
X147252050Y-60431415D01*
X147215969Y-60491247D01*
X147153268Y-60522075D01*
X147093807Y-60517822D01*
X147036775Y-60499291D01*
X147036768Y-60499290D01*
X146935676Y-60483278D01*
X146834585Y-60467267D01*
X146629881Y-60467267D01*
X146605562Y-60471118D01*
X146427698Y-60499289D01*
X146233009Y-60562548D01*
X146050619Y-60655482D01*
X145885019Y-60775795D01*
X145740261Y-60920553D01*
X145619948Y-61086153D01*
X145527014Y-61268543D01*
X145463755Y-61463232D01*
X145431733Y-61665415D01*
X145431733Y-61870118D01*
X145463755Y-62072301D01*
X145527014Y-62266990D01*
X145590924Y-62392420D01*
X145612441Y-62434648D01*
X145619948Y-62449380D01*
X145740261Y-62614980D01*
X145885019Y-62759738D01*
X145995092Y-62839709D01*
X146050623Y-62880054D01*
X146164776Y-62938218D01*
X146233009Y-62972985D01*
X146233011Y-62972985D01*
X146233014Y-62972987D01*
X146317644Y-63000485D01*
X146427698Y-63036244D01*
X146528790Y-63052255D01*
X146629881Y-63068267D01*
X146629882Y-63068267D01*
X146834584Y-63068267D01*
X146834585Y-63068267D01*
X147036767Y-63036244D01*
X147231452Y-62972987D01*
X147413843Y-62880054D01*
X147532155Y-62794096D01*
X147579446Y-62759738D01*
X147579448Y-62759735D01*
X147579452Y-62759733D01*
X147724199Y-62614986D01*
X147724201Y-62614982D01*
X147724204Y-62614980D01*
X147776965Y-62542357D01*
X147844520Y-62449377D01*
X147937453Y-62266986D01*
X148000710Y-62072301D01*
X148032733Y-61870119D01*
X148032733Y-61665415D01*
X148000710Y-61463233D01*
X147982175Y-61406190D01*
X147980180Y-61336353D01*
X148016260Y-61276519D01*
X148078961Y-61245690D01*
X148138423Y-61249942D01*
X148195466Y-61268477D01*
X148397648Y-61300500D01*
X148397649Y-61300500D01*
X148602351Y-61300500D01*
X148602352Y-61300500D01*
X148804534Y-61268477D01*
X148979718Y-61211555D01*
X149049559Y-61209561D01*
X149109392Y-61245641D01*
X149140220Y-61308342D01*
X149135967Y-61367805D01*
X149097315Y-61486762D01*
X149097315Y-61486765D01*
X149076567Y-61617767D01*
X149790322Y-61617767D01*
X149767767Y-61701941D01*
X149767767Y-61833593D01*
X149790322Y-61917767D01*
X149076567Y-61917767D01*
X149097315Y-62048768D01*
X149097315Y-62048771D01*
X149155681Y-62228404D01*
X149241437Y-62396707D01*
X149352452Y-62549508D01*
X149352456Y-62549513D01*
X149486020Y-62683077D01*
X149486025Y-62683081D01*
X149638826Y-62794096D01*
X149807129Y-62879852D01*
X149986763Y-62938218D01*
X150117767Y-62958967D01*
X150117767Y-62245212D01*
X150201941Y-62267767D01*
X150333593Y-62267767D01*
X150417767Y-62245212D01*
X150417767Y-62958966D01*
X150548768Y-62938218D01*
X150548771Y-62938218D01*
X150728404Y-62879852D01*
X150896707Y-62794096D01*
X151049508Y-62683081D01*
X151049513Y-62683077D01*
X151183077Y-62549513D01*
X151183081Y-62549508D01*
X151294096Y-62396707D01*
X151379852Y-62228404D01*
X151438218Y-62048771D01*
X151438218Y-62048768D01*
X151458967Y-61917767D01*
X150745212Y-61917767D01*
X150767767Y-61833593D01*
X150767767Y-61701941D01*
X150745212Y-61617767D01*
X151458967Y-61617767D01*
X151438218Y-61486765D01*
X151438218Y-61486762D01*
X151379852Y-61307129D01*
X151294096Y-61138826D01*
X151183081Y-60986025D01*
X151183077Y-60986020D01*
X151049513Y-60852456D01*
X151049508Y-60852452D01*
X150896707Y-60741437D01*
X150728404Y-60655681D01*
X150548770Y-60597315D01*
X150417767Y-60576565D01*
X150417767Y-61290321D01*
X150333593Y-61267767D01*
X150201941Y-61267767D01*
X150117767Y-61290321D01*
X150117767Y-60576565D01*
X149986764Y-60597315D01*
X149986757Y-60597316D01*
X149867804Y-60635966D01*
X149797963Y-60637961D01*
X149738130Y-60601880D01*
X149707303Y-60539179D01*
X149711555Y-60479719D01*
X149768477Y-60304534D01*
X149800500Y-60102352D01*
X149800500Y-59897648D01*
X149768477Y-59695466D01*
X149749942Y-59638423D01*
X149747947Y-59568586D01*
X149784027Y-59508752D01*
X149846728Y-59477923D01*
X149906190Y-59482175D01*
X149963233Y-59500710D01*
X150165415Y-59532733D01*
X150165416Y-59532733D01*
X150370118Y-59532733D01*
X150370119Y-59532733D01*
X150572301Y-59500710D01*
X150766986Y-59437453D01*
X150949377Y-59344520D01*
X151047826Y-59272993D01*
X151114980Y-59224204D01*
X151114982Y-59224201D01*
X151114986Y-59224199D01*
X151259733Y-59079452D01*
X151259735Y-59079448D01*
X151259738Y-59079446D01*
X151312499Y-59006823D01*
X151380054Y-58913843D01*
X151472987Y-58731452D01*
X151536244Y-58536767D01*
X151568267Y-58334585D01*
X151568267Y-58129881D01*
X151536244Y-57927699D01*
X151534105Y-57921117D01*
X151485426Y-57771297D01*
X151472987Y-57733014D01*
X151472985Y-57733011D01*
X151472985Y-57733009D01*
X151431186Y-57650975D01*
X151380054Y-57550623D01*
X151360397Y-57523567D01*
X151259738Y-57385019D01*
X151114980Y-57240261D01*
X150949380Y-57119948D01*
X150949379Y-57119947D01*
X150949377Y-57119946D01*
X150858375Y-57073578D01*
X150766990Y-57027014D01*
X150572301Y-56963755D01*
X150397762Y-56936111D01*
X150370119Y-56931733D01*
X150165415Y-56931733D01*
X150141096Y-56935584D01*
X149963232Y-56963755D01*
X149768543Y-57027014D01*
X149586153Y-57119948D01*
X149420553Y-57240261D01*
X149275795Y-57385019D01*
X149155482Y-57550619D01*
X149062548Y-57733009D01*
X148999289Y-57927698D01*
X148967267Y-58129881D01*
X148967267Y-58334584D01*
X148999290Y-58536768D01*
X148999291Y-58536775D01*
X149017822Y-58593807D01*
X149019817Y-58663648D01*
X148983736Y-58723480D01*
X148921035Y-58754308D01*
X148861574Y-58750055D01*
X148804542Y-58731524D01*
X148804535Y-58731523D01*
X148703443Y-58715511D01*
X148602352Y-58699500D01*
X148397648Y-58699500D01*
X148330254Y-58710174D01*
X148195464Y-58731523D01*
X148138423Y-58750056D01*
X148068582Y-58752050D01*
X148008750Y-58715968D01*
X147977923Y-58653267D01*
X147982176Y-58593806D01*
X148000710Y-58536767D01*
X148032733Y-58334585D01*
X148032733Y-58129881D01*
X148000710Y-57927699D01*
X147998571Y-57921117D01*
X147949892Y-57771297D01*
X147937453Y-57733014D01*
X147937451Y-57733011D01*
X147937451Y-57733009D01*
X147895652Y-57650975D01*
X147844520Y-57550623D01*
X147824863Y-57523567D01*
X147724204Y-57385019D01*
X147579446Y-57240261D01*
X147413846Y-57119948D01*
X147413845Y-57119947D01*
X147413843Y-57119946D01*
X147322841Y-57073578D01*
X147231456Y-57027014D01*
X147036767Y-56963755D01*
X146862228Y-56936111D01*
X146834585Y-56931733D01*
X146629881Y-56931733D01*
X146605562Y-56935584D01*
X146427698Y-56963755D01*
X146233009Y-57027014D01*
X146050619Y-57119948D01*
X145885019Y-57240261D01*
X145740261Y-57385019D01*
X145619948Y-57550619D01*
X145527014Y-57733009D01*
X145463755Y-57927698D01*
X145431733Y-58129881D01*
X119648770Y-58129881D01*
X119602731Y-58096432D01*
X119441447Y-58014252D01*
X119441444Y-58014251D01*
X119338388Y-57980767D01*
X119280713Y-57941330D01*
X119253514Y-57876971D01*
X119265428Y-57808125D01*
X119312672Y-57756649D01*
X119338385Y-57744905D01*
X119480025Y-57698884D01*
X119655405Y-57609524D01*
X119814646Y-57493828D01*
X119953828Y-57354646D01*
X120069524Y-57195405D01*
X120158884Y-57020025D01*
X120219709Y-56832826D01*
X120235708Y-56731811D01*
X120250500Y-56638422D01*
X120250500Y-56441577D01*
X120219709Y-56247173D01*
X120171419Y-56098555D01*
X120158884Y-56059975D01*
X120158882Y-56059972D01*
X120158882Y-56059970D01*
X120096362Y-55937268D01*
X120069524Y-55884595D01*
X119953828Y-55725354D01*
X119814646Y-55586172D01*
X119661377Y-55474815D01*
X119618714Y-55419487D01*
X119612735Y-55349873D01*
X119645341Y-55288078D01*
X119706180Y-55253721D01*
X119734264Y-55250499D01*
X119881518Y-55250499D01*
X119975304Y-55235646D01*
X120088342Y-55178050D01*
X120178050Y-55088342D01*
X120235646Y-54975304D01*
X120235646Y-54975302D01*
X120235647Y-54975301D01*
X120250499Y-54881524D01*
X120250500Y-54881519D01*
X120250499Y-53118482D01*
X120250498Y-53118475D01*
X125249500Y-53118475D01*
X125249500Y-54881517D01*
X125260292Y-54949657D01*
X125264354Y-54975304D01*
X125321950Y-55088342D01*
X125321952Y-55088344D01*
X125321954Y-55088347D01*
X125411652Y-55178045D01*
X125411654Y-55178046D01*
X125411658Y-55178050D01*
X125524694Y-55235645D01*
X125524698Y-55235647D01*
X125618475Y-55250499D01*
X125618481Y-55250500D01*
X125765735Y-55250499D01*
X125832772Y-55270183D01*
X125878527Y-55322987D01*
X125888471Y-55392145D01*
X125859446Y-55455701D01*
X125838619Y-55474816D01*
X125685360Y-55586167D01*
X125685351Y-55586174D01*
X125546174Y-55725351D01*
X125546174Y-55725352D01*
X125546172Y-55725354D01*
X125545399Y-55726418D01*
X125430476Y-55884594D01*
X125341117Y-56059970D01*
X125280290Y-56247173D01*
X125249500Y-56441577D01*
X125249500Y-56638422D01*
X125280290Y-56832826D01*
X125341117Y-57020029D01*
X125392028Y-57119946D01*
X125430476Y-57195405D01*
X125546172Y-57354646D01*
X125685354Y-57493828D01*
X125844595Y-57609524D01*
X125902901Y-57639232D01*
X126019970Y-57698882D01*
X126019972Y-57698882D01*
X126019975Y-57698884D01*
X126120317Y-57731487D01*
X126207173Y-57759709D01*
X126401578Y-57790500D01*
X126401583Y-57790500D01*
X126598422Y-57790500D01*
X126792826Y-57759709D01*
X126802244Y-57756649D01*
X126980025Y-57698884D01*
X127155405Y-57609524D01*
X127314646Y-57493828D01*
X127453828Y-57354646D01*
X127569524Y-57195405D01*
X127658884Y-57020025D01*
X127719709Y-56832826D01*
X127735708Y-56731811D01*
X127750500Y-56638422D01*
X127750500Y-56468995D01*
X130499499Y-56468995D01*
X130526418Y-56604322D01*
X130526421Y-56604332D01*
X130579221Y-56731804D01*
X130579228Y-56731817D01*
X130655885Y-56846541D01*
X130655888Y-56846545D01*
X130753454Y-56944111D01*
X130753458Y-56944114D01*
X130868182Y-57020771D01*
X130868195Y-57020778D01*
X130914602Y-57040000D01*
X130995672Y-57073580D01*
X130995676Y-57073580D01*
X130995677Y-57073581D01*
X131131004Y-57100500D01*
X131131007Y-57100500D01*
X131268995Y-57100500D01*
X131360041Y-57082389D01*
X131404328Y-57073580D01*
X131531811Y-57020775D01*
X131646542Y-56944114D01*
X131744114Y-56846542D01*
X131820775Y-56731811D01*
X131873580Y-56604328D01*
X131886376Y-56539999D01*
X131900500Y-56468995D01*
X131900500Y-56331004D01*
X131873581Y-56195677D01*
X131873580Y-56195676D01*
X131873580Y-56195672D01*
X131833352Y-56098552D01*
X131820778Y-56068195D01*
X131820771Y-56068182D01*
X131744114Y-55953458D01*
X131744111Y-55953454D01*
X131646545Y-55855888D01*
X131646541Y-55855885D01*
X131531817Y-55779228D01*
X131531804Y-55779221D01*
X131404332Y-55726421D01*
X131404322Y-55726418D01*
X131268995Y-55699500D01*
X131268993Y-55699500D01*
X131131007Y-55699500D01*
X131131005Y-55699500D01*
X130995677Y-55726418D01*
X130995667Y-55726421D01*
X130868195Y-55779221D01*
X130868182Y-55779228D01*
X130753458Y-55855885D01*
X130753454Y-55855888D01*
X130655888Y-55953454D01*
X130655885Y-55953458D01*
X130579228Y-56068182D01*
X130579221Y-56068195D01*
X130526421Y-56195667D01*
X130526418Y-56195677D01*
X130499500Y-56331004D01*
X130499500Y-56331007D01*
X130499500Y-56468993D01*
X130499500Y-56468995D01*
X130499499Y-56468995D01*
X127750500Y-56468995D01*
X127750500Y-56441577D01*
X127735095Y-56344313D01*
X127723436Y-56270706D01*
X127719709Y-56247174D01*
X127658884Y-56059975D01*
X127658882Y-56059972D01*
X127658882Y-56059970D01*
X127596362Y-55937268D01*
X127569524Y-55884595D01*
X127453828Y-55725354D01*
X127314646Y-55586172D01*
X127161377Y-55474815D01*
X127118714Y-55419487D01*
X127112735Y-55349873D01*
X127145341Y-55288078D01*
X127206180Y-55253721D01*
X127234264Y-55250499D01*
X127381518Y-55250499D01*
X127475304Y-55235646D01*
X127588342Y-55178050D01*
X127678050Y-55088342D01*
X127735646Y-54975304D01*
X127735646Y-54975302D01*
X127735647Y-54975301D01*
X127750499Y-54881524D01*
X127750500Y-54881519D01*
X127750499Y-53118482D01*
X127735646Y-53024696D01*
X127678050Y-52911658D01*
X127678046Y-52911654D01*
X127678045Y-52911652D01*
X127588347Y-52821954D01*
X127588344Y-52821952D01*
X127588342Y-52821950D01*
X127582543Y-52818995D01*
X136299499Y-52818995D01*
X136326418Y-52954322D01*
X136326421Y-52954332D01*
X136379221Y-53081804D01*
X136379228Y-53081817D01*
X136455885Y-53196541D01*
X136455888Y-53196545D01*
X136553454Y-53294111D01*
X136553458Y-53294114D01*
X136668182Y-53370771D01*
X136668195Y-53370778D01*
X136795667Y-53423578D01*
X136795672Y-53423580D01*
X136795676Y-53423580D01*
X136795677Y-53423581D01*
X136931004Y-53450500D01*
X136931007Y-53450500D01*
X137068995Y-53450500D01*
X137160041Y-53432389D01*
X137204328Y-53423580D01*
X137331811Y-53370775D01*
X137446542Y-53294114D01*
X137544114Y-53196542D01*
X137620775Y-53081811D01*
X137673580Y-52954328D01*
X137700500Y-52818993D01*
X137700500Y-52681007D01*
X137700500Y-52681004D01*
X137673581Y-52545677D01*
X137673580Y-52545676D01*
X137673580Y-52545672D01*
X137673578Y-52545667D01*
X137620778Y-52418195D01*
X137620771Y-52418182D01*
X137544114Y-52303458D01*
X137544111Y-52303454D01*
X137446545Y-52205888D01*
X137446541Y-52205885D01*
X137331817Y-52129228D01*
X137331804Y-52129221D01*
X137204332Y-52076421D01*
X137204322Y-52076418D01*
X137068995Y-52049500D01*
X137068993Y-52049500D01*
X136931007Y-52049500D01*
X136931005Y-52049500D01*
X136795677Y-52076418D01*
X136795667Y-52076421D01*
X136668195Y-52129221D01*
X136668182Y-52129228D01*
X136553458Y-52205885D01*
X136553454Y-52205888D01*
X136455888Y-52303454D01*
X136455885Y-52303458D01*
X136379228Y-52418182D01*
X136379221Y-52418195D01*
X136326421Y-52545667D01*
X136326418Y-52545677D01*
X136299500Y-52681004D01*
X136299500Y-52681007D01*
X136299500Y-52818993D01*
X136299500Y-52818995D01*
X136299499Y-52818995D01*
X127582543Y-52818995D01*
X127496095Y-52774947D01*
X127475301Y-52764352D01*
X127381524Y-52749500D01*
X125618482Y-52749500D01*
X125537519Y-52762323D01*
X125524696Y-52764354D01*
X125411658Y-52821950D01*
X125411657Y-52821951D01*
X125411652Y-52821954D01*
X125321954Y-52911652D01*
X125321951Y-52911657D01*
X125264352Y-53024698D01*
X125249500Y-53118475D01*
X120250498Y-53118475D01*
X120235646Y-53024696D01*
X120178050Y-52911658D01*
X120178046Y-52911654D01*
X120178045Y-52911652D01*
X120088347Y-52821954D01*
X120088344Y-52821952D01*
X120088342Y-52821950D01*
X120011517Y-52782805D01*
X119975301Y-52764352D01*
X119881524Y-52749500D01*
X118118482Y-52749500D01*
X118037519Y-52762323D01*
X118024696Y-52764354D01*
X117911658Y-52821950D01*
X117911657Y-52821951D01*
X117911652Y-52821954D01*
X117821954Y-52911652D01*
X117821951Y-52911657D01*
X117764352Y-53024698D01*
X117749500Y-53118475D01*
X112750498Y-53118475D01*
X112735646Y-53024696D01*
X112678050Y-52911658D01*
X112678046Y-52911654D01*
X112678045Y-52911652D01*
X112588347Y-52821954D01*
X112588344Y-52821952D01*
X112588342Y-52821950D01*
X112511517Y-52782805D01*
X112475301Y-52764352D01*
X112381524Y-52749500D01*
X110618482Y-52749500D01*
X110537519Y-52762323D01*
X110524696Y-52764354D01*
X110411658Y-52821950D01*
X110411657Y-52821951D01*
X110411652Y-52821954D01*
X110321954Y-52911652D01*
X110321951Y-52911657D01*
X110264352Y-53024698D01*
X110249500Y-53118475D01*
X105250498Y-53118475D01*
X105235646Y-53024696D01*
X105178050Y-52911658D01*
X105178046Y-52911654D01*
X105178045Y-52911652D01*
X105088347Y-52821954D01*
X105088344Y-52821952D01*
X105088342Y-52821950D01*
X105011517Y-52782805D01*
X104975301Y-52764352D01*
X104881524Y-52749500D01*
X103118482Y-52749500D01*
X103037519Y-52762323D01*
X103024696Y-52764354D01*
X102911658Y-52821950D01*
X102911657Y-52821951D01*
X102911652Y-52821954D01*
X102821954Y-52911652D01*
X102821951Y-52911657D01*
X102764352Y-53024698D01*
X102749500Y-53118475D01*
X99500500Y-53118475D01*
X99500500Y-50624500D01*
X99520185Y-50557461D01*
X99572989Y-50511706D01*
X99624500Y-50500500D01*
X152375500Y-50500500D01*
X152442539Y-50520185D01*
G37*
%TD.AperFunction*%
%TD*%
M02*
