%TF.GenerationSoftware,KiCad,Pcbnew,10.0.6*%
%TF.CreationDate,2026-09-24T12:55:53-05:00*%
%TF.ProjectId,SensorPack_v1,53656e73-6f72-4506-9163-6b5f76312e6b,rev?*%
%TF.SameCoordinates,Original*%
%TF.FileFunction,Legend,Bot*%
%TF.FilePolarity,Positive*%
%FSLAX46Y46*%
G04 Gerber Fmt 4.6, Leading zero omitted, Abs format (unit mm)*
G04 Created by KiCad (PCBNEW 10.0.6) date 2026-09-24 12:55:53*
%MOMM*%
%LPD*%
G01*
G04 APERTURE LIST*
%ADD10C,0.200000*%
%ADD11C,0.150000*%
%ADD12C,0.400000*%
%ADD13C,0.120000*%
G04 APERTURE END LIST*
D10*
X140952220Y-89666666D02*
X141666505Y-89666666D01*
X141666505Y-89666666D02*
X141809362Y-89619047D01*
X141809362Y-89619047D02*
X141904601Y-89523809D01*
X141904601Y-89523809D02*
X141952220Y-89380952D01*
X141952220Y-89380952D02*
X141952220Y-89285714D01*
X141047458Y-90095238D02*
X140999839Y-90142857D01*
X140999839Y-90142857D02*
X140952220Y-90238095D01*
X140952220Y-90238095D02*
X140952220Y-90476190D01*
X140952220Y-90476190D02*
X140999839Y-90571428D01*
X140999839Y-90571428D02*
X141047458Y-90619047D01*
X141047458Y-90619047D02*
X141142696Y-90666666D01*
X141142696Y-90666666D02*
X141237934Y-90666666D01*
X141237934Y-90666666D02*
X141380791Y-90619047D01*
X141380791Y-90619047D02*
X141952220Y-90047619D01*
X141952220Y-90047619D02*
X141952220Y-90666666D01*
X140952220Y-59666666D02*
X141666505Y-59666666D01*
X141666505Y-59666666D02*
X141809362Y-59619047D01*
X141809362Y-59619047D02*
X141904601Y-59523809D01*
X141904601Y-59523809D02*
X141952220Y-59380952D01*
X141952220Y-59380952D02*
X141952220Y-59285714D01*
X141952220Y-60666666D02*
X141952220Y-60095238D01*
X141952220Y-60380952D02*
X140952220Y-60380952D01*
X140952220Y-60380952D02*
X141095077Y-60285714D01*
X141095077Y-60285714D02*
X141190315Y-60190476D01*
X141190315Y-60190476D02*
X141237934Y-60095238D01*
D11*
X103329523Y-79374819D02*
X103329523Y-80089104D01*
X103329523Y-80089104D02*
X103377142Y-80231961D01*
X103377142Y-80231961D02*
X103472380Y-80327200D01*
X103472380Y-80327200D02*
X103615237Y-80374819D01*
X103615237Y-80374819D02*
X103710475Y-80374819D01*
X102329523Y-80374819D02*
X102900951Y-80374819D01*
X102615237Y-80374819D02*
X102615237Y-79374819D01*
X102615237Y-79374819D02*
X102710475Y-79517676D01*
X102710475Y-79517676D02*
X102805713Y-79612914D01*
X102805713Y-79612914D02*
X102900951Y-79660533D01*
X101710475Y-79374819D02*
X101615237Y-79374819D01*
X101615237Y-79374819D02*
X101519999Y-79422438D01*
X101519999Y-79422438D02*
X101472380Y-79470057D01*
X101472380Y-79470057D02*
X101424761Y-79565295D01*
X101424761Y-79565295D02*
X101377142Y-79755771D01*
X101377142Y-79755771D02*
X101377142Y-79993866D01*
X101377142Y-79993866D02*
X101424761Y-80184342D01*
X101424761Y-80184342D02*
X101472380Y-80279580D01*
X101472380Y-80279580D02*
X101519999Y-80327200D01*
X101519999Y-80327200D02*
X101615237Y-80374819D01*
X101615237Y-80374819D02*
X101710475Y-80374819D01*
X101710475Y-80374819D02*
X101805713Y-80327200D01*
X101805713Y-80327200D02*
X101853332Y-80279580D01*
X101853332Y-80279580D02*
X101900951Y-80184342D01*
X101900951Y-80184342D02*
X101948570Y-79993866D01*
X101948570Y-79993866D02*
X101948570Y-79755771D01*
X101948570Y-79755771D02*
X101900951Y-79565295D01*
X101900951Y-79565295D02*
X101853332Y-79470057D01*
X101853332Y-79470057D02*
X101805713Y-79422438D01*
X101805713Y-79422438D02*
X101710475Y-79374819D01*
D12*
%TO.C,J2*%
X144610913Y-89646447D02*
X144610913Y-90353553D01*
X145318019Y-90000000D01*
X144610913Y-89646447D01*
G36*
X145318019Y-90000000D02*
G01*
X144610913Y-90353553D01*
X144610913Y-89646447D01*
X145318019Y-90000000D01*
G37*
%TO.C,J1*%
X144610913Y-59646447D02*
X144610913Y-60353553D01*
X145318019Y-60000000D01*
X144610913Y-59646447D01*
G36*
X145318019Y-60000000D02*
G01*
X144610913Y-60353553D01*
X144610913Y-59646447D01*
X145318019Y-60000000D01*
G37*
%TO.C,J10*%
D13*
X99870000Y-71080000D02*
X105170000Y-71080000D01*
X99870000Y-76270000D02*
X99870000Y-71080000D01*
X99870000Y-76270000D02*
X102520000Y-76270000D01*
X99870000Y-77540000D02*
X99870000Y-78920000D01*
X99870000Y-78920000D02*
X101250000Y-78920000D01*
X102520000Y-76270000D02*
X102520000Y-78920000D01*
X102520000Y-78920000D02*
X105170000Y-78920000D01*
X105170000Y-78920000D02*
X105170000Y-71080000D01*
%TD*%
M02*
