%TF.GenerationSoftware,KiCad,Pcbnew,10.0.6*%
%TF.CreationDate,2026-09-24T12:55:53-05:00*%
%TF.ProjectId,SensorPack_v1,53656e73-6f72-4506-9163-6b5f76312e6b,rev?*%
%TF.SameCoordinates,Original*%
%TF.FileFunction,Copper,L3,Inr*%
%TF.FilePolarity,Positive*%
%FSLAX46Y46*%
G04 Gerber Fmt 4.6, Leading zero omitted, Abs format (unit mm)*
G04 Created by KiCad (PCBNEW 10.0.6) date 2026-09-24 12:55:53*
%MOMM*%
%LPD*%
G01*
G04 APERTURE LIST*
%TA.AperFunction,ComponentPad*%
%ADD10R,1.700000X1.700000*%
%TD*%
%TA.AperFunction,ComponentPad*%
%ADD11C,1.700000*%
%TD*%
%TA.AperFunction,ComponentPad*%
%ADD12C,1.800000*%
%TD*%
%TA.AperFunction,ComponentPad*%
%ADD13R,1.800000X1.800000*%
%TD*%
%TA.AperFunction,ViaPad*%
%ADD14C,0.600000*%
%TD*%
G04 APERTURE END LIST*
D10*
%TO.N,Net-(J8-Pin_1)*%
%TO.C,J8*%
X104000000Y-54000000D03*
D11*
%TO.N,GND*%
X104000000Y-56540000D03*
%TO.N,/SPI1_CS1*%
X104000000Y-59080000D03*
%TO.N,/SPI1_SCK*%
X104000000Y-61620000D03*
%TO.N,/SPI1_MISO*%
X104000000Y-64160000D03*
%TO.N,/SPI1_MOSI*%
X104000000Y-66700000D03*
%TD*%
D10*
%TO.N,Net-(J5-Pin_1)*%
%TO.C,J5*%
X118500000Y-96650000D03*
D11*
%TO.N,GND*%
X118500000Y-94110000D03*
%TO.N,/I2C2_SDA1*%
X118500000Y-91570000D03*
%TO.N,/I2C2_SCL1*%
X118500000Y-89030000D03*
%TD*%
D12*
%TO.N,+5Vin*%
%TO.C,J2*%
X146732233Y-88232233D03*
%TO.N,/CANH*%
X146732233Y-91767767D03*
%TO.N,GND*%
X150267767Y-91767767D03*
%TO.N,/CANL*%
X150267767Y-88232233D03*
%TO.N,unconnected-(J2-Pin_5-Pad5)*%
X148500000Y-90000000D03*
%TD*%
%TO.N,+5Vin*%
%TO.C,J1*%
X146732233Y-58232233D03*
%TO.N,/CANH*%
X146732233Y-61767767D03*
%TO.N,GND*%
X150267767Y-61767767D03*
%TO.N,/CANL*%
X150267767Y-58232233D03*
%TO.N,unconnected-(J1-Pin_5-Pad5)*%
X148500000Y-60000000D03*
%TD*%
D10*
%TO.N,+5V*%
%TO.C,J6*%
X111500000Y-54000000D03*
D11*
%TO.N,+3V3*%
X111500000Y-56540000D03*
%TO.N,GND*%
X111500000Y-59080000D03*
%TO.N,Net-(J6-Pin_4)*%
X111500000Y-61620000D03*
%TD*%
D10*
%TO.N,Net-(J3-Pin_1)*%
%TO.C,J3*%
X126000000Y-96650000D03*
D11*
%TO.N,GND*%
X126000000Y-94110000D03*
%TO.N,/I2C2_SDA2*%
X126000000Y-91570000D03*
%TO.N,/I2C2_SCL2*%
X126000000Y-89030000D03*
%TD*%
D13*
%TO.N,Net-(LED1-K1)*%
%TO.C,LED1*%
X146500000Y-77540000D03*
D12*
%TO.N,+5V*%
X146500000Y-75000000D03*
%TO.N,Net-(LED1-K2)*%
X146500000Y-72460000D03*
%TD*%
D10*
%TO.N,+5V*%
%TO.C,J4*%
X119000000Y-54000000D03*
D11*
%TO.N,+3V3*%
X119000000Y-56540000D03*
%TO.N,GND*%
X119000000Y-59080000D03*
%TO.N,Net-(J4-Pin_4)*%
X119000000Y-61620000D03*
%TD*%
D10*
%TO.N,Net-(J7-Pin_1)*%
%TO.C,J7*%
X111000000Y-96650000D03*
D11*
%TO.N,GND*%
X111000000Y-94110000D03*
%TO.N,/I2C1_SDA*%
X111000000Y-91570000D03*
%TO.N,/I2C1_SCL*%
X111000000Y-89030000D03*
%TD*%
D10*
%TO.N,+3V3*%
%TO.C,TH2*%
X126500000Y-54000000D03*
D11*
%TO.N,/VNTC1*%
X126500000Y-56540000D03*
%TD*%
D10*
%TO.N,GND*%
%TO.C,J9*%
X104000000Y-96540000D03*
D11*
%TO.N,/USART2_RX*%
X104000000Y-94000000D03*
%TO.N,/USART2_CK*%
X104000000Y-91460000D03*
%TO.N,/USART2_TX*%
X104000000Y-88920000D03*
%TD*%
D10*
%TO.N,/SWDIO*%
%TO.C,J10*%
X101250000Y-77540000D03*
D11*
%TO.N,/SWCLK*%
X103790000Y-77540000D03*
%TO.N,/NRST*%
X101250000Y-75000000D03*
%TO.N,+3V3*%
X103790000Y-75000000D03*
%TO.N,GND*%
X101250000Y-72460000D03*
X103790000Y-72460000D03*
%TD*%
D14*
%TO.N,+3V3*%
X110087500Y-85750000D03*
X113500000Y-98300000D03*
X128500000Y-98300000D03*
X121000000Y-98300000D03*
X131200000Y-56400000D03*
X131283000Y-71282800D03*
X127800000Y-65200000D03*
X117587500Y-85750000D03*
X105000000Y-75000000D03*
X125087500Y-85750000D03*
X131800000Y-64000000D03*
X132955000Y-88845000D03*
X140700000Y-78260000D03*
%TO.N,+5V*%
X137662000Y-89527500D03*
X128500000Y-93000000D03*
X113500000Y-93000000D03*
X121000000Y-93000000D03*
X137000000Y-52750000D03*
%TO.N,GND*%
X127000000Y-78592100D03*
X133800000Y-67000000D03*
X128796000Y-73203900D03*
X123000000Y-55000000D03*
X101000000Y-51000000D03*
X127000000Y-75000000D03*
X134000000Y-76500000D03*
X144300000Y-58700000D03*
X123408000Y-75000000D03*
X134500000Y-56250000D03*
X132750000Y-56250000D03*
X101000000Y-94000000D03*
X151000000Y-79000000D03*
X116000000Y-78000000D03*
X142100000Y-94100000D03*
X102500000Y-71500000D03*
X134750000Y-87150000D03*
X139600000Y-83400000D03*
X152000000Y-99000000D03*
X117000000Y-67250000D03*
X122000000Y-51000000D03*
X146600000Y-70400000D03*
X108200000Y-73000000D03*
X128000000Y-83000000D03*
X101000000Y-86000000D03*
X101000000Y-99000000D03*
X109500000Y-67250000D03*
X133800000Y-94300000D03*
X101000000Y-80000000D03*
X107200000Y-75000000D03*
X140000000Y-69600000D03*
X136600000Y-65400000D03*
X132000000Y-81000000D03*
X132000000Y-61000000D03*
X119000000Y-73000000D03*
X144300000Y-54250000D03*
X125200000Y-66100000D03*
X142500000Y-55700000D03*
X146600000Y-79400000D03*
X142000000Y-51000000D03*
X122000000Y-99000000D03*
X133400000Y-73200000D03*
X129000000Y-91000000D03*
X142000000Y-99000000D03*
X152000000Y-51000000D03*
X140000000Y-73200000D03*
X101000000Y-65000000D03*
X143100000Y-75600000D03*
X131800000Y-67900000D03*
X130250000Y-52000000D03*
X145588000Y-96250000D03*
X134800000Y-69600000D03*
X130592000Y-75000000D03*
X132000000Y-99000000D03*
X132800000Y-69600000D03*
X121000000Y-78000000D03*
X107500000Y-99000000D03*
X140000000Y-66118300D03*
X142500000Y-52800000D03*
X139500000Y-80300000D03*
X125204000Y-73203900D03*
X137750000Y-91350000D03*
X111000000Y-83000000D03*
X122000000Y-91000000D03*
X128796000Y-76796100D03*
X136600000Y-73800000D03*
X151000000Y-70000000D03*
X128300000Y-57250000D03*
X112500000Y-68800000D03*
X116500000Y-83500000D03*
X125204000Y-76796100D03*
X112000000Y-51000000D03*
X130417000Y-71017200D03*
X127000000Y-71407900D03*
X124000000Y-83000000D03*
X144000000Y-65500000D03*
X108500000Y-55300000D03*
X140000000Y-61000000D03*
%TO.N,/NRST*%
X130000000Y-69800000D03*
%TO.N,/SWDIO*%
X125800000Y-81000000D03*
%TO.N,/SWCLK*%
X128200000Y-81200000D03*
%TD*%
%TA.AperFunction,Conductor*%
%TO.N,+3V3*%
G36*
X103324075Y-75192993D02*
G01*
X103389901Y-75307007D01*
X103482993Y-75400099D01*
X103597007Y-75465925D01*
X103660590Y-75482962D01*
X103028282Y-76115269D01*
X103028282Y-76115270D01*
X103082452Y-76154626D01*
X103082451Y-76154626D01*
X103091495Y-76159234D01*
X103142292Y-76207208D01*
X103159087Y-76275029D01*
X103136550Y-76341164D01*
X103091499Y-76380202D01*
X103082182Y-76384949D01*
X102910215Y-76509889D01*
X102796673Y-76623431D01*
X102735350Y-76656915D01*
X102665658Y-76651931D01*
X102609725Y-76610059D01*
X102592810Y-76579082D01*
X102543797Y-76447671D01*
X102543793Y-76447664D01*
X102457547Y-76332455D01*
X102457544Y-76332452D01*
X102342335Y-76246206D01*
X102342328Y-76246202D01*
X102210917Y-76197189D01*
X102154983Y-76155318D01*
X102130566Y-76089853D01*
X102145418Y-76021580D01*
X102166563Y-75993332D01*
X102280104Y-75879792D01*
X102281254Y-75878210D01*
X102313745Y-75833489D01*
X102405051Y-75707816D01*
X102409793Y-75698508D01*
X102457763Y-75647711D01*
X102525583Y-75630911D01*
X102591719Y-75653445D01*
X102630763Y-75698500D01*
X102635373Y-75707547D01*
X102674728Y-75761716D01*
X103307037Y-75129408D01*
X103324075Y-75192993D01*
G37*
%TD.AperFunction*%
%TA.AperFunction,Conductor*%
G36*
X102591444Y-73113999D02*
G01*
X102630486Y-73159056D01*
X102634951Y-73167820D01*
X102759890Y-73339786D01*
X102910213Y-73490109D01*
X103082179Y-73615048D01*
X103082181Y-73615049D01*
X103082184Y-73615051D01*
X103091493Y-73619794D01*
X103142290Y-73667766D01*
X103159087Y-73735587D01*
X103136552Y-73801722D01*
X103091505Y-73840760D01*
X103082446Y-73845376D01*
X103082440Y-73845380D01*
X103028282Y-73884727D01*
X103028282Y-73884728D01*
X103660591Y-74517037D01*
X103597007Y-74534075D01*
X103482993Y-74599901D01*
X103389901Y-74692993D01*
X103324075Y-74807007D01*
X103307037Y-74870591D01*
X102674728Y-74238282D01*
X102674727Y-74238282D01*
X102635380Y-74292440D01*
X102635376Y-74292446D01*
X102630760Y-74301505D01*
X102582781Y-74352297D01*
X102514959Y-74369087D01*
X102448826Y-74346543D01*
X102409794Y-74301493D01*
X102405051Y-74292184D01*
X102405049Y-74292181D01*
X102405048Y-74292179D01*
X102280109Y-74120213D01*
X102129786Y-73969890D01*
X101957820Y-73844951D01*
X101949600Y-73840763D01*
X101949054Y-73840485D01*
X101898259Y-73792512D01*
X101881463Y-73724692D01*
X101903999Y-73658556D01*
X101949054Y-73619515D01*
X101957816Y-73615051D01*
X102007200Y-73579172D01*
X102129786Y-73490109D01*
X102129788Y-73490106D01*
X102129792Y-73490104D01*
X102280104Y-73339792D01*
X102280106Y-73339788D01*
X102280109Y-73339786D01*
X102405048Y-73167820D01*
X102405047Y-73167820D01*
X102405051Y-73167816D01*
X102409514Y-73159054D01*
X102457488Y-73108259D01*
X102525308Y-73091463D01*
X102591444Y-73113999D01*
G37*
%TD.AperFunction*%
%TA.AperFunction,Conductor*%
G36*
X100221905Y-50520185D02*
G01*
X100267660Y-50572989D01*
X100277604Y-50642147D01*
X100269427Y-50671953D01*
X100230263Y-50766502D01*
X100230261Y-50766510D01*
X100199500Y-50921153D01*
X100199500Y-51078846D01*
X100230261Y-51233489D01*
X100230264Y-51233501D01*
X100290602Y-51379172D01*
X100290609Y-51379185D01*
X100378210Y-51510288D01*
X100378213Y-51510292D01*
X100489707Y-51621786D01*
X100489711Y-51621789D01*
X100620814Y-51709390D01*
X100620827Y-51709397D01*
X100729425Y-51754379D01*
X100766503Y-51769737D01*
X100921153Y-51800499D01*
X100921156Y-51800500D01*
X100921158Y-51800500D01*
X101078844Y-51800500D01*
X101078845Y-51800499D01*
X101233497Y-51769737D01*
X101379179Y-51709394D01*
X101510289Y-51621789D01*
X101621789Y-51510289D01*
X101709394Y-51379179D01*
X101769737Y-51233497D01*
X101800500Y-51078842D01*
X101800500Y-50921158D01*
X101800500Y-50921155D01*
X101800499Y-50921153D01*
X101769738Y-50766510D01*
X101769737Y-50766503D01*
X101730572Y-50671951D01*
X101723104Y-50602483D01*
X101754379Y-50540004D01*
X101814468Y-50504352D01*
X101845134Y-50500500D01*
X111154866Y-50500500D01*
X111221905Y-50520185D01*
X111267660Y-50572989D01*
X111277604Y-50642147D01*
X111269427Y-50671953D01*
X111230263Y-50766502D01*
X111230261Y-50766510D01*
X111199500Y-50921153D01*
X111199500Y-51078846D01*
X111230261Y-51233489D01*
X111230264Y-51233501D01*
X111290602Y-51379172D01*
X111290609Y-51379185D01*
X111378210Y-51510288D01*
X111378213Y-51510292D01*
X111489707Y-51621786D01*
X111489711Y-51621789D01*
X111620814Y-51709390D01*
X111620827Y-51709397D01*
X111729425Y-51754379D01*
X111766503Y-51769737D01*
X111921153Y-51800499D01*
X111921156Y-51800500D01*
X111921158Y-51800500D01*
X112078844Y-51800500D01*
X112078845Y-51800499D01*
X112233497Y-51769737D01*
X112379179Y-51709394D01*
X112510289Y-51621789D01*
X112621789Y-51510289D01*
X112709394Y-51379179D01*
X112769737Y-51233497D01*
X112800500Y-51078842D01*
X112800500Y-50921158D01*
X112800500Y-50921155D01*
X112800499Y-50921153D01*
X112769738Y-50766510D01*
X112769737Y-50766503D01*
X112730572Y-50671951D01*
X112723104Y-50602483D01*
X112754379Y-50540004D01*
X112814468Y-50504352D01*
X112845134Y-50500500D01*
X121154866Y-50500500D01*
X121221905Y-50520185D01*
X121267660Y-50572989D01*
X121277604Y-50642147D01*
X121269427Y-50671953D01*
X121230263Y-50766502D01*
X121230261Y-50766510D01*
X121199500Y-50921153D01*
X121199500Y-51078846D01*
X121230261Y-51233489D01*
X121230264Y-51233501D01*
X121290602Y-51379172D01*
X121290609Y-51379185D01*
X121378210Y-51510288D01*
X121378213Y-51510292D01*
X121489707Y-51621786D01*
X121489711Y-51621789D01*
X121620814Y-51709390D01*
X121620827Y-51709397D01*
X121729425Y-51754379D01*
X121766503Y-51769737D01*
X121921153Y-51800499D01*
X121921156Y-51800500D01*
X121921158Y-51800500D01*
X122078844Y-51800500D01*
X122078845Y-51800499D01*
X122089179Y-51798443D01*
X122114287Y-51793450D01*
X122114292Y-51793449D01*
X122199800Y-51776439D01*
X122233497Y-51769737D01*
X122379179Y-51709394D01*
X122510289Y-51621789D01*
X122621789Y-51510289D01*
X122709394Y-51379179D01*
X122769737Y-51233497D01*
X122800500Y-51078842D01*
X122800500Y-50921158D01*
X122800500Y-50921155D01*
X122800499Y-50921153D01*
X122769738Y-50766510D01*
X122769737Y-50766503D01*
X122730572Y-50671951D01*
X122723104Y-50602483D01*
X122754379Y-50540004D01*
X122814468Y-50504352D01*
X122845134Y-50500500D01*
X141154866Y-50500500D01*
X141221905Y-50520185D01*
X141267660Y-50572989D01*
X141277604Y-50642147D01*
X141269427Y-50671953D01*
X141230263Y-50766502D01*
X141230261Y-50766510D01*
X141199500Y-50921153D01*
X141199500Y-51078846D01*
X141230261Y-51233489D01*
X141230264Y-51233501D01*
X141290602Y-51379172D01*
X141290609Y-51379185D01*
X141378210Y-51510288D01*
X141378213Y-51510292D01*
X141489707Y-51621786D01*
X141489711Y-51621789D01*
X141620814Y-51709390D01*
X141620827Y-51709397D01*
X141729425Y-51754379D01*
X141766503Y-51769737D01*
X141921153Y-51800499D01*
X141921156Y-51800500D01*
X141921158Y-51800500D01*
X142078844Y-51800500D01*
X142078845Y-51800499D01*
X142233497Y-51769737D01*
X142379179Y-51709394D01*
X142510289Y-51621789D01*
X142621789Y-51510289D01*
X142709394Y-51379179D01*
X142769737Y-51233497D01*
X142800500Y-51078842D01*
X142800500Y-50921158D01*
X142800500Y-50921155D01*
X142800499Y-50921153D01*
X142769738Y-50766510D01*
X142769737Y-50766503D01*
X142730572Y-50671951D01*
X142723104Y-50602483D01*
X142754379Y-50540004D01*
X142814468Y-50504352D01*
X142845134Y-50500500D01*
X151154866Y-50500500D01*
X151221905Y-50520185D01*
X151267660Y-50572989D01*
X151277604Y-50642147D01*
X151269427Y-50671953D01*
X151230263Y-50766502D01*
X151230261Y-50766510D01*
X151199500Y-50921153D01*
X151199500Y-51078846D01*
X151230261Y-51233489D01*
X151230264Y-51233501D01*
X151290602Y-51379172D01*
X151290609Y-51379185D01*
X151378210Y-51510288D01*
X151378213Y-51510292D01*
X151489707Y-51621786D01*
X151489711Y-51621789D01*
X151620814Y-51709390D01*
X151620827Y-51709397D01*
X151729425Y-51754379D01*
X151766503Y-51769737D01*
X151921153Y-51800499D01*
X151921156Y-51800500D01*
X151921158Y-51800500D01*
X152078844Y-51800500D01*
X152078845Y-51800499D01*
X152233497Y-51769737D01*
X152328048Y-51730572D01*
X152397517Y-51723104D01*
X152459996Y-51754379D01*
X152495648Y-51814468D01*
X152499500Y-51845134D01*
X152499500Y-98154865D01*
X152479815Y-98221904D01*
X152427011Y-98267659D01*
X152357853Y-98277603D01*
X152328048Y-98269427D01*
X152323780Y-98267659D01*
X152233497Y-98230263D01*
X152233494Y-98230262D01*
X152233491Y-98230261D01*
X152078845Y-98199500D01*
X152078842Y-98199500D01*
X151921158Y-98199500D01*
X151921155Y-98199500D01*
X151766510Y-98230261D01*
X151766498Y-98230264D01*
X151620827Y-98290602D01*
X151620814Y-98290609D01*
X151489711Y-98378210D01*
X151489707Y-98378213D01*
X151378213Y-98489707D01*
X151378210Y-98489711D01*
X151290609Y-98620814D01*
X151290602Y-98620827D01*
X151230264Y-98766498D01*
X151230261Y-98766510D01*
X151199500Y-98921153D01*
X151199500Y-99078846D01*
X151230261Y-99233489D01*
X151230263Y-99233497D01*
X151269427Y-99328047D01*
X151276896Y-99397517D01*
X151245621Y-99459996D01*
X151185532Y-99495648D01*
X151154866Y-99499500D01*
X142845134Y-99499500D01*
X142778095Y-99479815D01*
X142732340Y-99427011D01*
X142722396Y-99357853D01*
X142730573Y-99328047D01*
X142769737Y-99233497D01*
X142800500Y-99078842D01*
X142800500Y-98921158D01*
X142800500Y-98921155D01*
X142800499Y-98921153D01*
X142769738Y-98766510D01*
X142769737Y-98766503D01*
X142769735Y-98766498D01*
X142709397Y-98620827D01*
X142709390Y-98620814D01*
X142621789Y-98489711D01*
X142621786Y-98489707D01*
X142510292Y-98378213D01*
X142510288Y-98378210D01*
X142379185Y-98290609D01*
X142379172Y-98290602D01*
X142233501Y-98230264D01*
X142233489Y-98230261D01*
X142078845Y-98199500D01*
X142078842Y-98199500D01*
X141921158Y-98199500D01*
X141921155Y-98199500D01*
X141766510Y-98230261D01*
X141766498Y-98230264D01*
X141620827Y-98290602D01*
X141620814Y-98290609D01*
X141489711Y-98378210D01*
X141489707Y-98378213D01*
X141378213Y-98489707D01*
X141378210Y-98489711D01*
X141290609Y-98620814D01*
X141290602Y-98620827D01*
X141230264Y-98766498D01*
X141230261Y-98766510D01*
X141199500Y-98921153D01*
X141199500Y-99078846D01*
X141230261Y-99233489D01*
X141230263Y-99233497D01*
X141269427Y-99328047D01*
X141276896Y-99397517D01*
X141245621Y-99459996D01*
X141185532Y-99495648D01*
X141154866Y-99499500D01*
X132845134Y-99499500D01*
X132778095Y-99479815D01*
X132732340Y-99427011D01*
X132722396Y-99357853D01*
X132730573Y-99328047D01*
X132769737Y-99233497D01*
X132800500Y-99078842D01*
X132800500Y-98921158D01*
X132800500Y-98921155D01*
X132800499Y-98921153D01*
X132769738Y-98766510D01*
X132769737Y-98766503D01*
X132769735Y-98766498D01*
X132709397Y-98620827D01*
X132709390Y-98620814D01*
X132621789Y-98489711D01*
X132621786Y-98489707D01*
X132510292Y-98378213D01*
X132510288Y-98378210D01*
X132379185Y-98290609D01*
X132379172Y-98290602D01*
X132233501Y-98230264D01*
X132233489Y-98230261D01*
X132078845Y-98199500D01*
X132078842Y-98199500D01*
X131921158Y-98199500D01*
X131921155Y-98199500D01*
X131766510Y-98230261D01*
X131766498Y-98230264D01*
X131620827Y-98290602D01*
X131620814Y-98290609D01*
X131489711Y-98378210D01*
X131489707Y-98378213D01*
X131378213Y-98489707D01*
X131378210Y-98489711D01*
X131290609Y-98620814D01*
X131290602Y-98620827D01*
X131230264Y-98766498D01*
X131230261Y-98766510D01*
X131199500Y-98921153D01*
X131199500Y-99078846D01*
X131230261Y-99233489D01*
X131230263Y-99233497D01*
X131269427Y-99328047D01*
X131276896Y-99397517D01*
X131245621Y-99459996D01*
X131185532Y-99495648D01*
X131154866Y-99499500D01*
X122845134Y-99499500D01*
X122778095Y-99479815D01*
X122732340Y-99427011D01*
X122722396Y-99357853D01*
X122730573Y-99328047D01*
X122769737Y-99233497D01*
X122800500Y-99078842D01*
X122800500Y-98921158D01*
X122800500Y-98921155D01*
X122800499Y-98921153D01*
X122769738Y-98766510D01*
X122769737Y-98766503D01*
X122769735Y-98766498D01*
X122709397Y-98620827D01*
X122709390Y-98620814D01*
X122621789Y-98489711D01*
X122621786Y-98489707D01*
X122510292Y-98378213D01*
X122510288Y-98378210D01*
X122379185Y-98290609D01*
X122379172Y-98290602D01*
X122233501Y-98230264D01*
X122233489Y-98230261D01*
X122078845Y-98199500D01*
X122078842Y-98199500D01*
X121921158Y-98199500D01*
X121921155Y-98199500D01*
X121766510Y-98230261D01*
X121766498Y-98230264D01*
X121620827Y-98290602D01*
X121620814Y-98290609D01*
X121489711Y-98378210D01*
X121489707Y-98378213D01*
X121378213Y-98489707D01*
X121378210Y-98489711D01*
X121290609Y-98620814D01*
X121290602Y-98620827D01*
X121230264Y-98766498D01*
X121230261Y-98766510D01*
X121199500Y-98921153D01*
X121199500Y-99078846D01*
X121230261Y-99233489D01*
X121230263Y-99233497D01*
X121269427Y-99328047D01*
X121276896Y-99397517D01*
X121245621Y-99459996D01*
X121185532Y-99495648D01*
X121154866Y-99499500D01*
X108345134Y-99499500D01*
X108278095Y-99479815D01*
X108232340Y-99427011D01*
X108222396Y-99357853D01*
X108230573Y-99328047D01*
X108269737Y-99233497D01*
X108300500Y-99078842D01*
X108300500Y-98921158D01*
X108300500Y-98921155D01*
X108300499Y-98921153D01*
X108269738Y-98766510D01*
X108269737Y-98766503D01*
X108269735Y-98766498D01*
X108209397Y-98620827D01*
X108209390Y-98620814D01*
X108121789Y-98489711D01*
X108121786Y-98489707D01*
X108010292Y-98378213D01*
X108010288Y-98378210D01*
X107879185Y-98290609D01*
X107879172Y-98290602D01*
X107733501Y-98230264D01*
X107733489Y-98230261D01*
X107578845Y-98199500D01*
X107578842Y-98199500D01*
X107421158Y-98199500D01*
X107421155Y-98199500D01*
X107266510Y-98230261D01*
X107266498Y-98230264D01*
X107120827Y-98290602D01*
X107120814Y-98290609D01*
X106989711Y-98378210D01*
X106989707Y-98378213D01*
X106878213Y-98489707D01*
X106878210Y-98489711D01*
X106790609Y-98620814D01*
X106790602Y-98620827D01*
X106730264Y-98766498D01*
X106730261Y-98766510D01*
X106699500Y-98921153D01*
X106699500Y-99078846D01*
X106730261Y-99233489D01*
X106730263Y-99233497D01*
X106769427Y-99328047D01*
X106776896Y-99397517D01*
X106745621Y-99459996D01*
X106685532Y-99495648D01*
X106654866Y-99499500D01*
X101845134Y-99499500D01*
X101778095Y-99479815D01*
X101732340Y-99427011D01*
X101722396Y-99357853D01*
X101730573Y-99328047D01*
X101769737Y-99233497D01*
X101800500Y-99078842D01*
X101800500Y-98921158D01*
X101800500Y-98921155D01*
X101800499Y-98921153D01*
X101769738Y-98766510D01*
X101769737Y-98766503D01*
X101769735Y-98766498D01*
X101709397Y-98620827D01*
X101709390Y-98620814D01*
X101621789Y-98489711D01*
X101621786Y-98489707D01*
X101510292Y-98378213D01*
X101510288Y-98378210D01*
X101379185Y-98290609D01*
X101379172Y-98290602D01*
X101233501Y-98230264D01*
X101233489Y-98230261D01*
X101078845Y-98199500D01*
X101078842Y-98199500D01*
X100921158Y-98199500D01*
X100921155Y-98199500D01*
X100766510Y-98230261D01*
X100766498Y-98230264D01*
X100620827Y-98290602D01*
X100620814Y-98290609D01*
X100489711Y-98378210D01*
X100489707Y-98378213D01*
X100378213Y-98489707D01*
X100378210Y-98489711D01*
X100290609Y-98620814D01*
X100290602Y-98620827D01*
X100230264Y-98766498D01*
X100230261Y-98766510D01*
X100199500Y-98921153D01*
X100199500Y-99078846D01*
X100230261Y-99233489D01*
X100230263Y-99233497D01*
X100269427Y-99328047D01*
X100276896Y-99397517D01*
X100245621Y-99459996D01*
X100185532Y-99495648D01*
X100154866Y-99499500D01*
X99624500Y-99499500D01*
X99557461Y-99479815D01*
X99511706Y-99427011D01*
X99500500Y-99375500D01*
X99500500Y-93921153D01*
X100199500Y-93921153D01*
X100199500Y-94078846D01*
X100230261Y-94233489D01*
X100230264Y-94233501D01*
X100290602Y-94379172D01*
X100290609Y-94379185D01*
X100378210Y-94510288D01*
X100378213Y-94510292D01*
X100489707Y-94621786D01*
X100489711Y-94621789D01*
X100620814Y-94709390D01*
X100620827Y-94709397D01*
X100766498Y-94769735D01*
X100766503Y-94769737D01*
X100921153Y-94800499D01*
X100921156Y-94800500D01*
X100921158Y-94800500D01*
X101078844Y-94800500D01*
X101078845Y-94800499D01*
X101233497Y-94769737D01*
X101379179Y-94709394D01*
X101510289Y-94621789D01*
X101621789Y-94510289D01*
X101709394Y-94379179D01*
X101769737Y-94233497D01*
X101800500Y-94078842D01*
X101800500Y-93921158D01*
X101800500Y-93921155D01*
X101800499Y-93921153D01*
X101776499Y-93800499D01*
X101769737Y-93766503D01*
X101735463Y-93683757D01*
X101709397Y-93620827D01*
X101709390Y-93620814D01*
X101621789Y-93489711D01*
X101621786Y-93489707D01*
X101510292Y-93378213D01*
X101510288Y-93378210D01*
X101379185Y-93290609D01*
X101379172Y-93290602D01*
X101233501Y-93230264D01*
X101233489Y-93230261D01*
X101078845Y-93199500D01*
X101078842Y-93199500D01*
X100921158Y-93199500D01*
X100921155Y-93199500D01*
X100766510Y-93230261D01*
X100766498Y-93230264D01*
X100620827Y-93290602D01*
X100620814Y-93290609D01*
X100489711Y-93378210D01*
X100489707Y-93378213D01*
X100378213Y-93489707D01*
X100378210Y-93489711D01*
X100290609Y-93620814D01*
X100290602Y-93620827D01*
X100230264Y-93766498D01*
X100230261Y-93766510D01*
X100199500Y-93921153D01*
X99500500Y-93921153D01*
X99500500Y-88813713D01*
X102649500Y-88813713D01*
X102649500Y-89026287D01*
X102682754Y-89236243D01*
X102745725Y-89430048D01*
X102748444Y-89438414D01*
X102844951Y-89627820D01*
X102969890Y-89799786D01*
X103120213Y-89950109D01*
X103292182Y-90075050D01*
X103300946Y-90079516D01*
X103351742Y-90127491D01*
X103368536Y-90195312D01*
X103345998Y-90261447D01*
X103300946Y-90300484D01*
X103292182Y-90304949D01*
X103120213Y-90429890D01*
X102969890Y-90580213D01*
X102844951Y-90752179D01*
X102748444Y-90941585D01*
X102682753Y-91143760D01*
X102649500Y-91353713D01*
X102649500Y-91566287D01*
X102658290Y-91621786D01*
X102681723Y-91769738D01*
X102682754Y-91776243D01*
X102718495Y-91886243D01*
X102748444Y-91978414D01*
X102844951Y-92167820D01*
X102969890Y-92339786D01*
X103120213Y-92490109D01*
X103292182Y-92615050D01*
X103300946Y-92619516D01*
X103351742Y-92667491D01*
X103368536Y-92735312D01*
X103345998Y-92801447D01*
X103300946Y-92840484D01*
X103292182Y-92844949D01*
X103120213Y-92969890D01*
X102969890Y-93120213D01*
X102844951Y-93292179D01*
X102748444Y-93481585D01*
X102682753Y-93683760D01*
X102649500Y-93893713D01*
X102649500Y-94106287D01*
X102682754Y-94316243D01*
X102745803Y-94510288D01*
X102748444Y-94518414D01*
X102844951Y-94707820D01*
X102969890Y-94879786D01*
X103083430Y-94993326D01*
X103116915Y-95054649D01*
X103111931Y-95124341D01*
X103070059Y-95180274D01*
X103039083Y-95197189D01*
X102907669Y-95246203D01*
X102907664Y-95246206D01*
X102792455Y-95332452D01*
X102792452Y-95332455D01*
X102706206Y-95447664D01*
X102706202Y-95447671D01*
X102655908Y-95582517D01*
X102650996Y-95628210D01*
X102649501Y-95642123D01*
X102649500Y-95642135D01*
X102649500Y-97437870D01*
X102649501Y-97437876D01*
X102655908Y-97497483D01*
X102706202Y-97632328D01*
X102706206Y-97632335D01*
X102792452Y-97747544D01*
X102792455Y-97747547D01*
X102907664Y-97833793D01*
X102907671Y-97833797D01*
X103042517Y-97884091D01*
X103042516Y-97884091D01*
X103049444Y-97884835D01*
X103102127Y-97890500D01*
X104897872Y-97890499D01*
X104957483Y-97884091D01*
X105092331Y-97833796D01*
X105207546Y-97747546D01*
X105293796Y-97632331D01*
X105344091Y-97497483D01*
X105350500Y-97437873D01*
X105350499Y-95642128D01*
X105344091Y-95582517D01*
X105334823Y-95557669D01*
X105293797Y-95447671D01*
X105293793Y-95447664D01*
X105207547Y-95332455D01*
X105207544Y-95332452D01*
X105092335Y-95246206D01*
X105092328Y-95246202D01*
X104960917Y-95197189D01*
X104904983Y-95155318D01*
X104880566Y-95089853D01*
X104895418Y-95021580D01*
X104916563Y-94993332D01*
X105030104Y-94879792D01*
X105037410Y-94869737D01*
X105153902Y-94709397D01*
X105155051Y-94707816D01*
X105251557Y-94518412D01*
X105317246Y-94316243D01*
X105350500Y-94106287D01*
X105350500Y-93893713D01*
X105317246Y-93683757D01*
X105251557Y-93481588D01*
X105155051Y-93292184D01*
X105155049Y-93292181D01*
X105155048Y-93292179D01*
X105030109Y-93120213D01*
X104879786Y-92969890D01*
X104707820Y-92844951D01*
X104707115Y-92844591D01*
X104699054Y-92840485D01*
X104648259Y-92792512D01*
X104631463Y-92724692D01*
X104653999Y-92658556D01*
X104699054Y-92619515D01*
X104707816Y-92615051D01*
X104729789Y-92599086D01*
X104879786Y-92490109D01*
X104879788Y-92490106D01*
X104879792Y-92490104D01*
X105030104Y-92339792D01*
X105030106Y-92339788D01*
X105030109Y-92339786D01*
X105155048Y-92167820D01*
X105155047Y-92167820D01*
X105155051Y-92167816D01*
X105251557Y-91978412D01*
X105317246Y-91776243D01*
X105350500Y-91566287D01*
X105350500Y-91353713D01*
X105317246Y-91143757D01*
X105251557Y-90941588D01*
X105155051Y-90752184D01*
X105155049Y-90752181D01*
X105155048Y-90752179D01*
X105030109Y-90580213D01*
X104879786Y-90429890D01*
X104707820Y-90304951D01*
X104707115Y-90304591D01*
X104699054Y-90300485D01*
X104648259Y-90252512D01*
X104631463Y-90184692D01*
X104653999Y-90118556D01*
X104699054Y-90079515D01*
X104707816Y-90075051D01*
X104759103Y-90037789D01*
X104879786Y-89950109D01*
X104879788Y-89950106D01*
X104879792Y-89950104D01*
X105030104Y-89799792D01*
X105030106Y-89799788D01*
X105030109Y-89799786D01*
X105151479Y-89632733D01*
X105155051Y-89627816D01*
X105251557Y-89438412D01*
X105317246Y-89236243D01*
X105350500Y-89026287D01*
X105350500Y-88923713D01*
X109649500Y-88923713D01*
X109649500Y-89136286D01*
X109682753Y-89346239D01*
X109682753Y-89346241D01*
X109682754Y-89346243D01*
X109742502Y-89530129D01*
X109748444Y-89548414D01*
X109844951Y-89737820D01*
X109969890Y-89909786D01*
X110120213Y-90060109D01*
X110292182Y-90185050D01*
X110300946Y-90189516D01*
X110351742Y-90237491D01*
X110368536Y-90305312D01*
X110345998Y-90371447D01*
X110300946Y-90410484D01*
X110292182Y-90414949D01*
X110120213Y-90539890D01*
X109969890Y-90690213D01*
X109844951Y-90862179D01*
X109748444Y-91051585D01*
X109682753Y-91253760D01*
X109649500Y-91463713D01*
X109649500Y-91676286D01*
X109681446Y-91877989D01*
X109682754Y-91886243D01*
X109739015Y-92059397D01*
X109748444Y-92088414D01*
X109844951Y-92277820D01*
X109969890Y-92449786D01*
X110120213Y-92600109D01*
X110292182Y-92725050D01*
X110300946Y-92729516D01*
X110351742Y-92777491D01*
X110368536Y-92845312D01*
X110345998Y-92911447D01*
X110300946Y-92950484D01*
X110292182Y-92954949D01*
X110120213Y-93079890D01*
X109969890Y-93230213D01*
X109844951Y-93402179D01*
X109748444Y-93591585D01*
X109682753Y-93793760D01*
X109649500Y-94003713D01*
X109649500Y-94216287D01*
X109659534Y-94279644D01*
X109675300Y-94379185D01*
X109682754Y-94426243D01*
X109742555Y-94610292D01*
X109748444Y-94628414D01*
X109844951Y-94817820D01*
X109969890Y-94989786D01*
X110083430Y-95103326D01*
X110116915Y-95164649D01*
X110111931Y-95234341D01*
X110070059Y-95290274D01*
X110039083Y-95307189D01*
X109907669Y-95356203D01*
X109907664Y-95356206D01*
X109792455Y-95442452D01*
X109792452Y-95442455D01*
X109706206Y-95557664D01*
X109706202Y-95557671D01*
X109655908Y-95692517D01*
X109650835Y-95739707D01*
X109649501Y-95752123D01*
X109649500Y-95752135D01*
X109649500Y-97547870D01*
X109649501Y-97547876D01*
X109655908Y-97607483D01*
X109706202Y-97742328D01*
X109706206Y-97742335D01*
X109792452Y-97857544D01*
X109792455Y-97857547D01*
X109907664Y-97943793D01*
X109907671Y-97943797D01*
X110042517Y-97994091D01*
X110042516Y-97994091D01*
X110049444Y-97994835D01*
X110102127Y-98000500D01*
X111897872Y-98000499D01*
X111957483Y-97994091D01*
X112092331Y-97943796D01*
X112207546Y-97857546D01*
X112293796Y-97742331D01*
X112344091Y-97607483D01*
X112350500Y-97547873D01*
X112350499Y-95752128D01*
X112344091Y-95692517D01*
X112325295Y-95642123D01*
X112293797Y-95557671D01*
X112293793Y-95557664D01*
X112207547Y-95442455D01*
X112207544Y-95442452D01*
X112092335Y-95356206D01*
X112092328Y-95356202D01*
X111960917Y-95307189D01*
X111904983Y-95265318D01*
X111880566Y-95199853D01*
X111895418Y-95131580D01*
X111916563Y-95103332D01*
X112030104Y-94989792D01*
X112155051Y-94817816D01*
X112251557Y-94628412D01*
X112317246Y-94426243D01*
X112350500Y-94216287D01*
X112350500Y-94003713D01*
X112317246Y-93793757D01*
X112251557Y-93591588D01*
X112155051Y-93402184D01*
X112155049Y-93402181D01*
X112155048Y-93402179D01*
X112030109Y-93230213D01*
X111879792Y-93079896D01*
X111792135Y-93016210D01*
X111707816Y-92954949D01*
X111691650Y-92946712D01*
X111684814Y-92941984D01*
X111667965Y-92921153D01*
X112699500Y-92921153D01*
X112699500Y-93078846D01*
X112730261Y-93233489D01*
X112730264Y-93233501D01*
X112790602Y-93379172D01*
X112790609Y-93379185D01*
X112878210Y-93510288D01*
X112878213Y-93510292D01*
X112989707Y-93621786D01*
X112989711Y-93621789D01*
X113120814Y-93709390D01*
X113120827Y-93709397D01*
X113258683Y-93766498D01*
X113266503Y-93769737D01*
X113387259Y-93793757D01*
X113421153Y-93800499D01*
X113421156Y-93800500D01*
X113421158Y-93800500D01*
X113578844Y-93800500D01*
X113578845Y-93800499D01*
X113733497Y-93769737D01*
X113851592Y-93720821D01*
X113879172Y-93709397D01*
X113879172Y-93709396D01*
X113879179Y-93709394D01*
X114010289Y-93621789D01*
X114121789Y-93510289D01*
X114209394Y-93379179D01*
X114269737Y-93233497D01*
X114300500Y-93078842D01*
X114300500Y-92921158D01*
X114300500Y-92921155D01*
X114300499Y-92921153D01*
X114284453Y-92840484D01*
X114269737Y-92766503D01*
X114268048Y-92762425D01*
X114209397Y-92620827D01*
X114209390Y-92620814D01*
X114121789Y-92489711D01*
X114121786Y-92489707D01*
X114010292Y-92378213D01*
X114010288Y-92378210D01*
X113879185Y-92290609D01*
X113879172Y-92290602D01*
X113733501Y-92230264D01*
X113733489Y-92230261D01*
X113578845Y-92199500D01*
X113578842Y-92199500D01*
X113421158Y-92199500D01*
X113421155Y-92199500D01*
X113266510Y-92230261D01*
X113266498Y-92230264D01*
X113120827Y-92290602D01*
X113120814Y-92290609D01*
X112989711Y-92378210D01*
X112989707Y-92378213D01*
X112878213Y-92489707D01*
X112878210Y-92489711D01*
X112790609Y-92620814D01*
X112790602Y-92620827D01*
X112730264Y-92766498D01*
X112730261Y-92766510D01*
X112699500Y-92921153D01*
X111667965Y-92921153D01*
X111667861Y-92921024D01*
X111648259Y-92902512D01*
X111646216Y-92894265D01*
X111640874Y-92887660D01*
X111637943Y-92860860D01*
X111631463Y-92834692D01*
X111634203Y-92826649D01*
X111633280Y-92818205D01*
X111645302Y-92794077D01*
X111653999Y-92768556D01*
X111661074Y-92762425D01*
X111664441Y-92755669D01*
X111678621Y-92747220D01*
X111699054Y-92729515D01*
X111707816Y-92725051D01*
X111787041Y-92667491D01*
X111879786Y-92600109D01*
X111879788Y-92600106D01*
X111879792Y-92600104D01*
X112030104Y-92449792D01*
X112030106Y-92449788D01*
X112030109Y-92449786D01*
X112155048Y-92277820D01*
X112155047Y-92277820D01*
X112155051Y-92277816D01*
X112251557Y-92088412D01*
X112317246Y-91886243D01*
X112350500Y-91676287D01*
X112350500Y-91463713D01*
X112317246Y-91253757D01*
X112251557Y-91051588D01*
X112155051Y-90862184D01*
X112155049Y-90862181D01*
X112155048Y-90862179D01*
X112030109Y-90690213D01*
X111879786Y-90539890D01*
X111707820Y-90414951D01*
X111707115Y-90414591D01*
X111699054Y-90410485D01*
X111648259Y-90362512D01*
X111631463Y-90294692D01*
X111653999Y-90228556D01*
X111699054Y-90189515D01*
X111707816Y-90185051D01*
X111787041Y-90127491D01*
X111879786Y-90060109D01*
X111879788Y-90060106D01*
X111879792Y-90060104D01*
X112030104Y-89909792D01*
X112030106Y-89909788D01*
X112030109Y-89909786D01*
X112155048Y-89737820D01*
X112155047Y-89737820D01*
X112155051Y-89737816D01*
X112251557Y-89548412D01*
X112317246Y-89346243D01*
X112350500Y-89136287D01*
X112350500Y-88923713D01*
X117149500Y-88923713D01*
X117149500Y-89136286D01*
X117182753Y-89346239D01*
X117182753Y-89346241D01*
X117182754Y-89346243D01*
X117242502Y-89530129D01*
X117248444Y-89548414D01*
X117344951Y-89737820D01*
X117469890Y-89909786D01*
X117620213Y-90060109D01*
X117792182Y-90185050D01*
X117800946Y-90189516D01*
X117851742Y-90237491D01*
X117868536Y-90305312D01*
X117845998Y-90371447D01*
X117800946Y-90410484D01*
X117792182Y-90414949D01*
X117620213Y-90539890D01*
X117469890Y-90690213D01*
X117344951Y-90862179D01*
X117248444Y-91051585D01*
X117182753Y-91253760D01*
X117149500Y-91463713D01*
X117149500Y-91676286D01*
X117181446Y-91877989D01*
X117182754Y-91886243D01*
X117239015Y-92059397D01*
X117248444Y-92088414D01*
X117344951Y-92277820D01*
X117469890Y-92449786D01*
X117620213Y-92600109D01*
X117792182Y-92725050D01*
X117800946Y-92729516D01*
X117851742Y-92777491D01*
X117868536Y-92845312D01*
X117845998Y-92911447D01*
X117800946Y-92950484D01*
X117792182Y-92954949D01*
X117620213Y-93079890D01*
X117469890Y-93230213D01*
X117344951Y-93402179D01*
X117248444Y-93591585D01*
X117182753Y-93793760D01*
X117149500Y-94003713D01*
X117149500Y-94216287D01*
X117159534Y-94279644D01*
X117175300Y-94379185D01*
X117182754Y-94426243D01*
X117242555Y-94610292D01*
X117248444Y-94628414D01*
X117344951Y-94817820D01*
X117469890Y-94989786D01*
X117583430Y-95103326D01*
X117616915Y-95164649D01*
X117611931Y-95234341D01*
X117570059Y-95290274D01*
X117539083Y-95307189D01*
X117407669Y-95356203D01*
X117407664Y-95356206D01*
X117292455Y-95442452D01*
X117292452Y-95442455D01*
X117206206Y-95557664D01*
X117206202Y-95557671D01*
X117155908Y-95692517D01*
X117150835Y-95739707D01*
X117149501Y-95752123D01*
X117149500Y-95752135D01*
X117149500Y-97547870D01*
X117149501Y-97547876D01*
X117155908Y-97607483D01*
X117206202Y-97742328D01*
X117206206Y-97742335D01*
X117292452Y-97857544D01*
X117292455Y-97857547D01*
X117407664Y-97943793D01*
X117407671Y-97943797D01*
X117542517Y-97994091D01*
X117542516Y-97994091D01*
X117549444Y-97994835D01*
X117602127Y-98000500D01*
X119397872Y-98000499D01*
X119457483Y-97994091D01*
X119592331Y-97943796D01*
X119707546Y-97857546D01*
X119793796Y-97742331D01*
X119844091Y-97607483D01*
X119850500Y-97547873D01*
X119850499Y-95752128D01*
X119844091Y-95692517D01*
X119825295Y-95642123D01*
X119793797Y-95557671D01*
X119793793Y-95557664D01*
X119707547Y-95442455D01*
X119707544Y-95442452D01*
X119592335Y-95356206D01*
X119592328Y-95356202D01*
X119460917Y-95307189D01*
X119404983Y-95265318D01*
X119380566Y-95199853D01*
X119395418Y-95131580D01*
X119416563Y-95103332D01*
X119530104Y-94989792D01*
X119655051Y-94817816D01*
X119751557Y-94628412D01*
X119817246Y-94426243D01*
X119850500Y-94216287D01*
X119850500Y-94003713D01*
X119817246Y-93793757D01*
X119751557Y-93591588D01*
X119655051Y-93402184D01*
X119655049Y-93402181D01*
X119655048Y-93402179D01*
X119530109Y-93230213D01*
X119379792Y-93079896D01*
X119292135Y-93016210D01*
X119207816Y-92954949D01*
X119191650Y-92946712D01*
X119184814Y-92941984D01*
X119167965Y-92921153D01*
X120199500Y-92921153D01*
X120199500Y-93078846D01*
X120230261Y-93233489D01*
X120230264Y-93233501D01*
X120290602Y-93379172D01*
X120290609Y-93379185D01*
X120378210Y-93510288D01*
X120378213Y-93510292D01*
X120489707Y-93621786D01*
X120489711Y-93621789D01*
X120620814Y-93709390D01*
X120620827Y-93709397D01*
X120758683Y-93766498D01*
X120766503Y-93769737D01*
X120887259Y-93793757D01*
X120921153Y-93800499D01*
X120921156Y-93800500D01*
X120921158Y-93800500D01*
X121078844Y-93800500D01*
X121078845Y-93800499D01*
X121233497Y-93769737D01*
X121351592Y-93720821D01*
X121379172Y-93709397D01*
X121379172Y-93709396D01*
X121379179Y-93709394D01*
X121510289Y-93621789D01*
X121621789Y-93510289D01*
X121709394Y-93379179D01*
X121769737Y-93233497D01*
X121800500Y-93078842D01*
X121800500Y-92921158D01*
X121800500Y-92921155D01*
X121800499Y-92921153D01*
X121784453Y-92840484D01*
X121769737Y-92766503D01*
X121768048Y-92762425D01*
X121709397Y-92620827D01*
X121709390Y-92620814D01*
X121621789Y-92489711D01*
X121621786Y-92489707D01*
X121510292Y-92378213D01*
X121510288Y-92378210D01*
X121379185Y-92290609D01*
X121379172Y-92290602D01*
X121233501Y-92230264D01*
X121233489Y-92230261D01*
X121078845Y-92199500D01*
X121078842Y-92199500D01*
X120921158Y-92199500D01*
X120921155Y-92199500D01*
X120766510Y-92230261D01*
X120766498Y-92230264D01*
X120620827Y-92290602D01*
X120620814Y-92290609D01*
X120489711Y-92378210D01*
X120489707Y-92378213D01*
X120378213Y-92489707D01*
X120378210Y-92489711D01*
X120290609Y-92620814D01*
X120290602Y-92620827D01*
X120230264Y-92766498D01*
X120230261Y-92766510D01*
X120199500Y-92921153D01*
X119167965Y-92921153D01*
X119167861Y-92921024D01*
X119148259Y-92902512D01*
X119146216Y-92894265D01*
X119140874Y-92887660D01*
X119137943Y-92860860D01*
X119131463Y-92834692D01*
X119134203Y-92826649D01*
X119133280Y-92818205D01*
X119145302Y-92794077D01*
X119153999Y-92768556D01*
X119161074Y-92762425D01*
X119164441Y-92755669D01*
X119178621Y-92747220D01*
X119199054Y-92729515D01*
X119207816Y-92725051D01*
X119287041Y-92667491D01*
X119379786Y-92600109D01*
X119379788Y-92600106D01*
X119379792Y-92600104D01*
X119530104Y-92449792D01*
X119530106Y-92449788D01*
X119530109Y-92449786D01*
X119655048Y-92277820D01*
X119655047Y-92277820D01*
X119655051Y-92277816D01*
X119751557Y-92088412D01*
X119817246Y-91886243D01*
X119850500Y-91676287D01*
X119850500Y-91463713D01*
X119817246Y-91253757D01*
X119751557Y-91051588D01*
X119685097Y-90921153D01*
X121199500Y-90921153D01*
X121199500Y-91078846D01*
X121230261Y-91233489D01*
X121230264Y-91233501D01*
X121290602Y-91379172D01*
X121290609Y-91379185D01*
X121378210Y-91510288D01*
X121378213Y-91510292D01*
X121489707Y-91621786D01*
X121489711Y-91621789D01*
X121620814Y-91709390D01*
X121620827Y-91709397D01*
X121766498Y-91769735D01*
X121766503Y-91769737D01*
X121921153Y-91800499D01*
X121921156Y-91800500D01*
X121921158Y-91800500D01*
X122078844Y-91800500D01*
X122078845Y-91800499D01*
X122233497Y-91769737D01*
X122379179Y-91709394D01*
X122510289Y-91621789D01*
X122621789Y-91510289D01*
X122709394Y-91379179D01*
X122769737Y-91233497D01*
X122800500Y-91078842D01*
X122800500Y-90921158D01*
X122800500Y-90921155D01*
X122800499Y-90921153D01*
X122769738Y-90766510D01*
X122769737Y-90766503D01*
X122738135Y-90690208D01*
X122709397Y-90620827D01*
X122709390Y-90620814D01*
X122621789Y-90489711D01*
X122621786Y-90489707D01*
X122510292Y-90378213D01*
X122510288Y-90378210D01*
X122379185Y-90290609D01*
X122379172Y-90290602D01*
X122233501Y-90230264D01*
X122233489Y-90230261D01*
X122078845Y-90199500D01*
X122078842Y-90199500D01*
X121921158Y-90199500D01*
X121921155Y-90199500D01*
X121766510Y-90230261D01*
X121766498Y-90230264D01*
X121620827Y-90290602D01*
X121620814Y-90290609D01*
X121489711Y-90378210D01*
X121489707Y-90378213D01*
X121378213Y-90489707D01*
X121378210Y-90489711D01*
X121290609Y-90620814D01*
X121290602Y-90620827D01*
X121230264Y-90766498D01*
X121230261Y-90766510D01*
X121199500Y-90921153D01*
X119685097Y-90921153D01*
X119655051Y-90862184D01*
X119655049Y-90862181D01*
X119655048Y-90862179D01*
X119530109Y-90690213D01*
X119379786Y-90539890D01*
X119207820Y-90414951D01*
X119207115Y-90414591D01*
X119199054Y-90410485D01*
X119148259Y-90362512D01*
X119131463Y-90294692D01*
X119153999Y-90228556D01*
X119199054Y-90189515D01*
X119207816Y-90185051D01*
X119287041Y-90127491D01*
X119379786Y-90060109D01*
X119379788Y-90060106D01*
X119379792Y-90060104D01*
X119530104Y-89909792D01*
X119530106Y-89909788D01*
X119530109Y-89909786D01*
X119655048Y-89737820D01*
X119655047Y-89737820D01*
X119655051Y-89737816D01*
X119751557Y-89548412D01*
X119817246Y-89346243D01*
X119850500Y-89136287D01*
X119850500Y-88923713D01*
X124649500Y-88923713D01*
X124649500Y-89136286D01*
X124682753Y-89346239D01*
X124682753Y-89346241D01*
X124682754Y-89346243D01*
X124742502Y-89530129D01*
X124748444Y-89548414D01*
X124844951Y-89737820D01*
X124969890Y-89909786D01*
X125120213Y-90060109D01*
X125292182Y-90185050D01*
X125300946Y-90189516D01*
X125351742Y-90237491D01*
X125368536Y-90305312D01*
X125345998Y-90371447D01*
X125300946Y-90410484D01*
X125292182Y-90414949D01*
X125120213Y-90539890D01*
X124969890Y-90690213D01*
X124844951Y-90862179D01*
X124748444Y-91051585D01*
X124682753Y-91253760D01*
X124649500Y-91463713D01*
X124649500Y-91676286D01*
X124681446Y-91877989D01*
X124682754Y-91886243D01*
X124739015Y-92059397D01*
X124748444Y-92088414D01*
X124844951Y-92277820D01*
X124969890Y-92449786D01*
X125120213Y-92600109D01*
X125292182Y-92725050D01*
X125300946Y-92729516D01*
X125351742Y-92777491D01*
X125368536Y-92845312D01*
X125345998Y-92911447D01*
X125300946Y-92950484D01*
X125292182Y-92954949D01*
X125120213Y-93079890D01*
X124969890Y-93230213D01*
X124844951Y-93402179D01*
X124748444Y-93591585D01*
X124682753Y-93793760D01*
X124649500Y-94003713D01*
X124649500Y-94216287D01*
X124659534Y-94279644D01*
X124675300Y-94379185D01*
X124682754Y-94426243D01*
X124742555Y-94610292D01*
X124748444Y-94628414D01*
X124844951Y-94817820D01*
X124969890Y-94989786D01*
X125083430Y-95103326D01*
X125116915Y-95164649D01*
X125111931Y-95234341D01*
X125070059Y-95290274D01*
X125039083Y-95307189D01*
X124907669Y-95356203D01*
X124907664Y-95356206D01*
X124792455Y-95442452D01*
X124792452Y-95442455D01*
X124706206Y-95557664D01*
X124706202Y-95557671D01*
X124655908Y-95692517D01*
X124650835Y-95739707D01*
X124649501Y-95752123D01*
X124649500Y-95752135D01*
X124649500Y-97547870D01*
X124649501Y-97547876D01*
X124655908Y-97607483D01*
X124706202Y-97742328D01*
X124706206Y-97742335D01*
X124792452Y-97857544D01*
X124792455Y-97857547D01*
X124907664Y-97943793D01*
X124907671Y-97943797D01*
X125042517Y-97994091D01*
X125042516Y-97994091D01*
X125049444Y-97994835D01*
X125102127Y-98000500D01*
X126897872Y-98000499D01*
X126957483Y-97994091D01*
X127092331Y-97943796D01*
X127207546Y-97857546D01*
X127293796Y-97742331D01*
X127344091Y-97607483D01*
X127350500Y-97547873D01*
X127350499Y-96171153D01*
X144787500Y-96171153D01*
X144787500Y-96328846D01*
X144818261Y-96483489D01*
X144818264Y-96483501D01*
X144878602Y-96629172D01*
X144878609Y-96629185D01*
X144966210Y-96760288D01*
X144966213Y-96760292D01*
X145077707Y-96871786D01*
X145077711Y-96871789D01*
X145208814Y-96959390D01*
X145208827Y-96959397D01*
X145354498Y-97019735D01*
X145354503Y-97019737D01*
X145509153Y-97050499D01*
X145509156Y-97050500D01*
X145509158Y-97050500D01*
X145666844Y-97050500D01*
X145666845Y-97050499D01*
X145821497Y-97019737D01*
X145967179Y-96959394D01*
X146098289Y-96871789D01*
X146209789Y-96760289D01*
X146297394Y-96629179D01*
X146357737Y-96483497D01*
X146388500Y-96328842D01*
X146388500Y-96171158D01*
X146388500Y-96171155D01*
X146388499Y-96171153D01*
X146357738Y-96016510D01*
X146357737Y-96016503D01*
X146357735Y-96016498D01*
X146297397Y-95870827D01*
X146297390Y-95870814D01*
X146209789Y-95739711D01*
X146209786Y-95739707D01*
X146098292Y-95628213D01*
X146098288Y-95628210D01*
X145967185Y-95540609D01*
X145967172Y-95540602D01*
X145821501Y-95480264D01*
X145821489Y-95480261D01*
X145666845Y-95449500D01*
X145666842Y-95449500D01*
X145509158Y-95449500D01*
X145509155Y-95449500D01*
X145354510Y-95480261D01*
X145354498Y-95480264D01*
X145208827Y-95540602D01*
X145208814Y-95540609D01*
X145077711Y-95628210D01*
X145077707Y-95628213D01*
X144966213Y-95739707D01*
X144966210Y-95739711D01*
X144878609Y-95870814D01*
X144878602Y-95870827D01*
X144818264Y-96016498D01*
X144818261Y-96016510D01*
X144787500Y-96171153D01*
X127350499Y-96171153D01*
X127350499Y-95752128D01*
X127344091Y-95692517D01*
X127325295Y-95642123D01*
X127293797Y-95557671D01*
X127293793Y-95557664D01*
X127207547Y-95442455D01*
X127207544Y-95442452D01*
X127092335Y-95356206D01*
X127092328Y-95356202D01*
X126960917Y-95307189D01*
X126904983Y-95265318D01*
X126880566Y-95199853D01*
X126895418Y-95131580D01*
X126916563Y-95103332D01*
X127030104Y-94989792D01*
X127155051Y-94817816D01*
X127251557Y-94628412D01*
X127317246Y-94426243D01*
X127349729Y-94221153D01*
X132999500Y-94221153D01*
X132999500Y-94378846D01*
X133030261Y-94533489D01*
X133030264Y-94533501D01*
X133090602Y-94679172D01*
X133090609Y-94679185D01*
X133178210Y-94810288D01*
X133178213Y-94810292D01*
X133289707Y-94921786D01*
X133289711Y-94921789D01*
X133420814Y-95009390D01*
X133420827Y-95009397D01*
X133530077Y-95054649D01*
X133566503Y-95069737D01*
X133721153Y-95100499D01*
X133721156Y-95100500D01*
X133721158Y-95100500D01*
X133878844Y-95100500D01*
X133878845Y-95100499D01*
X134033497Y-95069737D01*
X134179179Y-95009394D01*
X134310289Y-94921789D01*
X134421789Y-94810289D01*
X134509394Y-94679179D01*
X134569737Y-94533497D01*
X134600500Y-94378842D01*
X134600500Y-94221158D01*
X134600500Y-94221155D01*
X134600499Y-94221153D01*
X134599531Y-94216286D01*
X134569737Y-94066503D01*
X134550955Y-94021158D01*
X134550953Y-94021153D01*
X141299500Y-94021153D01*
X141299500Y-94178846D01*
X141330261Y-94333489D01*
X141330264Y-94333501D01*
X141390602Y-94479172D01*
X141390609Y-94479185D01*
X141478210Y-94610288D01*
X141478213Y-94610292D01*
X141589707Y-94721786D01*
X141589711Y-94721789D01*
X141720814Y-94809390D01*
X141720827Y-94809397D01*
X141866498Y-94869735D01*
X141866503Y-94869737D01*
X142021153Y-94900499D01*
X142021156Y-94900500D01*
X142021158Y-94900500D01*
X142178844Y-94900500D01*
X142178845Y-94900499D01*
X142333497Y-94869737D01*
X142479179Y-94809394D01*
X142610289Y-94721789D01*
X142721789Y-94610289D01*
X142809394Y-94479179D01*
X142869737Y-94333497D01*
X142900500Y-94178842D01*
X142900500Y-94021158D01*
X142900500Y-94021155D01*
X142900499Y-94021153D01*
X142897030Y-94003713D01*
X142869737Y-93866503D01*
X142842398Y-93800500D01*
X142809397Y-93720827D01*
X142809390Y-93720814D01*
X142721789Y-93589711D01*
X142721786Y-93589707D01*
X142610292Y-93478213D01*
X142610288Y-93478210D01*
X142479185Y-93390609D01*
X142479172Y-93390602D01*
X142333501Y-93330264D01*
X142333489Y-93330261D01*
X142178845Y-93299500D01*
X142178842Y-93299500D01*
X142021158Y-93299500D01*
X142021155Y-93299500D01*
X141866510Y-93330261D01*
X141866498Y-93330264D01*
X141720827Y-93390602D01*
X141720814Y-93390609D01*
X141589711Y-93478210D01*
X141589707Y-93478213D01*
X141478213Y-93589707D01*
X141478210Y-93589711D01*
X141390609Y-93720814D01*
X141390602Y-93720827D01*
X141330264Y-93866498D01*
X141330261Y-93866510D01*
X141299500Y-94021153D01*
X134550953Y-94021153D01*
X134509397Y-93920827D01*
X134509390Y-93920814D01*
X134421789Y-93789711D01*
X134421786Y-93789707D01*
X134310292Y-93678213D01*
X134310288Y-93678210D01*
X134179185Y-93590609D01*
X134179172Y-93590602D01*
X134033501Y-93530264D01*
X134033489Y-93530261D01*
X133878845Y-93499500D01*
X133878842Y-93499500D01*
X133721158Y-93499500D01*
X133721155Y-93499500D01*
X133566510Y-93530261D01*
X133566498Y-93530264D01*
X133420827Y-93590602D01*
X133420814Y-93590609D01*
X133289711Y-93678210D01*
X133289707Y-93678213D01*
X133178213Y-93789707D01*
X133178210Y-93789711D01*
X133090609Y-93920814D01*
X133090602Y-93920827D01*
X133030264Y-94066498D01*
X133030261Y-94066510D01*
X132999500Y-94221153D01*
X127349729Y-94221153D01*
X127350500Y-94216287D01*
X127350500Y-94003713D01*
X127317246Y-93793757D01*
X127251557Y-93591588D01*
X127155051Y-93402184D01*
X127155049Y-93402181D01*
X127155048Y-93402179D01*
X127030109Y-93230213D01*
X126879792Y-93079896D01*
X126792135Y-93016210D01*
X126707816Y-92954949D01*
X126691650Y-92946712D01*
X126684814Y-92941984D01*
X126667965Y-92921153D01*
X127699500Y-92921153D01*
X127699500Y-93078846D01*
X127730261Y-93233489D01*
X127730264Y-93233501D01*
X127790602Y-93379172D01*
X127790609Y-93379185D01*
X127878210Y-93510288D01*
X127878213Y-93510292D01*
X127989707Y-93621786D01*
X127989711Y-93621789D01*
X128120814Y-93709390D01*
X128120827Y-93709397D01*
X128258683Y-93766498D01*
X128266503Y-93769737D01*
X128387259Y-93793757D01*
X128421153Y-93800499D01*
X128421156Y-93800500D01*
X128421158Y-93800500D01*
X128578844Y-93800500D01*
X128578845Y-93800499D01*
X128733497Y-93769737D01*
X128851592Y-93720821D01*
X128879172Y-93709397D01*
X128879172Y-93709396D01*
X128879179Y-93709394D01*
X129010289Y-93621789D01*
X129121789Y-93510289D01*
X129209394Y-93379179D01*
X129269737Y-93233497D01*
X129300500Y-93078842D01*
X129300500Y-92921158D01*
X129300500Y-92921155D01*
X129300499Y-92921153D01*
X129284453Y-92840484D01*
X129269737Y-92766503D01*
X129268048Y-92762425D01*
X129209397Y-92620827D01*
X129209390Y-92620814D01*
X129121789Y-92489711D01*
X129121786Y-92489707D01*
X129010292Y-92378213D01*
X129010288Y-92378210D01*
X128879185Y-92290609D01*
X128879172Y-92290602D01*
X128733501Y-92230264D01*
X128733489Y-92230261D01*
X128578845Y-92199500D01*
X128578842Y-92199500D01*
X128421158Y-92199500D01*
X128421155Y-92199500D01*
X128266510Y-92230261D01*
X128266498Y-92230264D01*
X128120827Y-92290602D01*
X128120814Y-92290609D01*
X127989711Y-92378210D01*
X127989707Y-92378213D01*
X127878213Y-92489707D01*
X127878210Y-92489711D01*
X127790609Y-92620814D01*
X127790602Y-92620827D01*
X127730264Y-92766498D01*
X127730261Y-92766510D01*
X127699500Y-92921153D01*
X126667965Y-92921153D01*
X126667861Y-92921024D01*
X126648259Y-92902512D01*
X126646216Y-92894265D01*
X126640874Y-92887660D01*
X126637943Y-92860860D01*
X126631463Y-92834692D01*
X126634203Y-92826649D01*
X126633280Y-92818205D01*
X126645302Y-92794077D01*
X126653999Y-92768556D01*
X126661074Y-92762425D01*
X126664441Y-92755669D01*
X126678621Y-92747220D01*
X126699054Y-92729515D01*
X126707816Y-92725051D01*
X126787041Y-92667491D01*
X126879786Y-92600109D01*
X126879788Y-92600106D01*
X126879792Y-92600104D01*
X127030104Y-92449792D01*
X127030106Y-92449788D01*
X127030109Y-92449786D01*
X127155048Y-92277820D01*
X127155047Y-92277820D01*
X127155051Y-92277816D01*
X127251557Y-92088412D01*
X127317246Y-91886243D01*
X127350500Y-91676287D01*
X127350500Y-91463713D01*
X127317246Y-91253757D01*
X127251557Y-91051588D01*
X127185097Y-90921153D01*
X128199500Y-90921153D01*
X128199500Y-91078846D01*
X128230261Y-91233489D01*
X128230264Y-91233501D01*
X128290602Y-91379172D01*
X128290609Y-91379185D01*
X128378210Y-91510288D01*
X128378213Y-91510292D01*
X128489707Y-91621786D01*
X128489711Y-91621789D01*
X128620814Y-91709390D01*
X128620827Y-91709397D01*
X128766498Y-91769735D01*
X128766503Y-91769737D01*
X128921153Y-91800499D01*
X128921156Y-91800500D01*
X128921158Y-91800500D01*
X129078844Y-91800500D01*
X129078845Y-91800499D01*
X129233497Y-91769737D01*
X129379179Y-91709394D01*
X129510289Y-91621789D01*
X129621789Y-91510289D01*
X129709394Y-91379179D01*
X129769737Y-91233497D01*
X129800500Y-91078842D01*
X129800500Y-90921158D01*
X129800500Y-90921155D01*
X129800499Y-90921153D01*
X129769738Y-90766510D01*
X129769737Y-90766503D01*
X129738135Y-90690208D01*
X129709397Y-90620827D01*
X129709390Y-90620814D01*
X129621789Y-90489711D01*
X129621786Y-90489707D01*
X129510292Y-90378213D01*
X129510288Y-90378210D01*
X129379185Y-90290609D01*
X129379172Y-90290602D01*
X129233501Y-90230264D01*
X129233489Y-90230261D01*
X129078845Y-90199500D01*
X129078842Y-90199500D01*
X128921158Y-90199500D01*
X128921155Y-90199500D01*
X128766510Y-90230261D01*
X128766498Y-90230264D01*
X128620827Y-90290602D01*
X128620814Y-90290609D01*
X128489711Y-90378210D01*
X128489707Y-90378213D01*
X128378213Y-90489707D01*
X128378210Y-90489711D01*
X128290609Y-90620814D01*
X128290602Y-90620827D01*
X128230264Y-90766498D01*
X128230261Y-90766510D01*
X128199500Y-90921153D01*
X127185097Y-90921153D01*
X127155051Y-90862184D01*
X127155049Y-90862181D01*
X127155048Y-90862179D01*
X127030109Y-90690213D01*
X126879786Y-90539890D01*
X126707820Y-90414951D01*
X126707115Y-90414591D01*
X126699054Y-90410485D01*
X126648259Y-90362512D01*
X126631463Y-90294692D01*
X126653999Y-90228556D01*
X126699054Y-90189515D01*
X126707816Y-90185051D01*
X126787041Y-90127491D01*
X126879786Y-90060109D01*
X126879788Y-90060106D01*
X126879792Y-90060104D01*
X127030104Y-89909792D01*
X127030106Y-89909788D01*
X127030109Y-89909786D01*
X127155048Y-89737820D01*
X127155047Y-89737820D01*
X127155051Y-89737816D01*
X127251557Y-89548412D01*
X127283971Y-89448653D01*
X136861500Y-89448653D01*
X136861500Y-89606346D01*
X136892261Y-89760989D01*
X136892264Y-89761001D01*
X136952602Y-89906672D01*
X136952609Y-89906685D01*
X137040210Y-90037788D01*
X137040213Y-90037792D01*
X137151707Y-90149286D01*
X137151711Y-90149289D01*
X137282814Y-90236890D01*
X137282827Y-90236897D01*
X137412494Y-90290606D01*
X137428503Y-90297237D01*
X137495806Y-90310624D01*
X137572523Y-90325885D01*
X137634434Y-90358270D01*
X137669008Y-90418986D01*
X137665269Y-90488755D01*
X137624402Y-90545427D01*
X137572524Y-90569119D01*
X137516508Y-90580261D01*
X137516498Y-90580264D01*
X137370827Y-90640602D01*
X137370814Y-90640609D01*
X137239711Y-90728210D01*
X137239707Y-90728213D01*
X137128213Y-90839707D01*
X137128210Y-90839711D01*
X137040609Y-90970814D01*
X137040602Y-90970827D01*
X136980264Y-91116498D01*
X136980261Y-91116510D01*
X136949500Y-91271153D01*
X136949500Y-91428846D01*
X136980261Y-91583489D01*
X136980264Y-91583501D01*
X137040602Y-91729172D01*
X137040609Y-91729185D01*
X137128210Y-91860288D01*
X137128213Y-91860292D01*
X137239707Y-91971786D01*
X137239711Y-91971789D01*
X137370814Y-92059390D01*
X137370827Y-92059397D01*
X137516498Y-92119735D01*
X137516503Y-92119737D01*
X137671153Y-92150499D01*
X137671156Y-92150500D01*
X137671158Y-92150500D01*
X137828844Y-92150500D01*
X137828845Y-92150499D01*
X137983497Y-92119737D01*
X138129179Y-92059394D01*
X138260289Y-91971789D01*
X138371789Y-91860289D01*
X138459394Y-91729179D01*
X138519737Y-91583497D01*
X138550500Y-91428842D01*
X138550500Y-91271158D01*
X138550500Y-91271155D01*
X138550499Y-91271153D01*
X138547039Y-91253757D01*
X138519737Y-91116503D01*
X138504138Y-91078844D01*
X138459397Y-90970827D01*
X138459390Y-90970814D01*
X138371789Y-90839711D01*
X138371786Y-90839707D01*
X138260292Y-90728213D01*
X138260288Y-90728210D01*
X138129185Y-90640609D01*
X138129172Y-90640602D01*
X137983501Y-90580264D01*
X137983491Y-90580261D01*
X137839475Y-90551614D01*
X137777564Y-90519229D01*
X137742990Y-90458513D01*
X137746731Y-90388743D01*
X137787597Y-90332072D01*
X137839472Y-90308381D01*
X137895497Y-90297237D01*
X138041179Y-90236894D01*
X138172289Y-90149289D01*
X138283789Y-90037789D01*
X138371394Y-89906679D01*
X138431737Y-89760997D01*
X138462500Y-89606342D01*
X138462500Y-89448658D01*
X138462500Y-89448655D01*
X138462499Y-89448653D01*
X138442128Y-89346243D01*
X138431737Y-89294003D01*
X138407811Y-89236239D01*
X138371397Y-89148327D01*
X138371390Y-89148314D01*
X138283789Y-89017211D01*
X138283786Y-89017207D01*
X138172292Y-88905713D01*
X138172288Y-88905710D01*
X138041185Y-88818109D01*
X138041172Y-88818102D01*
X137895501Y-88757764D01*
X137895489Y-88757761D01*
X137740845Y-88727000D01*
X137740842Y-88727000D01*
X137583158Y-88727000D01*
X137583155Y-88727000D01*
X137428510Y-88757761D01*
X137428498Y-88757764D01*
X137282827Y-88818102D01*
X137282814Y-88818109D01*
X137151711Y-88905710D01*
X137151707Y-88905713D01*
X137040213Y-89017207D01*
X137040210Y-89017211D01*
X136952609Y-89148314D01*
X136952602Y-89148327D01*
X136892264Y-89293998D01*
X136892261Y-89294010D01*
X136861500Y-89448653D01*
X127283971Y-89448653D01*
X127317246Y-89346243D01*
X127350500Y-89136287D01*
X127350500Y-88923713D01*
X127317246Y-88713757D01*
X127251557Y-88511588D01*
X127155051Y-88322184D01*
X127059032Y-88190024D01*
X127059031Y-88190021D01*
X127030109Y-88150214D01*
X127030105Y-88150209D01*
X127001907Y-88122011D01*
X145331733Y-88122011D01*
X145331733Y-88342454D01*
X145366218Y-88560185D01*
X145434336Y-88769836D01*
X145434337Y-88769839D01*
X145534420Y-88966258D01*
X145663985Y-89144591D01*
X145663989Y-89144596D01*
X145819869Y-89300476D01*
X145819874Y-89300480D01*
X145962697Y-89404246D01*
X145998211Y-89430048D01*
X146126608Y-89495470D01*
X146194626Y-89530128D01*
X146194629Y-89530129D01*
X146294958Y-89562727D01*
X146404282Y-89598248D01*
X146622011Y-89632733D01*
X146622012Y-89632733D01*
X146842454Y-89632733D01*
X146842455Y-89632733D01*
X146979304Y-89611058D01*
X147048596Y-89620012D01*
X147102048Y-89665009D01*
X147122688Y-89731760D01*
X147121174Y-89752928D01*
X147099500Y-89889777D01*
X147099500Y-90110222D01*
X147099499Y-90110222D01*
X147121174Y-90247071D01*
X147112219Y-90316364D01*
X147067223Y-90369816D01*
X147000471Y-90390455D01*
X146979304Y-90388941D01*
X146842455Y-90367267D01*
X146622011Y-90367267D01*
X146595620Y-90371447D01*
X146404280Y-90401752D01*
X146194629Y-90469870D01*
X146194626Y-90469871D01*
X145998207Y-90569954D01*
X145819874Y-90699519D01*
X145819869Y-90699523D01*
X145663989Y-90855403D01*
X145663985Y-90855408D01*
X145534420Y-91033741D01*
X145434337Y-91230160D01*
X145434336Y-91230163D01*
X145366218Y-91439814D01*
X145353408Y-91520695D01*
X145331733Y-91657545D01*
X145331733Y-91877989D01*
X145347639Y-91978414D01*
X145366218Y-92095719D01*
X145434336Y-92305370D01*
X145434337Y-92305373D01*
X145471451Y-92378211D01*
X145528464Y-92490104D01*
X145534420Y-92501792D01*
X145663985Y-92680125D01*
X145663989Y-92680130D01*
X145819869Y-92836010D01*
X145819874Y-92836014D01*
X145900051Y-92894265D01*
X145998211Y-92965582D01*
X146097573Y-93016210D01*
X146194626Y-93065662D01*
X146194629Y-93065663D01*
X146238435Y-93079896D01*
X146404282Y-93133782D01*
X146622011Y-93168267D01*
X146622012Y-93168267D01*
X146842454Y-93168267D01*
X146842455Y-93168267D01*
X147060184Y-93133782D01*
X147269839Y-93065662D01*
X147466255Y-92965582D01*
X147644598Y-92836009D01*
X147800475Y-92680132D01*
X147930048Y-92501789D01*
X148030128Y-92305373D01*
X148098248Y-92095718D01*
X148132733Y-91877989D01*
X148132733Y-91657545D01*
X148111058Y-91520695D01*
X148120013Y-91451403D01*
X148165009Y-91397951D01*
X148231760Y-91377311D01*
X148252926Y-91378824D01*
X148389778Y-91400500D01*
X148389779Y-91400500D01*
X148610221Y-91400500D01*
X148610222Y-91400500D01*
X148747071Y-91378825D01*
X148816363Y-91387779D01*
X148869815Y-91432776D01*
X148890455Y-91499527D01*
X148888941Y-91520695D01*
X148872930Y-91621789D01*
X148867267Y-91657545D01*
X148867267Y-91877989D01*
X148883173Y-91978414D01*
X148901752Y-92095719D01*
X148969870Y-92305370D01*
X148969871Y-92305373D01*
X149006985Y-92378211D01*
X149063998Y-92490104D01*
X149069954Y-92501792D01*
X149199519Y-92680125D01*
X149199523Y-92680130D01*
X149355403Y-92836010D01*
X149355408Y-92836014D01*
X149435585Y-92894265D01*
X149533745Y-92965582D01*
X149633107Y-93016210D01*
X149730160Y-93065662D01*
X149730163Y-93065663D01*
X149773969Y-93079896D01*
X149939816Y-93133782D01*
X150157545Y-93168267D01*
X150157546Y-93168267D01*
X150377988Y-93168267D01*
X150377989Y-93168267D01*
X150595718Y-93133782D01*
X150805373Y-93065662D01*
X151001789Y-92965582D01*
X151180132Y-92836009D01*
X151336009Y-92680132D01*
X151465582Y-92501789D01*
X151565662Y-92305373D01*
X151633782Y-92095718D01*
X151668267Y-91877989D01*
X151668267Y-91657545D01*
X151633782Y-91439816D01*
X151573329Y-91253757D01*
X151565663Y-91230163D01*
X151565662Y-91230160D01*
X151521638Y-91143760D01*
X151465582Y-91033745D01*
X151419860Y-90970814D01*
X151336014Y-90855408D01*
X151336010Y-90855403D01*
X151180130Y-90699523D01*
X151180125Y-90699519D01*
X151001792Y-90569954D01*
X151001791Y-90569953D01*
X151001789Y-90569952D01*
X150902241Y-90519229D01*
X150805373Y-90469871D01*
X150805370Y-90469870D01*
X150595719Y-90401752D01*
X150404380Y-90371447D01*
X150377989Y-90367267D01*
X150157545Y-90367267D01*
X150020695Y-90388941D01*
X149951402Y-90379986D01*
X149897950Y-90334990D01*
X149877311Y-90268238D01*
X149878825Y-90247070D01*
X149880343Y-90237491D01*
X149900500Y-90110222D01*
X149900500Y-89889778D01*
X149878825Y-89752928D01*
X149887780Y-89683636D01*
X149932776Y-89630184D01*
X149999527Y-89609544D01*
X150020693Y-89611057D01*
X150157545Y-89632733D01*
X150157546Y-89632733D01*
X150377988Y-89632733D01*
X150377989Y-89632733D01*
X150595718Y-89598248D01*
X150805373Y-89530128D01*
X151001789Y-89430048D01*
X151180132Y-89300475D01*
X151336009Y-89144598D01*
X151465582Y-88966255D01*
X151565662Y-88769839D01*
X151633782Y-88560184D01*
X151668267Y-88342455D01*
X151668267Y-88122011D01*
X151633782Y-87904282D01*
X151571552Y-87712754D01*
X151565663Y-87694629D01*
X151565662Y-87694626D01*
X151501906Y-87569500D01*
X151465582Y-87498211D01*
X151382232Y-87383489D01*
X151336014Y-87319874D01*
X151336010Y-87319869D01*
X151180130Y-87163989D01*
X151180125Y-87163985D01*
X151001792Y-87034420D01*
X151001791Y-87034419D01*
X151001789Y-87034418D01*
X150938863Y-87002355D01*
X150805373Y-86934337D01*
X150805370Y-86934336D01*
X150595719Y-86866218D01*
X150486853Y-86848975D01*
X150377989Y-86831733D01*
X150157545Y-86831733D01*
X150084968Y-86843228D01*
X149939814Y-86866218D01*
X149730163Y-86934336D01*
X149730160Y-86934337D01*
X149533741Y-87034420D01*
X149355408Y-87163985D01*
X149355403Y-87163989D01*
X149199523Y-87319869D01*
X149199519Y-87319874D01*
X149069954Y-87498207D01*
X148969871Y-87694626D01*
X148969870Y-87694629D01*
X148901752Y-87904280D01*
X148867267Y-88122011D01*
X148867267Y-88342455D01*
X148867266Y-88342455D01*
X148888941Y-88479304D01*
X148879986Y-88548597D01*
X148834990Y-88602049D01*
X148768238Y-88622688D01*
X148747071Y-88621174D01*
X148610222Y-88599500D01*
X148389778Y-88599500D01*
X148252928Y-88621174D01*
X148183635Y-88612219D01*
X148130183Y-88567223D01*
X148109544Y-88500471D01*
X148111058Y-88479303D01*
X148123368Y-88401585D01*
X148132733Y-88342455D01*
X148132733Y-88122011D01*
X148098248Y-87904282D01*
X148036018Y-87712754D01*
X148030129Y-87694629D01*
X148030128Y-87694626D01*
X147966372Y-87569500D01*
X147930048Y-87498211D01*
X147846698Y-87383489D01*
X147800480Y-87319874D01*
X147800476Y-87319869D01*
X147644596Y-87163989D01*
X147644591Y-87163985D01*
X147466258Y-87034420D01*
X147466257Y-87034419D01*
X147466255Y-87034418D01*
X147403329Y-87002355D01*
X147269839Y-86934337D01*
X147269836Y-86934336D01*
X147060185Y-86866218D01*
X146951319Y-86848975D01*
X146842455Y-86831733D01*
X146622011Y-86831733D01*
X146549434Y-86843228D01*
X146404280Y-86866218D01*
X146194629Y-86934336D01*
X146194626Y-86934337D01*
X145998207Y-87034420D01*
X145819874Y-87163985D01*
X145819869Y-87163989D01*
X145663989Y-87319869D01*
X145663985Y-87319874D01*
X145534420Y-87498207D01*
X145434337Y-87694626D01*
X145434336Y-87694629D01*
X145366218Y-87904280D01*
X145331733Y-88122011D01*
X127001907Y-88122011D01*
X126879786Y-87999890D01*
X126707820Y-87874951D01*
X126518414Y-87778444D01*
X126518413Y-87778443D01*
X126518412Y-87778443D01*
X126316243Y-87712754D01*
X126316241Y-87712753D01*
X126316240Y-87712753D01*
X126154957Y-87687208D01*
X126106287Y-87679500D01*
X125893713Y-87679500D01*
X125845042Y-87687208D01*
X125683760Y-87712753D01*
X125481585Y-87778444D01*
X125292179Y-87874951D01*
X125120213Y-87999890D01*
X124969890Y-88150213D01*
X124844951Y-88322179D01*
X124748444Y-88511585D01*
X124682753Y-88713760D01*
X124649500Y-88923713D01*
X119850500Y-88923713D01*
X119817246Y-88713757D01*
X119751557Y-88511588D01*
X119655051Y-88322184D01*
X119655049Y-88322181D01*
X119655048Y-88322179D01*
X119530109Y-88150213D01*
X119379786Y-87999890D01*
X119207820Y-87874951D01*
X119018414Y-87778444D01*
X119018413Y-87778443D01*
X119018412Y-87778443D01*
X118816243Y-87712754D01*
X118816241Y-87712753D01*
X118816240Y-87712753D01*
X118654957Y-87687208D01*
X118606287Y-87679500D01*
X118393713Y-87679500D01*
X118345042Y-87687208D01*
X118183760Y-87712753D01*
X117981585Y-87778444D01*
X117792179Y-87874951D01*
X117620213Y-87999890D01*
X117469890Y-88150213D01*
X117344951Y-88322179D01*
X117248444Y-88511585D01*
X117182753Y-88713760D01*
X117149500Y-88923713D01*
X112350500Y-88923713D01*
X112317246Y-88713757D01*
X112251557Y-88511588D01*
X112155051Y-88322184D01*
X112155049Y-88322181D01*
X112155048Y-88322179D01*
X112030109Y-88150213D01*
X111879786Y-87999890D01*
X111707820Y-87874951D01*
X111518414Y-87778444D01*
X111518413Y-87778443D01*
X111518412Y-87778443D01*
X111316243Y-87712754D01*
X111316241Y-87712753D01*
X111316240Y-87712753D01*
X111154957Y-87687208D01*
X111106287Y-87679500D01*
X110893713Y-87679500D01*
X110845042Y-87687208D01*
X110683760Y-87712753D01*
X110481585Y-87778444D01*
X110292179Y-87874951D01*
X110120213Y-87999890D01*
X109969890Y-88150213D01*
X109844951Y-88322179D01*
X109748444Y-88511585D01*
X109682753Y-88713760D01*
X109649500Y-88923713D01*
X105350500Y-88923713D01*
X105350500Y-88813713D01*
X105317246Y-88603757D01*
X105251557Y-88401588D01*
X105155051Y-88212184D01*
X105155049Y-88212181D01*
X105155048Y-88212179D01*
X105030109Y-88040213D01*
X104879786Y-87889890D01*
X104707820Y-87764951D01*
X104518414Y-87668444D01*
X104518413Y-87668443D01*
X104518412Y-87668443D01*
X104316243Y-87602754D01*
X104316241Y-87602753D01*
X104316240Y-87602753D01*
X104154957Y-87577208D01*
X104106287Y-87569500D01*
X103893713Y-87569500D01*
X103845042Y-87577208D01*
X103683760Y-87602753D01*
X103481585Y-87668444D01*
X103292179Y-87764951D01*
X103120213Y-87889890D01*
X102969890Y-88040213D01*
X102844951Y-88212179D01*
X102748444Y-88401585D01*
X102682753Y-88603760D01*
X102656449Y-88769836D01*
X102649500Y-88813713D01*
X99500500Y-88813713D01*
X99500500Y-87071153D01*
X133949500Y-87071153D01*
X133949500Y-87228846D01*
X133980261Y-87383489D01*
X133980264Y-87383501D01*
X134040602Y-87529172D01*
X134040609Y-87529185D01*
X134128210Y-87660288D01*
X134128213Y-87660292D01*
X134239707Y-87771786D01*
X134239711Y-87771789D01*
X134370814Y-87859390D01*
X134370827Y-87859397D01*
X134479186Y-87904280D01*
X134516503Y-87919737D01*
X134671153Y-87950499D01*
X134671156Y-87950500D01*
X134671158Y-87950500D01*
X134828844Y-87950500D01*
X134828845Y-87950499D01*
X134983497Y-87919737D01*
X135129179Y-87859394D01*
X135260289Y-87771789D01*
X135371789Y-87660289D01*
X135459394Y-87529179D01*
X135519737Y-87383497D01*
X135550500Y-87228842D01*
X135550500Y-87071158D01*
X135550500Y-87071155D01*
X135550499Y-87071153D01*
X135543192Y-87034418D01*
X135519737Y-86916503D01*
X135519735Y-86916498D01*
X135459397Y-86770827D01*
X135459390Y-86770814D01*
X135371789Y-86639711D01*
X135371786Y-86639707D01*
X135260292Y-86528213D01*
X135260288Y-86528210D01*
X135129185Y-86440609D01*
X135129172Y-86440602D01*
X134983501Y-86380264D01*
X134983489Y-86380261D01*
X134828845Y-86349500D01*
X134828842Y-86349500D01*
X134671158Y-86349500D01*
X134671155Y-86349500D01*
X134516510Y-86380261D01*
X134516498Y-86380264D01*
X134370827Y-86440602D01*
X134370814Y-86440609D01*
X134239711Y-86528210D01*
X134239707Y-86528213D01*
X134128213Y-86639707D01*
X134128210Y-86639711D01*
X134040609Y-86770814D01*
X134040602Y-86770827D01*
X133980264Y-86916498D01*
X133980261Y-86916510D01*
X133949500Y-87071153D01*
X99500500Y-87071153D01*
X99500500Y-85921153D01*
X100199500Y-85921153D01*
X100199500Y-86078846D01*
X100230261Y-86233489D01*
X100230264Y-86233501D01*
X100290602Y-86379172D01*
X100290609Y-86379185D01*
X100378210Y-86510288D01*
X100378213Y-86510292D01*
X100489707Y-86621786D01*
X100489711Y-86621789D01*
X100620814Y-86709390D01*
X100620827Y-86709397D01*
X100766498Y-86769735D01*
X100766503Y-86769737D01*
X100921153Y-86800499D01*
X100921156Y-86800500D01*
X100921158Y-86800500D01*
X101078844Y-86800500D01*
X101078845Y-86800499D01*
X101233497Y-86769737D01*
X101379179Y-86709394D01*
X101510289Y-86621789D01*
X101621789Y-86510289D01*
X101709394Y-86379179D01*
X101769737Y-86233497D01*
X101800500Y-86078842D01*
X101800500Y-85921158D01*
X101800500Y-85921155D01*
X101800499Y-85921153D01*
X101769738Y-85766510D01*
X101769737Y-85766503D01*
X101769735Y-85766498D01*
X101709397Y-85620827D01*
X101709390Y-85620814D01*
X101621789Y-85489711D01*
X101621786Y-85489707D01*
X101510292Y-85378213D01*
X101510288Y-85378210D01*
X101379185Y-85290609D01*
X101379172Y-85290602D01*
X101233501Y-85230264D01*
X101233489Y-85230261D01*
X101078845Y-85199500D01*
X101078842Y-85199500D01*
X100921158Y-85199500D01*
X100921155Y-85199500D01*
X100766510Y-85230261D01*
X100766498Y-85230264D01*
X100620827Y-85290602D01*
X100620814Y-85290609D01*
X100489711Y-85378210D01*
X100489707Y-85378213D01*
X100378213Y-85489707D01*
X100378210Y-85489711D01*
X100290609Y-85620814D01*
X100290602Y-85620827D01*
X100230264Y-85766498D01*
X100230261Y-85766510D01*
X100199500Y-85921153D01*
X99500500Y-85921153D01*
X99500500Y-82921153D01*
X110199500Y-82921153D01*
X110199500Y-83078846D01*
X110230261Y-83233489D01*
X110230264Y-83233501D01*
X110290602Y-83379172D01*
X110290609Y-83379185D01*
X110378210Y-83510288D01*
X110378213Y-83510292D01*
X110489707Y-83621786D01*
X110489711Y-83621789D01*
X110620814Y-83709390D01*
X110620827Y-83709397D01*
X110766498Y-83769735D01*
X110766503Y-83769737D01*
X110921153Y-83800499D01*
X110921156Y-83800500D01*
X110921158Y-83800500D01*
X111078844Y-83800500D01*
X111078845Y-83800499D01*
X111233497Y-83769737D01*
X111379179Y-83709394D01*
X111510289Y-83621789D01*
X111621789Y-83510289D01*
X111681348Y-83421153D01*
X115699500Y-83421153D01*
X115699500Y-83578846D01*
X115730261Y-83733489D01*
X115730264Y-83733501D01*
X115790602Y-83879172D01*
X115790609Y-83879185D01*
X115878210Y-84010288D01*
X115878213Y-84010292D01*
X115989707Y-84121786D01*
X115989711Y-84121789D01*
X116120814Y-84209390D01*
X116120827Y-84209397D01*
X116266498Y-84269735D01*
X116266503Y-84269737D01*
X116421153Y-84300499D01*
X116421156Y-84300500D01*
X116421158Y-84300500D01*
X116578844Y-84300500D01*
X116578845Y-84300499D01*
X116733497Y-84269737D01*
X116879179Y-84209394D01*
X117010289Y-84121789D01*
X117121789Y-84010289D01*
X117209394Y-83879179D01*
X117269737Y-83733497D01*
X117300500Y-83578842D01*
X117300500Y-83421158D01*
X117300500Y-83421155D01*
X117300499Y-83421153D01*
X117289849Y-83367611D01*
X117269737Y-83266503D01*
X117228314Y-83166498D01*
X117209397Y-83120827D01*
X117209390Y-83120814D01*
X117121790Y-82989712D01*
X117121784Y-82989705D01*
X117053232Y-82921153D01*
X123199500Y-82921153D01*
X123199500Y-83078846D01*
X123230261Y-83233489D01*
X123230264Y-83233501D01*
X123290602Y-83379172D01*
X123290609Y-83379185D01*
X123378210Y-83510288D01*
X123378213Y-83510292D01*
X123489707Y-83621786D01*
X123489711Y-83621789D01*
X123620814Y-83709390D01*
X123620827Y-83709397D01*
X123766498Y-83769735D01*
X123766503Y-83769737D01*
X123921153Y-83800499D01*
X123921156Y-83800500D01*
X123921158Y-83800500D01*
X124078844Y-83800500D01*
X124078845Y-83800499D01*
X124233497Y-83769737D01*
X124379179Y-83709394D01*
X124510289Y-83621789D01*
X124621789Y-83510289D01*
X124709394Y-83379179D01*
X124769737Y-83233497D01*
X124800500Y-83078842D01*
X124800500Y-82921158D01*
X124800500Y-82921155D01*
X124800499Y-82921153D01*
X127199500Y-82921153D01*
X127199500Y-83078846D01*
X127230261Y-83233489D01*
X127230264Y-83233501D01*
X127290602Y-83379172D01*
X127290609Y-83379185D01*
X127378210Y-83510288D01*
X127378213Y-83510292D01*
X127489707Y-83621786D01*
X127489711Y-83621789D01*
X127620814Y-83709390D01*
X127620827Y-83709397D01*
X127766498Y-83769735D01*
X127766503Y-83769737D01*
X127921153Y-83800499D01*
X127921156Y-83800500D01*
X127921158Y-83800500D01*
X128078844Y-83800500D01*
X128078845Y-83800499D01*
X128233497Y-83769737D01*
X128379179Y-83709394D01*
X128510289Y-83621789D01*
X128621789Y-83510289D01*
X128709394Y-83379179D01*
X128733429Y-83321153D01*
X138799500Y-83321153D01*
X138799500Y-83478846D01*
X138830261Y-83633489D01*
X138830264Y-83633501D01*
X138890602Y-83779172D01*
X138890609Y-83779185D01*
X138978210Y-83910288D01*
X138978213Y-83910292D01*
X139089707Y-84021786D01*
X139089711Y-84021789D01*
X139220814Y-84109390D01*
X139220827Y-84109397D01*
X139366498Y-84169735D01*
X139366503Y-84169737D01*
X139521153Y-84200499D01*
X139521156Y-84200500D01*
X139521158Y-84200500D01*
X139678844Y-84200500D01*
X139678845Y-84200499D01*
X139833497Y-84169737D01*
X139979179Y-84109394D01*
X140110289Y-84021789D01*
X140221789Y-83910289D01*
X140309394Y-83779179D01*
X140369737Y-83633497D01*
X140400500Y-83478842D01*
X140400500Y-83321158D01*
X140400500Y-83321155D01*
X140400499Y-83321153D01*
X140369738Y-83166510D01*
X140369737Y-83166503D01*
X140333427Y-83078842D01*
X140309397Y-83020827D01*
X140309390Y-83020814D01*
X140221789Y-82889711D01*
X140221786Y-82889707D01*
X140110292Y-82778213D01*
X140110288Y-82778210D01*
X139979185Y-82690609D01*
X139979172Y-82690602D01*
X139833501Y-82630264D01*
X139833489Y-82630261D01*
X139678845Y-82599500D01*
X139678842Y-82599500D01*
X139521158Y-82599500D01*
X139521155Y-82599500D01*
X139366510Y-82630261D01*
X139366498Y-82630264D01*
X139220827Y-82690602D01*
X139220814Y-82690609D01*
X139089711Y-82778210D01*
X139089707Y-82778213D01*
X138978213Y-82889707D01*
X138978210Y-82889711D01*
X138890609Y-83020814D01*
X138890602Y-83020827D01*
X138830264Y-83166498D01*
X138830261Y-83166510D01*
X138799500Y-83321153D01*
X128733429Y-83321153D01*
X128755603Y-83267621D01*
X128755605Y-83267614D01*
X128769737Y-83233497D01*
X128800500Y-83078842D01*
X128800500Y-82921158D01*
X128800500Y-82921155D01*
X128800499Y-82921153D01*
X128774531Y-82790606D01*
X128769737Y-82766503D01*
X128769735Y-82766498D01*
X128709397Y-82620827D01*
X128709390Y-82620814D01*
X128621789Y-82489711D01*
X128621786Y-82489707D01*
X128510292Y-82378213D01*
X128510288Y-82378210D01*
X128379185Y-82290609D01*
X128379175Y-82290604D01*
X128251125Y-82237564D01*
X128196722Y-82193723D01*
X128174657Y-82127429D01*
X128191936Y-82059729D01*
X128243074Y-82012119D01*
X128274387Y-82001386D01*
X128278841Y-82000500D01*
X128278842Y-82000500D01*
X128433497Y-81969737D01*
X128579179Y-81909394D01*
X128710289Y-81821789D01*
X128821789Y-81710289D01*
X128909394Y-81579179D01*
X128969737Y-81433497D01*
X129000500Y-81278842D01*
X129000500Y-81121158D01*
X129000500Y-81121155D01*
X129000499Y-81121153D01*
X128996391Y-81100499D01*
X128969737Y-80966503D01*
X128950955Y-80921158D01*
X128950953Y-80921153D01*
X131199500Y-80921153D01*
X131199500Y-81078846D01*
X131230261Y-81233489D01*
X131230264Y-81233501D01*
X131290602Y-81379172D01*
X131290609Y-81379185D01*
X131378210Y-81510288D01*
X131378213Y-81510292D01*
X131489707Y-81621786D01*
X131489711Y-81621789D01*
X131620814Y-81709390D01*
X131620827Y-81709397D01*
X131766498Y-81769735D01*
X131766503Y-81769737D01*
X131921153Y-81800499D01*
X131921156Y-81800500D01*
X131921158Y-81800500D01*
X132078844Y-81800500D01*
X132078845Y-81800499D01*
X132233497Y-81769737D01*
X132379179Y-81709394D01*
X132510289Y-81621789D01*
X132621789Y-81510289D01*
X132709394Y-81379179D01*
X132769737Y-81233497D01*
X132800500Y-81078842D01*
X132800500Y-80921158D01*
X132800500Y-80921155D01*
X132800499Y-80921153D01*
X132780543Y-80820827D01*
X132769737Y-80766503D01*
X132737929Y-80689711D01*
X132709397Y-80620827D01*
X132709390Y-80620814D01*
X132621789Y-80489711D01*
X132621786Y-80489707D01*
X132510292Y-80378213D01*
X132510288Y-80378210D01*
X132420429Y-80318168D01*
X132379185Y-80290609D01*
X132379172Y-80290602D01*
X132233501Y-80230264D01*
X132233489Y-80230261D01*
X132187701Y-80221153D01*
X138699500Y-80221153D01*
X138699500Y-80378846D01*
X138730261Y-80533489D01*
X138730264Y-80533501D01*
X138790602Y-80679172D01*
X138790609Y-80679185D01*
X138878210Y-80810288D01*
X138878213Y-80810292D01*
X138989707Y-80921786D01*
X138989711Y-80921789D01*
X139120814Y-81009390D01*
X139120827Y-81009397D01*
X139266498Y-81069735D01*
X139266503Y-81069737D01*
X139421153Y-81100499D01*
X139421156Y-81100500D01*
X139421158Y-81100500D01*
X139578844Y-81100500D01*
X139578845Y-81100499D01*
X139733497Y-81069737D01*
X139879179Y-81009394D01*
X140010289Y-80921789D01*
X140121789Y-80810289D01*
X140209394Y-80679179D01*
X140269737Y-80533497D01*
X140300500Y-80378842D01*
X140300500Y-80221158D01*
X140300500Y-80221155D01*
X140300499Y-80221153D01*
X140278269Y-80109397D01*
X140269737Y-80066503D01*
X140209534Y-79921158D01*
X140209397Y-79920827D01*
X140209390Y-79920814D01*
X140121789Y-79789711D01*
X140121786Y-79789707D01*
X140010292Y-79678213D01*
X140010288Y-79678210D01*
X139879185Y-79590609D01*
X139879172Y-79590602D01*
X139733501Y-79530264D01*
X139733489Y-79530261D01*
X139578845Y-79499500D01*
X139578842Y-79499500D01*
X139421158Y-79499500D01*
X139421155Y-79499500D01*
X139266510Y-79530261D01*
X139266498Y-79530264D01*
X139120827Y-79590602D01*
X139120814Y-79590609D01*
X138989711Y-79678210D01*
X138989707Y-79678213D01*
X138878213Y-79789707D01*
X138878210Y-79789711D01*
X138790609Y-79920814D01*
X138790602Y-79920827D01*
X138730264Y-80066498D01*
X138730261Y-80066510D01*
X138699500Y-80221153D01*
X132187701Y-80221153D01*
X132078845Y-80199500D01*
X132078842Y-80199500D01*
X131921158Y-80199500D01*
X131921155Y-80199500D01*
X131766510Y-80230261D01*
X131766498Y-80230264D01*
X131620827Y-80290602D01*
X131620814Y-80290609D01*
X131489711Y-80378210D01*
X131489707Y-80378213D01*
X131378213Y-80489707D01*
X131378210Y-80489711D01*
X131290609Y-80620814D01*
X131290602Y-80620827D01*
X131230264Y-80766498D01*
X131230261Y-80766510D01*
X131199500Y-80921153D01*
X128950953Y-80921153D01*
X128909397Y-80820827D01*
X128909390Y-80820814D01*
X128821789Y-80689711D01*
X128821786Y-80689707D01*
X128710292Y-80578213D01*
X128710288Y-80578210D01*
X128579185Y-80490609D01*
X128579172Y-80490602D01*
X128433501Y-80430264D01*
X128433489Y-80430261D01*
X128278845Y-80399500D01*
X128278842Y-80399500D01*
X128121158Y-80399500D01*
X128121155Y-80399500D01*
X127966510Y-80430261D01*
X127966498Y-80430264D01*
X127820827Y-80490602D01*
X127820814Y-80490609D01*
X127689711Y-80578210D01*
X127689707Y-80578213D01*
X127578213Y-80689707D01*
X127578210Y-80689711D01*
X127490609Y-80820814D01*
X127490602Y-80820827D01*
X127430264Y-80966498D01*
X127430261Y-80966510D01*
X127399500Y-81121153D01*
X127399500Y-81278846D01*
X127430261Y-81433489D01*
X127430264Y-81433501D01*
X127490602Y-81579172D01*
X127490609Y-81579185D01*
X127578210Y-81710288D01*
X127578213Y-81710292D01*
X127689707Y-81821786D01*
X127689711Y-81821789D01*
X127820814Y-81909390D01*
X127820827Y-81909397D01*
X127948873Y-81962435D01*
X128003277Y-82006276D01*
X128025342Y-82072570D01*
X128008063Y-82140269D01*
X127956926Y-82187880D01*
X127925613Y-82198613D01*
X127766508Y-82230261D01*
X127766498Y-82230264D01*
X127620827Y-82290602D01*
X127620814Y-82290609D01*
X127489711Y-82378210D01*
X127489707Y-82378213D01*
X127378213Y-82489707D01*
X127378210Y-82489711D01*
X127290609Y-82620814D01*
X127290602Y-82620827D01*
X127230264Y-82766498D01*
X127230261Y-82766510D01*
X127199500Y-82921153D01*
X124800499Y-82921153D01*
X124774531Y-82790606D01*
X124769737Y-82766503D01*
X124769735Y-82766498D01*
X124709397Y-82620827D01*
X124709390Y-82620814D01*
X124621789Y-82489711D01*
X124621786Y-82489707D01*
X124510292Y-82378213D01*
X124510288Y-82378210D01*
X124379185Y-82290609D01*
X124379172Y-82290602D01*
X124233501Y-82230264D01*
X124233489Y-82230261D01*
X124078845Y-82199500D01*
X124078842Y-82199500D01*
X123921158Y-82199500D01*
X123921155Y-82199500D01*
X123766510Y-82230261D01*
X123766498Y-82230264D01*
X123620827Y-82290602D01*
X123620814Y-82290609D01*
X123489711Y-82378210D01*
X123489707Y-82378213D01*
X123378213Y-82489707D01*
X123378210Y-82489711D01*
X123290609Y-82620814D01*
X123290602Y-82620827D01*
X123230264Y-82766498D01*
X123230261Y-82766510D01*
X123199500Y-82921153D01*
X117053232Y-82921153D01*
X117010292Y-82878213D01*
X117010288Y-82878210D01*
X116879185Y-82790609D01*
X116879172Y-82790602D01*
X116733501Y-82730264D01*
X116733489Y-82730261D01*
X116578845Y-82699500D01*
X116578842Y-82699500D01*
X116421158Y-82699500D01*
X116421155Y-82699500D01*
X116266510Y-82730261D01*
X116266498Y-82730264D01*
X116120827Y-82790602D01*
X116120814Y-82790609D01*
X115989711Y-82878210D01*
X115989707Y-82878213D01*
X115878213Y-82989707D01*
X115878210Y-82989711D01*
X115790609Y-83120814D01*
X115790602Y-83120827D01*
X115730264Y-83266498D01*
X115730261Y-83266510D01*
X115699500Y-83421153D01*
X111681348Y-83421153D01*
X111709394Y-83379179D01*
X111769737Y-83233497D01*
X111800500Y-83078842D01*
X111800500Y-82921158D01*
X111800500Y-82921155D01*
X111800499Y-82921153D01*
X111774531Y-82790606D01*
X111769737Y-82766503D01*
X111769735Y-82766498D01*
X111709397Y-82620827D01*
X111709390Y-82620814D01*
X111621789Y-82489711D01*
X111621786Y-82489707D01*
X111510292Y-82378213D01*
X111510288Y-82378210D01*
X111379185Y-82290609D01*
X111379172Y-82290602D01*
X111233501Y-82230264D01*
X111233489Y-82230261D01*
X111078845Y-82199500D01*
X111078842Y-82199500D01*
X110921158Y-82199500D01*
X110921155Y-82199500D01*
X110766510Y-82230261D01*
X110766498Y-82230264D01*
X110620827Y-82290602D01*
X110620814Y-82290609D01*
X110489711Y-82378210D01*
X110489707Y-82378213D01*
X110378213Y-82489707D01*
X110378210Y-82489711D01*
X110290609Y-82620814D01*
X110290602Y-82620827D01*
X110230264Y-82766498D01*
X110230261Y-82766510D01*
X110199500Y-82921153D01*
X99500500Y-82921153D01*
X99500500Y-80921153D01*
X124999500Y-80921153D01*
X124999500Y-81078846D01*
X125030261Y-81233489D01*
X125030264Y-81233501D01*
X125090602Y-81379172D01*
X125090609Y-81379185D01*
X125178210Y-81510288D01*
X125178213Y-81510292D01*
X125289707Y-81621786D01*
X125289711Y-81621789D01*
X125420814Y-81709390D01*
X125420827Y-81709397D01*
X125566498Y-81769735D01*
X125566503Y-81769737D01*
X125721153Y-81800499D01*
X125721156Y-81800500D01*
X125721158Y-81800500D01*
X125878844Y-81800500D01*
X125878845Y-81800499D01*
X126033497Y-81769737D01*
X126179179Y-81709394D01*
X126310289Y-81621789D01*
X126421789Y-81510289D01*
X126509394Y-81379179D01*
X126569737Y-81233497D01*
X126600500Y-81078842D01*
X126600500Y-80921158D01*
X126600500Y-80921155D01*
X126600499Y-80921153D01*
X126580543Y-80820827D01*
X126569737Y-80766503D01*
X126537929Y-80689711D01*
X126509397Y-80620827D01*
X126509390Y-80620814D01*
X126421789Y-80489711D01*
X126421786Y-80489707D01*
X126310292Y-80378213D01*
X126310288Y-80378210D01*
X126179185Y-80290609D01*
X126179172Y-80290602D01*
X126033501Y-80230264D01*
X126033489Y-80230261D01*
X125878845Y-80199500D01*
X125878842Y-80199500D01*
X125721158Y-80199500D01*
X125721155Y-80199500D01*
X125566510Y-80230261D01*
X125566498Y-80230264D01*
X125420827Y-80290602D01*
X125420814Y-80290609D01*
X125289711Y-80378210D01*
X125289707Y-80378213D01*
X125178213Y-80489707D01*
X125178210Y-80489711D01*
X125090609Y-80620814D01*
X125090602Y-80620827D01*
X125030264Y-80766498D01*
X125030261Y-80766510D01*
X124999500Y-80921153D01*
X99500500Y-80921153D01*
X99500500Y-79921153D01*
X100199500Y-79921153D01*
X100199500Y-80078846D01*
X100230261Y-80233489D01*
X100230264Y-80233501D01*
X100290602Y-80379172D01*
X100290609Y-80379185D01*
X100378210Y-80510288D01*
X100378213Y-80510292D01*
X100489707Y-80621786D01*
X100489711Y-80621789D01*
X100620814Y-80709390D01*
X100620827Y-80709397D01*
X100758683Y-80766498D01*
X100766503Y-80769737D01*
X100921153Y-80800499D01*
X100921156Y-80800500D01*
X100921158Y-80800500D01*
X101078844Y-80800500D01*
X101078845Y-80800499D01*
X101089179Y-80798443D01*
X101114287Y-80793450D01*
X101114292Y-80793449D01*
X101199800Y-80776439D01*
X101233497Y-80769737D01*
X101379179Y-80709394D01*
X101510289Y-80621789D01*
X101621789Y-80510289D01*
X101709394Y-80379179D01*
X101769737Y-80233497D01*
X101800500Y-80078842D01*
X101800500Y-79921158D01*
X101800500Y-79921155D01*
X101800499Y-79921153D01*
X101774353Y-79789711D01*
X101769737Y-79766503D01*
X101746080Y-79709390D01*
X101709397Y-79620827D01*
X101709390Y-79620814D01*
X101621789Y-79489711D01*
X101621786Y-79489707D01*
X101510292Y-79378213D01*
X101510288Y-79378210D01*
X101379185Y-79290609D01*
X101379172Y-79290602D01*
X101233501Y-79230264D01*
X101233489Y-79230261D01*
X101078845Y-79199500D01*
X101078842Y-79199500D01*
X100921158Y-79199500D01*
X100921155Y-79199500D01*
X100766510Y-79230261D01*
X100766498Y-79230264D01*
X100620827Y-79290602D01*
X100620814Y-79290609D01*
X100489711Y-79378210D01*
X100489707Y-79378213D01*
X100378213Y-79489707D01*
X100378210Y-79489711D01*
X100290609Y-79620814D01*
X100290602Y-79620827D01*
X100230264Y-79766498D01*
X100230261Y-79766510D01*
X100199500Y-79921153D01*
X99500500Y-79921153D01*
X99500500Y-72353713D01*
X99899500Y-72353713D01*
X99899500Y-72566287D01*
X99901389Y-72578211D01*
X99931210Y-72766498D01*
X99932754Y-72776243D01*
X99979838Y-72921153D01*
X99998444Y-72978414D01*
X100094951Y-73167820D01*
X100219890Y-73339786D01*
X100370213Y-73490109D01*
X100542182Y-73615050D01*
X100550946Y-73619516D01*
X100601742Y-73667491D01*
X100618536Y-73735312D01*
X100595998Y-73801447D01*
X100550946Y-73840484D01*
X100542182Y-73844949D01*
X100370213Y-73969890D01*
X100219890Y-74120213D01*
X100094951Y-74292179D01*
X99998444Y-74481585D01*
X99932753Y-74683760D01*
X99899500Y-74893713D01*
X99899500Y-75106286D01*
X99932735Y-75316127D01*
X99932754Y-75316243D01*
X99995803Y-75510288D01*
X99998444Y-75518414D01*
X100094951Y-75707820D01*
X100219890Y-75879786D01*
X100333430Y-75993326D01*
X100366915Y-76054649D01*
X100361931Y-76124341D01*
X100320059Y-76180274D01*
X100289083Y-76197189D01*
X100157669Y-76246203D01*
X100157664Y-76246206D01*
X100042455Y-76332452D01*
X100042452Y-76332455D01*
X99956206Y-76447664D01*
X99956202Y-76447671D01*
X99905908Y-76582517D01*
X99899501Y-76642116D01*
X99899500Y-76642135D01*
X99899500Y-78437870D01*
X99899501Y-78437876D01*
X99905908Y-78497483D01*
X99956202Y-78632328D01*
X99956206Y-78632335D01*
X100042452Y-78747544D01*
X100042455Y-78747547D01*
X100157664Y-78833793D01*
X100157671Y-78833797D01*
X100292517Y-78884091D01*
X100292516Y-78884091D01*
X100299444Y-78884835D01*
X100352127Y-78890500D01*
X102147872Y-78890499D01*
X102207483Y-78884091D01*
X102342331Y-78833796D01*
X102457546Y-78747546D01*
X102543796Y-78632331D01*
X102592810Y-78500916D01*
X102634681Y-78444984D01*
X102700145Y-78420566D01*
X102768418Y-78435417D01*
X102796673Y-78456569D01*
X102910213Y-78570109D01*
X103082179Y-78695048D01*
X103082181Y-78695049D01*
X103082184Y-78695051D01*
X103271588Y-78791557D01*
X103473757Y-78857246D01*
X103683713Y-78890500D01*
X103683714Y-78890500D01*
X103896286Y-78890500D01*
X103896287Y-78890500D01*
X104106243Y-78857246D01*
X104308412Y-78791557D01*
X104497816Y-78695051D01*
X104584138Y-78632335D01*
X104669786Y-78570109D01*
X104669788Y-78570106D01*
X104669792Y-78570104D01*
X104820104Y-78419792D01*
X104820106Y-78419788D01*
X104820109Y-78419786D01*
X104945048Y-78247820D01*
X104945047Y-78247820D01*
X104945051Y-78247816D01*
X105041557Y-78058412D01*
X105086155Y-77921153D01*
X115199500Y-77921153D01*
X115199500Y-78078846D01*
X115230261Y-78233489D01*
X115230264Y-78233501D01*
X115290602Y-78379172D01*
X115290609Y-78379185D01*
X115378210Y-78510288D01*
X115378213Y-78510292D01*
X115489707Y-78621786D01*
X115489711Y-78621789D01*
X115620814Y-78709390D01*
X115620827Y-78709397D01*
X115712931Y-78747547D01*
X115766503Y-78769737D01*
X115921153Y-78800499D01*
X115921156Y-78800500D01*
X115921158Y-78800500D01*
X116078844Y-78800500D01*
X116078845Y-78800499D01*
X116233497Y-78769737D01*
X116379179Y-78709394D01*
X116510289Y-78621789D01*
X116621789Y-78510289D01*
X116709394Y-78379179D01*
X116769737Y-78233497D01*
X116800500Y-78078842D01*
X116800500Y-77921158D01*
X116800500Y-77921155D01*
X116800499Y-77921153D01*
X120199500Y-77921153D01*
X120199500Y-78078846D01*
X120230261Y-78233489D01*
X120230264Y-78233501D01*
X120290602Y-78379172D01*
X120290609Y-78379185D01*
X120378210Y-78510288D01*
X120378213Y-78510292D01*
X120489707Y-78621786D01*
X120489711Y-78621789D01*
X120620814Y-78709390D01*
X120620827Y-78709397D01*
X120712931Y-78747547D01*
X120766503Y-78769737D01*
X120921153Y-78800499D01*
X120921156Y-78800500D01*
X120921158Y-78800500D01*
X121078844Y-78800500D01*
X121078845Y-78800499D01*
X121233497Y-78769737D01*
X121379179Y-78709394D01*
X121510289Y-78621789D01*
X121618825Y-78513253D01*
X126199500Y-78513253D01*
X126199500Y-78670946D01*
X126230261Y-78825589D01*
X126230264Y-78825601D01*
X126290602Y-78971272D01*
X126290609Y-78971285D01*
X126378210Y-79102388D01*
X126378213Y-79102392D01*
X126489707Y-79213886D01*
X126489711Y-79213889D01*
X126620814Y-79301490D01*
X126620827Y-79301497D01*
X126668294Y-79321158D01*
X126766503Y-79361837D01*
X126921153Y-79392599D01*
X126921156Y-79392600D01*
X126921158Y-79392600D01*
X127078844Y-79392600D01*
X127078845Y-79392599D01*
X127233497Y-79361837D01*
X127379179Y-79301494D01*
X127510289Y-79213889D01*
X127621789Y-79102389D01*
X127709394Y-78971279D01*
X127769737Y-78825597D01*
X127800500Y-78670942D01*
X127800500Y-78513258D01*
X127800500Y-78513255D01*
X127800499Y-78513253D01*
X127795815Y-78489707D01*
X127769737Y-78358603D01*
X127741572Y-78290606D01*
X127709397Y-78212927D01*
X127709390Y-78212914D01*
X127621789Y-78081811D01*
X127621786Y-78081807D01*
X127510292Y-77970313D01*
X127510288Y-77970310D01*
X127379185Y-77882709D01*
X127379172Y-77882702D01*
X127233501Y-77822364D01*
X127233489Y-77822361D01*
X127078845Y-77791600D01*
X127078842Y-77791600D01*
X126921158Y-77791600D01*
X126921155Y-77791600D01*
X126766510Y-77822361D01*
X126766498Y-77822364D01*
X126620827Y-77882702D01*
X126620814Y-77882709D01*
X126489711Y-77970310D01*
X126489707Y-77970313D01*
X126378213Y-78081807D01*
X126378210Y-78081811D01*
X126290609Y-78212914D01*
X126290602Y-78212927D01*
X126230264Y-78358598D01*
X126230261Y-78358610D01*
X126199500Y-78513253D01*
X121618825Y-78513253D01*
X121621789Y-78510289D01*
X121657684Y-78456569D01*
X121669908Y-78438275D01*
X121709390Y-78379185D01*
X121709390Y-78379184D01*
X121709394Y-78379179D01*
X121769737Y-78233497D01*
X121800500Y-78078842D01*
X121800500Y-77921158D01*
X121800500Y-77921155D01*
X121800499Y-77921153D01*
X121792851Y-77882706D01*
X121769737Y-77766503D01*
X121769735Y-77766498D01*
X121709397Y-77620827D01*
X121709390Y-77620814D01*
X121621789Y-77489711D01*
X121621786Y-77489707D01*
X121510292Y-77378213D01*
X121510288Y-77378210D01*
X121379185Y-77290609D01*
X121379172Y-77290602D01*
X121233501Y-77230264D01*
X121233489Y-77230261D01*
X121078845Y-77199500D01*
X121078842Y-77199500D01*
X120921158Y-77199500D01*
X120921155Y-77199500D01*
X120766510Y-77230261D01*
X120766498Y-77230264D01*
X120620827Y-77290602D01*
X120620814Y-77290609D01*
X120489711Y-77378210D01*
X120489707Y-77378213D01*
X120378213Y-77489707D01*
X120378210Y-77489711D01*
X120290609Y-77620814D01*
X120290602Y-77620827D01*
X120230264Y-77766498D01*
X120230261Y-77766510D01*
X120199500Y-77921153D01*
X116800499Y-77921153D01*
X116792851Y-77882706D01*
X116769737Y-77766503D01*
X116769735Y-77766498D01*
X116709397Y-77620827D01*
X116709390Y-77620814D01*
X116621789Y-77489711D01*
X116621786Y-77489707D01*
X116510292Y-77378213D01*
X116510288Y-77378210D01*
X116379185Y-77290609D01*
X116379172Y-77290602D01*
X116233501Y-77230264D01*
X116233489Y-77230261D01*
X116078845Y-77199500D01*
X116078842Y-77199500D01*
X115921158Y-77199500D01*
X115921155Y-77199500D01*
X115766510Y-77230261D01*
X115766498Y-77230264D01*
X115620827Y-77290602D01*
X115620814Y-77290609D01*
X115489711Y-77378210D01*
X115489707Y-77378213D01*
X115378213Y-77489707D01*
X115378210Y-77489711D01*
X115290609Y-77620814D01*
X115290602Y-77620827D01*
X115230264Y-77766498D01*
X115230261Y-77766510D01*
X115199500Y-77921153D01*
X105086155Y-77921153D01*
X105107246Y-77856243D01*
X105140500Y-77646287D01*
X105140500Y-77433713D01*
X105107246Y-77223757D01*
X105041557Y-77021588D01*
X104945051Y-76832184D01*
X104861549Y-76717253D01*
X124403500Y-76717253D01*
X124403500Y-76874946D01*
X124434261Y-77029589D01*
X124434264Y-77029601D01*
X124494602Y-77175272D01*
X124494609Y-77175285D01*
X124582210Y-77306388D01*
X124582213Y-77306392D01*
X124693707Y-77417886D01*
X124693711Y-77417889D01*
X124824814Y-77505490D01*
X124824827Y-77505497D01*
X124970498Y-77565835D01*
X124970503Y-77565837D01*
X125125153Y-77596599D01*
X125125156Y-77596600D01*
X125125158Y-77596600D01*
X125282844Y-77596600D01*
X125282845Y-77596599D01*
X125437497Y-77565837D01*
X125583179Y-77505494D01*
X125714289Y-77417889D01*
X125825789Y-77306389D01*
X125913394Y-77175279D01*
X125973737Y-77029597D01*
X126004500Y-76874942D01*
X126004500Y-76717258D01*
X126004500Y-76717255D01*
X126004499Y-76717253D01*
X127995500Y-76717253D01*
X127995500Y-76874946D01*
X128026261Y-77029589D01*
X128026264Y-77029601D01*
X128086602Y-77175272D01*
X128086609Y-77175285D01*
X128174210Y-77306388D01*
X128174213Y-77306392D01*
X128285707Y-77417886D01*
X128285711Y-77417889D01*
X128416814Y-77505490D01*
X128416827Y-77505497D01*
X128562498Y-77565835D01*
X128562503Y-77565837D01*
X128717153Y-77596599D01*
X128717156Y-77596600D01*
X128717158Y-77596600D01*
X128874844Y-77596600D01*
X128874845Y-77596599D01*
X129029497Y-77565837D01*
X129175179Y-77505494D01*
X129306289Y-77417889D01*
X129417789Y-77306389D01*
X129505394Y-77175279D01*
X129565737Y-77029597D01*
X129596500Y-76874942D01*
X129596500Y-76717258D01*
X129596500Y-76717255D01*
X129596499Y-76717253D01*
X129584497Y-76656915D01*
X129565737Y-76562603D01*
X129518131Y-76447671D01*
X129507148Y-76421153D01*
X133199500Y-76421153D01*
X133199500Y-76578846D01*
X133230261Y-76733489D01*
X133230264Y-76733501D01*
X133290602Y-76879172D01*
X133290609Y-76879185D01*
X133378210Y-77010288D01*
X133378213Y-77010292D01*
X133489707Y-77121786D01*
X133489711Y-77121789D01*
X133620814Y-77209390D01*
X133620827Y-77209397D01*
X133766498Y-77269735D01*
X133766503Y-77269737D01*
X133921153Y-77300499D01*
X133921156Y-77300500D01*
X133921158Y-77300500D01*
X134078844Y-77300500D01*
X134078845Y-77300499D01*
X134233497Y-77269737D01*
X134379179Y-77209394D01*
X134510289Y-77121789D01*
X134621789Y-77010289D01*
X134709394Y-76879179D01*
X134769737Y-76733497D01*
X134800500Y-76578842D01*
X134800500Y-76421158D01*
X134800500Y-76421155D01*
X134800499Y-76421153D01*
X134795827Y-76397664D01*
X134769737Y-76266503D01*
X134751215Y-76221786D01*
X134709397Y-76120827D01*
X134709390Y-76120814D01*
X134621789Y-75989711D01*
X134621786Y-75989707D01*
X134510292Y-75878213D01*
X134510288Y-75878210D01*
X134379185Y-75790609D01*
X134379172Y-75790602D01*
X134233501Y-75730264D01*
X134233489Y-75730261D01*
X134078845Y-75699500D01*
X134078842Y-75699500D01*
X133921158Y-75699500D01*
X133921155Y-75699500D01*
X133766510Y-75730261D01*
X133766498Y-75730264D01*
X133620827Y-75790602D01*
X133620814Y-75790609D01*
X133489711Y-75878210D01*
X133489707Y-75878213D01*
X133378213Y-75989707D01*
X133378210Y-75989711D01*
X133290609Y-76120814D01*
X133290602Y-76120827D01*
X133230264Y-76266498D01*
X133230261Y-76266510D01*
X133199500Y-76421153D01*
X129507148Y-76421153D01*
X129505397Y-76416926D01*
X129505390Y-76416914D01*
X129417789Y-76285811D01*
X129417786Y-76285807D01*
X129306292Y-76174313D01*
X129306288Y-76174310D01*
X129175185Y-76086709D01*
X129175172Y-76086702D01*
X129029501Y-76026364D01*
X129029489Y-76026361D01*
X128874845Y-75995600D01*
X128874842Y-75995600D01*
X128717158Y-75995600D01*
X128717155Y-75995600D01*
X128562510Y-76026361D01*
X128562498Y-76026364D01*
X128416827Y-76086702D01*
X128416814Y-76086709D01*
X128285711Y-76174310D01*
X128285707Y-76174313D01*
X128174213Y-76285807D01*
X128174210Y-76285811D01*
X128086609Y-76416914D01*
X128086602Y-76416927D01*
X128026264Y-76562598D01*
X128026261Y-76562610D01*
X127995500Y-76717253D01*
X126004499Y-76717253D01*
X125992497Y-76656915D01*
X125973737Y-76562603D01*
X125951903Y-76509890D01*
X125913397Y-76416927D01*
X125913390Y-76416914D01*
X125825789Y-76285811D01*
X125825786Y-76285807D01*
X125714292Y-76174313D01*
X125714288Y-76174310D01*
X125583185Y-76086709D01*
X125583172Y-76086702D01*
X125437501Y-76026364D01*
X125437489Y-76026361D01*
X125282845Y-75995600D01*
X125282842Y-75995600D01*
X125125158Y-75995600D01*
X125125155Y-75995600D01*
X124970510Y-76026361D01*
X124970498Y-76026364D01*
X124824827Y-76086702D01*
X124824814Y-76086709D01*
X124693711Y-76174310D01*
X124693707Y-76174313D01*
X124582213Y-76285807D01*
X124582210Y-76285811D01*
X124494609Y-76416914D01*
X124494602Y-76416927D01*
X124434264Y-76562598D01*
X124434261Y-76562610D01*
X124403500Y-76717253D01*
X104861549Y-76717253D01*
X104820104Y-76660208D01*
X104669792Y-76509896D01*
X104669786Y-76509890D01*
X104497817Y-76384949D01*
X104488504Y-76380204D01*
X104437707Y-76332230D01*
X104420912Y-76264409D01*
X104443449Y-76198274D01*
X104488507Y-76159232D01*
X104497555Y-76154622D01*
X104551716Y-76115270D01*
X104551717Y-76115270D01*
X103919408Y-75482962D01*
X103982993Y-75465925D01*
X104097007Y-75400099D01*
X104190099Y-75307007D01*
X104255925Y-75192993D01*
X104272962Y-75129408D01*
X104905270Y-75761717D01*
X104905270Y-75761716D01*
X104944622Y-75707554D01*
X105041095Y-75518217D01*
X105106757Y-75316130D01*
X105106757Y-75316127D01*
X105140000Y-75106246D01*
X105140000Y-74921153D01*
X106399500Y-74921153D01*
X106399500Y-75078846D01*
X106430261Y-75233489D01*
X106430264Y-75233501D01*
X106490602Y-75379172D01*
X106490609Y-75379185D01*
X106578210Y-75510288D01*
X106578213Y-75510292D01*
X106689707Y-75621786D01*
X106689711Y-75621789D01*
X106820814Y-75709390D01*
X106820827Y-75709397D01*
X106947138Y-75761716D01*
X106966503Y-75769737D01*
X107121153Y-75800499D01*
X107121156Y-75800500D01*
X107121158Y-75800500D01*
X107278844Y-75800500D01*
X107278845Y-75800499D01*
X107433497Y-75769737D01*
X107579179Y-75709394D01*
X107710289Y-75621789D01*
X107821789Y-75510289D01*
X107909394Y-75379179D01*
X107969737Y-75233497D01*
X108000500Y-75078842D01*
X108000500Y-74921158D01*
X108000500Y-74921155D01*
X108000499Y-74921153D01*
X122607500Y-74921153D01*
X122607500Y-75078846D01*
X122638261Y-75233489D01*
X122638264Y-75233501D01*
X122698602Y-75379172D01*
X122698609Y-75379185D01*
X122786210Y-75510288D01*
X122786213Y-75510292D01*
X122897707Y-75621786D01*
X122897711Y-75621789D01*
X123028814Y-75709390D01*
X123028827Y-75709397D01*
X123155138Y-75761716D01*
X123174503Y-75769737D01*
X123329153Y-75800499D01*
X123329156Y-75800500D01*
X123329158Y-75800500D01*
X123486844Y-75800500D01*
X123486845Y-75800499D01*
X123641497Y-75769737D01*
X123787179Y-75709394D01*
X123918289Y-75621789D01*
X124029789Y-75510289D01*
X124117394Y-75379179D01*
X124177737Y-75233497D01*
X124208500Y-75078842D01*
X124208500Y-74921158D01*
X124208500Y-74921155D01*
X124208499Y-74921153D01*
X126199500Y-74921153D01*
X126199500Y-75078846D01*
X126230261Y-75233489D01*
X126230264Y-75233501D01*
X126290602Y-75379172D01*
X126290609Y-75379185D01*
X126378210Y-75510288D01*
X126378213Y-75510292D01*
X126489707Y-75621786D01*
X126489711Y-75621789D01*
X126620814Y-75709390D01*
X126620827Y-75709397D01*
X126747138Y-75761716D01*
X126766503Y-75769737D01*
X126921153Y-75800499D01*
X126921156Y-75800500D01*
X126921158Y-75800500D01*
X127078844Y-75800500D01*
X127078845Y-75800499D01*
X127233497Y-75769737D01*
X127379179Y-75709394D01*
X127510289Y-75621789D01*
X127621789Y-75510289D01*
X127709394Y-75379179D01*
X127769737Y-75233497D01*
X127800500Y-75078842D01*
X127800500Y-74921158D01*
X127800500Y-74921155D01*
X127800499Y-74921153D01*
X129791500Y-74921153D01*
X129791500Y-75078846D01*
X129822261Y-75233489D01*
X129822264Y-75233501D01*
X129882602Y-75379172D01*
X129882609Y-75379185D01*
X129970210Y-75510288D01*
X129970213Y-75510292D01*
X130081707Y-75621786D01*
X130081711Y-75621789D01*
X130212814Y-75709390D01*
X130212827Y-75709397D01*
X130339138Y-75761716D01*
X130358503Y-75769737D01*
X130513153Y-75800499D01*
X130513156Y-75800500D01*
X130513158Y-75800500D01*
X130670844Y-75800500D01*
X130670845Y-75800499D01*
X130825497Y-75769737D01*
X130971179Y-75709394D01*
X131102289Y-75621789D01*
X131202925Y-75521153D01*
X142299500Y-75521153D01*
X142299500Y-75678846D01*
X142330261Y-75833489D01*
X142330264Y-75833501D01*
X142390602Y-75979172D01*
X142390609Y-75979185D01*
X142478210Y-76110288D01*
X142478213Y-76110292D01*
X142589707Y-76221786D01*
X142589711Y-76221789D01*
X142720814Y-76309390D01*
X142720827Y-76309397D01*
X142866498Y-76369735D01*
X142866503Y-76369737D01*
X143006901Y-76397664D01*
X143021153Y-76400499D01*
X143021156Y-76400500D01*
X143021158Y-76400500D01*
X143178844Y-76400500D01*
X143178845Y-76400499D01*
X143333497Y-76369737D01*
X143479179Y-76309394D01*
X143610289Y-76221789D01*
X143721789Y-76110289D01*
X143809394Y-75979179D01*
X143869737Y-75833497D01*
X143900500Y-75678842D01*
X143900500Y-75521158D01*
X143900500Y-75521155D01*
X143900499Y-75521153D01*
X143885585Y-75446175D01*
X143869737Y-75366503D01*
X143853769Y-75327952D01*
X143809397Y-75220827D01*
X143809390Y-75220814D01*
X143721789Y-75089711D01*
X143721786Y-75089707D01*
X143610292Y-74978213D01*
X143610288Y-74978210D01*
X143479185Y-74890609D01*
X143479172Y-74890602D01*
X143333501Y-74830264D01*
X143333489Y-74830261D01*
X143178845Y-74799500D01*
X143178842Y-74799500D01*
X143021158Y-74799500D01*
X143021155Y-74799500D01*
X142866510Y-74830261D01*
X142866498Y-74830264D01*
X142720827Y-74890602D01*
X142720814Y-74890609D01*
X142589711Y-74978210D01*
X142589707Y-74978213D01*
X142478213Y-75089707D01*
X142478210Y-75089711D01*
X142390609Y-75220814D01*
X142390602Y-75220827D01*
X142330264Y-75366498D01*
X142330261Y-75366510D01*
X142299500Y-75521153D01*
X131202925Y-75521153D01*
X131213789Y-75510289D01*
X131301394Y-75379179D01*
X131361737Y-75233497D01*
X131392500Y-75078842D01*
X131392500Y-74921158D01*
X131392500Y-74921155D01*
X131392499Y-74921153D01*
X131369794Y-74807007D01*
X131361737Y-74766503D01*
X131361735Y-74766498D01*
X131301397Y-74620827D01*
X131301390Y-74620814D01*
X131213789Y-74489711D01*
X131213786Y-74489707D01*
X131102292Y-74378213D01*
X131102288Y-74378210D01*
X130971185Y-74290609D01*
X130971172Y-74290602D01*
X130825501Y-74230264D01*
X130825489Y-74230261D01*
X130670845Y-74199500D01*
X130670842Y-74199500D01*
X130513158Y-74199500D01*
X130513155Y-74199500D01*
X130358510Y-74230261D01*
X130358498Y-74230264D01*
X130212827Y-74290602D01*
X130212814Y-74290609D01*
X130081711Y-74378210D01*
X130081707Y-74378213D01*
X129970213Y-74489707D01*
X129970210Y-74489711D01*
X129882609Y-74620814D01*
X129882602Y-74620827D01*
X129822264Y-74766498D01*
X129822261Y-74766510D01*
X129791500Y-74921153D01*
X127800499Y-74921153D01*
X127777794Y-74807007D01*
X127769737Y-74766503D01*
X127769735Y-74766498D01*
X127709397Y-74620827D01*
X127709390Y-74620814D01*
X127621789Y-74489711D01*
X127621786Y-74489707D01*
X127510292Y-74378213D01*
X127510288Y-74378210D01*
X127379185Y-74290609D01*
X127379172Y-74290602D01*
X127233501Y-74230264D01*
X127233489Y-74230261D01*
X127078845Y-74199500D01*
X127078842Y-74199500D01*
X126921158Y-74199500D01*
X126921155Y-74199500D01*
X126766510Y-74230261D01*
X126766498Y-74230264D01*
X126620827Y-74290602D01*
X126620814Y-74290609D01*
X126489711Y-74378210D01*
X126489707Y-74378213D01*
X126378213Y-74489707D01*
X126378210Y-74489711D01*
X126290609Y-74620814D01*
X126290602Y-74620827D01*
X126230264Y-74766498D01*
X126230261Y-74766510D01*
X126199500Y-74921153D01*
X124208499Y-74921153D01*
X124185794Y-74807007D01*
X124177737Y-74766503D01*
X124177735Y-74766498D01*
X124117397Y-74620827D01*
X124117390Y-74620814D01*
X124029789Y-74489711D01*
X124029786Y-74489707D01*
X123918292Y-74378213D01*
X123918288Y-74378210D01*
X123787185Y-74290609D01*
X123787172Y-74290602D01*
X123641501Y-74230264D01*
X123641489Y-74230261D01*
X123486845Y-74199500D01*
X123486842Y-74199500D01*
X123329158Y-74199500D01*
X123329155Y-74199500D01*
X123174510Y-74230261D01*
X123174498Y-74230264D01*
X123028827Y-74290602D01*
X123028814Y-74290609D01*
X122897711Y-74378210D01*
X122897707Y-74378213D01*
X122786213Y-74489707D01*
X122786210Y-74489711D01*
X122698609Y-74620814D01*
X122698602Y-74620827D01*
X122638264Y-74766498D01*
X122638261Y-74766510D01*
X122607500Y-74921153D01*
X108000499Y-74921153D01*
X107977794Y-74807007D01*
X107969737Y-74766503D01*
X107969735Y-74766498D01*
X107909397Y-74620827D01*
X107909390Y-74620814D01*
X107821789Y-74489711D01*
X107821786Y-74489707D01*
X107710292Y-74378213D01*
X107710288Y-74378210D01*
X107579185Y-74290609D01*
X107579172Y-74290602D01*
X107433501Y-74230264D01*
X107433489Y-74230261D01*
X107278845Y-74199500D01*
X107278842Y-74199500D01*
X107121158Y-74199500D01*
X107121155Y-74199500D01*
X106966510Y-74230261D01*
X106966498Y-74230264D01*
X106820827Y-74290602D01*
X106820814Y-74290609D01*
X106689711Y-74378210D01*
X106689707Y-74378213D01*
X106578213Y-74489707D01*
X106578210Y-74489711D01*
X106490609Y-74620814D01*
X106490602Y-74620827D01*
X106430264Y-74766498D01*
X106430261Y-74766510D01*
X106399500Y-74921153D01*
X105140000Y-74921153D01*
X105140000Y-74893753D01*
X105106757Y-74683872D01*
X105106757Y-74683869D01*
X105041095Y-74481782D01*
X104944624Y-74292449D01*
X104905270Y-74238282D01*
X104905269Y-74238282D01*
X104272962Y-74870590D01*
X104255925Y-74807007D01*
X104190099Y-74692993D01*
X104097007Y-74599901D01*
X103982993Y-74534075D01*
X103919409Y-74517037D01*
X104551716Y-73884728D01*
X104497547Y-73845373D01*
X104497547Y-73845372D01*
X104488500Y-73840763D01*
X104437706Y-73792788D01*
X104420912Y-73724966D01*
X104443451Y-73658832D01*
X104488508Y-73619793D01*
X104497816Y-73615051D01*
X104577007Y-73557515D01*
X104669786Y-73490109D01*
X104669788Y-73490106D01*
X104669792Y-73490104D01*
X104820104Y-73339792D01*
X104820106Y-73339788D01*
X104820109Y-73339786D01*
X104945048Y-73167820D01*
X104945047Y-73167820D01*
X104945051Y-73167816D01*
X105041557Y-72978412D01*
X105060162Y-72921153D01*
X107399500Y-72921153D01*
X107399500Y-73078846D01*
X107430261Y-73233489D01*
X107430264Y-73233501D01*
X107490602Y-73379172D01*
X107490609Y-73379185D01*
X107578210Y-73510288D01*
X107578213Y-73510292D01*
X107689707Y-73621786D01*
X107689711Y-73621789D01*
X107820814Y-73709390D01*
X107820827Y-73709397D01*
X107915094Y-73748443D01*
X107966503Y-73769737D01*
X108121153Y-73800499D01*
X108121156Y-73800500D01*
X108121158Y-73800500D01*
X108278844Y-73800500D01*
X108278845Y-73800499D01*
X108433497Y-73769737D01*
X108579179Y-73709394D01*
X108710289Y-73621789D01*
X108821789Y-73510289D01*
X108909394Y-73379179D01*
X108912217Y-73372365D01*
X108923067Y-73346166D01*
X108969737Y-73233497D01*
X109000500Y-73078842D01*
X109000500Y-72921158D01*
X109000500Y-72921155D01*
X109000499Y-72921153D01*
X118199500Y-72921153D01*
X118199500Y-73078846D01*
X118230261Y-73233489D01*
X118230264Y-73233501D01*
X118290602Y-73379172D01*
X118290609Y-73379185D01*
X118378210Y-73510288D01*
X118378213Y-73510292D01*
X118489707Y-73621786D01*
X118489711Y-73621789D01*
X118620814Y-73709390D01*
X118620827Y-73709397D01*
X118715094Y-73748443D01*
X118766503Y-73769737D01*
X118921153Y-73800499D01*
X118921156Y-73800500D01*
X118921158Y-73800500D01*
X119078844Y-73800500D01*
X119078845Y-73800499D01*
X119233497Y-73769737D01*
X119379179Y-73709394D01*
X119510289Y-73621789D01*
X119621789Y-73510289D01*
X119709394Y-73379179D01*
X119712217Y-73372365D01*
X119723067Y-73346166D01*
X119769737Y-73233497D01*
X119791307Y-73125058D01*
X119791308Y-73125053D01*
X124403500Y-73125053D01*
X124403500Y-73282746D01*
X124434261Y-73437389D01*
X124434264Y-73437401D01*
X124494602Y-73583072D01*
X124494609Y-73583085D01*
X124582210Y-73714188D01*
X124582213Y-73714192D01*
X124693707Y-73825686D01*
X124693711Y-73825689D01*
X124824814Y-73913290D01*
X124824827Y-73913297D01*
X124961087Y-73969737D01*
X124970503Y-73973637D01*
X125105552Y-74000500D01*
X125125153Y-74004399D01*
X125125156Y-74004400D01*
X125125158Y-74004400D01*
X125282844Y-74004400D01*
X125282845Y-74004399D01*
X125437497Y-73973637D01*
X125583179Y-73913294D01*
X125714289Y-73825689D01*
X125825789Y-73714189D01*
X125913394Y-73583079D01*
X125915010Y-73579179D01*
X125973735Y-73437401D01*
X125973737Y-73437397D01*
X126004500Y-73282742D01*
X126004500Y-73125058D01*
X126004500Y-73125056D01*
X126004500Y-73125055D01*
X126004499Y-73125053D01*
X127995500Y-73125053D01*
X127995500Y-73282746D01*
X128026261Y-73437389D01*
X128026264Y-73437401D01*
X128086602Y-73583072D01*
X128086609Y-73583085D01*
X128174210Y-73714188D01*
X128174213Y-73714192D01*
X128285707Y-73825686D01*
X128285711Y-73825689D01*
X128416814Y-73913290D01*
X128416827Y-73913297D01*
X128553087Y-73969737D01*
X128562503Y-73973637D01*
X128697552Y-74000500D01*
X128717153Y-74004399D01*
X128717156Y-74004400D01*
X128717158Y-74004400D01*
X128874844Y-74004400D01*
X128874845Y-74004399D01*
X129029497Y-73973637D01*
X129175179Y-73913294D01*
X129306289Y-73825689D01*
X129417789Y-73714189D01*
X129505394Y-73583079D01*
X129507010Y-73579179D01*
X129565735Y-73437401D01*
X129565737Y-73437397D01*
X129596500Y-73282742D01*
X129596500Y-73125058D01*
X129596499Y-73125055D01*
X129596499Y-73125053D01*
X129595723Y-73121153D01*
X132599500Y-73121153D01*
X132599500Y-73278846D01*
X132630261Y-73433489D01*
X132630264Y-73433501D01*
X132690602Y-73579172D01*
X132690609Y-73579185D01*
X132778210Y-73710288D01*
X132778213Y-73710292D01*
X132889707Y-73821786D01*
X132889711Y-73821789D01*
X133020814Y-73909390D01*
X133020827Y-73909397D01*
X133166498Y-73969735D01*
X133166503Y-73969737D01*
X133321153Y-74000499D01*
X133321156Y-74000500D01*
X133321158Y-74000500D01*
X133478844Y-74000500D01*
X133478845Y-74000499D01*
X133633497Y-73969737D01*
X133769756Y-73913297D01*
X133779172Y-73909397D01*
X133779172Y-73909396D01*
X133779179Y-73909394D01*
X133910289Y-73821789D01*
X134010925Y-73721153D01*
X135799500Y-73721153D01*
X135799500Y-73878846D01*
X135830261Y-74033489D01*
X135830264Y-74033501D01*
X135890602Y-74179172D01*
X135890609Y-74179185D01*
X135978210Y-74310288D01*
X135978213Y-74310292D01*
X136089707Y-74421786D01*
X136089711Y-74421789D01*
X136220814Y-74509390D01*
X136220827Y-74509397D01*
X136366498Y-74569735D01*
X136366503Y-74569737D01*
X136518147Y-74599901D01*
X136521153Y-74600499D01*
X136521156Y-74600500D01*
X136521158Y-74600500D01*
X136678844Y-74600500D01*
X136678845Y-74600499D01*
X136833497Y-74569737D01*
X136979179Y-74509394D01*
X137110289Y-74421789D01*
X137221789Y-74310289D01*
X137309394Y-74179179D01*
X137369737Y-74033497D01*
X137400500Y-73878842D01*
X137400500Y-73721158D01*
X137400500Y-73721155D01*
X137400499Y-73721153D01*
X137398159Y-73709390D01*
X137369737Y-73566503D01*
X137316257Y-73437389D01*
X137309397Y-73420827D01*
X137309390Y-73420814D01*
X137221789Y-73289711D01*
X137221786Y-73289707D01*
X137110292Y-73178213D01*
X137110288Y-73178210D01*
X137024897Y-73121153D01*
X139199500Y-73121153D01*
X139199500Y-73278846D01*
X139230261Y-73433489D01*
X139230264Y-73433501D01*
X139290602Y-73579172D01*
X139290609Y-73579185D01*
X139378210Y-73710288D01*
X139378213Y-73710292D01*
X139489707Y-73821786D01*
X139489711Y-73821789D01*
X139620814Y-73909390D01*
X139620827Y-73909397D01*
X139766498Y-73969735D01*
X139766503Y-73969737D01*
X139921153Y-74000499D01*
X139921156Y-74000500D01*
X139921158Y-74000500D01*
X140078844Y-74000500D01*
X140078845Y-74000499D01*
X140233497Y-73969737D01*
X140369756Y-73913297D01*
X140379172Y-73909397D01*
X140379172Y-73909396D01*
X140379179Y-73909394D01*
X140510289Y-73821789D01*
X140621789Y-73710289D01*
X140709394Y-73579179D01*
X140769737Y-73433497D01*
X140800500Y-73278842D01*
X140800500Y-73121158D01*
X140800500Y-73121155D01*
X140800499Y-73121153D01*
X140794422Y-73090602D01*
X140769737Y-72966503D01*
X140769735Y-72966498D01*
X140709397Y-72820827D01*
X140709390Y-72820814D01*
X140621789Y-72689711D01*
X140621786Y-72689707D01*
X140510292Y-72578213D01*
X140510288Y-72578210D01*
X140379185Y-72490609D01*
X140379172Y-72490602D01*
X140304003Y-72459467D01*
X140233501Y-72430264D01*
X140233489Y-72430261D01*
X140078845Y-72399500D01*
X140078842Y-72399500D01*
X139921158Y-72399500D01*
X139921155Y-72399500D01*
X139766510Y-72430261D01*
X139766498Y-72430264D01*
X139620827Y-72490602D01*
X139620814Y-72490609D01*
X139489711Y-72578210D01*
X139489707Y-72578213D01*
X139378213Y-72689707D01*
X139378210Y-72689711D01*
X139290609Y-72820814D01*
X139290602Y-72820827D01*
X139230264Y-72966498D01*
X139230261Y-72966510D01*
X139199500Y-73121153D01*
X137024897Y-73121153D01*
X136979185Y-73090609D01*
X136979172Y-73090602D01*
X136833501Y-73030264D01*
X136833489Y-73030261D01*
X136678845Y-72999500D01*
X136678842Y-72999500D01*
X136521158Y-72999500D01*
X136521155Y-72999500D01*
X136366510Y-73030261D01*
X136366498Y-73030264D01*
X136220827Y-73090602D01*
X136220814Y-73090609D01*
X136089711Y-73178210D01*
X136089707Y-73178213D01*
X135978213Y-73289707D01*
X135978210Y-73289711D01*
X135890609Y-73420814D01*
X135890602Y-73420827D01*
X135830264Y-73566498D01*
X135830261Y-73566510D01*
X135799500Y-73721153D01*
X134010925Y-73721153D01*
X134021789Y-73710289D01*
X134085427Y-73615049D01*
X134109390Y-73579185D01*
X134109390Y-73579184D01*
X134109394Y-73579179D01*
X134169737Y-73433497D01*
X134200500Y-73278842D01*
X134200500Y-73121158D01*
X134200500Y-73121155D01*
X134200499Y-73121153D01*
X134194422Y-73090602D01*
X134169737Y-72966503D01*
X134169735Y-72966498D01*
X134109397Y-72820827D01*
X134109390Y-72820814D01*
X134021789Y-72689711D01*
X134021786Y-72689707D01*
X133910292Y-72578213D01*
X133910288Y-72578210D01*
X133779185Y-72490609D01*
X133779172Y-72490602D01*
X133633501Y-72430264D01*
X133633489Y-72430261D01*
X133478845Y-72399500D01*
X133478842Y-72399500D01*
X133321158Y-72399500D01*
X133321155Y-72399500D01*
X133166510Y-72430261D01*
X133166498Y-72430264D01*
X133020827Y-72490602D01*
X133020814Y-72490609D01*
X132889711Y-72578210D01*
X132889707Y-72578213D01*
X132778213Y-72689707D01*
X132778210Y-72689711D01*
X132690609Y-72820814D01*
X132690602Y-72820827D01*
X132630264Y-72966498D01*
X132630261Y-72966510D01*
X132599500Y-73121153D01*
X129595723Y-73121153D01*
X129577644Y-73030263D01*
X129565737Y-72970403D01*
X129565735Y-72970398D01*
X129505397Y-72824727D01*
X129505390Y-72824714D01*
X129417789Y-72693611D01*
X129417786Y-72693607D01*
X129306292Y-72582113D01*
X129306288Y-72582110D01*
X129175185Y-72494509D01*
X129175172Y-72494502D01*
X129029501Y-72434164D01*
X129029489Y-72434161D01*
X128874845Y-72403400D01*
X128874842Y-72403400D01*
X128717158Y-72403400D01*
X128717155Y-72403400D01*
X128562510Y-72434161D01*
X128562498Y-72434164D01*
X128416827Y-72494502D01*
X128416814Y-72494509D01*
X128285711Y-72582110D01*
X128285707Y-72582113D01*
X128174213Y-72693607D01*
X128174210Y-72693611D01*
X128086609Y-72824714D01*
X128086602Y-72824727D01*
X128026264Y-72970398D01*
X128026261Y-72970410D01*
X127995500Y-73125053D01*
X126004499Y-73125053D01*
X125985644Y-73030263D01*
X125973737Y-72970403D01*
X125973735Y-72970398D01*
X125913397Y-72824727D01*
X125913390Y-72824714D01*
X125825789Y-72693611D01*
X125825786Y-72693607D01*
X125714292Y-72582113D01*
X125714288Y-72582110D01*
X125583185Y-72494509D01*
X125583172Y-72494502D01*
X125437501Y-72434164D01*
X125437489Y-72434161D01*
X125282845Y-72403400D01*
X125282842Y-72403400D01*
X125125158Y-72403400D01*
X125125155Y-72403400D01*
X124970510Y-72434161D01*
X124970498Y-72434164D01*
X124824827Y-72494502D01*
X124824814Y-72494509D01*
X124693711Y-72582110D01*
X124693707Y-72582113D01*
X124582213Y-72693607D01*
X124582210Y-72693611D01*
X124494609Y-72824714D01*
X124494602Y-72824727D01*
X124434264Y-72970398D01*
X124434261Y-72970410D01*
X124403500Y-73125053D01*
X119791308Y-73125053D01*
X119797331Y-73094775D01*
X119797331Y-73094773D01*
X119797990Y-73091463D01*
X119800500Y-73078842D01*
X119800500Y-72921158D01*
X119800500Y-72921155D01*
X119800499Y-72921153D01*
X119791666Y-72876747D01*
X119769737Y-72766503D01*
X119769735Y-72766498D01*
X119709397Y-72620827D01*
X119709390Y-72620814D01*
X119621789Y-72489711D01*
X119621786Y-72489707D01*
X119510292Y-72378213D01*
X119510288Y-72378210D01*
X119467737Y-72349778D01*
X145099500Y-72349778D01*
X145099500Y-72570221D01*
X145133985Y-72787952D01*
X145202103Y-72997603D01*
X145202104Y-72997606D01*
X145267043Y-73125053D01*
X145294128Y-73178210D01*
X145302187Y-73194025D01*
X145431752Y-73372358D01*
X145431756Y-73372363D01*
X145587636Y-73528243D01*
X145587641Y-73528247D01*
X145727254Y-73629682D01*
X145769920Y-73685012D01*
X145775899Y-73754625D01*
X145743293Y-73816420D01*
X145727254Y-73830318D01*
X145587641Y-73931752D01*
X145587636Y-73931756D01*
X145431756Y-74087636D01*
X145431752Y-74087641D01*
X145302187Y-74265974D01*
X145202104Y-74462393D01*
X145202103Y-74462396D01*
X145133985Y-74672047D01*
X145099500Y-74889778D01*
X145099500Y-75110221D01*
X145133985Y-75327952D01*
X145202103Y-75537603D01*
X145202104Y-75537606D01*
X145270122Y-75671096D01*
X145300270Y-75730264D01*
X145302187Y-75734025D01*
X145431752Y-75912358D01*
X145431756Y-75912363D01*
X145481928Y-75962535D01*
X145515413Y-76023858D01*
X145510429Y-76093550D01*
X145468557Y-76149483D01*
X145437581Y-76166398D01*
X145357669Y-76196203D01*
X145357664Y-76196206D01*
X145242455Y-76282452D01*
X145242452Y-76282455D01*
X145156206Y-76397664D01*
X145156202Y-76397671D01*
X145105908Y-76532517D01*
X145100533Y-76582517D01*
X145099501Y-76592123D01*
X145099500Y-76592135D01*
X145099500Y-78487870D01*
X145099501Y-78487876D01*
X145105908Y-78547483D01*
X145156202Y-78682328D01*
X145156206Y-78682335D01*
X145242452Y-78797544D01*
X145242455Y-78797547D01*
X145357664Y-78883793D01*
X145357671Y-78883797D01*
X145375643Y-78890500D01*
X145492517Y-78934091D01*
X145552127Y-78940500D01*
X145738297Y-78940499D01*
X145805336Y-78960183D01*
X145851091Y-79012987D01*
X145861035Y-79082145D01*
X145852859Y-79111950D01*
X145830263Y-79166503D01*
X145830261Y-79166510D01*
X145799500Y-79321153D01*
X145799500Y-79478846D01*
X145830261Y-79633489D01*
X145830264Y-79633501D01*
X145890602Y-79779172D01*
X145890609Y-79779185D01*
X145978210Y-79910288D01*
X145978213Y-79910292D01*
X146089707Y-80021786D01*
X146089711Y-80021789D01*
X146220814Y-80109390D01*
X146220827Y-80109397D01*
X146366498Y-80169735D01*
X146366503Y-80169737D01*
X146516131Y-80199500D01*
X146521153Y-80200499D01*
X146521156Y-80200500D01*
X146521158Y-80200500D01*
X146678844Y-80200500D01*
X146678845Y-80200499D01*
X146833497Y-80169737D01*
X146979179Y-80109394D01*
X147110289Y-80021789D01*
X147221789Y-79910289D01*
X147309394Y-79779179D01*
X147369737Y-79633497D01*
X147400500Y-79478842D01*
X147400500Y-79321158D01*
X147400500Y-79321155D01*
X147400499Y-79321153D01*
X147382419Y-79230261D01*
X147369737Y-79166503D01*
X147347141Y-79111950D01*
X147346835Y-79111211D01*
X147339366Y-79041742D01*
X147370642Y-78979263D01*
X147430731Y-78943611D01*
X147448136Y-78940470D01*
X147507483Y-78934091D01*
X147542172Y-78921153D01*
X150199500Y-78921153D01*
X150199500Y-79078846D01*
X150230261Y-79233489D01*
X150230264Y-79233501D01*
X150290602Y-79379172D01*
X150290609Y-79379185D01*
X150378210Y-79510288D01*
X150378213Y-79510292D01*
X150489707Y-79621786D01*
X150489711Y-79621789D01*
X150620814Y-79709390D01*
X150620827Y-79709397D01*
X150758683Y-79766498D01*
X150766503Y-79769737D01*
X150921153Y-79800499D01*
X150921156Y-79800500D01*
X150921158Y-79800500D01*
X151078844Y-79800500D01*
X151078845Y-79800499D01*
X151233497Y-79769737D01*
X151379179Y-79709394D01*
X151510289Y-79621789D01*
X151621789Y-79510289D01*
X151709394Y-79379179D01*
X151769737Y-79233497D01*
X151800500Y-79078842D01*
X151800500Y-78921158D01*
X151800500Y-78921155D01*
X151800499Y-78921153D01*
X151794402Y-78890500D01*
X151769737Y-78766503D01*
X151734871Y-78682328D01*
X151709397Y-78620827D01*
X151709390Y-78620814D01*
X151621789Y-78489711D01*
X151621786Y-78489707D01*
X151510292Y-78378213D01*
X151510288Y-78378210D01*
X151379185Y-78290609D01*
X151379172Y-78290602D01*
X151233501Y-78230264D01*
X151233489Y-78230261D01*
X151078845Y-78199500D01*
X151078842Y-78199500D01*
X150921158Y-78199500D01*
X150921155Y-78199500D01*
X150766510Y-78230261D01*
X150766498Y-78230264D01*
X150620827Y-78290602D01*
X150620814Y-78290609D01*
X150489711Y-78378210D01*
X150489707Y-78378213D01*
X150378213Y-78489707D01*
X150378210Y-78489711D01*
X150290609Y-78620814D01*
X150290602Y-78620827D01*
X150230264Y-78766498D01*
X150230261Y-78766510D01*
X150199500Y-78921153D01*
X147542172Y-78921153D01*
X147642331Y-78883796D01*
X147757546Y-78797546D01*
X147843796Y-78682331D01*
X147894091Y-78547483D01*
X147900500Y-78487873D01*
X147900499Y-76592128D01*
X147894091Y-76532517D01*
X147885651Y-76509889D01*
X147843797Y-76397671D01*
X147843793Y-76397664D01*
X147757547Y-76282455D01*
X147757544Y-76282452D01*
X147642335Y-76196206D01*
X147642328Y-76196202D01*
X147562419Y-76166398D01*
X147506485Y-76124527D01*
X147482068Y-76059062D01*
X147496920Y-75990789D01*
X147518069Y-75962537D01*
X147568242Y-75912365D01*
X147697815Y-75734022D01*
X147797895Y-75537606D01*
X147866015Y-75327951D01*
X147900500Y-75110222D01*
X147900500Y-74889778D01*
X147866015Y-74672049D01*
X147806771Y-74489711D01*
X147797896Y-74462396D01*
X147797895Y-74462393D01*
X147720394Y-74310292D01*
X147697815Y-74265978D01*
X147634747Y-74179172D01*
X147568247Y-74087641D01*
X147568243Y-74087636D01*
X147412363Y-73931756D01*
X147412358Y-73931752D01*
X147272745Y-73830318D01*
X147230079Y-73774989D01*
X147224100Y-73705375D01*
X147256705Y-73643580D01*
X147272745Y-73629682D01*
X147412358Y-73528247D01*
X147412356Y-73528247D01*
X147412365Y-73528242D01*
X147568242Y-73372365D01*
X147697815Y-73194022D01*
X147797895Y-72997606D01*
X147866015Y-72787951D01*
X147900500Y-72570222D01*
X147900500Y-72349778D01*
X147866015Y-72132049D01*
X147831955Y-72027221D01*
X147797896Y-71922396D01*
X147797895Y-71922393D01*
X147744550Y-71817700D01*
X147697815Y-71725978D01*
X147634612Y-71638986D01*
X147568247Y-71547641D01*
X147568243Y-71547636D01*
X147412363Y-71391756D01*
X147412358Y-71391752D01*
X147234026Y-71262187D01*
X147229352Y-71259805D01*
X147144868Y-71216758D01*
X147094074Y-71168786D01*
X147077279Y-71100965D01*
X147099816Y-71034830D01*
X147113478Y-71018599D01*
X147221789Y-70910289D01*
X147309394Y-70779179D01*
X147369737Y-70633497D01*
X147400500Y-70478842D01*
X147400500Y-70321158D01*
X147400500Y-70321155D01*
X147400499Y-70321153D01*
X147380734Y-70221789D01*
X147369737Y-70166503D01*
X147333427Y-70078842D01*
X147309397Y-70020827D01*
X147309390Y-70020814D01*
X147284763Y-69983957D01*
X147242798Y-69921153D01*
X150199500Y-69921153D01*
X150199500Y-70078846D01*
X150230261Y-70233489D01*
X150230264Y-70233501D01*
X150290602Y-70379172D01*
X150290609Y-70379185D01*
X150378210Y-70510288D01*
X150378213Y-70510292D01*
X150489707Y-70621786D01*
X150489711Y-70621789D01*
X150620814Y-70709390D01*
X150620827Y-70709397D01*
X150766498Y-70769735D01*
X150766503Y-70769737D01*
X150921153Y-70800499D01*
X150921156Y-70800500D01*
X150921158Y-70800500D01*
X151078844Y-70800500D01*
X151078845Y-70800499D01*
X151233497Y-70769737D01*
X151379179Y-70709394D01*
X151510289Y-70621789D01*
X151621789Y-70510289D01*
X151709394Y-70379179D01*
X151769737Y-70233497D01*
X151800500Y-70078842D01*
X151800500Y-69921158D01*
X151800500Y-69921155D01*
X151800499Y-69921153D01*
X151794244Y-69889707D01*
X151769737Y-69766503D01*
X151750955Y-69721158D01*
X151709397Y-69620827D01*
X151709390Y-69620814D01*
X151621789Y-69489711D01*
X151621786Y-69489707D01*
X151510292Y-69378213D01*
X151510288Y-69378210D01*
X151379185Y-69290609D01*
X151379172Y-69290602D01*
X151233501Y-69230264D01*
X151233489Y-69230261D01*
X151078845Y-69199500D01*
X151078842Y-69199500D01*
X150921158Y-69199500D01*
X150921155Y-69199500D01*
X150766510Y-69230261D01*
X150766498Y-69230264D01*
X150620827Y-69290602D01*
X150620814Y-69290609D01*
X150489711Y-69378210D01*
X150489707Y-69378213D01*
X150378213Y-69489707D01*
X150378210Y-69489711D01*
X150290609Y-69620814D01*
X150290602Y-69620827D01*
X150230264Y-69766498D01*
X150230261Y-69766510D01*
X150199500Y-69921153D01*
X147242798Y-69921153D01*
X147221789Y-69889711D01*
X147221786Y-69889707D01*
X147110292Y-69778213D01*
X147110288Y-69778210D01*
X146979185Y-69690609D01*
X146979172Y-69690602D01*
X146833501Y-69630264D01*
X146833489Y-69630261D01*
X146678845Y-69599500D01*
X146678842Y-69599500D01*
X146521158Y-69599500D01*
X146521155Y-69599500D01*
X146366510Y-69630261D01*
X146366498Y-69630264D01*
X146220827Y-69690602D01*
X146220814Y-69690609D01*
X146089711Y-69778210D01*
X146089707Y-69778213D01*
X145978213Y-69889707D01*
X145978210Y-69889711D01*
X145890609Y-70020814D01*
X145890602Y-70020827D01*
X145830264Y-70166498D01*
X145830261Y-70166510D01*
X145799500Y-70321153D01*
X145799500Y-70478846D01*
X145830261Y-70633489D01*
X145830264Y-70633501D01*
X145890602Y-70779172D01*
X145890609Y-70779185D01*
X145978210Y-70910288D01*
X145978213Y-70910292D01*
X146021309Y-70953388D01*
X146054794Y-71014711D01*
X146049810Y-71084403D01*
X146007938Y-71140336D01*
X145971954Y-71158998D01*
X145962393Y-71162104D01*
X145765974Y-71262187D01*
X145587641Y-71391752D01*
X145587636Y-71391756D01*
X145431756Y-71547636D01*
X145431752Y-71547641D01*
X145302187Y-71725974D01*
X145202104Y-71922393D01*
X145202103Y-71922396D01*
X145133985Y-72132047D01*
X145099500Y-72349778D01*
X119467737Y-72349778D01*
X119379185Y-72290609D01*
X119379172Y-72290602D01*
X119233501Y-72230264D01*
X119233489Y-72230261D01*
X119078845Y-72199500D01*
X119078842Y-72199500D01*
X118921158Y-72199500D01*
X118921155Y-72199500D01*
X118766510Y-72230261D01*
X118766498Y-72230264D01*
X118620827Y-72290602D01*
X118620814Y-72290609D01*
X118489711Y-72378210D01*
X118489707Y-72378213D01*
X118378213Y-72489707D01*
X118378210Y-72489711D01*
X118290609Y-72620814D01*
X118290602Y-72620827D01*
X118230264Y-72766498D01*
X118230261Y-72766510D01*
X118199500Y-72921153D01*
X109000499Y-72921153D01*
X108991666Y-72876747D01*
X108969737Y-72766503D01*
X108969735Y-72766498D01*
X108909397Y-72620827D01*
X108909390Y-72620814D01*
X108821789Y-72489711D01*
X108821786Y-72489707D01*
X108710292Y-72378213D01*
X108710288Y-72378210D01*
X108579185Y-72290609D01*
X108579172Y-72290602D01*
X108433501Y-72230264D01*
X108433489Y-72230261D01*
X108278845Y-72199500D01*
X108278842Y-72199500D01*
X108121158Y-72199500D01*
X108121155Y-72199500D01*
X107966510Y-72230261D01*
X107966498Y-72230264D01*
X107820827Y-72290602D01*
X107820814Y-72290609D01*
X107689711Y-72378210D01*
X107689707Y-72378213D01*
X107578213Y-72489707D01*
X107578210Y-72489711D01*
X107490609Y-72620814D01*
X107490602Y-72620827D01*
X107430264Y-72766498D01*
X107430261Y-72766510D01*
X107399500Y-72921153D01*
X105060162Y-72921153D01*
X105107246Y-72776243D01*
X105140500Y-72566287D01*
X105140500Y-72353713D01*
X105107246Y-72143757D01*
X105041557Y-71941588D01*
X104945051Y-71752184D01*
X104945049Y-71752181D01*
X104945048Y-71752179D01*
X104820109Y-71580213D01*
X104669790Y-71429894D01*
X104660692Y-71423284D01*
X104660690Y-71423282D01*
X104530994Y-71329053D01*
X126199500Y-71329053D01*
X126199500Y-71486746D01*
X126230261Y-71641389D01*
X126230264Y-71641401D01*
X126290602Y-71787072D01*
X126290609Y-71787085D01*
X126378210Y-71918188D01*
X126378213Y-71918192D01*
X126489707Y-72029686D01*
X126489711Y-72029689D01*
X126620814Y-72117290D01*
X126620827Y-72117297D01*
X126766498Y-72177635D01*
X126766503Y-72177637D01*
X126921153Y-72208399D01*
X126921156Y-72208400D01*
X126921158Y-72208400D01*
X127078844Y-72208400D01*
X127078845Y-72208399D01*
X127233497Y-72177637D01*
X127379179Y-72117294D01*
X127510289Y-72029689D01*
X127621789Y-71918189D01*
X127709394Y-71787079D01*
X127709453Y-71786938D01*
X127734446Y-71726597D01*
X127769737Y-71641397D01*
X127800500Y-71486742D01*
X127800500Y-71329058D01*
X127800500Y-71329055D01*
X127800499Y-71329053D01*
X127776508Y-71208443D01*
X127769737Y-71174403D01*
X127763356Y-71158998D01*
X127709397Y-71028727D01*
X127709390Y-71028714D01*
X127621789Y-70897611D01*
X127621786Y-70897607D01*
X127510292Y-70786113D01*
X127510288Y-70786110D01*
X127379185Y-70698509D01*
X127379172Y-70698502D01*
X127233501Y-70638164D01*
X127233489Y-70638161D01*
X127078845Y-70607400D01*
X127078842Y-70607400D01*
X126921158Y-70607400D01*
X126921155Y-70607400D01*
X126766510Y-70638161D01*
X126766498Y-70638164D01*
X126620827Y-70698502D01*
X126620814Y-70698509D01*
X126489711Y-70786110D01*
X126489707Y-70786113D01*
X126378213Y-70897607D01*
X126378210Y-70897611D01*
X126290609Y-71028714D01*
X126290602Y-71028727D01*
X126230264Y-71174398D01*
X126230261Y-71174410D01*
X126199500Y-71329053D01*
X104530994Y-71329053D01*
X104497820Y-71304951D01*
X104308414Y-71208444D01*
X104308413Y-71208443D01*
X104308412Y-71208443D01*
X104106243Y-71142754D01*
X104106241Y-71142753D01*
X104106240Y-71142753D01*
X103944957Y-71117208D01*
X103896287Y-71109500D01*
X103683713Y-71109500D01*
X103644202Y-71115757D01*
X103473759Y-71142753D01*
X103357238Y-71180613D01*
X103287396Y-71182608D01*
X103227564Y-71146527D01*
X103212882Y-71125816D01*
X103212779Y-71125886D01*
X103210271Y-71122134D01*
X103209556Y-71121124D01*
X103209391Y-71120816D01*
X103121789Y-70989711D01*
X103121786Y-70989707D01*
X103010292Y-70878213D01*
X103010288Y-70878210D01*
X102879185Y-70790609D01*
X102879172Y-70790602D01*
X102733501Y-70730264D01*
X102733489Y-70730261D01*
X102578845Y-70699500D01*
X102578842Y-70699500D01*
X102421158Y-70699500D01*
X102421155Y-70699500D01*
X102266510Y-70730261D01*
X102266498Y-70730264D01*
X102120827Y-70790602D01*
X102120814Y-70790609D01*
X101989711Y-70878210D01*
X101989707Y-70878213D01*
X101878213Y-70989707D01*
X101790691Y-71120692D01*
X101737078Y-71165496D01*
X101667753Y-71174203D01*
X101649272Y-71169731D01*
X101566244Y-71142754D01*
X101566240Y-71142753D01*
X101404957Y-71117208D01*
X101356287Y-71109500D01*
X101143713Y-71109500D01*
X101095042Y-71117208D01*
X100933760Y-71142753D01*
X100731585Y-71208444D01*
X100542179Y-71304951D01*
X100370213Y-71429890D01*
X100219890Y-71580213D01*
X100094951Y-71752179D01*
X99998444Y-71941585D01*
X99932753Y-72143760D01*
X99909496Y-72290602D01*
X99899500Y-72353713D01*
X99500500Y-72353713D01*
X99500500Y-69721153D01*
X129199500Y-69721153D01*
X129199500Y-69878846D01*
X129230261Y-70033489D01*
X129230264Y-70033501D01*
X129290602Y-70179172D01*
X129290609Y-70179185D01*
X129378210Y-70310288D01*
X129378213Y-70310292D01*
X129489707Y-70421786D01*
X129489711Y-70421789D01*
X129620814Y-70509390D01*
X129620816Y-70509391D01*
X129620821Y-70509394D01*
X129625813Y-70511461D01*
X129680214Y-70555301D01*
X129702280Y-70621595D01*
X129692920Y-70673474D01*
X129647264Y-70783698D01*
X129647261Y-70783710D01*
X129616500Y-70938353D01*
X129616500Y-71096046D01*
X129647261Y-71250689D01*
X129647264Y-71250701D01*
X129707602Y-71396372D01*
X129707609Y-71396385D01*
X129795210Y-71527488D01*
X129795213Y-71527492D01*
X129906707Y-71638986D01*
X129906711Y-71638989D01*
X130037814Y-71726590D01*
X130037827Y-71726597D01*
X130183498Y-71786935D01*
X130183503Y-71786937D01*
X130338153Y-71817699D01*
X130338156Y-71817700D01*
X130338158Y-71817700D01*
X130495844Y-71817700D01*
X130495845Y-71817699D01*
X130650497Y-71786937D01*
X130796179Y-71726594D01*
X130927289Y-71638989D01*
X131038789Y-71527489D01*
X131126394Y-71396379D01*
X131186737Y-71250697D01*
X131217500Y-71096042D01*
X131217500Y-70938358D01*
X131217500Y-70938355D01*
X131217499Y-70938353D01*
X131190078Y-70800499D01*
X131186737Y-70783703D01*
X131155959Y-70709397D01*
X131126397Y-70638027D01*
X131126390Y-70638014D01*
X131038789Y-70506911D01*
X131038786Y-70506907D01*
X130927292Y-70395413D01*
X130927288Y-70395410D01*
X130796185Y-70307809D01*
X130796175Y-70307804D01*
X130791187Y-70305738D01*
X130736784Y-70261897D01*
X130714719Y-70195602D01*
X130724078Y-70143727D01*
X130769737Y-70033497D01*
X130800500Y-69878842D01*
X130800500Y-69721158D01*
X130800500Y-69721155D01*
X130800499Y-69721153D01*
X130794422Y-69690602D01*
X130769737Y-69566503D01*
X130750955Y-69521158D01*
X130750953Y-69521153D01*
X131999500Y-69521153D01*
X131999500Y-69678846D01*
X132030261Y-69833489D01*
X132030264Y-69833501D01*
X132090602Y-69979172D01*
X132090609Y-69979185D01*
X132178210Y-70110288D01*
X132178213Y-70110292D01*
X132289707Y-70221786D01*
X132289711Y-70221789D01*
X132420814Y-70309390D01*
X132420827Y-70309397D01*
X132566498Y-70369735D01*
X132566503Y-70369737D01*
X132695569Y-70395410D01*
X132721153Y-70400499D01*
X132721156Y-70400500D01*
X132721158Y-70400500D01*
X132878844Y-70400500D01*
X132878845Y-70400499D01*
X133033497Y-70369737D01*
X133179179Y-70309394D01*
X133310289Y-70221789D01*
X133421789Y-70110289D01*
X133509394Y-69979179D01*
X133569737Y-69833497D01*
X133600500Y-69678842D01*
X133600500Y-69521158D01*
X133600500Y-69521155D01*
X133600499Y-69521153D01*
X133999500Y-69521153D01*
X133999500Y-69678846D01*
X134030261Y-69833489D01*
X134030264Y-69833501D01*
X134090602Y-69979172D01*
X134090609Y-69979185D01*
X134178210Y-70110288D01*
X134178213Y-70110292D01*
X134289707Y-70221786D01*
X134289711Y-70221789D01*
X134420814Y-70309390D01*
X134420827Y-70309397D01*
X134566498Y-70369735D01*
X134566503Y-70369737D01*
X134695569Y-70395410D01*
X134721153Y-70400499D01*
X134721156Y-70400500D01*
X134721158Y-70400500D01*
X134878844Y-70400500D01*
X134878845Y-70400499D01*
X135033497Y-70369737D01*
X135179179Y-70309394D01*
X135310289Y-70221789D01*
X135421789Y-70110289D01*
X135509394Y-69979179D01*
X135569737Y-69833497D01*
X135600500Y-69678842D01*
X135600500Y-69521158D01*
X135600500Y-69521155D01*
X135600499Y-69521153D01*
X139199500Y-69521153D01*
X139199500Y-69678846D01*
X139230261Y-69833489D01*
X139230264Y-69833501D01*
X139290602Y-69979172D01*
X139290609Y-69979185D01*
X139378210Y-70110288D01*
X139378213Y-70110292D01*
X139489707Y-70221786D01*
X139489711Y-70221789D01*
X139620814Y-70309390D01*
X139620827Y-70309397D01*
X139766498Y-70369735D01*
X139766503Y-70369737D01*
X139895569Y-70395410D01*
X139921153Y-70400499D01*
X139921156Y-70400500D01*
X139921158Y-70400500D01*
X140078844Y-70400500D01*
X140078845Y-70400499D01*
X140233497Y-70369737D01*
X140379179Y-70309394D01*
X140510289Y-70221789D01*
X140621789Y-70110289D01*
X140709394Y-69979179D01*
X140769737Y-69833497D01*
X140800500Y-69678842D01*
X140800500Y-69521158D01*
X140800500Y-69521155D01*
X140800499Y-69521153D01*
X140780734Y-69421789D01*
X140769737Y-69366503D01*
X140737929Y-69289711D01*
X140709397Y-69220827D01*
X140709390Y-69220814D01*
X140621789Y-69089711D01*
X140621786Y-69089707D01*
X140510292Y-68978213D01*
X140510288Y-68978210D01*
X140379185Y-68890609D01*
X140379172Y-68890602D01*
X140233501Y-68830264D01*
X140233489Y-68830261D01*
X140078845Y-68799500D01*
X140078842Y-68799500D01*
X139921158Y-68799500D01*
X139921155Y-68799500D01*
X139766510Y-68830261D01*
X139766498Y-68830264D01*
X139620827Y-68890602D01*
X139620814Y-68890609D01*
X139489711Y-68978210D01*
X139489707Y-68978213D01*
X139378213Y-69089707D01*
X139378210Y-69089711D01*
X139290609Y-69220814D01*
X139290602Y-69220827D01*
X139230264Y-69366498D01*
X139230261Y-69366510D01*
X139199500Y-69521153D01*
X135600499Y-69521153D01*
X135580734Y-69421789D01*
X135569737Y-69366503D01*
X135537929Y-69289711D01*
X135509397Y-69220827D01*
X135509390Y-69220814D01*
X135421789Y-69089711D01*
X135421786Y-69089707D01*
X135310292Y-68978213D01*
X135310288Y-68978210D01*
X135179185Y-68890609D01*
X135179172Y-68890602D01*
X135033501Y-68830264D01*
X135033489Y-68830261D01*
X134878845Y-68799500D01*
X134878842Y-68799500D01*
X134721158Y-68799500D01*
X134721155Y-68799500D01*
X134566510Y-68830261D01*
X134566498Y-68830264D01*
X134420827Y-68890602D01*
X134420814Y-68890609D01*
X134289711Y-68978210D01*
X134289707Y-68978213D01*
X134178213Y-69089707D01*
X134178210Y-69089711D01*
X134090609Y-69220814D01*
X134090602Y-69220827D01*
X134030264Y-69366498D01*
X134030261Y-69366510D01*
X133999500Y-69521153D01*
X133600499Y-69521153D01*
X133580734Y-69421789D01*
X133569737Y-69366503D01*
X133537929Y-69289711D01*
X133509397Y-69220827D01*
X133509390Y-69220814D01*
X133421789Y-69089711D01*
X133421786Y-69089707D01*
X133310292Y-68978213D01*
X133310288Y-68978210D01*
X133179185Y-68890609D01*
X133179172Y-68890602D01*
X133033501Y-68830264D01*
X133033489Y-68830261D01*
X132878845Y-68799500D01*
X132878842Y-68799500D01*
X132721158Y-68799500D01*
X132721155Y-68799500D01*
X132566510Y-68830261D01*
X132566498Y-68830264D01*
X132420827Y-68890602D01*
X132420814Y-68890609D01*
X132289711Y-68978210D01*
X132289707Y-68978213D01*
X132178213Y-69089707D01*
X132178210Y-69089711D01*
X132090609Y-69220814D01*
X132090602Y-69220827D01*
X132030264Y-69366498D01*
X132030261Y-69366510D01*
X131999500Y-69521153D01*
X130750953Y-69521153D01*
X130709397Y-69420827D01*
X130709390Y-69420814D01*
X130621789Y-69289711D01*
X130621786Y-69289707D01*
X130510292Y-69178213D01*
X130510288Y-69178210D01*
X130379185Y-69090609D01*
X130379172Y-69090602D01*
X130233501Y-69030264D01*
X130233489Y-69030261D01*
X130078845Y-68999500D01*
X130078842Y-68999500D01*
X129921158Y-68999500D01*
X129921155Y-68999500D01*
X129766510Y-69030261D01*
X129766498Y-69030264D01*
X129620827Y-69090602D01*
X129620814Y-69090609D01*
X129489711Y-69178210D01*
X129489707Y-69178213D01*
X129378213Y-69289707D01*
X129378210Y-69289711D01*
X129290609Y-69420814D01*
X129290602Y-69420827D01*
X129230264Y-69566498D01*
X129230261Y-69566510D01*
X129199500Y-69721153D01*
X99500500Y-69721153D01*
X99500500Y-68721153D01*
X111699500Y-68721153D01*
X111699500Y-68878846D01*
X111730261Y-69033489D01*
X111730264Y-69033501D01*
X111790602Y-69179172D01*
X111790609Y-69179185D01*
X111878210Y-69310288D01*
X111878213Y-69310292D01*
X111989707Y-69421786D01*
X111989711Y-69421789D01*
X112120814Y-69509390D01*
X112120827Y-69509397D01*
X112258695Y-69566503D01*
X112266503Y-69569737D01*
X112416131Y-69599500D01*
X112421153Y-69600499D01*
X112421156Y-69600500D01*
X112421158Y-69600500D01*
X112578844Y-69600500D01*
X112578845Y-69600499D01*
X112589179Y-69598443D01*
X112614287Y-69593450D01*
X112614292Y-69593449D01*
X112699800Y-69576439D01*
X112733497Y-69569737D01*
X112879179Y-69509394D01*
X113010289Y-69421789D01*
X113121789Y-69310289D01*
X113209394Y-69179179D01*
X113269737Y-69033497D01*
X113300500Y-68878842D01*
X113300500Y-68721158D01*
X113300500Y-68721155D01*
X113300499Y-68721153D01*
X113278269Y-68609397D01*
X113269737Y-68566503D01*
X113251215Y-68521786D01*
X113209397Y-68420827D01*
X113209390Y-68420814D01*
X113121789Y-68289711D01*
X113121786Y-68289707D01*
X113010292Y-68178213D01*
X113010288Y-68178210D01*
X112879185Y-68090609D01*
X112879172Y-68090602D01*
X112733501Y-68030264D01*
X112733489Y-68030261D01*
X112578845Y-67999500D01*
X112578842Y-67999500D01*
X112421158Y-67999500D01*
X112421155Y-67999500D01*
X112266510Y-68030261D01*
X112266498Y-68030264D01*
X112120827Y-68090602D01*
X112120814Y-68090609D01*
X111989711Y-68178210D01*
X111989707Y-68178213D01*
X111878213Y-68289707D01*
X111878210Y-68289711D01*
X111790609Y-68420814D01*
X111790602Y-68420827D01*
X111730264Y-68566498D01*
X111730261Y-68566510D01*
X111699500Y-68721153D01*
X99500500Y-68721153D01*
X99500500Y-64921153D01*
X100199500Y-64921153D01*
X100199500Y-65078846D01*
X100230261Y-65233489D01*
X100230264Y-65233501D01*
X100290602Y-65379172D01*
X100290609Y-65379185D01*
X100378210Y-65510288D01*
X100378213Y-65510292D01*
X100489707Y-65621786D01*
X100489711Y-65621789D01*
X100620814Y-65709390D01*
X100620827Y-65709397D01*
X100692603Y-65739127D01*
X100766503Y-65769737D01*
X100921153Y-65800499D01*
X100921156Y-65800500D01*
X100921158Y-65800500D01*
X101078844Y-65800500D01*
X101078845Y-65800499D01*
X101233497Y-65769737D01*
X101351592Y-65720821D01*
X101379172Y-65709397D01*
X101379172Y-65709396D01*
X101379179Y-65709394D01*
X101510289Y-65621789D01*
X101621789Y-65510289D01*
X101709394Y-65379179D01*
X101769737Y-65233497D01*
X101800500Y-65078842D01*
X101800500Y-64921158D01*
X101800500Y-64921155D01*
X101800499Y-64921153D01*
X101789890Y-64867820D01*
X101769737Y-64766503D01*
X101769735Y-64766498D01*
X101709397Y-64620827D01*
X101709390Y-64620814D01*
X101621789Y-64489711D01*
X101621786Y-64489707D01*
X101510292Y-64378213D01*
X101510288Y-64378210D01*
X101379185Y-64290609D01*
X101379172Y-64290602D01*
X101233501Y-64230264D01*
X101233489Y-64230261D01*
X101078845Y-64199500D01*
X101078842Y-64199500D01*
X100921158Y-64199500D01*
X100921155Y-64199500D01*
X100766510Y-64230261D01*
X100766498Y-64230264D01*
X100620827Y-64290602D01*
X100620814Y-64290609D01*
X100489711Y-64378210D01*
X100489707Y-64378213D01*
X100378213Y-64489707D01*
X100378210Y-64489711D01*
X100290609Y-64620814D01*
X100290602Y-64620827D01*
X100230264Y-64766498D01*
X100230261Y-64766510D01*
X100199500Y-64921153D01*
X99500500Y-64921153D01*
X99500500Y-53102135D01*
X102649500Y-53102135D01*
X102649500Y-54897870D01*
X102649501Y-54897876D01*
X102655908Y-54957483D01*
X102706202Y-55092328D01*
X102706206Y-55092335D01*
X102792452Y-55207544D01*
X102792455Y-55207547D01*
X102907664Y-55293793D01*
X102907671Y-55293797D01*
X103039082Y-55342810D01*
X103095016Y-55384681D01*
X103119433Y-55450145D01*
X103104582Y-55518418D01*
X103083431Y-55546673D01*
X102969889Y-55660215D01*
X102844951Y-55832179D01*
X102748444Y-56021585D01*
X102682753Y-56223760D01*
X102649500Y-56433713D01*
X102649500Y-56646286D01*
X102682735Y-56856127D01*
X102682754Y-56856243D01*
X102745872Y-57050500D01*
X102748444Y-57058414D01*
X102844951Y-57247820D01*
X102969890Y-57419786D01*
X103120213Y-57570109D01*
X103292182Y-57695050D01*
X103300946Y-57699516D01*
X103351742Y-57747491D01*
X103368536Y-57815312D01*
X103345998Y-57881447D01*
X103300946Y-57920484D01*
X103292182Y-57924949D01*
X103120213Y-58049890D01*
X102969890Y-58200213D01*
X102844951Y-58372179D01*
X102748444Y-58561585D01*
X102682753Y-58763760D01*
X102680364Y-58778844D01*
X102649500Y-58973713D01*
X102649500Y-59186287D01*
X102653302Y-59210289D01*
X102670961Y-59321789D01*
X102682754Y-59396243D01*
X102748389Y-59598247D01*
X102748444Y-59598414D01*
X102844951Y-59787820D01*
X102969890Y-59959786D01*
X103120213Y-60110109D01*
X103292182Y-60235050D01*
X103300946Y-60239516D01*
X103351742Y-60287491D01*
X103368536Y-60355312D01*
X103345998Y-60421447D01*
X103300946Y-60460484D01*
X103292182Y-60464949D01*
X103120213Y-60589890D01*
X102969890Y-60740213D01*
X102844951Y-60912179D01*
X102748444Y-61101585D01*
X102682753Y-61303760D01*
X102649500Y-61513713D01*
X102649500Y-61726286D01*
X102682753Y-61936239D01*
X102748444Y-62138414D01*
X102844951Y-62327820D01*
X102969890Y-62499786D01*
X103120213Y-62650109D01*
X103292182Y-62775050D01*
X103300946Y-62779516D01*
X103351742Y-62827491D01*
X103368536Y-62895312D01*
X103345998Y-62961447D01*
X103300946Y-63000484D01*
X103292182Y-63004949D01*
X103120213Y-63129890D01*
X102969890Y-63280213D01*
X102844951Y-63452179D01*
X102748444Y-63641585D01*
X102682753Y-63843760D01*
X102649500Y-64053713D01*
X102649500Y-64266287D01*
X102682754Y-64476243D01*
X102732798Y-64630263D01*
X102748444Y-64678414D01*
X102844951Y-64867820D01*
X102969890Y-65039786D01*
X103120213Y-65190109D01*
X103292182Y-65315050D01*
X103300946Y-65319516D01*
X103351742Y-65367491D01*
X103368536Y-65435312D01*
X103345998Y-65501447D01*
X103300946Y-65540484D01*
X103292182Y-65544949D01*
X103120213Y-65669890D01*
X102969890Y-65820213D01*
X102844951Y-65992179D01*
X102748444Y-66181585D01*
X102682753Y-66383760D01*
X102665973Y-66489707D01*
X102649500Y-66593713D01*
X102649500Y-66806287D01*
X102682754Y-67016243D01*
X102739409Y-67190609D01*
X102748444Y-67218414D01*
X102844951Y-67407820D01*
X102969890Y-67579786D01*
X103120213Y-67730109D01*
X103292179Y-67855048D01*
X103292181Y-67855049D01*
X103292184Y-67855051D01*
X103481588Y-67951557D01*
X103683757Y-68017246D01*
X103893713Y-68050500D01*
X103893714Y-68050500D01*
X104106286Y-68050500D01*
X104106287Y-68050500D01*
X104316243Y-68017246D01*
X104518412Y-67951557D01*
X104707816Y-67855051D01*
X104782901Y-67800499D01*
X104879786Y-67730109D01*
X104879788Y-67730106D01*
X104879792Y-67730104D01*
X105030104Y-67579792D01*
X105030106Y-67579788D01*
X105030109Y-67579786D01*
X105155048Y-67407820D01*
X105155047Y-67407820D01*
X105155051Y-67407816D01*
X105251557Y-67218412D01*
X105266912Y-67171153D01*
X108699500Y-67171153D01*
X108699500Y-67328846D01*
X108730261Y-67483489D01*
X108730264Y-67483501D01*
X108790602Y-67629172D01*
X108790609Y-67629185D01*
X108878210Y-67760288D01*
X108878213Y-67760292D01*
X108989707Y-67871786D01*
X108989711Y-67871789D01*
X109120814Y-67959390D01*
X109120827Y-67959397D01*
X109217646Y-67999500D01*
X109266503Y-68019737D01*
X109421153Y-68050499D01*
X109421156Y-68050500D01*
X109421158Y-68050500D01*
X109578844Y-68050500D01*
X109578845Y-68050499D01*
X109733497Y-68019737D01*
X109879179Y-67959394D01*
X110010289Y-67871789D01*
X110121789Y-67760289D01*
X110209394Y-67629179D01*
X110269737Y-67483497D01*
X110300500Y-67328842D01*
X110300500Y-67171158D01*
X110300500Y-67171155D01*
X110300499Y-67171153D01*
X116199500Y-67171153D01*
X116199500Y-67328846D01*
X116230261Y-67483489D01*
X116230264Y-67483501D01*
X116290602Y-67629172D01*
X116290609Y-67629185D01*
X116378210Y-67760288D01*
X116378213Y-67760292D01*
X116489707Y-67871786D01*
X116489711Y-67871789D01*
X116620814Y-67959390D01*
X116620827Y-67959397D01*
X116717646Y-67999500D01*
X116766503Y-68019737D01*
X116921153Y-68050499D01*
X116921156Y-68050500D01*
X116921158Y-68050500D01*
X117078844Y-68050500D01*
X117078845Y-68050499D01*
X117233497Y-68019737D01*
X117379179Y-67959394D01*
X117510289Y-67871789D01*
X117560925Y-67821153D01*
X130999500Y-67821153D01*
X130999500Y-67978846D01*
X131030261Y-68133489D01*
X131030264Y-68133501D01*
X131090602Y-68279172D01*
X131090609Y-68279185D01*
X131178210Y-68410288D01*
X131178213Y-68410292D01*
X131289707Y-68521786D01*
X131289711Y-68521789D01*
X131420814Y-68609390D01*
X131420827Y-68609397D01*
X131566498Y-68669735D01*
X131566503Y-68669737D01*
X131721153Y-68700499D01*
X131721156Y-68700500D01*
X131721158Y-68700500D01*
X131878844Y-68700500D01*
X131878845Y-68700499D01*
X132033497Y-68669737D01*
X132179179Y-68609394D01*
X132310289Y-68521789D01*
X132421789Y-68410289D01*
X132509394Y-68279179D01*
X132569737Y-68133497D01*
X132600500Y-67978842D01*
X132600500Y-67821158D01*
X132600500Y-67821155D01*
X132600499Y-67821153D01*
X132578269Y-67709397D01*
X132569737Y-67666503D01*
X132569735Y-67666498D01*
X132509397Y-67520827D01*
X132509390Y-67520814D01*
X132421789Y-67389711D01*
X132421786Y-67389707D01*
X132310292Y-67278213D01*
X132310288Y-67278210D01*
X132179185Y-67190609D01*
X132179172Y-67190602D01*
X132033501Y-67130264D01*
X132033489Y-67130261D01*
X131878845Y-67099500D01*
X131878842Y-67099500D01*
X131721158Y-67099500D01*
X131721155Y-67099500D01*
X131566510Y-67130261D01*
X131566498Y-67130264D01*
X131420827Y-67190602D01*
X131420814Y-67190609D01*
X131289711Y-67278210D01*
X131289707Y-67278213D01*
X131178213Y-67389707D01*
X131178210Y-67389711D01*
X131090609Y-67520814D01*
X131090602Y-67520827D01*
X131030264Y-67666498D01*
X131030261Y-67666510D01*
X130999500Y-67821153D01*
X117560925Y-67821153D01*
X117621789Y-67760289D01*
X117709394Y-67629179D01*
X117769737Y-67483497D01*
X117800500Y-67328842D01*
X117800500Y-67171158D01*
X117800500Y-67171155D01*
X117800499Y-67171153D01*
X117769738Y-67016510D01*
X117769737Y-67016503D01*
X117730242Y-66921153D01*
X132999500Y-66921153D01*
X132999500Y-67078846D01*
X133030261Y-67233489D01*
X133030264Y-67233501D01*
X133090602Y-67379172D01*
X133090609Y-67379185D01*
X133178210Y-67510288D01*
X133178213Y-67510292D01*
X133289707Y-67621786D01*
X133289711Y-67621789D01*
X133420814Y-67709390D01*
X133420827Y-67709397D01*
X133566498Y-67769735D01*
X133566503Y-67769737D01*
X133721153Y-67800499D01*
X133721156Y-67800500D01*
X133721158Y-67800500D01*
X133878844Y-67800500D01*
X133878845Y-67800499D01*
X134033497Y-67769737D01*
X134179179Y-67709394D01*
X134310289Y-67621789D01*
X134421789Y-67510289D01*
X134509394Y-67379179D01*
X134569737Y-67233497D01*
X134600500Y-67078842D01*
X134600500Y-66921158D01*
X134600500Y-66921155D01*
X134600499Y-66921153D01*
X134581909Y-66827697D01*
X134569737Y-66766503D01*
X134558795Y-66740086D01*
X134509397Y-66620827D01*
X134509390Y-66620814D01*
X134421789Y-66489711D01*
X134421786Y-66489707D01*
X134310292Y-66378213D01*
X134310288Y-66378210D01*
X134179185Y-66290609D01*
X134179172Y-66290602D01*
X134033501Y-66230264D01*
X134033489Y-66230261D01*
X133878845Y-66199500D01*
X133878842Y-66199500D01*
X133721158Y-66199500D01*
X133721155Y-66199500D01*
X133566510Y-66230261D01*
X133566498Y-66230264D01*
X133420827Y-66290602D01*
X133420814Y-66290609D01*
X133289711Y-66378210D01*
X133289707Y-66378213D01*
X133178213Y-66489707D01*
X133178210Y-66489711D01*
X133090609Y-66620814D01*
X133090602Y-66620827D01*
X133030264Y-66766498D01*
X133030261Y-66766510D01*
X132999500Y-66921153D01*
X117730242Y-66921153D01*
X117709397Y-66870827D01*
X117709390Y-66870814D01*
X117621789Y-66739711D01*
X117621786Y-66739707D01*
X117510292Y-66628213D01*
X117510288Y-66628210D01*
X117379185Y-66540609D01*
X117379172Y-66540602D01*
X117233501Y-66480264D01*
X117233489Y-66480261D01*
X117078845Y-66449500D01*
X117078842Y-66449500D01*
X116921158Y-66449500D01*
X116921155Y-66449500D01*
X116766510Y-66480261D01*
X116766498Y-66480264D01*
X116620827Y-66540602D01*
X116620814Y-66540609D01*
X116489711Y-66628210D01*
X116489707Y-66628213D01*
X116378213Y-66739707D01*
X116378210Y-66739711D01*
X116290609Y-66870814D01*
X116290602Y-66870827D01*
X116230264Y-67016498D01*
X116230261Y-67016510D01*
X116199500Y-67171153D01*
X110300499Y-67171153D01*
X110269738Y-67016510D01*
X110269737Y-67016503D01*
X110230242Y-66921153D01*
X110209397Y-66870827D01*
X110209390Y-66870814D01*
X110121789Y-66739711D01*
X110121786Y-66739707D01*
X110010292Y-66628213D01*
X110010288Y-66628210D01*
X109879185Y-66540609D01*
X109879172Y-66540602D01*
X109733501Y-66480264D01*
X109733489Y-66480261D01*
X109578845Y-66449500D01*
X109578842Y-66449500D01*
X109421158Y-66449500D01*
X109421155Y-66449500D01*
X109266510Y-66480261D01*
X109266498Y-66480264D01*
X109120827Y-66540602D01*
X109120814Y-66540609D01*
X108989711Y-66628210D01*
X108989707Y-66628213D01*
X108878213Y-66739707D01*
X108878210Y-66739711D01*
X108790609Y-66870814D01*
X108790602Y-66870827D01*
X108730264Y-67016498D01*
X108730261Y-67016510D01*
X108699500Y-67171153D01*
X105266912Y-67171153D01*
X105317246Y-67016243D01*
X105350500Y-66806287D01*
X105350500Y-66593713D01*
X105317246Y-66383757D01*
X105251557Y-66181588D01*
X105169811Y-66021153D01*
X124399500Y-66021153D01*
X124399500Y-66178846D01*
X124430261Y-66333489D01*
X124430264Y-66333501D01*
X124490602Y-66479172D01*
X124490609Y-66479185D01*
X124578210Y-66610288D01*
X124578213Y-66610292D01*
X124689707Y-66721786D01*
X124689711Y-66721789D01*
X124820814Y-66809390D01*
X124820827Y-66809397D01*
X124966498Y-66869735D01*
X124966503Y-66869737D01*
X125121153Y-66900499D01*
X125121156Y-66900500D01*
X125121158Y-66900500D01*
X125278844Y-66900500D01*
X125278845Y-66900499D01*
X125433497Y-66869737D01*
X125579179Y-66809394D01*
X125710289Y-66721789D01*
X125821789Y-66610289D01*
X125909394Y-66479179D01*
X125969737Y-66333497D01*
X126000500Y-66178842D01*
X126000500Y-66021158D01*
X126000500Y-66021155D01*
X126000499Y-66021153D01*
X125978447Y-65910292D01*
X125969737Y-65866503D01*
X125942398Y-65800500D01*
X125909397Y-65720827D01*
X125909390Y-65720814D01*
X125821789Y-65589711D01*
X125821786Y-65589707D01*
X125710292Y-65478213D01*
X125710288Y-65478210D01*
X125620429Y-65418168D01*
X125579185Y-65390609D01*
X125579172Y-65390602D01*
X125433501Y-65330264D01*
X125433489Y-65330261D01*
X125387701Y-65321153D01*
X135799500Y-65321153D01*
X135799500Y-65478846D01*
X135830261Y-65633489D01*
X135830264Y-65633501D01*
X135890602Y-65779172D01*
X135890609Y-65779185D01*
X135978210Y-65910288D01*
X135978213Y-65910292D01*
X136089707Y-66021786D01*
X136089711Y-66021789D01*
X136220814Y-66109390D01*
X136220827Y-66109397D01*
X136366498Y-66169735D01*
X136366503Y-66169737D01*
X136516131Y-66199500D01*
X136521153Y-66200499D01*
X136521156Y-66200500D01*
X136521158Y-66200500D01*
X136678844Y-66200500D01*
X136678845Y-66200499D01*
X136833497Y-66169737D01*
X136979179Y-66109394D01*
X137083853Y-66039453D01*
X139199500Y-66039453D01*
X139199500Y-66197146D01*
X139230261Y-66351789D01*
X139230264Y-66351801D01*
X139290602Y-66497472D01*
X139290609Y-66497485D01*
X139378210Y-66628588D01*
X139378213Y-66628592D01*
X139489707Y-66740086D01*
X139489711Y-66740089D01*
X139620814Y-66827690D01*
X139620827Y-66827697D01*
X139724954Y-66870827D01*
X139766503Y-66888037D01*
X139921153Y-66918799D01*
X139921156Y-66918800D01*
X139921158Y-66918800D01*
X140078844Y-66918800D01*
X140078845Y-66918799D01*
X140233497Y-66888037D01*
X140379179Y-66827694D01*
X140510289Y-66740089D01*
X140621789Y-66628589D01*
X140709394Y-66497479D01*
X140769737Y-66351797D01*
X140800500Y-66197142D01*
X140800500Y-66039458D01*
X140800500Y-66039455D01*
X140800499Y-66039453D01*
X140794698Y-66010288D01*
X140769737Y-65884803D01*
X140767410Y-65879185D01*
X140709397Y-65739127D01*
X140709390Y-65739114D01*
X140621789Y-65608011D01*
X140621786Y-65608007D01*
X140510292Y-65496513D01*
X140510288Y-65496510D01*
X140397509Y-65421153D01*
X143199500Y-65421153D01*
X143199500Y-65578846D01*
X143230261Y-65733489D01*
X143230264Y-65733501D01*
X143290602Y-65879172D01*
X143290609Y-65879185D01*
X143378210Y-66010288D01*
X143378213Y-66010292D01*
X143489707Y-66121786D01*
X143489711Y-66121789D01*
X143620814Y-66209390D01*
X143620827Y-66209397D01*
X143766498Y-66269735D01*
X143766503Y-66269737D01*
X143921153Y-66300499D01*
X143921156Y-66300500D01*
X143921158Y-66300500D01*
X144078844Y-66300500D01*
X144078845Y-66300499D01*
X144233497Y-66269737D01*
X144379179Y-66209394D01*
X144510289Y-66121789D01*
X144621789Y-66010289D01*
X144709394Y-65879179D01*
X144769737Y-65733497D01*
X144800500Y-65578842D01*
X144800500Y-65421158D01*
X144800500Y-65421155D01*
X144800499Y-65421153D01*
X144798590Y-65411557D01*
X144769737Y-65266503D01*
X144728314Y-65166498D01*
X144709397Y-65120827D01*
X144709390Y-65120814D01*
X144621789Y-64989711D01*
X144621786Y-64989707D01*
X144510292Y-64878213D01*
X144510288Y-64878210D01*
X144379185Y-64790609D01*
X144379172Y-64790602D01*
X144233501Y-64730264D01*
X144233489Y-64730261D01*
X144078845Y-64699500D01*
X144078842Y-64699500D01*
X143921158Y-64699500D01*
X143921155Y-64699500D01*
X143766510Y-64730261D01*
X143766498Y-64730264D01*
X143620827Y-64790602D01*
X143620814Y-64790609D01*
X143489711Y-64878210D01*
X143489707Y-64878213D01*
X143378213Y-64989707D01*
X143378210Y-64989711D01*
X143290609Y-65120814D01*
X143290602Y-65120827D01*
X143230264Y-65266498D01*
X143230261Y-65266510D01*
X143199500Y-65421153D01*
X140397509Y-65421153D01*
X140379185Y-65408909D01*
X140379172Y-65408902D01*
X140233501Y-65348564D01*
X140233489Y-65348561D01*
X140078845Y-65317800D01*
X140078842Y-65317800D01*
X139921158Y-65317800D01*
X139921155Y-65317800D01*
X139766510Y-65348561D01*
X139766498Y-65348564D01*
X139620827Y-65408902D01*
X139620814Y-65408909D01*
X139489711Y-65496510D01*
X139489707Y-65496513D01*
X139378213Y-65608007D01*
X139378210Y-65608011D01*
X139290609Y-65739114D01*
X139290602Y-65739127D01*
X139230264Y-65884798D01*
X139230261Y-65884810D01*
X139199500Y-66039453D01*
X137083853Y-66039453D01*
X137110289Y-66021789D01*
X137139899Y-65992179D01*
X137186394Y-65945685D01*
X137221786Y-65910292D01*
X137221789Y-65910289D01*
X137309394Y-65779179D01*
X137369737Y-65633497D01*
X137400500Y-65478842D01*
X137400500Y-65321158D01*
X137400500Y-65321155D01*
X137400499Y-65321153D01*
X137383061Y-65233489D01*
X137369737Y-65166503D01*
X137317250Y-65039786D01*
X137309397Y-65020827D01*
X137309390Y-65020814D01*
X137221789Y-64889711D01*
X137221786Y-64889707D01*
X137110292Y-64778213D01*
X137110288Y-64778210D01*
X136979185Y-64690609D01*
X136979172Y-64690602D01*
X136833501Y-64630264D01*
X136833489Y-64630261D01*
X136678845Y-64599500D01*
X136678842Y-64599500D01*
X136521158Y-64599500D01*
X136521155Y-64599500D01*
X136366510Y-64630261D01*
X136366498Y-64630264D01*
X136220827Y-64690602D01*
X136220814Y-64690609D01*
X136089711Y-64778210D01*
X136089707Y-64778213D01*
X135978213Y-64889707D01*
X135978210Y-64889711D01*
X135890609Y-65020814D01*
X135890602Y-65020827D01*
X135830264Y-65166498D01*
X135830261Y-65166510D01*
X135799500Y-65321153D01*
X125387701Y-65321153D01*
X125278845Y-65299500D01*
X125278842Y-65299500D01*
X125121158Y-65299500D01*
X125121155Y-65299500D01*
X124966510Y-65330261D01*
X124966498Y-65330264D01*
X124820827Y-65390602D01*
X124820814Y-65390609D01*
X124689711Y-65478210D01*
X124689707Y-65478213D01*
X124578213Y-65589707D01*
X124578210Y-65589711D01*
X124490609Y-65720814D01*
X124490602Y-65720827D01*
X124430264Y-65866498D01*
X124430261Y-65866510D01*
X124399500Y-66021153D01*
X105169811Y-66021153D01*
X105155051Y-65992184D01*
X105121268Y-65945685D01*
X105030109Y-65820213D01*
X104879786Y-65669890D01*
X104707820Y-65544951D01*
X104707115Y-65544591D01*
X104699054Y-65540485D01*
X104648259Y-65492512D01*
X104631463Y-65424692D01*
X104653999Y-65358556D01*
X104699054Y-65319515D01*
X104707816Y-65315051D01*
X104729789Y-65299086D01*
X104879786Y-65190109D01*
X104879788Y-65190106D01*
X104879792Y-65190104D01*
X105030104Y-65039792D01*
X105030106Y-65039788D01*
X105030109Y-65039786D01*
X105155048Y-64867820D01*
X105155047Y-64867820D01*
X105155051Y-64867816D01*
X105251557Y-64678412D01*
X105317246Y-64476243D01*
X105350500Y-64266287D01*
X105350500Y-64053713D01*
X105317246Y-63843757D01*
X105251557Y-63641588D01*
X105155051Y-63452184D01*
X105155049Y-63452181D01*
X105155048Y-63452179D01*
X105030109Y-63280213D01*
X104879786Y-63129890D01*
X104707820Y-63004951D01*
X104707115Y-63004591D01*
X104699054Y-63000485D01*
X104648259Y-62952512D01*
X104631463Y-62884692D01*
X104653999Y-62818556D01*
X104699054Y-62779515D01*
X104707816Y-62775051D01*
X104838462Y-62680132D01*
X104879786Y-62650109D01*
X104879788Y-62650106D01*
X104879792Y-62650104D01*
X105030104Y-62499792D01*
X105030106Y-62499788D01*
X105030109Y-62499786D01*
X105155048Y-62327820D01*
X105155047Y-62327820D01*
X105155051Y-62327816D01*
X105251557Y-62138412D01*
X105317246Y-61936243D01*
X105350500Y-61726287D01*
X105350500Y-61513713D01*
X105317246Y-61303757D01*
X105251557Y-61101588D01*
X105155051Y-60912184D01*
X105155049Y-60912181D01*
X105155048Y-60912179D01*
X105030109Y-60740213D01*
X104879786Y-60589890D01*
X104707820Y-60464951D01*
X104707115Y-60464591D01*
X104699054Y-60460485D01*
X104648259Y-60412512D01*
X104631463Y-60344692D01*
X104653999Y-60278556D01*
X104699054Y-60239515D01*
X104707816Y-60235051D01*
X104879630Y-60110222D01*
X104879786Y-60110109D01*
X104879788Y-60110106D01*
X104879792Y-60110104D01*
X105030104Y-59959792D01*
X105030106Y-59959788D01*
X105030109Y-59959786D01*
X105155048Y-59787820D01*
X105155047Y-59787820D01*
X105155051Y-59787816D01*
X105251557Y-59598412D01*
X105317246Y-59396243D01*
X105350500Y-59186287D01*
X105350500Y-58973713D01*
X105317246Y-58763757D01*
X105251557Y-58561588D01*
X105155051Y-58372184D01*
X105155049Y-58372181D01*
X105155048Y-58372179D01*
X105030109Y-58200213D01*
X104879786Y-58049890D01*
X104707820Y-57924951D01*
X104707115Y-57924591D01*
X104699054Y-57920485D01*
X104648259Y-57872512D01*
X104631463Y-57804692D01*
X104653999Y-57738556D01*
X104699054Y-57699515D01*
X104707816Y-57695051D01*
X104762572Y-57655269D01*
X104879786Y-57570109D01*
X104879788Y-57570106D01*
X104879792Y-57570104D01*
X105030104Y-57419792D01*
X105030106Y-57419788D01*
X105030109Y-57419786D01*
X105155048Y-57247820D01*
X105155047Y-57247820D01*
X105155051Y-57247816D01*
X105251557Y-57058412D01*
X105317246Y-56856243D01*
X105350500Y-56646287D01*
X105350500Y-56433713D01*
X105317246Y-56223757D01*
X105251557Y-56021588D01*
X105155051Y-55832184D01*
X105155049Y-55832181D01*
X105155048Y-55832179D01*
X105030109Y-55660213D01*
X104916569Y-55546673D01*
X104883084Y-55485350D01*
X104888068Y-55415658D01*
X104929940Y-55359725D01*
X104960915Y-55342810D01*
X105092331Y-55293796D01*
X105189369Y-55221153D01*
X107699500Y-55221153D01*
X107699500Y-55378846D01*
X107730261Y-55533489D01*
X107730264Y-55533501D01*
X107790602Y-55679172D01*
X107790609Y-55679185D01*
X107878210Y-55810288D01*
X107878213Y-55810292D01*
X107989707Y-55921786D01*
X107989711Y-55921789D01*
X108120814Y-56009390D01*
X108120827Y-56009397D01*
X108226685Y-56053244D01*
X108266503Y-56069737D01*
X108421153Y-56100499D01*
X108421156Y-56100500D01*
X108421158Y-56100500D01*
X108578844Y-56100500D01*
X108578845Y-56100499D01*
X108733497Y-56069737D01*
X108846166Y-56023067D01*
X108879172Y-56009397D01*
X108879172Y-56009396D01*
X108879179Y-56009394D01*
X109010289Y-55921789D01*
X109121789Y-55810289D01*
X109209394Y-55679179D01*
X109269737Y-55533497D01*
X109300500Y-55378842D01*
X109300500Y-55221158D01*
X109300500Y-55221155D01*
X109300499Y-55221153D01*
X109284507Y-55140755D01*
X109269737Y-55066503D01*
X109269735Y-55066498D01*
X109209397Y-54920827D01*
X109209390Y-54920814D01*
X109121789Y-54789711D01*
X109121786Y-54789707D01*
X109010292Y-54678213D01*
X109010288Y-54678210D01*
X108879185Y-54590609D01*
X108879172Y-54590602D01*
X108733501Y-54530264D01*
X108733489Y-54530261D01*
X108578845Y-54499500D01*
X108578842Y-54499500D01*
X108421158Y-54499500D01*
X108421155Y-54499500D01*
X108266510Y-54530261D01*
X108266498Y-54530264D01*
X108120827Y-54590602D01*
X108120814Y-54590609D01*
X107989711Y-54678210D01*
X107989707Y-54678213D01*
X107878213Y-54789707D01*
X107878210Y-54789711D01*
X107790609Y-54920814D01*
X107790602Y-54920827D01*
X107730264Y-55066498D01*
X107730261Y-55066510D01*
X107699500Y-55221153D01*
X105189369Y-55221153D01*
X105207546Y-55207546D01*
X105293796Y-55092331D01*
X105344091Y-54957483D01*
X105350500Y-54897873D01*
X105350499Y-53102135D01*
X110149500Y-53102135D01*
X110149500Y-54897870D01*
X110149501Y-54897876D01*
X110155908Y-54957483D01*
X110206202Y-55092328D01*
X110206206Y-55092335D01*
X110292452Y-55207544D01*
X110292455Y-55207547D01*
X110407664Y-55293793D01*
X110407671Y-55293797D01*
X110452618Y-55310561D01*
X110542517Y-55344091D01*
X110602127Y-55350500D01*
X110612685Y-55350499D01*
X110679723Y-55370179D01*
X110700372Y-55386818D01*
X111370591Y-56057037D01*
X111307007Y-56074075D01*
X111192993Y-56139901D01*
X111099901Y-56232993D01*
X111034075Y-56347007D01*
X111017037Y-56410591D01*
X110384728Y-55778282D01*
X110384727Y-55778282D01*
X110345380Y-55832439D01*
X110248904Y-56021782D01*
X110183242Y-56223869D01*
X110183242Y-56223872D01*
X110150000Y-56433753D01*
X110150000Y-56646246D01*
X110183242Y-56856127D01*
X110183242Y-56856130D01*
X110248904Y-57058217D01*
X110345375Y-57247550D01*
X110384728Y-57301716D01*
X111017037Y-56669408D01*
X111034075Y-56732993D01*
X111099901Y-56847007D01*
X111192993Y-56940099D01*
X111307007Y-57005925D01*
X111370590Y-57022962D01*
X110738282Y-57655269D01*
X110738282Y-57655270D01*
X110792452Y-57694626D01*
X110792451Y-57694626D01*
X110801495Y-57699234D01*
X110852292Y-57747208D01*
X110869087Y-57815029D01*
X110846550Y-57881164D01*
X110801499Y-57920202D01*
X110792182Y-57924949D01*
X110620213Y-58049890D01*
X110469890Y-58200213D01*
X110344951Y-58372179D01*
X110248444Y-58561585D01*
X110182753Y-58763760D01*
X110180364Y-58778844D01*
X110149500Y-58973713D01*
X110149500Y-59186287D01*
X110153302Y-59210289D01*
X110170961Y-59321789D01*
X110182754Y-59396243D01*
X110248389Y-59598247D01*
X110248444Y-59598414D01*
X110344951Y-59787820D01*
X110469890Y-59959786D01*
X110620213Y-60110109D01*
X110792182Y-60235050D01*
X110800946Y-60239516D01*
X110851742Y-60287491D01*
X110868536Y-60355312D01*
X110845998Y-60421447D01*
X110800946Y-60460484D01*
X110792182Y-60464949D01*
X110620213Y-60589890D01*
X110469890Y-60740213D01*
X110344951Y-60912179D01*
X110248444Y-61101585D01*
X110182753Y-61303760D01*
X110149500Y-61513713D01*
X110149500Y-61726286D01*
X110182753Y-61936239D01*
X110248444Y-62138414D01*
X110344951Y-62327820D01*
X110469890Y-62499786D01*
X110620213Y-62650109D01*
X110792179Y-62775048D01*
X110792181Y-62775049D01*
X110792184Y-62775051D01*
X110981588Y-62871557D01*
X111183757Y-62937246D01*
X111393713Y-62970500D01*
X111393714Y-62970500D01*
X111606286Y-62970500D01*
X111606287Y-62970500D01*
X111816243Y-62937246D01*
X112018412Y-62871557D01*
X112207816Y-62775051D01*
X112338462Y-62680132D01*
X112379786Y-62650109D01*
X112379788Y-62650106D01*
X112379792Y-62650104D01*
X112530104Y-62499792D01*
X112530106Y-62499788D01*
X112530109Y-62499786D01*
X112655048Y-62327820D01*
X112655047Y-62327820D01*
X112655051Y-62327816D01*
X112751557Y-62138412D01*
X112817246Y-61936243D01*
X112850500Y-61726287D01*
X112850500Y-61513713D01*
X112817246Y-61303757D01*
X112751557Y-61101588D01*
X112655051Y-60912184D01*
X112655049Y-60912181D01*
X112655048Y-60912179D01*
X112530109Y-60740213D01*
X112379786Y-60589890D01*
X112207820Y-60464951D01*
X112207115Y-60464591D01*
X112199054Y-60460485D01*
X112148259Y-60412512D01*
X112131463Y-60344692D01*
X112153999Y-60278556D01*
X112199054Y-60239515D01*
X112207816Y-60235051D01*
X112379630Y-60110222D01*
X112379786Y-60110109D01*
X112379788Y-60110106D01*
X112379792Y-60110104D01*
X112530104Y-59959792D01*
X112530106Y-59959788D01*
X112530109Y-59959786D01*
X112655048Y-59787820D01*
X112655047Y-59787820D01*
X112655051Y-59787816D01*
X112751557Y-59598412D01*
X112817246Y-59396243D01*
X112850500Y-59186287D01*
X112850500Y-58973713D01*
X112817246Y-58763757D01*
X112751557Y-58561588D01*
X112655051Y-58372184D01*
X112655049Y-58372181D01*
X112655048Y-58372179D01*
X112530109Y-58200213D01*
X112379786Y-58049890D01*
X112207817Y-57924949D01*
X112198504Y-57920204D01*
X112147707Y-57872230D01*
X112130912Y-57804409D01*
X112153449Y-57738274D01*
X112198507Y-57699232D01*
X112207555Y-57694622D01*
X112261716Y-57655270D01*
X112261717Y-57655270D01*
X111629408Y-57022962D01*
X111692993Y-57005925D01*
X111807007Y-56940099D01*
X111900099Y-56847007D01*
X111965925Y-56732993D01*
X111982962Y-56669409D01*
X112615270Y-57301717D01*
X112615270Y-57301716D01*
X112654622Y-57247554D01*
X112751095Y-57058217D01*
X112816757Y-56856130D01*
X112816757Y-56856127D01*
X112850000Y-56646246D01*
X112850000Y-56433753D01*
X112816757Y-56223872D01*
X112816757Y-56223869D01*
X112751095Y-56021782D01*
X112654624Y-55832449D01*
X112615270Y-55778282D01*
X112615269Y-55778282D01*
X111982962Y-56410590D01*
X111965925Y-56347007D01*
X111900099Y-56232993D01*
X111807007Y-56139901D01*
X111692993Y-56074075D01*
X111629409Y-56057037D01*
X112299627Y-55386818D01*
X112360950Y-55353333D01*
X112387307Y-55350499D01*
X112397872Y-55350499D01*
X112457483Y-55344091D01*
X112592331Y-55293796D01*
X112707546Y-55207546D01*
X112793796Y-55092331D01*
X112844091Y-54957483D01*
X112850500Y-54897873D01*
X112850499Y-53102135D01*
X117649500Y-53102135D01*
X117649500Y-54897870D01*
X117649501Y-54897876D01*
X117655908Y-54957483D01*
X117706202Y-55092328D01*
X117706206Y-55092335D01*
X117792452Y-55207544D01*
X117792455Y-55207547D01*
X117907664Y-55293793D01*
X117907671Y-55293797D01*
X117952618Y-55310561D01*
X118042517Y-55344091D01*
X118102127Y-55350500D01*
X118112685Y-55350499D01*
X118179723Y-55370179D01*
X118200372Y-55386818D01*
X118870591Y-56057037D01*
X118807007Y-56074075D01*
X118692993Y-56139901D01*
X118599901Y-56232993D01*
X118534075Y-56347007D01*
X118517037Y-56410591D01*
X117884728Y-55778282D01*
X117884727Y-55778282D01*
X117845380Y-55832439D01*
X117748904Y-56021782D01*
X117683242Y-56223869D01*
X117683242Y-56223872D01*
X117650000Y-56433753D01*
X117650000Y-56646246D01*
X117683242Y-56856127D01*
X117683242Y-56856130D01*
X117748904Y-57058217D01*
X117845375Y-57247550D01*
X117884728Y-57301716D01*
X118517037Y-56669408D01*
X118534075Y-56732993D01*
X118599901Y-56847007D01*
X118692993Y-56940099D01*
X118807007Y-57005925D01*
X118870590Y-57022962D01*
X118238282Y-57655269D01*
X118238282Y-57655270D01*
X118292452Y-57694626D01*
X118292451Y-57694626D01*
X118301495Y-57699234D01*
X118352292Y-57747208D01*
X118369087Y-57815029D01*
X118346550Y-57881164D01*
X118301499Y-57920202D01*
X118292182Y-57924949D01*
X118120213Y-58049890D01*
X117969890Y-58200213D01*
X117844951Y-58372179D01*
X117748444Y-58561585D01*
X117682753Y-58763760D01*
X117680364Y-58778844D01*
X117649500Y-58973713D01*
X117649500Y-59186287D01*
X117653302Y-59210289D01*
X117670961Y-59321789D01*
X117682754Y-59396243D01*
X117748389Y-59598247D01*
X117748444Y-59598414D01*
X117844951Y-59787820D01*
X117969890Y-59959786D01*
X118120213Y-60110109D01*
X118292182Y-60235050D01*
X118300946Y-60239516D01*
X118351742Y-60287491D01*
X118368536Y-60355312D01*
X118345998Y-60421447D01*
X118300946Y-60460484D01*
X118292182Y-60464949D01*
X118120213Y-60589890D01*
X117969890Y-60740213D01*
X117844951Y-60912179D01*
X117748444Y-61101585D01*
X117682753Y-61303760D01*
X117649500Y-61513713D01*
X117649500Y-61726286D01*
X117682753Y-61936239D01*
X117748444Y-62138414D01*
X117844951Y-62327820D01*
X117969890Y-62499786D01*
X118120213Y-62650109D01*
X118292179Y-62775048D01*
X118292181Y-62775049D01*
X118292184Y-62775051D01*
X118481588Y-62871557D01*
X118683757Y-62937246D01*
X118893713Y-62970500D01*
X118893714Y-62970500D01*
X119106286Y-62970500D01*
X119106287Y-62970500D01*
X119316243Y-62937246D01*
X119518412Y-62871557D01*
X119707816Y-62775051D01*
X119838462Y-62680132D01*
X119879786Y-62650109D01*
X119879788Y-62650106D01*
X119879792Y-62650104D01*
X120030104Y-62499792D01*
X120030106Y-62499788D01*
X120030109Y-62499786D01*
X120155048Y-62327820D01*
X120155047Y-62327820D01*
X120155051Y-62327816D01*
X120251557Y-62138412D01*
X120317246Y-61936243D01*
X120350500Y-61726287D01*
X120350500Y-61513713D01*
X120317246Y-61303757D01*
X120251557Y-61101588D01*
X120159621Y-60921153D01*
X131199500Y-60921153D01*
X131199500Y-61078846D01*
X131230261Y-61233489D01*
X131230264Y-61233501D01*
X131290602Y-61379172D01*
X131290609Y-61379185D01*
X131378210Y-61510288D01*
X131378213Y-61510292D01*
X131489707Y-61621786D01*
X131489711Y-61621789D01*
X131620814Y-61709390D01*
X131620827Y-61709397D01*
X131766498Y-61769735D01*
X131766503Y-61769737D01*
X131921153Y-61800499D01*
X131921156Y-61800500D01*
X131921158Y-61800500D01*
X132078844Y-61800500D01*
X132078845Y-61800499D01*
X132233497Y-61769737D01*
X132379179Y-61709394D01*
X132510289Y-61621789D01*
X132621789Y-61510289D01*
X132709394Y-61379179D01*
X132769737Y-61233497D01*
X132800500Y-61078842D01*
X132800500Y-60921158D01*
X132800500Y-60921155D01*
X132800499Y-60921153D01*
X139199500Y-60921153D01*
X139199500Y-61078846D01*
X139230261Y-61233489D01*
X139230264Y-61233501D01*
X139290602Y-61379172D01*
X139290609Y-61379185D01*
X139378210Y-61510288D01*
X139378213Y-61510292D01*
X139489707Y-61621786D01*
X139489711Y-61621789D01*
X139620814Y-61709390D01*
X139620827Y-61709397D01*
X139766498Y-61769735D01*
X139766503Y-61769737D01*
X139921153Y-61800499D01*
X139921156Y-61800500D01*
X139921158Y-61800500D01*
X140078844Y-61800500D01*
X140078845Y-61800499D01*
X140233497Y-61769737D01*
X140379179Y-61709394D01*
X140510289Y-61621789D01*
X140621789Y-61510289D01*
X140709394Y-61379179D01*
X140769737Y-61233497D01*
X140800500Y-61078842D01*
X140800500Y-60921158D01*
X140800500Y-60921155D01*
X140800499Y-60921153D01*
X140769738Y-60766510D01*
X140769737Y-60766503D01*
X140769735Y-60766498D01*
X140709397Y-60620827D01*
X140709390Y-60620814D01*
X140621789Y-60489711D01*
X140621786Y-60489707D01*
X140510292Y-60378213D01*
X140510288Y-60378210D01*
X140379185Y-60290609D01*
X140379172Y-60290602D01*
X140233501Y-60230264D01*
X140233489Y-60230261D01*
X140078845Y-60199500D01*
X140078842Y-60199500D01*
X139921158Y-60199500D01*
X139921155Y-60199500D01*
X139766510Y-60230261D01*
X139766498Y-60230264D01*
X139620827Y-60290602D01*
X139620814Y-60290609D01*
X139489711Y-60378210D01*
X139489707Y-60378213D01*
X139378213Y-60489707D01*
X139378210Y-60489711D01*
X139290609Y-60620814D01*
X139290602Y-60620827D01*
X139230264Y-60766498D01*
X139230261Y-60766510D01*
X139199500Y-60921153D01*
X132800499Y-60921153D01*
X132769738Y-60766510D01*
X132769737Y-60766503D01*
X132769735Y-60766498D01*
X132709397Y-60620827D01*
X132709390Y-60620814D01*
X132621789Y-60489711D01*
X132621786Y-60489707D01*
X132510292Y-60378213D01*
X132510288Y-60378210D01*
X132379185Y-60290609D01*
X132379172Y-60290602D01*
X132233501Y-60230264D01*
X132233489Y-60230261D01*
X132078845Y-60199500D01*
X132078842Y-60199500D01*
X131921158Y-60199500D01*
X131921155Y-60199500D01*
X131766510Y-60230261D01*
X131766498Y-60230264D01*
X131620827Y-60290602D01*
X131620814Y-60290609D01*
X131489711Y-60378210D01*
X131489707Y-60378213D01*
X131378213Y-60489707D01*
X131378210Y-60489711D01*
X131290609Y-60620814D01*
X131290602Y-60620827D01*
X131230264Y-60766498D01*
X131230261Y-60766510D01*
X131199500Y-60921153D01*
X120159621Y-60921153D01*
X120155051Y-60912184D01*
X120155049Y-60912181D01*
X120155048Y-60912179D01*
X120030109Y-60740213D01*
X119879786Y-60589890D01*
X119707820Y-60464951D01*
X119707115Y-60464591D01*
X119699054Y-60460485D01*
X119648259Y-60412512D01*
X119631463Y-60344692D01*
X119653999Y-60278556D01*
X119699054Y-60239515D01*
X119707816Y-60235051D01*
X119879630Y-60110222D01*
X119879786Y-60110109D01*
X119879788Y-60110106D01*
X119879792Y-60110104D01*
X120030104Y-59959792D01*
X120030106Y-59959788D01*
X120030109Y-59959786D01*
X120155048Y-59787820D01*
X120155047Y-59787820D01*
X120155051Y-59787816D01*
X120251557Y-59598412D01*
X120317246Y-59396243D01*
X120350500Y-59186287D01*
X120350500Y-58973713D01*
X120317246Y-58763757D01*
X120270911Y-58621153D01*
X143499500Y-58621153D01*
X143499500Y-58778846D01*
X143530261Y-58933489D01*
X143530264Y-58933501D01*
X143590602Y-59079172D01*
X143590609Y-59079185D01*
X143678210Y-59210288D01*
X143678213Y-59210292D01*
X143789707Y-59321786D01*
X143789711Y-59321789D01*
X143920814Y-59409390D01*
X143920827Y-59409397D01*
X144066498Y-59469735D01*
X144066503Y-59469737D01*
X144221153Y-59500499D01*
X144221156Y-59500500D01*
X144221158Y-59500500D01*
X144378844Y-59500500D01*
X144378845Y-59500499D01*
X144533497Y-59469737D01*
X144679179Y-59409394D01*
X144810289Y-59321789D01*
X144921789Y-59210289D01*
X145009394Y-59079179D01*
X145069737Y-58933497D01*
X145100500Y-58778842D01*
X145100500Y-58621158D01*
X145100500Y-58621155D01*
X145100499Y-58621153D01*
X145096192Y-58599500D01*
X145069737Y-58466503D01*
X145018355Y-58342454D01*
X145009397Y-58320827D01*
X145009390Y-58320814D01*
X144921790Y-58189712D01*
X144921786Y-58189707D01*
X144854090Y-58122011D01*
X145331733Y-58122011D01*
X145331733Y-58342454D01*
X145366218Y-58560185D01*
X145434336Y-58769836D01*
X145434337Y-58769839D01*
X145534420Y-58966258D01*
X145663985Y-59144591D01*
X145663989Y-59144596D01*
X145819869Y-59300476D01*
X145819874Y-59300480D01*
X145951682Y-59396243D01*
X145998211Y-59430048D01*
X146126608Y-59495470D01*
X146194626Y-59530128D01*
X146194629Y-59530129D01*
X146294958Y-59562727D01*
X146404282Y-59598248D01*
X146622011Y-59632733D01*
X146622012Y-59632733D01*
X146842454Y-59632733D01*
X146842455Y-59632733D01*
X146979304Y-59611058D01*
X147048596Y-59620012D01*
X147102048Y-59665009D01*
X147122688Y-59731760D01*
X147121174Y-59752928D01*
X147099500Y-59889777D01*
X147099500Y-60110222D01*
X147099499Y-60110222D01*
X147121174Y-60247071D01*
X147112219Y-60316364D01*
X147067223Y-60369816D01*
X147000471Y-60390455D01*
X146979304Y-60388941D01*
X146842455Y-60367267D01*
X146622011Y-60367267D01*
X146552920Y-60378210D01*
X146404280Y-60401752D01*
X146194629Y-60469870D01*
X146194626Y-60469871D01*
X145998207Y-60569954D01*
X145819874Y-60699519D01*
X145819869Y-60699523D01*
X145663989Y-60855403D01*
X145663985Y-60855408D01*
X145534420Y-61033741D01*
X145434337Y-61230160D01*
X145434336Y-61230163D01*
X145366218Y-61439814D01*
X145331733Y-61657545D01*
X145331733Y-61877988D01*
X145366218Y-62095719D01*
X145434336Y-62305370D01*
X145434337Y-62305373D01*
X145445773Y-62327816D01*
X145533400Y-62499792D01*
X145534420Y-62501792D01*
X145663985Y-62680125D01*
X145663989Y-62680130D01*
X145819869Y-62836010D01*
X145819874Y-62836014D01*
X145901492Y-62895312D01*
X145998211Y-62965582D01*
X146126608Y-63031004D01*
X146194626Y-63065662D01*
X146194629Y-63065663D01*
X146299454Y-63099722D01*
X146404282Y-63133782D01*
X146622011Y-63168267D01*
X146622012Y-63168267D01*
X146842454Y-63168267D01*
X146842455Y-63168267D01*
X147060184Y-63133782D01*
X147269839Y-63065662D01*
X147466255Y-62965582D01*
X147644598Y-62836009D01*
X147800475Y-62680132D01*
X147930048Y-62501789D01*
X148030128Y-62305373D01*
X148098248Y-62095718D01*
X148132733Y-61877989D01*
X148132733Y-61657545D01*
X148111058Y-61520695D01*
X148120013Y-61451403D01*
X148165009Y-61397951D01*
X148231760Y-61377311D01*
X148252926Y-61378824D01*
X148389778Y-61400500D01*
X148389779Y-61400500D01*
X148610221Y-61400500D01*
X148610222Y-61400500D01*
X148747071Y-61378825D01*
X148816363Y-61387779D01*
X148869815Y-61432776D01*
X148890455Y-61499527D01*
X148888941Y-61520695D01*
X148867267Y-61657544D01*
X148867267Y-61877988D01*
X148901752Y-62095719D01*
X148969870Y-62305370D01*
X148969871Y-62305373D01*
X148981307Y-62327816D01*
X149068934Y-62499792D01*
X149069954Y-62501792D01*
X149199519Y-62680125D01*
X149199523Y-62680130D01*
X149355403Y-62836010D01*
X149355408Y-62836014D01*
X149437026Y-62895312D01*
X149533745Y-62965582D01*
X149662142Y-63031004D01*
X149730160Y-63065662D01*
X149730163Y-63065663D01*
X149834988Y-63099722D01*
X149939816Y-63133782D01*
X150157545Y-63168267D01*
X150157546Y-63168267D01*
X150377988Y-63168267D01*
X150377989Y-63168267D01*
X150595718Y-63133782D01*
X150805373Y-63065662D01*
X151001789Y-62965582D01*
X151180132Y-62836009D01*
X151336009Y-62680132D01*
X151465582Y-62501789D01*
X151565662Y-62305373D01*
X151633782Y-62095718D01*
X151668267Y-61877989D01*
X151668267Y-61657545D01*
X151633782Y-61439816D01*
X151598262Y-61330494D01*
X151565663Y-61230163D01*
X151565662Y-61230160D01*
X151500150Y-61101588D01*
X151465582Y-61033745D01*
X151420258Y-60971361D01*
X151336014Y-60855408D01*
X151336010Y-60855403D01*
X151180130Y-60699523D01*
X151180125Y-60699519D01*
X151001792Y-60569954D01*
X151001791Y-60569953D01*
X151001789Y-60569952D01*
X150938863Y-60537889D01*
X150805373Y-60469871D01*
X150805370Y-60469870D01*
X150595719Y-60401752D01*
X150447080Y-60378210D01*
X150377989Y-60367267D01*
X150157545Y-60367267D01*
X150020695Y-60388941D01*
X149951402Y-60379986D01*
X149897950Y-60334990D01*
X149877311Y-60268238D01*
X149878825Y-60247070D01*
X149880022Y-60239516D01*
X149900500Y-60110222D01*
X149900500Y-59889778D01*
X149878825Y-59752928D01*
X149887780Y-59683636D01*
X149932776Y-59630184D01*
X149999527Y-59609544D01*
X150020693Y-59611057D01*
X150157545Y-59632733D01*
X150157546Y-59632733D01*
X150377988Y-59632733D01*
X150377989Y-59632733D01*
X150595718Y-59598248D01*
X150805373Y-59530128D01*
X151001789Y-59430048D01*
X151180132Y-59300475D01*
X151336009Y-59144598D01*
X151465582Y-58966255D01*
X151565662Y-58769839D01*
X151633782Y-58560184D01*
X151668267Y-58342455D01*
X151668267Y-58122011D01*
X151633782Y-57904282D01*
X151597155Y-57791555D01*
X151565663Y-57694629D01*
X151565662Y-57694626D01*
X151502216Y-57570109D01*
X151465582Y-57498211D01*
X151342532Y-57328846D01*
X151336014Y-57319874D01*
X151336010Y-57319869D01*
X151180130Y-57163989D01*
X151180125Y-57163985D01*
X151001792Y-57034420D01*
X151001791Y-57034419D01*
X151001789Y-57034418D01*
X150938863Y-57002355D01*
X150805373Y-56934337D01*
X150805370Y-56934336D01*
X150595719Y-56866218D01*
X150474425Y-56847007D01*
X150377989Y-56831733D01*
X150157545Y-56831733D01*
X150084968Y-56843228D01*
X149939814Y-56866218D01*
X149730163Y-56934336D01*
X149730160Y-56934337D01*
X149533741Y-57034420D01*
X149355408Y-57163985D01*
X149355403Y-57163989D01*
X149199523Y-57319869D01*
X149199519Y-57319874D01*
X149069954Y-57498207D01*
X148969871Y-57694626D01*
X148969870Y-57694629D01*
X148901752Y-57904280D01*
X148867267Y-58122011D01*
X148867267Y-58342455D01*
X148867266Y-58342455D01*
X148888941Y-58479304D01*
X148879986Y-58548597D01*
X148834990Y-58602049D01*
X148768238Y-58622688D01*
X148747071Y-58621174D01*
X148610222Y-58599500D01*
X148389778Y-58599500D01*
X148252928Y-58621174D01*
X148183635Y-58612219D01*
X148130183Y-58567223D01*
X148109544Y-58500471D01*
X148111058Y-58479303D01*
X148113085Y-58466510D01*
X148132733Y-58342455D01*
X148132733Y-58122011D01*
X148098248Y-57904282D01*
X148061621Y-57791555D01*
X148030129Y-57694629D01*
X148030128Y-57694626D01*
X147966682Y-57570109D01*
X147930048Y-57498211D01*
X147806998Y-57328846D01*
X147800480Y-57319874D01*
X147800476Y-57319869D01*
X147644596Y-57163989D01*
X147644591Y-57163985D01*
X147466258Y-57034420D01*
X147466257Y-57034419D01*
X147466255Y-57034418D01*
X147403329Y-57002355D01*
X147269839Y-56934337D01*
X147269836Y-56934336D01*
X147060185Y-56866218D01*
X146938891Y-56847007D01*
X146842455Y-56831733D01*
X146622011Y-56831733D01*
X146549434Y-56843228D01*
X146404280Y-56866218D01*
X146194629Y-56934336D01*
X146194626Y-56934337D01*
X145998207Y-57034420D01*
X145819874Y-57163985D01*
X145819869Y-57163989D01*
X145663989Y-57319869D01*
X145663985Y-57319874D01*
X145534420Y-57498207D01*
X145434337Y-57694626D01*
X145434336Y-57694629D01*
X145366218Y-57904280D01*
X145331733Y-58122011D01*
X144854090Y-58122011D01*
X144810292Y-58078213D01*
X144810288Y-58078210D01*
X144679185Y-57990609D01*
X144679172Y-57990602D01*
X144533501Y-57930264D01*
X144533489Y-57930261D01*
X144378845Y-57899500D01*
X144378842Y-57899500D01*
X144221158Y-57899500D01*
X144221155Y-57899500D01*
X144066510Y-57930261D01*
X144066498Y-57930264D01*
X143920827Y-57990602D01*
X143920814Y-57990609D01*
X143789711Y-58078210D01*
X143789707Y-58078213D01*
X143678213Y-58189707D01*
X143678210Y-58189711D01*
X143590609Y-58320814D01*
X143590602Y-58320827D01*
X143530264Y-58466498D01*
X143530261Y-58466510D01*
X143499500Y-58621153D01*
X120270911Y-58621153D01*
X120251557Y-58561588D01*
X120155051Y-58372184D01*
X120155049Y-58372181D01*
X120155048Y-58372179D01*
X120030109Y-58200213D01*
X119879786Y-58049890D01*
X119707817Y-57924949D01*
X119698504Y-57920204D01*
X119647707Y-57872230D01*
X119630912Y-57804409D01*
X119653449Y-57738274D01*
X119698507Y-57699232D01*
X119707555Y-57694622D01*
X119761716Y-57655270D01*
X119761717Y-57655270D01*
X119129408Y-57022962D01*
X119192993Y-57005925D01*
X119307007Y-56940099D01*
X119400099Y-56847007D01*
X119465925Y-56732993D01*
X119482962Y-56669409D01*
X120115270Y-57301717D01*
X120115270Y-57301716D01*
X120154622Y-57247554D01*
X120251095Y-57058217D01*
X120316757Y-56856130D01*
X120316757Y-56856127D01*
X120350000Y-56646246D01*
X120350000Y-56433753D01*
X120349994Y-56433713D01*
X125149500Y-56433713D01*
X125149500Y-56646286D01*
X125182735Y-56856127D01*
X125182754Y-56856243D01*
X125245872Y-57050500D01*
X125248444Y-57058414D01*
X125344951Y-57247820D01*
X125469890Y-57419786D01*
X125620213Y-57570109D01*
X125792179Y-57695048D01*
X125792181Y-57695049D01*
X125792184Y-57695051D01*
X125981588Y-57791557D01*
X126183757Y-57857246D01*
X126393713Y-57890500D01*
X126393714Y-57890500D01*
X126606286Y-57890500D01*
X126606287Y-57890500D01*
X126816243Y-57857246D01*
X127018412Y-57791557D01*
X127207816Y-57695051D01*
X127379792Y-57570104D01*
X127380324Y-57569571D01*
X127380576Y-57569433D01*
X127383488Y-57566947D01*
X127384010Y-57567558D01*
X127441641Y-57536080D01*
X127511333Y-57541056D01*
X127567272Y-57582920D01*
X127582576Y-57609792D01*
X127590605Y-57629178D01*
X127590609Y-57629185D01*
X127678210Y-57760288D01*
X127678213Y-57760292D01*
X127789707Y-57871786D01*
X127789711Y-57871789D01*
X127920814Y-57959390D01*
X127920827Y-57959397D01*
X127996181Y-57990609D01*
X128066503Y-58019737D01*
X128218091Y-58049890D01*
X128221153Y-58050499D01*
X128221156Y-58050500D01*
X128221158Y-58050500D01*
X128378844Y-58050500D01*
X128378845Y-58050499D01*
X128533497Y-58019737D01*
X128679179Y-57959394D01*
X128810289Y-57871789D01*
X128921789Y-57760289D01*
X129009394Y-57629179D01*
X129069737Y-57483497D01*
X129100500Y-57328842D01*
X129100500Y-57171158D01*
X129100500Y-57171155D01*
X129100499Y-57171153D01*
X129099073Y-57163985D01*
X129069737Y-57016503D01*
X129069735Y-57016498D01*
X129009397Y-56870827D01*
X129009390Y-56870814D01*
X128921789Y-56739711D01*
X128921786Y-56739707D01*
X128810292Y-56628213D01*
X128810288Y-56628210D01*
X128679185Y-56540609D01*
X128679172Y-56540602D01*
X128533501Y-56480264D01*
X128533489Y-56480261D01*
X128378845Y-56449500D01*
X128378842Y-56449500D01*
X128221158Y-56449500D01*
X128221155Y-56449500D01*
X128066510Y-56480261D01*
X128066503Y-56480263D01*
X128016035Y-56501167D01*
X127994035Y-56503531D01*
X127973041Y-56510525D01*
X127959972Y-56507192D01*
X127946566Y-56508634D01*
X127926781Y-56498730D01*
X127905337Y-56493263D01*
X127896144Y-56483394D01*
X127884087Y-56477359D01*
X127872795Y-56458328D01*
X127857714Y-56442137D01*
X127851254Y-56422021D01*
X127848435Y-56417269D01*
X127846560Y-56408652D01*
X127846322Y-56407337D01*
X127817246Y-56223757D01*
X127800154Y-56171153D01*
X131949500Y-56171153D01*
X131949500Y-56328846D01*
X131980261Y-56483489D01*
X131980264Y-56483501D01*
X132040602Y-56629172D01*
X132040609Y-56629185D01*
X132128210Y-56760288D01*
X132128213Y-56760292D01*
X132239707Y-56871786D01*
X132239711Y-56871789D01*
X132370814Y-56959390D01*
X132370827Y-56959397D01*
X132508683Y-57016498D01*
X132516503Y-57019737D01*
X132671153Y-57050499D01*
X132671156Y-57050500D01*
X132671158Y-57050500D01*
X132828844Y-57050500D01*
X132828845Y-57050499D01*
X132983497Y-57019737D01*
X133129179Y-56959394D01*
X133260289Y-56871789D01*
X133371789Y-56760289D01*
X133459394Y-56629179D01*
X133496084Y-56540602D01*
X133510439Y-56505945D01*
X133554279Y-56451541D01*
X133620573Y-56429476D01*
X133688273Y-56446755D01*
X133735884Y-56497892D01*
X133739561Y-56505945D01*
X133790602Y-56629172D01*
X133790609Y-56629185D01*
X133878210Y-56760288D01*
X133878213Y-56760292D01*
X133989707Y-56871786D01*
X133989711Y-56871789D01*
X134120814Y-56959390D01*
X134120827Y-56959397D01*
X134258683Y-57016498D01*
X134266503Y-57019737D01*
X134421153Y-57050499D01*
X134421156Y-57050500D01*
X134421158Y-57050500D01*
X134578844Y-57050500D01*
X134578845Y-57050499D01*
X134733497Y-57019737D01*
X134879179Y-56959394D01*
X135010289Y-56871789D01*
X135121789Y-56760289D01*
X135209394Y-56629179D01*
X135269737Y-56483497D01*
X135300500Y-56328842D01*
X135300500Y-56171158D01*
X135300500Y-56171155D01*
X135300499Y-56171153D01*
X135269737Y-56016503D01*
X135263774Y-56002107D01*
X135209397Y-55870827D01*
X135209390Y-55870814D01*
X135121789Y-55739711D01*
X135121786Y-55739707D01*
X135010292Y-55628213D01*
X135010288Y-55628210D01*
X134999727Y-55621153D01*
X141699500Y-55621153D01*
X141699500Y-55778846D01*
X141730261Y-55933489D01*
X141730264Y-55933501D01*
X141790602Y-56079172D01*
X141790609Y-56079185D01*
X141878210Y-56210288D01*
X141878213Y-56210292D01*
X141989707Y-56321786D01*
X141989711Y-56321789D01*
X142120814Y-56409390D01*
X142120827Y-56409397D01*
X142238959Y-56458328D01*
X142266503Y-56469737D01*
X142408047Y-56497892D01*
X142421153Y-56500499D01*
X142421156Y-56500500D01*
X142421158Y-56500500D01*
X142578844Y-56500500D01*
X142578845Y-56500499D01*
X142733497Y-56469737D01*
X142846166Y-56423067D01*
X142879172Y-56409397D01*
X142879172Y-56409396D01*
X142879179Y-56409394D01*
X143010289Y-56321789D01*
X143121789Y-56210289D01*
X143209394Y-56079179D01*
X143269737Y-55933497D01*
X143300500Y-55778842D01*
X143300500Y-55621158D01*
X143300500Y-55621155D01*
X143300499Y-55621153D01*
X143285607Y-55546285D01*
X143269737Y-55466503D01*
X143262694Y-55449500D01*
X143209397Y-55320827D01*
X143209390Y-55320814D01*
X143121789Y-55189711D01*
X143121786Y-55189707D01*
X143010292Y-55078213D01*
X143010288Y-55078210D01*
X142879185Y-54990609D01*
X142879172Y-54990602D01*
X142733501Y-54930264D01*
X142733489Y-54930261D01*
X142578845Y-54899500D01*
X142578842Y-54899500D01*
X142421158Y-54899500D01*
X142421155Y-54899500D01*
X142266510Y-54930261D01*
X142266498Y-54930264D01*
X142120827Y-54990602D01*
X142120814Y-54990609D01*
X141989711Y-55078210D01*
X141989707Y-55078213D01*
X141878213Y-55189707D01*
X141878210Y-55189711D01*
X141790609Y-55320814D01*
X141790602Y-55320827D01*
X141730264Y-55466498D01*
X141730261Y-55466510D01*
X141699500Y-55621153D01*
X134999727Y-55621153D01*
X134879185Y-55540609D01*
X134879172Y-55540602D01*
X134733501Y-55480264D01*
X134733489Y-55480261D01*
X134578845Y-55449500D01*
X134578842Y-55449500D01*
X134421158Y-55449500D01*
X134421155Y-55449500D01*
X134266510Y-55480261D01*
X134266498Y-55480264D01*
X134120827Y-55540602D01*
X134120814Y-55540609D01*
X133989711Y-55628210D01*
X133989707Y-55628213D01*
X133878213Y-55739707D01*
X133878210Y-55739711D01*
X133790609Y-55870814D01*
X133790602Y-55870827D01*
X133739561Y-55994054D01*
X133695720Y-56048458D01*
X133629426Y-56070523D01*
X133561727Y-56053244D01*
X133514116Y-56002107D01*
X133510439Y-55994054D01*
X133459397Y-55870827D01*
X133459390Y-55870814D01*
X133371789Y-55739711D01*
X133371786Y-55739707D01*
X133260292Y-55628213D01*
X133260288Y-55628210D01*
X133129185Y-55540609D01*
X133129172Y-55540602D01*
X132983501Y-55480264D01*
X132983489Y-55480261D01*
X132828845Y-55449500D01*
X132828842Y-55449500D01*
X132671158Y-55449500D01*
X132671155Y-55449500D01*
X132516510Y-55480261D01*
X132516498Y-55480264D01*
X132370827Y-55540602D01*
X132370814Y-55540609D01*
X132239711Y-55628210D01*
X132239707Y-55628213D01*
X132128213Y-55739707D01*
X132128210Y-55739711D01*
X132040609Y-55870814D01*
X132040602Y-55870827D01*
X131980264Y-56016498D01*
X131980261Y-56016510D01*
X131949500Y-56171153D01*
X127800154Y-56171153D01*
X127751557Y-56021588D01*
X127655051Y-55832184D01*
X127655049Y-55832181D01*
X127655048Y-55832179D01*
X127530109Y-55660213D01*
X127416181Y-55546285D01*
X127382696Y-55484962D01*
X127387680Y-55415270D01*
X127429552Y-55359337D01*
X127460529Y-55342422D01*
X127592086Y-55293354D01*
X127592093Y-55293350D01*
X127707187Y-55207190D01*
X127707190Y-55207187D01*
X127793350Y-55092093D01*
X127793354Y-55092086D01*
X127843596Y-54957379D01*
X127843598Y-54957372D01*
X127849999Y-54897844D01*
X127850000Y-54897827D01*
X127850000Y-54250000D01*
X126933012Y-54250000D01*
X126965925Y-54192993D01*
X126971777Y-54171153D01*
X143499500Y-54171153D01*
X143499500Y-54328846D01*
X143530261Y-54483489D01*
X143530264Y-54483501D01*
X143590602Y-54629172D01*
X143590609Y-54629185D01*
X143678210Y-54760288D01*
X143678213Y-54760292D01*
X143789707Y-54871786D01*
X143789711Y-54871789D01*
X143920814Y-54959390D01*
X143920827Y-54959397D01*
X143996181Y-54990609D01*
X144066503Y-55019737D01*
X144221153Y-55050499D01*
X144221156Y-55050500D01*
X144221158Y-55050500D01*
X144378844Y-55050500D01*
X144378845Y-55050499D01*
X144533497Y-55019737D01*
X144679179Y-54959394D01*
X144810289Y-54871789D01*
X144921789Y-54760289D01*
X145009394Y-54629179D01*
X145012854Y-54620827D01*
X145025373Y-54590602D01*
X145069737Y-54483497D01*
X145100500Y-54328842D01*
X145100500Y-54171158D01*
X145100500Y-54171155D01*
X145100499Y-54171153D01*
X145069738Y-54016510D01*
X145069737Y-54016503D01*
X145069735Y-54016498D01*
X145009397Y-53870827D01*
X145009390Y-53870814D01*
X144921789Y-53739711D01*
X144921786Y-53739707D01*
X144810292Y-53628213D01*
X144810288Y-53628210D01*
X144679185Y-53540609D01*
X144679172Y-53540602D01*
X144533501Y-53480264D01*
X144533489Y-53480261D01*
X144378845Y-53449500D01*
X144378842Y-53449500D01*
X144221158Y-53449500D01*
X144221155Y-53449500D01*
X144066510Y-53480261D01*
X144066498Y-53480264D01*
X143920827Y-53540602D01*
X143920814Y-53540609D01*
X143789711Y-53628210D01*
X143789707Y-53628213D01*
X143678213Y-53739707D01*
X143678210Y-53739711D01*
X143590609Y-53870814D01*
X143590602Y-53870827D01*
X143530264Y-54016498D01*
X143530261Y-54016510D01*
X143499500Y-54171153D01*
X126971777Y-54171153D01*
X127000000Y-54065826D01*
X127000000Y-53934174D01*
X126965925Y-53807007D01*
X126933012Y-53750000D01*
X127850000Y-53750000D01*
X127850000Y-53102172D01*
X127849999Y-53102155D01*
X127843598Y-53042627D01*
X127843596Y-53042620D01*
X127793354Y-52907913D01*
X127793350Y-52907906D01*
X127707190Y-52792812D01*
X127707187Y-52792809D01*
X127592093Y-52706649D01*
X127592086Y-52706645D01*
X127457379Y-52656403D01*
X127457372Y-52656401D01*
X127397844Y-52650000D01*
X126750000Y-52650000D01*
X126750000Y-53566988D01*
X126692993Y-53534075D01*
X126565826Y-53500000D01*
X126434174Y-53500000D01*
X126307007Y-53534075D01*
X126250000Y-53566988D01*
X126250000Y-52650000D01*
X125602155Y-52650000D01*
X125542627Y-52656401D01*
X125542620Y-52656403D01*
X125407913Y-52706645D01*
X125407906Y-52706649D01*
X125292812Y-52792809D01*
X125292809Y-52792812D01*
X125206649Y-52907906D01*
X125206645Y-52907913D01*
X125156403Y-53042620D01*
X125156401Y-53042627D01*
X125150000Y-53102155D01*
X125150000Y-53750000D01*
X126066988Y-53750000D01*
X126034075Y-53807007D01*
X126000000Y-53934174D01*
X126000000Y-54065826D01*
X126034075Y-54192993D01*
X126066988Y-54250000D01*
X125150000Y-54250000D01*
X125150000Y-54897844D01*
X125156401Y-54957372D01*
X125156403Y-54957379D01*
X125206645Y-55092086D01*
X125206649Y-55092093D01*
X125292809Y-55207187D01*
X125292812Y-55207190D01*
X125407906Y-55293350D01*
X125407913Y-55293354D01*
X125539470Y-55342422D01*
X125595404Y-55384293D01*
X125619821Y-55449758D01*
X125604969Y-55518031D01*
X125583819Y-55546285D01*
X125469889Y-55660215D01*
X125344951Y-55832179D01*
X125248444Y-56021585D01*
X125182753Y-56223760D01*
X125149500Y-56433713D01*
X120349994Y-56433713D01*
X120316757Y-56223872D01*
X120316757Y-56223869D01*
X120251095Y-56021782D01*
X120154624Y-55832449D01*
X120115270Y-55778282D01*
X120115269Y-55778282D01*
X119482962Y-56410590D01*
X119465925Y-56347007D01*
X119400099Y-56232993D01*
X119307007Y-56139901D01*
X119192993Y-56074075D01*
X119129409Y-56057037D01*
X119799627Y-55386818D01*
X119860950Y-55353333D01*
X119887307Y-55350499D01*
X119897872Y-55350499D01*
X119957483Y-55344091D01*
X120092331Y-55293796D01*
X120207546Y-55207546D01*
X120293796Y-55092331D01*
X120344091Y-54957483D01*
X120344103Y-54957372D01*
X120347997Y-54921153D01*
X122199500Y-54921153D01*
X122199500Y-55078846D01*
X122230261Y-55233489D01*
X122230264Y-55233501D01*
X122290602Y-55379172D01*
X122290609Y-55379185D01*
X122378210Y-55510288D01*
X122378213Y-55510292D01*
X122489707Y-55621786D01*
X122489711Y-55621789D01*
X122620814Y-55709390D01*
X122620827Y-55709397D01*
X122694013Y-55739711D01*
X122766503Y-55769737D01*
X122921153Y-55800499D01*
X122921156Y-55800500D01*
X122921158Y-55800500D01*
X123078844Y-55800500D01*
X123078845Y-55800499D01*
X123233497Y-55769737D01*
X123379179Y-55709394D01*
X123510289Y-55621789D01*
X123621789Y-55510289D01*
X123709394Y-55379179D01*
X123769737Y-55233497D01*
X123800500Y-55078842D01*
X123800500Y-54921158D01*
X123800500Y-54921155D01*
X123800499Y-54921153D01*
X123795868Y-54897870D01*
X123769737Y-54766503D01*
X123767163Y-54760288D01*
X123709397Y-54620827D01*
X123709390Y-54620814D01*
X123621789Y-54489711D01*
X123621786Y-54489707D01*
X123510292Y-54378213D01*
X123510288Y-54378210D01*
X123379185Y-54290609D01*
X123379172Y-54290602D01*
X123233501Y-54230264D01*
X123233489Y-54230261D01*
X123078845Y-54199500D01*
X123078842Y-54199500D01*
X122921158Y-54199500D01*
X122921155Y-54199500D01*
X122766510Y-54230261D01*
X122766498Y-54230264D01*
X122620827Y-54290602D01*
X122620814Y-54290609D01*
X122489711Y-54378210D01*
X122489707Y-54378213D01*
X122378213Y-54489707D01*
X122378210Y-54489711D01*
X122290609Y-54620814D01*
X122290602Y-54620827D01*
X122230264Y-54766498D01*
X122230261Y-54766510D01*
X122199500Y-54921153D01*
X120347997Y-54921153D01*
X120350077Y-54901810D01*
X120350325Y-54899500D01*
X120350500Y-54897873D01*
X120350499Y-53102128D01*
X120344091Y-53042517D01*
X120340728Y-53033501D01*
X120293797Y-52907671D01*
X120293793Y-52907664D01*
X120207547Y-52792455D01*
X120207544Y-52792452D01*
X120092335Y-52706206D01*
X120092328Y-52706202D01*
X119957482Y-52655908D01*
X119957483Y-52655908D01*
X119897883Y-52649501D01*
X119897881Y-52649500D01*
X119897873Y-52649500D01*
X119897864Y-52649500D01*
X118102129Y-52649500D01*
X118102123Y-52649501D01*
X118042516Y-52655908D01*
X117907671Y-52706202D01*
X117907664Y-52706206D01*
X117792455Y-52792452D01*
X117792452Y-52792455D01*
X117706206Y-52907664D01*
X117706202Y-52907671D01*
X117655908Y-53042517D01*
X117649501Y-53102116D01*
X117649501Y-53102123D01*
X117649500Y-53102135D01*
X112850499Y-53102135D01*
X112850499Y-53102128D01*
X112844091Y-53042517D01*
X112840728Y-53033501D01*
X112793797Y-52907671D01*
X112793793Y-52907664D01*
X112707547Y-52792455D01*
X112707544Y-52792452D01*
X112592335Y-52706206D01*
X112592328Y-52706202D01*
X112457482Y-52655908D01*
X112457483Y-52655908D01*
X112397883Y-52649501D01*
X112397881Y-52649500D01*
X112397873Y-52649500D01*
X112397864Y-52649500D01*
X110602129Y-52649500D01*
X110602123Y-52649501D01*
X110542516Y-52655908D01*
X110407671Y-52706202D01*
X110407664Y-52706206D01*
X110292455Y-52792452D01*
X110292452Y-52792455D01*
X110206206Y-52907664D01*
X110206202Y-52907671D01*
X110155908Y-53042517D01*
X110149501Y-53102116D01*
X110149501Y-53102123D01*
X110149500Y-53102135D01*
X105350499Y-53102135D01*
X105350499Y-53102128D01*
X105344091Y-53042517D01*
X105340728Y-53033501D01*
X105293797Y-52907671D01*
X105293793Y-52907664D01*
X105207547Y-52792455D01*
X105207544Y-52792452D01*
X105092335Y-52706206D01*
X105092328Y-52706202D01*
X104957482Y-52655908D01*
X104957483Y-52655908D01*
X104897883Y-52649501D01*
X104897881Y-52649500D01*
X104897873Y-52649500D01*
X104897864Y-52649500D01*
X103102129Y-52649500D01*
X103102123Y-52649501D01*
X103042516Y-52655908D01*
X102907671Y-52706202D01*
X102907664Y-52706206D01*
X102792455Y-52792452D01*
X102792452Y-52792455D01*
X102706206Y-52907664D01*
X102706202Y-52907671D01*
X102655908Y-53042517D01*
X102649501Y-53102116D01*
X102649501Y-53102123D01*
X102649500Y-53102135D01*
X99500500Y-53102135D01*
X99500500Y-51921153D01*
X129449500Y-51921153D01*
X129449500Y-52078846D01*
X129480261Y-52233489D01*
X129480264Y-52233501D01*
X129540602Y-52379172D01*
X129540609Y-52379185D01*
X129628210Y-52510288D01*
X129628213Y-52510292D01*
X129739707Y-52621786D01*
X129739711Y-52621789D01*
X129870814Y-52709390D01*
X129870827Y-52709397D01*
X130016498Y-52769735D01*
X130016503Y-52769737D01*
X130171153Y-52800499D01*
X130171156Y-52800500D01*
X130171158Y-52800500D01*
X130328844Y-52800500D01*
X130328845Y-52800499D01*
X130483497Y-52769737D01*
X130629179Y-52709394D01*
X130686411Y-52671153D01*
X136199500Y-52671153D01*
X136199500Y-52828846D01*
X136230261Y-52983489D01*
X136230264Y-52983501D01*
X136290602Y-53129172D01*
X136290609Y-53129185D01*
X136378210Y-53260288D01*
X136378213Y-53260292D01*
X136489707Y-53371786D01*
X136489711Y-53371789D01*
X136620814Y-53459390D01*
X136620827Y-53459397D01*
X136766498Y-53519735D01*
X136766503Y-53519737D01*
X136921153Y-53550499D01*
X136921156Y-53550500D01*
X136921158Y-53550500D01*
X137078844Y-53550500D01*
X137078845Y-53550499D01*
X137233497Y-53519737D01*
X137379179Y-53459394D01*
X137510289Y-53371789D01*
X137621789Y-53260289D01*
X137709394Y-53129179D01*
X137769737Y-52983497D01*
X137800500Y-52828842D01*
X137800500Y-52721153D01*
X141699500Y-52721153D01*
X141699500Y-52878846D01*
X141730261Y-53033489D01*
X141730264Y-53033501D01*
X141790602Y-53179172D01*
X141790609Y-53179185D01*
X141878210Y-53310288D01*
X141878213Y-53310292D01*
X141989707Y-53421786D01*
X141989711Y-53421789D01*
X142120814Y-53509390D01*
X142120827Y-53509397D01*
X142220060Y-53550500D01*
X142266503Y-53569737D01*
X142418147Y-53599901D01*
X142421153Y-53600499D01*
X142421156Y-53600500D01*
X142421158Y-53600500D01*
X142578844Y-53600500D01*
X142578845Y-53600499D01*
X142733497Y-53569737D01*
X142879179Y-53509394D01*
X143010289Y-53421789D01*
X143121789Y-53310289D01*
X143209394Y-53179179D01*
X143269737Y-53033497D01*
X143300500Y-52878842D01*
X143300500Y-52721158D01*
X143300500Y-52721155D01*
X143300499Y-52721153D01*
X143280734Y-52621789D01*
X143269737Y-52566503D01*
X143269735Y-52566498D01*
X143209397Y-52420827D01*
X143209390Y-52420814D01*
X143121789Y-52289711D01*
X143121786Y-52289707D01*
X143010292Y-52178213D01*
X143010288Y-52178210D01*
X142879185Y-52090609D01*
X142879172Y-52090602D01*
X142733501Y-52030264D01*
X142733489Y-52030261D01*
X142578845Y-51999500D01*
X142578842Y-51999500D01*
X142421158Y-51999500D01*
X142421155Y-51999500D01*
X142266510Y-52030261D01*
X142266498Y-52030264D01*
X142120827Y-52090602D01*
X142120814Y-52090609D01*
X141989711Y-52178210D01*
X141989707Y-52178213D01*
X141878213Y-52289707D01*
X141878210Y-52289711D01*
X141790609Y-52420814D01*
X141790602Y-52420827D01*
X141730264Y-52566498D01*
X141730261Y-52566510D01*
X141699500Y-52721153D01*
X137800500Y-52721153D01*
X137800500Y-52671158D01*
X137800500Y-52671155D01*
X137800499Y-52671153D01*
X137779684Y-52566510D01*
X137769737Y-52516503D01*
X137730102Y-52420814D01*
X137709397Y-52370827D01*
X137709390Y-52370814D01*
X137621789Y-52239711D01*
X137621786Y-52239707D01*
X137510292Y-52128213D01*
X137510288Y-52128210D01*
X137379185Y-52040609D01*
X137379172Y-52040602D01*
X137233501Y-51980264D01*
X137233489Y-51980261D01*
X137078845Y-51949500D01*
X137078842Y-51949500D01*
X136921158Y-51949500D01*
X136921155Y-51949500D01*
X136766510Y-51980261D01*
X136766498Y-51980264D01*
X136620827Y-52040602D01*
X136620814Y-52040609D01*
X136489711Y-52128210D01*
X136489707Y-52128213D01*
X136378213Y-52239707D01*
X136378210Y-52239711D01*
X136290609Y-52370814D01*
X136290602Y-52370827D01*
X136230264Y-52516498D01*
X136230261Y-52516510D01*
X136199500Y-52671153D01*
X130686411Y-52671153D01*
X130760289Y-52621789D01*
X130760292Y-52621786D01*
X130804694Y-52577385D01*
X130871786Y-52510292D01*
X130871789Y-52510289D01*
X130959394Y-52379179D01*
X130962854Y-52370827D01*
X130973067Y-52346166D01*
X131019737Y-52233497D01*
X131050500Y-52078842D01*
X131050500Y-51921158D01*
X131050500Y-51921155D01*
X131050499Y-51921153D01*
X131019738Y-51766510D01*
X131019737Y-51766503D01*
X131014715Y-51754379D01*
X130959397Y-51620827D01*
X130959390Y-51620814D01*
X130871789Y-51489711D01*
X130871786Y-51489707D01*
X130760292Y-51378213D01*
X130760288Y-51378210D01*
X130629185Y-51290609D01*
X130629172Y-51290602D01*
X130483501Y-51230264D01*
X130483489Y-51230261D01*
X130328845Y-51199500D01*
X130328842Y-51199500D01*
X130171158Y-51199500D01*
X130171155Y-51199500D01*
X130016510Y-51230261D01*
X130016498Y-51230264D01*
X129870827Y-51290602D01*
X129870814Y-51290609D01*
X129739711Y-51378210D01*
X129739707Y-51378213D01*
X129628213Y-51489707D01*
X129628210Y-51489711D01*
X129540609Y-51620814D01*
X129540602Y-51620827D01*
X129480264Y-51766498D01*
X129480261Y-51766510D01*
X129449500Y-51921153D01*
X99500500Y-51921153D01*
X99500500Y-50624500D01*
X99520185Y-50557461D01*
X99572989Y-50511706D01*
X99624500Y-50500500D01*
X100154866Y-50500500D01*
X100221905Y-50520185D01*
G37*
%TD.AperFunction*%
%TD*%
M02*
