%TF.GenerationSoftware,KiCad,Pcbnew,10.0.6*%
%TF.CreationDate,2026-09-24T12:55:53-05:00*%
%TF.ProjectId,SensorPack_v1,53656e73-6f72-4506-9163-6b5f76312e6b,rev?*%
%TF.SameCoordinates,Original*%
%TF.FileFunction,Legend,Top*%
%TF.FilePolarity,Positive*%
%FSLAX46Y46*%
G04 Gerber Fmt 4.6, Leading zero omitted, Abs format (unit mm)*
G04 Created by KiCad (PCBNEW 10.0.6) date 2026-09-24 12:55:53*
%MOMM*%
%LPD*%
G01*
G04 APERTURE LIST*
%ADD10C,0.150000*%
%ADD11C,0.120000*%
%ADD12C,0.100000*%
%ADD13C,0.400000*%
G04 APERTURE END LIST*
D10*
X107344172Y-89156200D02*
X107458458Y-89194295D01*
X107458458Y-89194295D02*
X107648934Y-89194295D01*
X107648934Y-89194295D02*
X107725125Y-89156200D01*
X107725125Y-89156200D02*
X107763220Y-89118104D01*
X107763220Y-89118104D02*
X107801315Y-89041914D01*
X107801315Y-89041914D02*
X107801315Y-88965723D01*
X107801315Y-88965723D02*
X107763220Y-88889533D01*
X107763220Y-88889533D02*
X107725125Y-88851438D01*
X107725125Y-88851438D02*
X107648934Y-88813342D01*
X107648934Y-88813342D02*
X107496553Y-88775247D01*
X107496553Y-88775247D02*
X107420363Y-88737152D01*
X107420363Y-88737152D02*
X107382268Y-88699057D01*
X107382268Y-88699057D02*
X107344172Y-88622866D01*
X107344172Y-88622866D02*
X107344172Y-88546676D01*
X107344172Y-88546676D02*
X107382268Y-88470485D01*
X107382268Y-88470485D02*
X107420363Y-88432390D01*
X107420363Y-88432390D02*
X107496553Y-88394295D01*
X107496553Y-88394295D02*
X107687030Y-88394295D01*
X107687030Y-88394295D02*
X107801315Y-88432390D01*
X108601316Y-89118104D02*
X108563220Y-89156200D01*
X108563220Y-89156200D02*
X108448935Y-89194295D01*
X108448935Y-89194295D02*
X108372744Y-89194295D01*
X108372744Y-89194295D02*
X108258458Y-89156200D01*
X108258458Y-89156200D02*
X108182268Y-89080009D01*
X108182268Y-89080009D02*
X108144173Y-89003819D01*
X108144173Y-89003819D02*
X108106077Y-88851438D01*
X108106077Y-88851438D02*
X108106077Y-88737152D01*
X108106077Y-88737152D02*
X108144173Y-88584771D01*
X108144173Y-88584771D02*
X108182268Y-88508580D01*
X108182268Y-88508580D02*
X108258458Y-88432390D01*
X108258458Y-88432390D02*
X108372744Y-88394295D01*
X108372744Y-88394295D02*
X108448935Y-88394295D01*
X108448935Y-88394295D02*
X108563220Y-88432390D01*
X108563220Y-88432390D02*
X108601316Y-88470485D01*
X109325125Y-89194295D02*
X108944173Y-89194295D01*
X108944173Y-89194295D02*
X108944173Y-88394295D01*
X107306077Y-91856200D02*
X107420363Y-91894295D01*
X107420363Y-91894295D02*
X107610839Y-91894295D01*
X107610839Y-91894295D02*
X107687030Y-91856200D01*
X107687030Y-91856200D02*
X107725125Y-91818104D01*
X107725125Y-91818104D02*
X107763220Y-91741914D01*
X107763220Y-91741914D02*
X107763220Y-91665723D01*
X107763220Y-91665723D02*
X107725125Y-91589533D01*
X107725125Y-91589533D02*
X107687030Y-91551438D01*
X107687030Y-91551438D02*
X107610839Y-91513342D01*
X107610839Y-91513342D02*
X107458458Y-91475247D01*
X107458458Y-91475247D02*
X107382268Y-91437152D01*
X107382268Y-91437152D02*
X107344173Y-91399057D01*
X107344173Y-91399057D02*
X107306077Y-91322866D01*
X107306077Y-91322866D02*
X107306077Y-91246676D01*
X107306077Y-91246676D02*
X107344173Y-91170485D01*
X107344173Y-91170485D02*
X107382268Y-91132390D01*
X107382268Y-91132390D02*
X107458458Y-91094295D01*
X107458458Y-91094295D02*
X107648935Y-91094295D01*
X107648935Y-91094295D02*
X107763220Y-91132390D01*
X108106078Y-91894295D02*
X108106078Y-91094295D01*
X108106078Y-91094295D02*
X108296554Y-91094295D01*
X108296554Y-91094295D02*
X108410840Y-91132390D01*
X108410840Y-91132390D02*
X108487030Y-91208580D01*
X108487030Y-91208580D02*
X108525125Y-91284771D01*
X108525125Y-91284771D02*
X108563221Y-91437152D01*
X108563221Y-91437152D02*
X108563221Y-91551438D01*
X108563221Y-91551438D02*
X108525125Y-91703819D01*
X108525125Y-91703819D02*
X108487030Y-91780009D01*
X108487030Y-91780009D02*
X108410840Y-91856200D01*
X108410840Y-91856200D02*
X108296554Y-91894295D01*
X108296554Y-91894295D02*
X108106078Y-91894295D01*
X108867982Y-91665723D02*
X109248935Y-91665723D01*
X108791792Y-91894295D02*
X109058459Y-91094295D01*
X109058459Y-91094295D02*
X109325125Y-91894295D01*
X114844172Y-89156200D02*
X114958458Y-89194295D01*
X114958458Y-89194295D02*
X115148934Y-89194295D01*
X115148934Y-89194295D02*
X115225125Y-89156200D01*
X115225125Y-89156200D02*
X115263220Y-89118104D01*
X115263220Y-89118104D02*
X115301315Y-89041914D01*
X115301315Y-89041914D02*
X115301315Y-88965723D01*
X115301315Y-88965723D02*
X115263220Y-88889533D01*
X115263220Y-88889533D02*
X115225125Y-88851438D01*
X115225125Y-88851438D02*
X115148934Y-88813342D01*
X115148934Y-88813342D02*
X114996553Y-88775247D01*
X114996553Y-88775247D02*
X114920363Y-88737152D01*
X114920363Y-88737152D02*
X114882268Y-88699057D01*
X114882268Y-88699057D02*
X114844172Y-88622866D01*
X114844172Y-88622866D02*
X114844172Y-88546676D01*
X114844172Y-88546676D02*
X114882268Y-88470485D01*
X114882268Y-88470485D02*
X114920363Y-88432390D01*
X114920363Y-88432390D02*
X114996553Y-88394295D01*
X114996553Y-88394295D02*
X115187030Y-88394295D01*
X115187030Y-88394295D02*
X115301315Y-88432390D01*
X116101316Y-89118104D02*
X116063220Y-89156200D01*
X116063220Y-89156200D02*
X115948935Y-89194295D01*
X115948935Y-89194295D02*
X115872744Y-89194295D01*
X115872744Y-89194295D02*
X115758458Y-89156200D01*
X115758458Y-89156200D02*
X115682268Y-89080009D01*
X115682268Y-89080009D02*
X115644173Y-89003819D01*
X115644173Y-89003819D02*
X115606077Y-88851438D01*
X115606077Y-88851438D02*
X115606077Y-88737152D01*
X115606077Y-88737152D02*
X115644173Y-88584771D01*
X115644173Y-88584771D02*
X115682268Y-88508580D01*
X115682268Y-88508580D02*
X115758458Y-88432390D01*
X115758458Y-88432390D02*
X115872744Y-88394295D01*
X115872744Y-88394295D02*
X115948935Y-88394295D01*
X115948935Y-88394295D02*
X116063220Y-88432390D01*
X116063220Y-88432390D02*
X116101316Y-88470485D01*
X116825125Y-89194295D02*
X116444173Y-89194295D01*
X116444173Y-89194295D02*
X116444173Y-88394295D01*
X114806077Y-91856200D02*
X114920363Y-91894295D01*
X114920363Y-91894295D02*
X115110839Y-91894295D01*
X115110839Y-91894295D02*
X115187030Y-91856200D01*
X115187030Y-91856200D02*
X115225125Y-91818104D01*
X115225125Y-91818104D02*
X115263220Y-91741914D01*
X115263220Y-91741914D02*
X115263220Y-91665723D01*
X115263220Y-91665723D02*
X115225125Y-91589533D01*
X115225125Y-91589533D02*
X115187030Y-91551438D01*
X115187030Y-91551438D02*
X115110839Y-91513342D01*
X115110839Y-91513342D02*
X114958458Y-91475247D01*
X114958458Y-91475247D02*
X114882268Y-91437152D01*
X114882268Y-91437152D02*
X114844173Y-91399057D01*
X114844173Y-91399057D02*
X114806077Y-91322866D01*
X114806077Y-91322866D02*
X114806077Y-91246676D01*
X114806077Y-91246676D02*
X114844173Y-91170485D01*
X114844173Y-91170485D02*
X114882268Y-91132390D01*
X114882268Y-91132390D02*
X114958458Y-91094295D01*
X114958458Y-91094295D02*
X115148935Y-91094295D01*
X115148935Y-91094295D02*
X115263220Y-91132390D01*
X115606078Y-91894295D02*
X115606078Y-91094295D01*
X115606078Y-91094295D02*
X115796554Y-91094295D01*
X115796554Y-91094295D02*
X115910840Y-91132390D01*
X115910840Y-91132390D02*
X115987030Y-91208580D01*
X115987030Y-91208580D02*
X116025125Y-91284771D01*
X116025125Y-91284771D02*
X116063221Y-91437152D01*
X116063221Y-91437152D02*
X116063221Y-91551438D01*
X116063221Y-91551438D02*
X116025125Y-91703819D01*
X116025125Y-91703819D02*
X115987030Y-91780009D01*
X115987030Y-91780009D02*
X115910840Y-91856200D01*
X115910840Y-91856200D02*
X115796554Y-91894295D01*
X115796554Y-91894295D02*
X115606078Y-91894295D01*
X116367982Y-91665723D02*
X116748935Y-91665723D01*
X116291792Y-91894295D02*
X116558459Y-91094295D01*
X116558459Y-91094295D02*
X116825125Y-91894295D01*
X122344172Y-89156200D02*
X122458458Y-89194295D01*
X122458458Y-89194295D02*
X122648934Y-89194295D01*
X122648934Y-89194295D02*
X122725125Y-89156200D01*
X122725125Y-89156200D02*
X122763220Y-89118104D01*
X122763220Y-89118104D02*
X122801315Y-89041914D01*
X122801315Y-89041914D02*
X122801315Y-88965723D01*
X122801315Y-88965723D02*
X122763220Y-88889533D01*
X122763220Y-88889533D02*
X122725125Y-88851438D01*
X122725125Y-88851438D02*
X122648934Y-88813342D01*
X122648934Y-88813342D02*
X122496553Y-88775247D01*
X122496553Y-88775247D02*
X122420363Y-88737152D01*
X122420363Y-88737152D02*
X122382268Y-88699057D01*
X122382268Y-88699057D02*
X122344172Y-88622866D01*
X122344172Y-88622866D02*
X122344172Y-88546676D01*
X122344172Y-88546676D02*
X122382268Y-88470485D01*
X122382268Y-88470485D02*
X122420363Y-88432390D01*
X122420363Y-88432390D02*
X122496553Y-88394295D01*
X122496553Y-88394295D02*
X122687030Y-88394295D01*
X122687030Y-88394295D02*
X122801315Y-88432390D01*
X123601316Y-89118104D02*
X123563220Y-89156200D01*
X123563220Y-89156200D02*
X123448935Y-89194295D01*
X123448935Y-89194295D02*
X123372744Y-89194295D01*
X123372744Y-89194295D02*
X123258458Y-89156200D01*
X123258458Y-89156200D02*
X123182268Y-89080009D01*
X123182268Y-89080009D02*
X123144173Y-89003819D01*
X123144173Y-89003819D02*
X123106077Y-88851438D01*
X123106077Y-88851438D02*
X123106077Y-88737152D01*
X123106077Y-88737152D02*
X123144173Y-88584771D01*
X123144173Y-88584771D02*
X123182268Y-88508580D01*
X123182268Y-88508580D02*
X123258458Y-88432390D01*
X123258458Y-88432390D02*
X123372744Y-88394295D01*
X123372744Y-88394295D02*
X123448935Y-88394295D01*
X123448935Y-88394295D02*
X123563220Y-88432390D01*
X123563220Y-88432390D02*
X123601316Y-88470485D01*
X124325125Y-89194295D02*
X123944173Y-89194295D01*
X123944173Y-89194295D02*
X123944173Y-88394295D01*
X122306077Y-91856200D02*
X122420363Y-91894295D01*
X122420363Y-91894295D02*
X122610839Y-91894295D01*
X122610839Y-91894295D02*
X122687030Y-91856200D01*
X122687030Y-91856200D02*
X122725125Y-91818104D01*
X122725125Y-91818104D02*
X122763220Y-91741914D01*
X122763220Y-91741914D02*
X122763220Y-91665723D01*
X122763220Y-91665723D02*
X122725125Y-91589533D01*
X122725125Y-91589533D02*
X122687030Y-91551438D01*
X122687030Y-91551438D02*
X122610839Y-91513342D01*
X122610839Y-91513342D02*
X122458458Y-91475247D01*
X122458458Y-91475247D02*
X122382268Y-91437152D01*
X122382268Y-91437152D02*
X122344173Y-91399057D01*
X122344173Y-91399057D02*
X122306077Y-91322866D01*
X122306077Y-91322866D02*
X122306077Y-91246676D01*
X122306077Y-91246676D02*
X122344173Y-91170485D01*
X122344173Y-91170485D02*
X122382268Y-91132390D01*
X122382268Y-91132390D02*
X122458458Y-91094295D01*
X122458458Y-91094295D02*
X122648935Y-91094295D01*
X122648935Y-91094295D02*
X122763220Y-91132390D01*
X123106078Y-91894295D02*
X123106078Y-91094295D01*
X123106078Y-91094295D02*
X123296554Y-91094295D01*
X123296554Y-91094295D02*
X123410840Y-91132390D01*
X123410840Y-91132390D02*
X123487030Y-91208580D01*
X123487030Y-91208580D02*
X123525125Y-91284771D01*
X123525125Y-91284771D02*
X123563221Y-91437152D01*
X123563221Y-91437152D02*
X123563221Y-91551438D01*
X123563221Y-91551438D02*
X123525125Y-91703819D01*
X123525125Y-91703819D02*
X123487030Y-91780009D01*
X123487030Y-91780009D02*
X123410840Y-91856200D01*
X123410840Y-91856200D02*
X123296554Y-91894295D01*
X123296554Y-91894295D02*
X123106078Y-91894295D01*
X123867982Y-91665723D02*
X124248935Y-91665723D01*
X123791792Y-91894295D02*
X124058459Y-91094295D01*
X124058459Y-91094295D02*
X124325125Y-91894295D01*
X100973917Y-89345222D02*
X101297166Y-89021973D01*
X101701227Y-89749283D02*
X101135542Y-89183597D01*
X101431853Y-88887286D02*
X102374662Y-89075847D01*
X101808977Y-88510162D02*
X101997539Y-89452971D01*
X101808977Y-94641533D02*
X101351041Y-94560721D01*
X101485728Y-94964782D02*
X100920043Y-94399096D01*
X100920043Y-94399096D02*
X101135542Y-94183597D01*
X101135542Y-94183597D02*
X101216354Y-94156660D01*
X101216354Y-94156660D02*
X101270229Y-94156660D01*
X101270229Y-94156660D02*
X101351041Y-94183597D01*
X101351041Y-94183597D02*
X101431853Y-94264409D01*
X101431853Y-94264409D02*
X101458791Y-94345221D01*
X101458791Y-94345221D02*
X101458791Y-94399096D01*
X101458791Y-94399096D02*
X101431853Y-94479908D01*
X101431853Y-94479908D02*
X101216354Y-94695408D01*
X101431853Y-93887286D02*
X102374662Y-94075847D01*
X101808977Y-93510162D02*
X101997539Y-94452971D01*
X101290229Y-92477531D02*
X101290229Y-92531406D01*
X101290229Y-92531406D02*
X101236354Y-92639155D01*
X101236354Y-92639155D02*
X101182480Y-92693030D01*
X101182480Y-92693030D02*
X101074730Y-92746905D01*
X101074730Y-92746905D02*
X100966980Y-92746905D01*
X100966980Y-92746905D02*
X100886168Y-92719968D01*
X100886168Y-92719968D02*
X100751481Y-92639155D01*
X100751481Y-92639155D02*
X100670669Y-92558343D01*
X100670669Y-92558343D02*
X100589857Y-92423656D01*
X100589857Y-92423656D02*
X100562919Y-92342844D01*
X100562919Y-92342844D02*
X100562919Y-92235094D01*
X100562919Y-92235094D02*
X100616794Y-92127345D01*
X100616794Y-92127345D02*
X100670669Y-92073470D01*
X100670669Y-92073470D02*
X100778419Y-92019595D01*
X100778419Y-92019595D02*
X100832293Y-92019595D01*
X101855915Y-92019595D02*
X101586541Y-92288969D01*
X101586541Y-92288969D02*
X101020855Y-91723284D01*
X102044476Y-91831033D02*
X101478791Y-91265348D01*
X102367725Y-91507785D02*
X101802040Y-91426972D01*
X101802040Y-90942099D02*
X101802040Y-91588597D01*
X100912293Y-55638217D02*
X100346608Y-55072531D01*
X100346608Y-55072531D02*
X100562107Y-54857032D01*
X100562107Y-54857032D02*
X100642919Y-54830095D01*
X100642919Y-54830095D02*
X100696794Y-54830095D01*
X100696794Y-54830095D02*
X100777606Y-54857032D01*
X100777606Y-54857032D02*
X100858418Y-54937844D01*
X100858418Y-54937844D02*
X100885356Y-55018657D01*
X100885356Y-55018657D02*
X100885356Y-55072531D01*
X100885356Y-55072531D02*
X100858418Y-55153344D01*
X100858418Y-55153344D02*
X100642919Y-55368843D01*
X100858418Y-54560721D02*
X101558791Y-54991719D01*
X101558791Y-54991719D02*
X101262479Y-54479908D01*
X101262479Y-54479908D02*
X101774290Y-54776220D01*
X101774290Y-54776220D02*
X101343292Y-54075847D01*
X102447725Y-54102785D02*
X101989789Y-54021972D01*
X102124476Y-54426033D02*
X101558791Y-53860348D01*
X101558791Y-53860348D02*
X101774290Y-53644849D01*
X101774290Y-53644849D02*
X101855102Y-53617911D01*
X101855102Y-53617911D02*
X101908977Y-53617911D01*
X101908977Y-53617911D02*
X101989789Y-53644849D01*
X101989789Y-53644849D02*
X102070602Y-53725661D01*
X102070602Y-53725661D02*
X102097539Y-53806473D01*
X102097539Y-53806473D02*
X102097539Y-53860348D01*
X102097539Y-53860348D02*
X102070602Y-53941160D01*
X102070602Y-53941160D02*
X101855102Y-54156659D01*
X101855102Y-59687658D02*
X101855102Y-59741533D01*
X101855102Y-59741533D02*
X101801227Y-59849282D01*
X101801227Y-59849282D02*
X101747353Y-59903157D01*
X101747353Y-59903157D02*
X101639603Y-59957032D01*
X101639603Y-59957032D02*
X101531853Y-59957032D01*
X101531853Y-59957032D02*
X101451041Y-59930095D01*
X101451041Y-59930095D02*
X101316354Y-59849282D01*
X101316354Y-59849282D02*
X101235542Y-59768470D01*
X101235542Y-59768470D02*
X101154730Y-59633783D01*
X101154730Y-59633783D02*
X101127792Y-59552971D01*
X101127792Y-59552971D02*
X101127792Y-59445221D01*
X101127792Y-59445221D02*
X101181667Y-59337472D01*
X101181667Y-59337472D02*
X101235542Y-59283597D01*
X101235542Y-59283597D02*
X101343292Y-59229722D01*
X101343292Y-59229722D02*
X101397166Y-59229722D01*
X102097539Y-59499096D02*
X102205288Y-59445221D01*
X102205288Y-59445221D02*
X102339975Y-59310534D01*
X102339975Y-59310534D02*
X102366913Y-59229722D01*
X102366913Y-59229722D02*
X102366913Y-59175847D01*
X102366913Y-59175847D02*
X102339975Y-59095035D01*
X102339975Y-59095035D02*
X102286101Y-59041160D01*
X102286101Y-59041160D02*
X102205288Y-59014223D01*
X102205288Y-59014223D02*
X102151414Y-59014223D01*
X102151414Y-59014223D02*
X102070601Y-59041160D01*
X102070601Y-59041160D02*
X101935914Y-59121973D01*
X101935914Y-59121973D02*
X101855102Y-59148910D01*
X101855102Y-59148910D02*
X101801227Y-59148910D01*
X101801227Y-59148910D02*
X101720415Y-59121973D01*
X101720415Y-59121973D02*
X101666540Y-59068098D01*
X101666540Y-59068098D02*
X101639603Y-58987286D01*
X101639603Y-58987286D02*
X101639603Y-58933411D01*
X101639603Y-58933411D02*
X101666540Y-58852599D01*
X101666540Y-58852599D02*
X101801227Y-58717912D01*
X101801227Y-58717912D02*
X101908977Y-58664037D01*
X100966168Y-63230467D02*
X101073918Y-63176592D01*
X101073918Y-63176592D02*
X101208605Y-63041905D01*
X101208605Y-63041905D02*
X101235542Y-62961093D01*
X101235542Y-62961093D02*
X101235542Y-62907218D01*
X101235542Y-62907218D02*
X101208605Y-62826406D01*
X101208605Y-62826406D02*
X101154730Y-62772531D01*
X101154730Y-62772531D02*
X101073918Y-62745594D01*
X101073918Y-62745594D02*
X101020043Y-62745594D01*
X101020043Y-62745594D02*
X100939231Y-62772531D01*
X100939231Y-62772531D02*
X100804544Y-62853343D01*
X100804544Y-62853343D02*
X100723731Y-62880281D01*
X100723731Y-62880281D02*
X100669857Y-62880281D01*
X100669857Y-62880281D02*
X100589044Y-62853343D01*
X100589044Y-62853343D02*
X100535170Y-62799469D01*
X100535170Y-62799469D02*
X100508232Y-62718656D01*
X100508232Y-62718656D02*
X100508232Y-62664782D01*
X100508232Y-62664782D02*
X100535170Y-62583969D01*
X100535170Y-62583969D02*
X100669857Y-62449282D01*
X100669857Y-62449282D02*
X100777606Y-62395408D01*
X101828165Y-62314595D02*
X101828165Y-62368470D01*
X101828165Y-62368470D02*
X101774290Y-62476220D01*
X101774290Y-62476220D02*
X101720415Y-62530095D01*
X101720415Y-62530095D02*
X101612666Y-62583969D01*
X101612666Y-62583969D02*
X101504916Y-62583969D01*
X101504916Y-62583969D02*
X101424104Y-62557032D01*
X101424104Y-62557032D02*
X101289417Y-62476220D01*
X101289417Y-62476220D02*
X101208605Y-62395408D01*
X101208605Y-62395408D02*
X101127793Y-62260720D01*
X101127793Y-62260720D02*
X101100855Y-62179908D01*
X101100855Y-62179908D02*
X101100855Y-62072159D01*
X101100855Y-62072159D02*
X101154730Y-61964409D01*
X101154730Y-61964409D02*
X101208605Y-61910534D01*
X101208605Y-61910534D02*
X101316354Y-61856659D01*
X101316354Y-61856659D02*
X101370229Y-61856659D01*
X102124476Y-62126033D02*
X101558791Y-61560348D01*
X102447725Y-61802785D02*
X101882040Y-61721972D01*
X101882040Y-61237099D02*
X101882040Y-61883597D01*
X100642919Y-66107590D02*
X100077234Y-65541905D01*
X100077234Y-65541905D02*
X100669857Y-65757404D01*
X100669857Y-65757404D02*
X100454358Y-65164781D01*
X100454358Y-65164781D02*
X101020043Y-65730467D01*
X101289417Y-65461093D02*
X100723732Y-64895407D01*
X101504916Y-65191719D02*
X101612666Y-65137844D01*
X101612666Y-65137844D02*
X101747353Y-65003157D01*
X101747353Y-65003157D02*
X101774290Y-64922345D01*
X101774290Y-64922345D02*
X101774290Y-64868470D01*
X101774290Y-64868470D02*
X101747353Y-64787658D01*
X101747353Y-64787658D02*
X101693478Y-64733783D01*
X101693478Y-64733783D02*
X101612666Y-64706846D01*
X101612666Y-64706846D02*
X101558791Y-64706846D01*
X101558791Y-64706846D02*
X101477979Y-64733783D01*
X101477979Y-64733783D02*
X101343292Y-64814595D01*
X101343292Y-64814595D02*
X101262480Y-64841533D01*
X101262480Y-64841533D02*
X101208605Y-64841533D01*
X101208605Y-64841533D02*
X101127793Y-64814595D01*
X101127793Y-64814595D02*
X101073918Y-64760720D01*
X101073918Y-64760720D02*
X101046980Y-64679908D01*
X101046980Y-64679908D02*
X101046980Y-64626033D01*
X101046980Y-64626033D02*
X101073918Y-64545221D01*
X101073918Y-64545221D02*
X101208605Y-64410534D01*
X101208605Y-64410534D02*
X101316354Y-64356659D01*
X101639603Y-63979536D02*
X101747353Y-63871786D01*
X101747353Y-63871786D02*
X101828165Y-63844849D01*
X101828165Y-63844849D02*
X101935915Y-63844849D01*
X101935915Y-63844849D02*
X102070602Y-63925661D01*
X102070602Y-63925661D02*
X102259164Y-64114223D01*
X102259164Y-64114223D02*
X102339976Y-64248910D01*
X102339976Y-64248910D02*
X102339976Y-64356659D01*
X102339976Y-64356659D02*
X102313038Y-64437472D01*
X102313038Y-64437472D02*
X102205289Y-64545221D01*
X102205289Y-64545221D02*
X102124477Y-64572159D01*
X102124477Y-64572159D02*
X102016727Y-64572159D01*
X102016727Y-64572159D02*
X101882040Y-64491346D01*
X101882040Y-64491346D02*
X101693478Y-64302785D01*
X101693478Y-64302785D02*
X101612666Y-64168098D01*
X101612666Y-64168098D02*
X101612666Y-64060348D01*
X101612666Y-64060348D02*
X101639603Y-63979536D01*
X100642919Y-68707590D02*
X100077234Y-68141905D01*
X100077234Y-68141905D02*
X100669857Y-68357404D01*
X100669857Y-68357404D02*
X100454358Y-67764781D01*
X100454358Y-67764781D02*
X101020043Y-68330467D01*
X100831481Y-67387658D02*
X100939231Y-67279908D01*
X100939231Y-67279908D02*
X101020043Y-67252971D01*
X101020043Y-67252971D02*
X101127793Y-67252971D01*
X101127793Y-67252971D02*
X101262480Y-67333783D01*
X101262480Y-67333783D02*
X101451042Y-67522345D01*
X101451042Y-67522345D02*
X101531854Y-67657032D01*
X101531854Y-67657032D02*
X101531854Y-67764781D01*
X101531854Y-67764781D02*
X101504916Y-67845593D01*
X101504916Y-67845593D02*
X101397167Y-67953343D01*
X101397167Y-67953343D02*
X101316355Y-67980280D01*
X101316355Y-67980280D02*
X101208605Y-67980280D01*
X101208605Y-67980280D02*
X101073918Y-67899468D01*
X101073918Y-67899468D02*
X100885356Y-67710906D01*
X100885356Y-67710906D02*
X100804544Y-67576219D01*
X100804544Y-67576219D02*
X100804544Y-67468470D01*
X100804544Y-67468470D02*
X100831481Y-67387658D01*
X101828165Y-67468470D02*
X101935915Y-67414595D01*
X101935915Y-67414595D02*
X102070602Y-67279908D01*
X102070602Y-67279908D02*
X102097539Y-67199096D01*
X102097539Y-67199096D02*
X102097539Y-67145221D01*
X102097539Y-67145221D02*
X102070602Y-67064409D01*
X102070602Y-67064409D02*
X102016727Y-67010534D01*
X102016727Y-67010534D02*
X101935915Y-66983597D01*
X101935915Y-66983597D02*
X101882040Y-66983597D01*
X101882040Y-66983597D02*
X101801228Y-67010534D01*
X101801228Y-67010534D02*
X101666541Y-67091346D01*
X101666541Y-67091346D02*
X101585728Y-67118284D01*
X101585728Y-67118284D02*
X101531854Y-67118284D01*
X101531854Y-67118284D02*
X101451041Y-67091346D01*
X101451041Y-67091346D02*
X101397167Y-67037472D01*
X101397167Y-67037472D02*
X101370229Y-66956659D01*
X101370229Y-66956659D02*
X101370229Y-66902785D01*
X101370229Y-66902785D02*
X101397167Y-66821972D01*
X101397167Y-66821972D02*
X101531854Y-66687285D01*
X101531854Y-66687285D02*
X101639603Y-66633411D01*
X102420788Y-66929722D02*
X101855103Y-66364036D01*
X100823732Y-57249282D02*
X100742920Y-57276220D01*
X100742920Y-57276220D02*
X100662107Y-57357032D01*
X100662107Y-57357032D02*
X100608232Y-57464781D01*
X100608232Y-57464781D02*
X100608232Y-57572531D01*
X100608232Y-57572531D02*
X100635170Y-57653343D01*
X100635170Y-57653343D02*
X100715982Y-57788030D01*
X100715982Y-57788030D02*
X100796794Y-57868842D01*
X100796794Y-57868842D02*
X100931481Y-57949655D01*
X100931481Y-57949655D02*
X101012294Y-57976592D01*
X101012294Y-57976592D02*
X101120043Y-57976592D01*
X101120043Y-57976592D02*
X101227793Y-57922717D01*
X101227793Y-57922717D02*
X101281668Y-57868842D01*
X101281668Y-57868842D02*
X101335542Y-57761093D01*
X101335542Y-57761093D02*
X101335542Y-57707218D01*
X101335542Y-57707218D02*
X101146981Y-57518656D01*
X101146981Y-57518656D02*
X101039231Y-57626406D01*
X101631854Y-57518656D02*
X101066168Y-56952971D01*
X101066168Y-56952971D02*
X101955103Y-57195407D01*
X101955103Y-57195407D02*
X101389417Y-56629722D01*
X102224476Y-56926033D02*
X101658791Y-56360348D01*
X101658791Y-56360348D02*
X101793478Y-56225661D01*
X101793478Y-56225661D02*
X101901228Y-56171786D01*
X101901228Y-56171786D02*
X102008977Y-56171786D01*
X102008977Y-56171786D02*
X102089789Y-56198724D01*
X102089789Y-56198724D02*
X102224476Y-56279536D01*
X102224476Y-56279536D02*
X102305289Y-56360348D01*
X102305289Y-56360348D02*
X102386101Y-56495035D01*
X102386101Y-56495035D02*
X102413038Y-56575847D01*
X102413038Y-56575847D02*
X102413038Y-56683597D01*
X102413038Y-56683597D02*
X102359163Y-56791346D01*
X102359163Y-56791346D02*
X102224476Y-56926033D01*
X100823732Y-97249282D02*
X100742920Y-97276220D01*
X100742920Y-97276220D02*
X100662107Y-97357032D01*
X100662107Y-97357032D02*
X100608232Y-97464781D01*
X100608232Y-97464781D02*
X100608232Y-97572531D01*
X100608232Y-97572531D02*
X100635170Y-97653343D01*
X100635170Y-97653343D02*
X100715982Y-97788030D01*
X100715982Y-97788030D02*
X100796794Y-97868842D01*
X100796794Y-97868842D02*
X100931481Y-97949655D01*
X100931481Y-97949655D02*
X101012294Y-97976592D01*
X101012294Y-97976592D02*
X101120043Y-97976592D01*
X101120043Y-97976592D02*
X101227793Y-97922717D01*
X101227793Y-97922717D02*
X101281668Y-97868842D01*
X101281668Y-97868842D02*
X101335542Y-97761093D01*
X101335542Y-97761093D02*
X101335542Y-97707218D01*
X101335542Y-97707218D02*
X101146981Y-97518656D01*
X101146981Y-97518656D02*
X101039231Y-97626406D01*
X101631854Y-97518656D02*
X101066168Y-96952971D01*
X101066168Y-96952971D02*
X101955103Y-97195407D01*
X101955103Y-97195407D02*
X101389417Y-96629722D01*
X102224476Y-96926033D02*
X101658791Y-96360348D01*
X101658791Y-96360348D02*
X101793478Y-96225661D01*
X101793478Y-96225661D02*
X101901228Y-96171786D01*
X101901228Y-96171786D02*
X102008977Y-96171786D01*
X102008977Y-96171786D02*
X102089789Y-96198724D01*
X102089789Y-96198724D02*
X102224476Y-96279536D01*
X102224476Y-96279536D02*
X102305289Y-96360348D01*
X102305289Y-96360348D02*
X102386101Y-96495035D01*
X102386101Y-96495035D02*
X102413038Y-96575847D01*
X102413038Y-96575847D02*
X102413038Y-96683597D01*
X102413038Y-96683597D02*
X102359163Y-96791346D01*
X102359163Y-96791346D02*
X102224476Y-96926033D01*
X109228165Y-62122344D02*
X108662480Y-61556659D01*
X109497539Y-61852971D02*
X108931854Y-61287285D01*
X108931854Y-61287285D02*
X109820788Y-61529722D01*
X109820788Y-61529722D02*
X109255103Y-60964036D01*
X108223732Y-59649282D02*
X108142920Y-59676220D01*
X108142920Y-59676220D02*
X108062107Y-59757032D01*
X108062107Y-59757032D02*
X108008232Y-59864781D01*
X108008232Y-59864781D02*
X108008232Y-59972531D01*
X108008232Y-59972531D02*
X108035170Y-60053343D01*
X108035170Y-60053343D02*
X108115982Y-60188030D01*
X108115982Y-60188030D02*
X108196794Y-60268842D01*
X108196794Y-60268842D02*
X108331481Y-60349655D01*
X108331481Y-60349655D02*
X108412294Y-60376592D01*
X108412294Y-60376592D02*
X108520043Y-60376592D01*
X108520043Y-60376592D02*
X108627793Y-60322717D01*
X108627793Y-60322717D02*
X108681668Y-60268842D01*
X108681668Y-60268842D02*
X108735542Y-60161093D01*
X108735542Y-60161093D02*
X108735542Y-60107218D01*
X108735542Y-60107218D02*
X108546981Y-59918656D01*
X108546981Y-59918656D02*
X108439231Y-60026406D01*
X109031854Y-59918656D02*
X108466168Y-59352971D01*
X108466168Y-59352971D02*
X109355103Y-59595407D01*
X109355103Y-59595407D02*
X108789417Y-59029722D01*
X109624476Y-59326033D02*
X109058791Y-58760348D01*
X109058791Y-58760348D02*
X109193478Y-58625661D01*
X109193478Y-58625661D02*
X109301228Y-58571786D01*
X109301228Y-58571786D02*
X109408977Y-58571786D01*
X109408977Y-58571786D02*
X109489789Y-58598724D01*
X109489789Y-58598724D02*
X109624476Y-58679536D01*
X109624476Y-58679536D02*
X109705289Y-58760348D01*
X109705289Y-58760348D02*
X109786101Y-58895035D01*
X109786101Y-58895035D02*
X109813038Y-58975847D01*
X109813038Y-58975847D02*
X109813038Y-59083597D01*
X109813038Y-59083597D02*
X109759163Y-59191346D01*
X109759163Y-59191346D02*
X109624476Y-59326033D01*
X116270229Y-53848910D02*
X116000855Y-54118284D01*
X116000855Y-54118284D02*
X116243292Y-54414595D01*
X116243292Y-54414595D02*
X116243292Y-54360720D01*
X116243292Y-54360720D02*
X116270229Y-54279908D01*
X116270229Y-54279908D02*
X116404916Y-54145221D01*
X116404916Y-54145221D02*
X116485728Y-54118284D01*
X116485728Y-54118284D02*
X116539603Y-54118284D01*
X116539603Y-54118284D02*
X116620415Y-54145221D01*
X116620415Y-54145221D02*
X116755102Y-54279908D01*
X116755102Y-54279908D02*
X116782040Y-54360720D01*
X116782040Y-54360720D02*
X116782040Y-54414595D01*
X116782040Y-54414595D02*
X116755102Y-54495407D01*
X116755102Y-54495407D02*
X116620415Y-54630094D01*
X116620415Y-54630094D02*
X116539603Y-54657032D01*
X116539603Y-54657032D02*
X116485728Y-54657032D01*
X116458791Y-53660348D02*
X117213038Y-54037471D01*
X117213038Y-54037471D02*
X116835915Y-53283224D01*
X115408232Y-57410907D02*
X115758418Y-57060721D01*
X115758418Y-57060721D02*
X115785356Y-57464782D01*
X115785356Y-57464782D02*
X115866168Y-57383969D01*
X115866168Y-57383969D02*
X115946980Y-57357032D01*
X115946980Y-57357032D02*
X116000855Y-57357032D01*
X116000855Y-57357032D02*
X116081667Y-57383969D01*
X116081667Y-57383969D02*
X116216354Y-57518656D01*
X116216354Y-57518656D02*
X116243292Y-57599469D01*
X116243292Y-57599469D02*
X116243292Y-57653343D01*
X116243292Y-57653343D02*
X116216354Y-57734156D01*
X116216354Y-57734156D02*
X116054730Y-57895780D01*
X116054730Y-57895780D02*
X115973918Y-57922717D01*
X115973918Y-57922717D02*
X115920043Y-57922717D01*
X115920043Y-56899096D02*
X116674290Y-57276220D01*
X116674290Y-57276220D02*
X116297167Y-56521972D01*
X116431853Y-56387286D02*
X116782040Y-56037099D01*
X116782040Y-56037099D02*
X116808977Y-56441160D01*
X116808977Y-56441160D02*
X116889789Y-56360348D01*
X116889789Y-56360348D02*
X116970601Y-56333411D01*
X116970601Y-56333411D02*
X117024476Y-56333411D01*
X117024476Y-56333411D02*
X117105288Y-56360348D01*
X117105288Y-56360348D02*
X117239975Y-56495035D01*
X117239975Y-56495035D02*
X117266913Y-56575847D01*
X117266913Y-56575847D02*
X117266913Y-56629722D01*
X117266913Y-56629722D02*
X117239975Y-56710534D01*
X117239975Y-56710534D02*
X117078351Y-56872159D01*
X117078351Y-56872159D02*
X116997539Y-56899096D01*
X116997539Y-56899096D02*
X116943664Y-56899096D01*
X116728165Y-62522344D02*
X116162480Y-61956659D01*
X116997539Y-62252971D02*
X116431854Y-61687285D01*
X116431854Y-61687285D02*
X117320788Y-61929722D01*
X117320788Y-61929722D02*
X116755103Y-61364036D01*
X115723732Y-60049282D02*
X115642920Y-60076220D01*
X115642920Y-60076220D02*
X115562107Y-60157032D01*
X115562107Y-60157032D02*
X115508232Y-60264781D01*
X115508232Y-60264781D02*
X115508232Y-60372531D01*
X115508232Y-60372531D02*
X115535170Y-60453343D01*
X115535170Y-60453343D02*
X115615982Y-60588030D01*
X115615982Y-60588030D02*
X115696794Y-60668842D01*
X115696794Y-60668842D02*
X115831481Y-60749655D01*
X115831481Y-60749655D02*
X115912294Y-60776592D01*
X115912294Y-60776592D02*
X116020043Y-60776592D01*
X116020043Y-60776592D02*
X116127793Y-60722717D01*
X116127793Y-60722717D02*
X116181668Y-60668842D01*
X116181668Y-60668842D02*
X116235542Y-60561093D01*
X116235542Y-60561093D02*
X116235542Y-60507218D01*
X116235542Y-60507218D02*
X116046981Y-60318656D01*
X116046981Y-60318656D02*
X115939231Y-60426406D01*
X116531854Y-60318656D02*
X115966168Y-59752971D01*
X115966168Y-59752971D02*
X116855103Y-59995407D01*
X116855103Y-59995407D02*
X116289417Y-59429722D01*
X117124476Y-59726033D02*
X116558791Y-59160348D01*
X116558791Y-59160348D02*
X116693478Y-59025661D01*
X116693478Y-59025661D02*
X116801228Y-58971786D01*
X116801228Y-58971786D02*
X116908977Y-58971786D01*
X116908977Y-58971786D02*
X116989789Y-58998724D01*
X116989789Y-58998724D02*
X117124476Y-59079536D01*
X117124476Y-59079536D02*
X117205289Y-59160348D01*
X117205289Y-59160348D02*
X117286101Y-59295035D01*
X117286101Y-59295035D02*
X117313038Y-59375847D01*
X117313038Y-59375847D02*
X117313038Y-59483597D01*
X117313038Y-59483597D02*
X117259163Y-59591346D01*
X117259163Y-59591346D02*
X117124476Y-59726033D01*
X107294295Y-52974874D02*
X107294295Y-53355826D01*
X107294295Y-53355826D02*
X107675247Y-53393922D01*
X107675247Y-53393922D02*
X107637152Y-53355826D01*
X107637152Y-53355826D02*
X107599057Y-53279636D01*
X107599057Y-53279636D02*
X107599057Y-53089160D01*
X107599057Y-53089160D02*
X107637152Y-53012969D01*
X107637152Y-53012969D02*
X107675247Y-52974874D01*
X107675247Y-52974874D02*
X107751438Y-52936779D01*
X107751438Y-52936779D02*
X107941914Y-52936779D01*
X107941914Y-52936779D02*
X108018104Y-52974874D01*
X108018104Y-52974874D02*
X108056200Y-53012969D01*
X108056200Y-53012969D02*
X108094295Y-53089160D01*
X108094295Y-53089160D02*
X108094295Y-53279636D01*
X108094295Y-53279636D02*
X108056200Y-53355826D01*
X108056200Y-53355826D02*
X108018104Y-53393922D01*
X107294295Y-52708207D02*
X108094295Y-52441540D01*
X108094295Y-52441540D02*
X107294295Y-52174874D01*
X107294295Y-57493922D02*
X107294295Y-56998684D01*
X107294295Y-56998684D02*
X107599057Y-57265350D01*
X107599057Y-57265350D02*
X107599057Y-57151065D01*
X107599057Y-57151065D02*
X107637152Y-57074874D01*
X107637152Y-57074874D02*
X107675247Y-57036779D01*
X107675247Y-57036779D02*
X107751438Y-56998684D01*
X107751438Y-56998684D02*
X107941914Y-56998684D01*
X107941914Y-56998684D02*
X108018104Y-57036779D01*
X108018104Y-57036779D02*
X108056200Y-57074874D01*
X108056200Y-57074874D02*
X108094295Y-57151065D01*
X108094295Y-57151065D02*
X108094295Y-57379636D01*
X108094295Y-57379636D02*
X108056200Y-57455827D01*
X108056200Y-57455827D02*
X108018104Y-57493922D01*
X107294295Y-56770112D02*
X108094295Y-56503445D01*
X108094295Y-56503445D02*
X107294295Y-56236779D01*
X107294295Y-56046303D02*
X107294295Y-55551065D01*
X107294295Y-55551065D02*
X107599057Y-55817731D01*
X107599057Y-55817731D02*
X107599057Y-55703446D01*
X107599057Y-55703446D02*
X107637152Y-55627255D01*
X107637152Y-55627255D02*
X107675247Y-55589160D01*
X107675247Y-55589160D02*
X107751438Y-55551065D01*
X107751438Y-55551065D02*
X107941914Y-55551065D01*
X107941914Y-55551065D02*
X108018104Y-55589160D01*
X108018104Y-55589160D02*
X108056200Y-55627255D01*
X108056200Y-55627255D02*
X108094295Y-55703446D01*
X108094295Y-55703446D02*
X108094295Y-55932017D01*
X108094295Y-55932017D02*
X108056200Y-56008208D01*
X108056200Y-56008208D02*
X108018104Y-56046303D01*
X108432390Y-94927255D02*
X108394295Y-95003445D01*
X108394295Y-95003445D02*
X108394295Y-95117731D01*
X108394295Y-95117731D02*
X108432390Y-95232017D01*
X108432390Y-95232017D02*
X108508580Y-95308207D01*
X108508580Y-95308207D02*
X108584771Y-95346302D01*
X108584771Y-95346302D02*
X108737152Y-95384398D01*
X108737152Y-95384398D02*
X108851438Y-95384398D01*
X108851438Y-95384398D02*
X109003819Y-95346302D01*
X109003819Y-95346302D02*
X109080009Y-95308207D01*
X109080009Y-95308207D02*
X109156200Y-95232017D01*
X109156200Y-95232017D02*
X109194295Y-95117731D01*
X109194295Y-95117731D02*
X109194295Y-95041540D01*
X109194295Y-95041540D02*
X109156200Y-94927255D01*
X109156200Y-94927255D02*
X109118104Y-94889159D01*
X109118104Y-94889159D02*
X108851438Y-94889159D01*
X108851438Y-94889159D02*
X108851438Y-95041540D01*
X109194295Y-94546302D02*
X108394295Y-94546302D01*
X108394295Y-94546302D02*
X109194295Y-94089159D01*
X109194295Y-94089159D02*
X108394295Y-94089159D01*
X109194295Y-93708207D02*
X108394295Y-93708207D01*
X108394295Y-93708207D02*
X108394295Y-93517731D01*
X108394295Y-93517731D02*
X108432390Y-93403445D01*
X108432390Y-93403445D02*
X108508580Y-93327255D01*
X108508580Y-93327255D02*
X108584771Y-93289160D01*
X108584771Y-93289160D02*
X108737152Y-93251064D01*
X108737152Y-93251064D02*
X108851438Y-93251064D01*
X108851438Y-93251064D02*
X109003819Y-93289160D01*
X109003819Y-93289160D02*
X109080009Y-93327255D01*
X109080009Y-93327255D02*
X109156200Y-93403445D01*
X109156200Y-93403445D02*
X109194295Y-93517731D01*
X109194295Y-93517731D02*
X109194295Y-93708207D01*
X109094295Y-54174874D02*
X109094295Y-54555826D01*
X109094295Y-54555826D02*
X109475247Y-54593922D01*
X109475247Y-54593922D02*
X109437152Y-54555826D01*
X109437152Y-54555826D02*
X109399057Y-54479636D01*
X109399057Y-54479636D02*
X109399057Y-54289160D01*
X109399057Y-54289160D02*
X109437152Y-54212969D01*
X109437152Y-54212969D02*
X109475247Y-54174874D01*
X109475247Y-54174874D02*
X109551438Y-54136779D01*
X109551438Y-54136779D02*
X109741914Y-54136779D01*
X109741914Y-54136779D02*
X109818104Y-54174874D01*
X109818104Y-54174874D02*
X109856200Y-54212969D01*
X109856200Y-54212969D02*
X109894295Y-54289160D01*
X109894295Y-54289160D02*
X109894295Y-54479636D01*
X109894295Y-54479636D02*
X109856200Y-54555826D01*
X109856200Y-54555826D02*
X109818104Y-54593922D01*
X109094295Y-53908207D02*
X109894295Y-53641540D01*
X109894295Y-53641540D02*
X109094295Y-53374874D01*
X109094295Y-57593922D02*
X109094295Y-57098684D01*
X109094295Y-57098684D02*
X109399057Y-57365350D01*
X109399057Y-57365350D02*
X109399057Y-57251065D01*
X109399057Y-57251065D02*
X109437152Y-57174874D01*
X109437152Y-57174874D02*
X109475247Y-57136779D01*
X109475247Y-57136779D02*
X109551438Y-57098684D01*
X109551438Y-57098684D02*
X109741914Y-57098684D01*
X109741914Y-57098684D02*
X109818104Y-57136779D01*
X109818104Y-57136779D02*
X109856200Y-57174874D01*
X109856200Y-57174874D02*
X109894295Y-57251065D01*
X109894295Y-57251065D02*
X109894295Y-57479636D01*
X109894295Y-57479636D02*
X109856200Y-57555827D01*
X109856200Y-57555827D02*
X109818104Y-57593922D01*
X109094295Y-56870112D02*
X109894295Y-56603445D01*
X109894295Y-56603445D02*
X109094295Y-56336779D01*
X109094295Y-56146303D02*
X109094295Y-55651065D01*
X109094295Y-55651065D02*
X109399057Y-55917731D01*
X109399057Y-55917731D02*
X109399057Y-55803446D01*
X109399057Y-55803446D02*
X109437152Y-55727255D01*
X109437152Y-55727255D02*
X109475247Y-55689160D01*
X109475247Y-55689160D02*
X109551438Y-55651065D01*
X109551438Y-55651065D02*
X109741914Y-55651065D01*
X109741914Y-55651065D02*
X109818104Y-55689160D01*
X109818104Y-55689160D02*
X109856200Y-55727255D01*
X109856200Y-55727255D02*
X109894295Y-55803446D01*
X109894295Y-55803446D02*
X109894295Y-56032017D01*
X109894295Y-56032017D02*
X109856200Y-56108208D01*
X109856200Y-56108208D02*
X109818104Y-56146303D01*
X114294295Y-93974874D02*
X114294295Y-94355826D01*
X114294295Y-94355826D02*
X114675247Y-94393922D01*
X114675247Y-94393922D02*
X114637152Y-94355826D01*
X114637152Y-94355826D02*
X114599057Y-94279636D01*
X114599057Y-94279636D02*
X114599057Y-94089160D01*
X114599057Y-94089160D02*
X114637152Y-94012969D01*
X114637152Y-94012969D02*
X114675247Y-93974874D01*
X114675247Y-93974874D02*
X114751438Y-93936779D01*
X114751438Y-93936779D02*
X114941914Y-93936779D01*
X114941914Y-93936779D02*
X115018104Y-93974874D01*
X115018104Y-93974874D02*
X115056200Y-94012969D01*
X115056200Y-94012969D02*
X115094295Y-94089160D01*
X115094295Y-94089160D02*
X115094295Y-94279636D01*
X115094295Y-94279636D02*
X115056200Y-94355826D01*
X115056200Y-94355826D02*
X115018104Y-94393922D01*
X114294295Y-93708207D02*
X115094295Y-93441540D01*
X115094295Y-93441540D02*
X114294295Y-93174874D01*
X114294295Y-98493922D02*
X114294295Y-97998684D01*
X114294295Y-97998684D02*
X114599057Y-98265350D01*
X114599057Y-98265350D02*
X114599057Y-98151065D01*
X114599057Y-98151065D02*
X114637152Y-98074874D01*
X114637152Y-98074874D02*
X114675247Y-98036779D01*
X114675247Y-98036779D02*
X114751438Y-97998684D01*
X114751438Y-97998684D02*
X114941914Y-97998684D01*
X114941914Y-97998684D02*
X115018104Y-98036779D01*
X115018104Y-98036779D02*
X115056200Y-98074874D01*
X115056200Y-98074874D02*
X115094295Y-98151065D01*
X115094295Y-98151065D02*
X115094295Y-98379636D01*
X115094295Y-98379636D02*
X115056200Y-98455827D01*
X115056200Y-98455827D02*
X115018104Y-98493922D01*
X114294295Y-97770112D02*
X115094295Y-97503445D01*
X115094295Y-97503445D02*
X114294295Y-97236779D01*
X114294295Y-97046303D02*
X114294295Y-96551065D01*
X114294295Y-96551065D02*
X114599057Y-96817731D01*
X114599057Y-96817731D02*
X114599057Y-96703446D01*
X114599057Y-96703446D02*
X114637152Y-96627255D01*
X114637152Y-96627255D02*
X114675247Y-96589160D01*
X114675247Y-96589160D02*
X114751438Y-96551065D01*
X114751438Y-96551065D02*
X114941914Y-96551065D01*
X114941914Y-96551065D02*
X115018104Y-96589160D01*
X115018104Y-96589160D02*
X115056200Y-96627255D01*
X115056200Y-96627255D02*
X115094295Y-96703446D01*
X115094295Y-96703446D02*
X115094295Y-96932017D01*
X115094295Y-96932017D02*
X115056200Y-97008208D01*
X115056200Y-97008208D02*
X115018104Y-97046303D01*
X116032390Y-95027255D02*
X115994295Y-95103445D01*
X115994295Y-95103445D02*
X115994295Y-95217731D01*
X115994295Y-95217731D02*
X116032390Y-95332017D01*
X116032390Y-95332017D02*
X116108580Y-95408207D01*
X116108580Y-95408207D02*
X116184771Y-95446302D01*
X116184771Y-95446302D02*
X116337152Y-95484398D01*
X116337152Y-95484398D02*
X116451438Y-95484398D01*
X116451438Y-95484398D02*
X116603819Y-95446302D01*
X116603819Y-95446302D02*
X116680009Y-95408207D01*
X116680009Y-95408207D02*
X116756200Y-95332017D01*
X116756200Y-95332017D02*
X116794295Y-95217731D01*
X116794295Y-95217731D02*
X116794295Y-95141540D01*
X116794295Y-95141540D02*
X116756200Y-95027255D01*
X116756200Y-95027255D02*
X116718104Y-94989159D01*
X116718104Y-94989159D02*
X116451438Y-94989159D01*
X116451438Y-94989159D02*
X116451438Y-95141540D01*
X116794295Y-94646302D02*
X115994295Y-94646302D01*
X115994295Y-94646302D02*
X116794295Y-94189159D01*
X116794295Y-94189159D02*
X115994295Y-94189159D01*
X116794295Y-93808207D02*
X115994295Y-93808207D01*
X115994295Y-93808207D02*
X115994295Y-93617731D01*
X115994295Y-93617731D02*
X116032390Y-93503445D01*
X116032390Y-93503445D02*
X116108580Y-93427255D01*
X116108580Y-93427255D02*
X116184771Y-93389160D01*
X116184771Y-93389160D02*
X116337152Y-93351064D01*
X116337152Y-93351064D02*
X116451438Y-93351064D01*
X116451438Y-93351064D02*
X116603819Y-93389160D01*
X116603819Y-93389160D02*
X116680009Y-93427255D01*
X116680009Y-93427255D02*
X116756200Y-93503445D01*
X116756200Y-93503445D02*
X116794295Y-93617731D01*
X116794295Y-93617731D02*
X116794295Y-93808207D01*
X121794295Y-93974874D02*
X121794295Y-94355826D01*
X121794295Y-94355826D02*
X122175247Y-94393922D01*
X122175247Y-94393922D02*
X122137152Y-94355826D01*
X122137152Y-94355826D02*
X122099057Y-94279636D01*
X122099057Y-94279636D02*
X122099057Y-94089160D01*
X122099057Y-94089160D02*
X122137152Y-94012969D01*
X122137152Y-94012969D02*
X122175247Y-93974874D01*
X122175247Y-93974874D02*
X122251438Y-93936779D01*
X122251438Y-93936779D02*
X122441914Y-93936779D01*
X122441914Y-93936779D02*
X122518104Y-93974874D01*
X122518104Y-93974874D02*
X122556200Y-94012969D01*
X122556200Y-94012969D02*
X122594295Y-94089160D01*
X122594295Y-94089160D02*
X122594295Y-94279636D01*
X122594295Y-94279636D02*
X122556200Y-94355826D01*
X122556200Y-94355826D02*
X122518104Y-94393922D01*
X121794295Y-93708207D02*
X122594295Y-93441540D01*
X122594295Y-93441540D02*
X121794295Y-93174874D01*
X121794295Y-98493922D02*
X121794295Y-97998684D01*
X121794295Y-97998684D02*
X122099057Y-98265350D01*
X122099057Y-98265350D02*
X122099057Y-98151065D01*
X122099057Y-98151065D02*
X122137152Y-98074874D01*
X122137152Y-98074874D02*
X122175247Y-98036779D01*
X122175247Y-98036779D02*
X122251438Y-97998684D01*
X122251438Y-97998684D02*
X122441914Y-97998684D01*
X122441914Y-97998684D02*
X122518104Y-98036779D01*
X122518104Y-98036779D02*
X122556200Y-98074874D01*
X122556200Y-98074874D02*
X122594295Y-98151065D01*
X122594295Y-98151065D02*
X122594295Y-98379636D01*
X122594295Y-98379636D02*
X122556200Y-98455827D01*
X122556200Y-98455827D02*
X122518104Y-98493922D01*
X121794295Y-97770112D02*
X122594295Y-97503445D01*
X122594295Y-97503445D02*
X121794295Y-97236779D01*
X121794295Y-97046303D02*
X121794295Y-96551065D01*
X121794295Y-96551065D02*
X122099057Y-96817731D01*
X122099057Y-96817731D02*
X122099057Y-96703446D01*
X122099057Y-96703446D02*
X122137152Y-96627255D01*
X122137152Y-96627255D02*
X122175247Y-96589160D01*
X122175247Y-96589160D02*
X122251438Y-96551065D01*
X122251438Y-96551065D02*
X122441914Y-96551065D01*
X122441914Y-96551065D02*
X122518104Y-96589160D01*
X122518104Y-96589160D02*
X122556200Y-96627255D01*
X122556200Y-96627255D02*
X122594295Y-96703446D01*
X122594295Y-96703446D02*
X122594295Y-96932017D01*
X122594295Y-96932017D02*
X122556200Y-97008208D01*
X122556200Y-97008208D02*
X122518104Y-97046303D01*
X123532390Y-95027255D02*
X123494295Y-95103445D01*
X123494295Y-95103445D02*
X123494295Y-95217731D01*
X123494295Y-95217731D02*
X123532390Y-95332017D01*
X123532390Y-95332017D02*
X123608580Y-95408207D01*
X123608580Y-95408207D02*
X123684771Y-95446302D01*
X123684771Y-95446302D02*
X123837152Y-95484398D01*
X123837152Y-95484398D02*
X123951438Y-95484398D01*
X123951438Y-95484398D02*
X124103819Y-95446302D01*
X124103819Y-95446302D02*
X124180009Y-95408207D01*
X124180009Y-95408207D02*
X124256200Y-95332017D01*
X124256200Y-95332017D02*
X124294295Y-95217731D01*
X124294295Y-95217731D02*
X124294295Y-95141540D01*
X124294295Y-95141540D02*
X124256200Y-95027255D01*
X124256200Y-95027255D02*
X124218104Y-94989159D01*
X124218104Y-94989159D02*
X123951438Y-94989159D01*
X123951438Y-94989159D02*
X123951438Y-95141540D01*
X124294295Y-94646302D02*
X123494295Y-94646302D01*
X123494295Y-94646302D02*
X124294295Y-94189159D01*
X124294295Y-94189159D02*
X123494295Y-94189159D01*
X124294295Y-93808207D02*
X123494295Y-93808207D01*
X123494295Y-93808207D02*
X123494295Y-93617731D01*
X123494295Y-93617731D02*
X123532390Y-93503445D01*
X123532390Y-93503445D02*
X123608580Y-93427255D01*
X123608580Y-93427255D02*
X123684771Y-93389160D01*
X123684771Y-93389160D02*
X123837152Y-93351064D01*
X123837152Y-93351064D02*
X123951438Y-93351064D01*
X123951438Y-93351064D02*
X124103819Y-93389160D01*
X124103819Y-93389160D02*
X124180009Y-93427255D01*
X124180009Y-93427255D02*
X124256200Y-93503445D01*
X124256200Y-93503445D02*
X124294295Y-93617731D01*
X124294295Y-93617731D02*
X124294295Y-93808207D01*
X129294295Y-93974874D02*
X129294295Y-94355826D01*
X129294295Y-94355826D02*
X129675247Y-94393922D01*
X129675247Y-94393922D02*
X129637152Y-94355826D01*
X129637152Y-94355826D02*
X129599057Y-94279636D01*
X129599057Y-94279636D02*
X129599057Y-94089160D01*
X129599057Y-94089160D02*
X129637152Y-94012969D01*
X129637152Y-94012969D02*
X129675247Y-93974874D01*
X129675247Y-93974874D02*
X129751438Y-93936779D01*
X129751438Y-93936779D02*
X129941914Y-93936779D01*
X129941914Y-93936779D02*
X130018104Y-93974874D01*
X130018104Y-93974874D02*
X130056200Y-94012969D01*
X130056200Y-94012969D02*
X130094295Y-94089160D01*
X130094295Y-94089160D02*
X130094295Y-94279636D01*
X130094295Y-94279636D02*
X130056200Y-94355826D01*
X130056200Y-94355826D02*
X130018104Y-94393922D01*
X129294295Y-93708207D02*
X130094295Y-93441540D01*
X130094295Y-93441540D02*
X129294295Y-93174874D01*
X129294295Y-98493922D02*
X129294295Y-97998684D01*
X129294295Y-97998684D02*
X129599057Y-98265350D01*
X129599057Y-98265350D02*
X129599057Y-98151065D01*
X129599057Y-98151065D02*
X129637152Y-98074874D01*
X129637152Y-98074874D02*
X129675247Y-98036779D01*
X129675247Y-98036779D02*
X129751438Y-97998684D01*
X129751438Y-97998684D02*
X129941914Y-97998684D01*
X129941914Y-97998684D02*
X130018104Y-98036779D01*
X130018104Y-98036779D02*
X130056200Y-98074874D01*
X130056200Y-98074874D02*
X130094295Y-98151065D01*
X130094295Y-98151065D02*
X130094295Y-98379636D01*
X130094295Y-98379636D02*
X130056200Y-98455827D01*
X130056200Y-98455827D02*
X130018104Y-98493922D01*
X129294295Y-97770112D02*
X130094295Y-97503445D01*
X130094295Y-97503445D02*
X129294295Y-97236779D01*
X129294295Y-97046303D02*
X129294295Y-96551065D01*
X129294295Y-96551065D02*
X129599057Y-96817731D01*
X129599057Y-96817731D02*
X129599057Y-96703446D01*
X129599057Y-96703446D02*
X129637152Y-96627255D01*
X129637152Y-96627255D02*
X129675247Y-96589160D01*
X129675247Y-96589160D02*
X129751438Y-96551065D01*
X129751438Y-96551065D02*
X129941914Y-96551065D01*
X129941914Y-96551065D02*
X130018104Y-96589160D01*
X130018104Y-96589160D02*
X130056200Y-96627255D01*
X130056200Y-96627255D02*
X130094295Y-96703446D01*
X130094295Y-96703446D02*
X130094295Y-96932017D01*
X130094295Y-96932017D02*
X130056200Y-97008208D01*
X130056200Y-97008208D02*
X130018104Y-97046303D01*
X101928571Y-98569819D02*
X101928571Y-99379342D01*
X101928571Y-99379342D02*
X101976190Y-99474580D01*
X101976190Y-99474580D02*
X102023809Y-99522200D01*
X102023809Y-99522200D02*
X102119047Y-99569819D01*
X102119047Y-99569819D02*
X102309523Y-99569819D01*
X102309523Y-99569819D02*
X102404761Y-99522200D01*
X102404761Y-99522200D02*
X102452380Y-99474580D01*
X102452380Y-99474580D02*
X102499999Y-99379342D01*
X102499999Y-99379342D02*
X102499999Y-98569819D01*
X102928571Y-99522200D02*
X103071428Y-99569819D01*
X103071428Y-99569819D02*
X103309523Y-99569819D01*
X103309523Y-99569819D02*
X103404761Y-99522200D01*
X103404761Y-99522200D02*
X103452380Y-99474580D01*
X103452380Y-99474580D02*
X103499999Y-99379342D01*
X103499999Y-99379342D02*
X103499999Y-99284104D01*
X103499999Y-99284104D02*
X103452380Y-99188866D01*
X103452380Y-99188866D02*
X103404761Y-99141247D01*
X103404761Y-99141247D02*
X103309523Y-99093628D01*
X103309523Y-99093628D02*
X103119047Y-99046009D01*
X103119047Y-99046009D02*
X103023809Y-98998390D01*
X103023809Y-98998390D02*
X102976190Y-98950771D01*
X102976190Y-98950771D02*
X102928571Y-98855533D01*
X102928571Y-98855533D02*
X102928571Y-98760295D01*
X102928571Y-98760295D02*
X102976190Y-98665057D01*
X102976190Y-98665057D02*
X103023809Y-98617438D01*
X103023809Y-98617438D02*
X103119047Y-98569819D01*
X103119047Y-98569819D02*
X103357142Y-98569819D01*
X103357142Y-98569819D02*
X103499999Y-98617438D01*
X103880952Y-99284104D02*
X104357142Y-99284104D01*
X103785714Y-99569819D02*
X104119047Y-98569819D01*
X104119047Y-98569819D02*
X104452380Y-99569819D01*
X105357142Y-99569819D02*
X105023809Y-99093628D01*
X104785714Y-99569819D02*
X104785714Y-98569819D01*
X104785714Y-98569819D02*
X105166666Y-98569819D01*
X105166666Y-98569819D02*
X105261904Y-98617438D01*
X105261904Y-98617438D02*
X105309523Y-98665057D01*
X105309523Y-98665057D02*
X105357142Y-98760295D01*
X105357142Y-98760295D02*
X105357142Y-98903152D01*
X105357142Y-98903152D02*
X105309523Y-98998390D01*
X105309523Y-98998390D02*
X105261904Y-99046009D01*
X105261904Y-99046009D02*
X105166666Y-99093628D01*
X105166666Y-99093628D02*
X104785714Y-99093628D01*
X105642857Y-98569819D02*
X106214285Y-98569819D01*
X105928571Y-99569819D02*
X105928571Y-98569819D01*
X109547619Y-99569819D02*
X109547619Y-98569819D01*
X109976190Y-98665057D02*
X110023809Y-98617438D01*
X110023809Y-98617438D02*
X110119047Y-98569819D01*
X110119047Y-98569819D02*
X110357142Y-98569819D01*
X110357142Y-98569819D02*
X110452380Y-98617438D01*
X110452380Y-98617438D02*
X110499999Y-98665057D01*
X110499999Y-98665057D02*
X110547618Y-98760295D01*
X110547618Y-98760295D02*
X110547618Y-98855533D01*
X110547618Y-98855533D02*
X110499999Y-98998390D01*
X110499999Y-98998390D02*
X109928571Y-99569819D01*
X109928571Y-99569819D02*
X110547618Y-99569819D01*
X111547618Y-99474580D02*
X111499999Y-99522200D01*
X111499999Y-99522200D02*
X111357142Y-99569819D01*
X111357142Y-99569819D02*
X111261904Y-99569819D01*
X111261904Y-99569819D02*
X111119047Y-99522200D01*
X111119047Y-99522200D02*
X111023809Y-99426961D01*
X111023809Y-99426961D02*
X110976190Y-99331723D01*
X110976190Y-99331723D02*
X110928571Y-99141247D01*
X110928571Y-99141247D02*
X110928571Y-98998390D01*
X110928571Y-98998390D02*
X110976190Y-98807914D01*
X110976190Y-98807914D02*
X111023809Y-98712676D01*
X111023809Y-98712676D02*
X111119047Y-98617438D01*
X111119047Y-98617438D02*
X111261904Y-98569819D01*
X111261904Y-98569819D02*
X111357142Y-98569819D01*
X111357142Y-98569819D02*
X111499999Y-98617438D01*
X111499999Y-98617438D02*
X111547618Y-98665057D01*
X112499999Y-99569819D02*
X111928571Y-99569819D01*
X112214285Y-99569819D02*
X112214285Y-98569819D01*
X112214285Y-98569819D02*
X112119047Y-98712676D01*
X112119047Y-98712676D02*
X112023809Y-98807914D01*
X112023809Y-98807914D02*
X111928571Y-98855533D01*
X116190476Y-99569819D02*
X116190476Y-98569819D01*
X116619047Y-98665057D02*
X116666666Y-98617438D01*
X116666666Y-98617438D02*
X116761904Y-98569819D01*
X116761904Y-98569819D02*
X116999999Y-98569819D01*
X116999999Y-98569819D02*
X117095237Y-98617438D01*
X117095237Y-98617438D02*
X117142856Y-98665057D01*
X117142856Y-98665057D02*
X117190475Y-98760295D01*
X117190475Y-98760295D02*
X117190475Y-98855533D01*
X117190475Y-98855533D02*
X117142856Y-98998390D01*
X117142856Y-98998390D02*
X116571428Y-99569819D01*
X116571428Y-99569819D02*
X117190475Y-99569819D01*
X118190475Y-99474580D02*
X118142856Y-99522200D01*
X118142856Y-99522200D02*
X117999999Y-99569819D01*
X117999999Y-99569819D02*
X117904761Y-99569819D01*
X117904761Y-99569819D02*
X117761904Y-99522200D01*
X117761904Y-99522200D02*
X117666666Y-99426961D01*
X117666666Y-99426961D02*
X117619047Y-99331723D01*
X117619047Y-99331723D02*
X117571428Y-99141247D01*
X117571428Y-99141247D02*
X117571428Y-98998390D01*
X117571428Y-98998390D02*
X117619047Y-98807914D01*
X117619047Y-98807914D02*
X117666666Y-98712676D01*
X117666666Y-98712676D02*
X117761904Y-98617438D01*
X117761904Y-98617438D02*
X117904761Y-98569819D01*
X117904761Y-98569819D02*
X117999999Y-98569819D01*
X117999999Y-98569819D02*
X118142856Y-98617438D01*
X118142856Y-98617438D02*
X118190475Y-98665057D01*
X118571428Y-98665057D02*
X118619047Y-98617438D01*
X118619047Y-98617438D02*
X118714285Y-98569819D01*
X118714285Y-98569819D02*
X118952380Y-98569819D01*
X118952380Y-98569819D02*
X119047618Y-98617438D01*
X119047618Y-98617438D02*
X119095237Y-98665057D01*
X119095237Y-98665057D02*
X119142856Y-98760295D01*
X119142856Y-98760295D02*
X119142856Y-98855533D01*
X119142856Y-98855533D02*
X119095237Y-98998390D01*
X119095237Y-98998390D02*
X118523809Y-99569819D01*
X118523809Y-99569819D02*
X119142856Y-99569819D01*
X120857142Y-99569819D02*
X120285714Y-99569819D01*
X120571428Y-99569819D02*
X120571428Y-98569819D01*
X120571428Y-98569819D02*
X120476190Y-98712676D01*
X120476190Y-98712676D02*
X120380952Y-98807914D01*
X120380952Y-98807914D02*
X120285714Y-98855533D01*
X123690476Y-99669819D02*
X123690476Y-98669819D01*
X124119047Y-98765057D02*
X124166666Y-98717438D01*
X124166666Y-98717438D02*
X124261904Y-98669819D01*
X124261904Y-98669819D02*
X124499999Y-98669819D01*
X124499999Y-98669819D02*
X124595237Y-98717438D01*
X124595237Y-98717438D02*
X124642856Y-98765057D01*
X124642856Y-98765057D02*
X124690475Y-98860295D01*
X124690475Y-98860295D02*
X124690475Y-98955533D01*
X124690475Y-98955533D02*
X124642856Y-99098390D01*
X124642856Y-99098390D02*
X124071428Y-99669819D01*
X124071428Y-99669819D02*
X124690475Y-99669819D01*
X125690475Y-99574580D02*
X125642856Y-99622200D01*
X125642856Y-99622200D02*
X125499999Y-99669819D01*
X125499999Y-99669819D02*
X125404761Y-99669819D01*
X125404761Y-99669819D02*
X125261904Y-99622200D01*
X125261904Y-99622200D02*
X125166666Y-99526961D01*
X125166666Y-99526961D02*
X125119047Y-99431723D01*
X125119047Y-99431723D02*
X125071428Y-99241247D01*
X125071428Y-99241247D02*
X125071428Y-99098390D01*
X125071428Y-99098390D02*
X125119047Y-98907914D01*
X125119047Y-98907914D02*
X125166666Y-98812676D01*
X125166666Y-98812676D02*
X125261904Y-98717438D01*
X125261904Y-98717438D02*
X125404761Y-98669819D01*
X125404761Y-98669819D02*
X125499999Y-98669819D01*
X125499999Y-98669819D02*
X125642856Y-98717438D01*
X125642856Y-98717438D02*
X125690475Y-98765057D01*
X126071428Y-98765057D02*
X126119047Y-98717438D01*
X126119047Y-98717438D02*
X126214285Y-98669819D01*
X126214285Y-98669819D02*
X126452380Y-98669819D01*
X126452380Y-98669819D02*
X126547618Y-98717438D01*
X126547618Y-98717438D02*
X126595237Y-98765057D01*
X126595237Y-98765057D02*
X126642856Y-98860295D01*
X126642856Y-98860295D02*
X126642856Y-98955533D01*
X126642856Y-98955533D02*
X126595237Y-99098390D01*
X126595237Y-99098390D02*
X126023809Y-99669819D01*
X126023809Y-99669819D02*
X126642856Y-99669819D01*
X127785714Y-98765057D02*
X127833333Y-98717438D01*
X127833333Y-98717438D02*
X127928571Y-98669819D01*
X127928571Y-98669819D02*
X128166666Y-98669819D01*
X128166666Y-98669819D02*
X128261904Y-98717438D01*
X128261904Y-98717438D02*
X128309523Y-98765057D01*
X128309523Y-98765057D02*
X128357142Y-98860295D01*
X128357142Y-98860295D02*
X128357142Y-98955533D01*
X128357142Y-98955533D02*
X128309523Y-99098390D01*
X128309523Y-99098390D02*
X127738095Y-99669819D01*
X127738095Y-99669819D02*
X128357142Y-99669819D01*
X105499999Y-50977800D02*
X105357142Y-50930180D01*
X105357142Y-50930180D02*
X105119047Y-50930180D01*
X105119047Y-50930180D02*
X105023809Y-50977800D01*
X105023809Y-50977800D02*
X104976190Y-51025419D01*
X104976190Y-51025419D02*
X104928571Y-51120657D01*
X104928571Y-51120657D02*
X104928571Y-51215895D01*
X104928571Y-51215895D02*
X104976190Y-51311133D01*
X104976190Y-51311133D02*
X105023809Y-51358752D01*
X105023809Y-51358752D02*
X105119047Y-51406371D01*
X105119047Y-51406371D02*
X105309523Y-51453990D01*
X105309523Y-51453990D02*
X105404761Y-51501609D01*
X105404761Y-51501609D02*
X105452380Y-51549228D01*
X105452380Y-51549228D02*
X105499999Y-51644466D01*
X105499999Y-51644466D02*
X105499999Y-51739704D01*
X105499999Y-51739704D02*
X105452380Y-51834942D01*
X105452380Y-51834942D02*
X105404761Y-51882561D01*
X105404761Y-51882561D02*
X105309523Y-51930180D01*
X105309523Y-51930180D02*
X105071428Y-51930180D01*
X105071428Y-51930180D02*
X104928571Y-51882561D01*
X104499999Y-50930180D02*
X104499999Y-51930180D01*
X104499999Y-51930180D02*
X104119047Y-51930180D01*
X104119047Y-51930180D02*
X104023809Y-51882561D01*
X104023809Y-51882561D02*
X103976190Y-51834942D01*
X103976190Y-51834942D02*
X103928571Y-51739704D01*
X103928571Y-51739704D02*
X103928571Y-51596847D01*
X103928571Y-51596847D02*
X103976190Y-51501609D01*
X103976190Y-51501609D02*
X104023809Y-51453990D01*
X104023809Y-51453990D02*
X104119047Y-51406371D01*
X104119047Y-51406371D02*
X104499999Y-51406371D01*
X103499999Y-50930180D02*
X103499999Y-51930180D01*
X102500000Y-50930180D02*
X103071428Y-50930180D01*
X102785714Y-50930180D02*
X102785714Y-51930180D01*
X102785714Y-51930180D02*
X102880952Y-51787323D01*
X102880952Y-51787323D02*
X102976190Y-51692085D01*
X102976190Y-51692085D02*
X103071428Y-51644466D01*
X113214285Y-51215895D02*
X112738095Y-51215895D01*
X113309523Y-50930180D02*
X112976190Y-51930180D01*
X112976190Y-51930180D02*
X112642857Y-50930180D01*
X112309523Y-50930180D02*
X112309523Y-51930180D01*
X112309523Y-51930180D02*
X112071428Y-51930180D01*
X112071428Y-51930180D02*
X111928571Y-51882561D01*
X111928571Y-51882561D02*
X111833333Y-51787323D01*
X111833333Y-51787323D02*
X111785714Y-51692085D01*
X111785714Y-51692085D02*
X111738095Y-51501609D01*
X111738095Y-51501609D02*
X111738095Y-51358752D01*
X111738095Y-51358752D02*
X111785714Y-51168276D01*
X111785714Y-51168276D02*
X111833333Y-51073038D01*
X111833333Y-51073038D02*
X111928571Y-50977800D01*
X111928571Y-50977800D02*
X112071428Y-50930180D01*
X112071428Y-50930180D02*
X112309523Y-50930180D01*
X110738095Y-51025419D02*
X110785714Y-50977800D01*
X110785714Y-50977800D02*
X110928571Y-50930180D01*
X110928571Y-50930180D02*
X111023809Y-50930180D01*
X111023809Y-50930180D02*
X111166666Y-50977800D01*
X111166666Y-50977800D02*
X111261904Y-51073038D01*
X111261904Y-51073038D02*
X111309523Y-51168276D01*
X111309523Y-51168276D02*
X111357142Y-51358752D01*
X111357142Y-51358752D02*
X111357142Y-51501609D01*
X111357142Y-51501609D02*
X111309523Y-51692085D01*
X111309523Y-51692085D02*
X111261904Y-51787323D01*
X111261904Y-51787323D02*
X111166666Y-51882561D01*
X111166666Y-51882561D02*
X111023809Y-51930180D01*
X111023809Y-51930180D02*
X110928571Y-51930180D01*
X110928571Y-51930180D02*
X110785714Y-51882561D01*
X110785714Y-51882561D02*
X110738095Y-51834942D01*
X110357142Y-51834942D02*
X110309523Y-51882561D01*
X110309523Y-51882561D02*
X110214285Y-51930180D01*
X110214285Y-51930180D02*
X109976190Y-51930180D01*
X109976190Y-51930180D02*
X109880952Y-51882561D01*
X109880952Y-51882561D02*
X109833333Y-51834942D01*
X109833333Y-51834942D02*
X109785714Y-51739704D01*
X109785714Y-51739704D02*
X109785714Y-51644466D01*
X109785714Y-51644466D02*
X109833333Y-51501609D01*
X109833333Y-51501609D02*
X110404761Y-50930180D01*
X110404761Y-50930180D02*
X109785714Y-50930180D01*
X120714285Y-51215895D02*
X120238095Y-51215895D01*
X120809523Y-50930180D02*
X120476190Y-51930180D01*
X120476190Y-51930180D02*
X120142857Y-50930180D01*
X119809523Y-50930180D02*
X119809523Y-51930180D01*
X119809523Y-51930180D02*
X119571428Y-51930180D01*
X119571428Y-51930180D02*
X119428571Y-51882561D01*
X119428571Y-51882561D02*
X119333333Y-51787323D01*
X119333333Y-51787323D02*
X119285714Y-51692085D01*
X119285714Y-51692085D02*
X119238095Y-51501609D01*
X119238095Y-51501609D02*
X119238095Y-51358752D01*
X119238095Y-51358752D02*
X119285714Y-51168276D01*
X119285714Y-51168276D02*
X119333333Y-51073038D01*
X119333333Y-51073038D02*
X119428571Y-50977800D01*
X119428571Y-50977800D02*
X119571428Y-50930180D01*
X119571428Y-50930180D02*
X119809523Y-50930180D01*
X118238095Y-51025419D02*
X118285714Y-50977800D01*
X118285714Y-50977800D02*
X118428571Y-50930180D01*
X118428571Y-50930180D02*
X118523809Y-50930180D01*
X118523809Y-50930180D02*
X118666666Y-50977800D01*
X118666666Y-50977800D02*
X118761904Y-51073038D01*
X118761904Y-51073038D02*
X118809523Y-51168276D01*
X118809523Y-51168276D02*
X118857142Y-51358752D01*
X118857142Y-51358752D02*
X118857142Y-51501609D01*
X118857142Y-51501609D02*
X118809523Y-51692085D01*
X118809523Y-51692085D02*
X118761904Y-51787323D01*
X118761904Y-51787323D02*
X118666666Y-51882561D01*
X118666666Y-51882561D02*
X118523809Y-51930180D01*
X118523809Y-51930180D02*
X118428571Y-51930180D01*
X118428571Y-51930180D02*
X118285714Y-51882561D01*
X118285714Y-51882561D02*
X118238095Y-51834942D01*
X117285714Y-50930180D02*
X117857142Y-50930180D01*
X117571428Y-50930180D02*
X117571428Y-51930180D01*
X117571428Y-51930180D02*
X117666666Y-51787323D01*
X117666666Y-51787323D02*
X117761904Y-51692085D01*
X117761904Y-51692085D02*
X117857142Y-51644466D01*
X127666666Y-50930180D02*
X127666666Y-51930180D01*
X127666666Y-51930180D02*
X127095238Y-50930180D01*
X127095238Y-50930180D02*
X127095238Y-51930180D01*
X126761904Y-51930180D02*
X126190476Y-51930180D01*
X126476190Y-50930180D02*
X126476190Y-51930180D01*
X125285714Y-51025419D02*
X125333333Y-50977800D01*
X125333333Y-50977800D02*
X125476190Y-50930180D01*
X125476190Y-50930180D02*
X125571428Y-50930180D01*
X125571428Y-50930180D02*
X125714285Y-50977800D01*
X125714285Y-50977800D02*
X125809523Y-51073038D01*
X125809523Y-51073038D02*
X125857142Y-51168276D01*
X125857142Y-51168276D02*
X125904761Y-51358752D01*
X125904761Y-51358752D02*
X125904761Y-51501609D01*
X125904761Y-51501609D02*
X125857142Y-51692085D01*
X125857142Y-51692085D02*
X125809523Y-51787323D01*
X125809523Y-51787323D02*
X125714285Y-51882561D01*
X125714285Y-51882561D02*
X125571428Y-51930180D01*
X125571428Y-51930180D02*
X125476190Y-51930180D01*
X125476190Y-51930180D02*
X125333333Y-51882561D01*
X125333333Y-51882561D02*
X125285714Y-51834942D01*
X128833333Y-85464819D02*
X128500000Y-84988628D01*
X128261905Y-85464819D02*
X128261905Y-84464819D01*
X128261905Y-84464819D02*
X128642857Y-84464819D01*
X128642857Y-84464819D02*
X128738095Y-84512438D01*
X128738095Y-84512438D02*
X128785714Y-84560057D01*
X128785714Y-84560057D02*
X128833333Y-84655295D01*
X128833333Y-84655295D02*
X128833333Y-84798152D01*
X128833333Y-84798152D02*
X128785714Y-84893390D01*
X128785714Y-84893390D02*
X128738095Y-84941009D01*
X128738095Y-84941009D02*
X128642857Y-84988628D01*
X128642857Y-84988628D02*
X128261905Y-84988628D01*
X129404762Y-84893390D02*
X129309524Y-84845771D01*
X129309524Y-84845771D02*
X129261905Y-84798152D01*
X129261905Y-84798152D02*
X129214286Y-84702914D01*
X129214286Y-84702914D02*
X129214286Y-84655295D01*
X129214286Y-84655295D02*
X129261905Y-84560057D01*
X129261905Y-84560057D02*
X129309524Y-84512438D01*
X129309524Y-84512438D02*
X129404762Y-84464819D01*
X129404762Y-84464819D02*
X129595238Y-84464819D01*
X129595238Y-84464819D02*
X129690476Y-84512438D01*
X129690476Y-84512438D02*
X129738095Y-84560057D01*
X129738095Y-84560057D02*
X129785714Y-84655295D01*
X129785714Y-84655295D02*
X129785714Y-84702914D01*
X129785714Y-84702914D02*
X129738095Y-84798152D01*
X129738095Y-84798152D02*
X129690476Y-84845771D01*
X129690476Y-84845771D02*
X129595238Y-84893390D01*
X129595238Y-84893390D02*
X129404762Y-84893390D01*
X129404762Y-84893390D02*
X129309524Y-84941009D01*
X129309524Y-84941009D02*
X129261905Y-84988628D01*
X129261905Y-84988628D02*
X129214286Y-85083866D01*
X129214286Y-85083866D02*
X129214286Y-85274342D01*
X129214286Y-85274342D02*
X129261905Y-85369580D01*
X129261905Y-85369580D02*
X129309524Y-85417200D01*
X129309524Y-85417200D02*
X129404762Y-85464819D01*
X129404762Y-85464819D02*
X129595238Y-85464819D01*
X129595238Y-85464819D02*
X129690476Y-85417200D01*
X129690476Y-85417200D02*
X129738095Y-85369580D01*
X129738095Y-85369580D02*
X129785714Y-85274342D01*
X129785714Y-85274342D02*
X129785714Y-85083866D01*
X129785714Y-85083866D02*
X129738095Y-84988628D01*
X129738095Y-84988628D02*
X129690476Y-84941009D01*
X129690476Y-84941009D02*
X129595238Y-84893390D01*
X127204819Y-65035713D02*
X127204819Y-64464285D01*
X128204819Y-64749999D02*
X127204819Y-64749999D01*
X128204819Y-64130951D02*
X127204819Y-64130951D01*
X127681009Y-64130951D02*
X127681009Y-63559523D01*
X128204819Y-63559523D02*
X127204819Y-63559523D01*
X128204819Y-62559523D02*
X128204819Y-63130951D01*
X128204819Y-62845237D02*
X127204819Y-62845237D01*
X127204819Y-62845237D02*
X127347676Y-62940475D01*
X127347676Y-62940475D02*
X127442914Y-63035713D01*
X127442914Y-63035713D02*
X127490533Y-63130951D01*
X134659524Y-94786104D02*
X134621428Y-94824200D01*
X134621428Y-94824200D02*
X134507143Y-94862295D01*
X134507143Y-94862295D02*
X134430952Y-94862295D01*
X134430952Y-94862295D02*
X134316666Y-94824200D01*
X134316666Y-94824200D02*
X134240476Y-94748009D01*
X134240476Y-94748009D02*
X134202381Y-94671819D01*
X134202381Y-94671819D02*
X134164285Y-94519438D01*
X134164285Y-94519438D02*
X134164285Y-94405152D01*
X134164285Y-94405152D02*
X134202381Y-94252771D01*
X134202381Y-94252771D02*
X134240476Y-94176580D01*
X134240476Y-94176580D02*
X134316666Y-94100390D01*
X134316666Y-94100390D02*
X134430952Y-94062295D01*
X134430952Y-94062295D02*
X134507143Y-94062295D01*
X134507143Y-94062295D02*
X134621428Y-94100390D01*
X134621428Y-94100390D02*
X134659524Y-94138485D01*
X135002381Y-94862295D02*
X135002381Y-94062295D01*
X135002381Y-94062295D02*
X135269047Y-94633723D01*
X135269047Y-94633723D02*
X135535714Y-94062295D01*
X135535714Y-94062295D02*
X135535714Y-94862295D01*
X136335714Y-94862295D02*
X135878571Y-94862295D01*
X136107143Y-94862295D02*
X136107143Y-94062295D01*
X136107143Y-94062295D02*
X136030952Y-94176580D01*
X136030952Y-94176580D02*
X135954762Y-94252771D01*
X135954762Y-94252771D02*
X135878571Y-94290866D01*
X136583333Y-86109580D02*
X136535714Y-86157200D01*
X136535714Y-86157200D02*
X136392857Y-86204819D01*
X136392857Y-86204819D02*
X136297619Y-86204819D01*
X136297619Y-86204819D02*
X136154762Y-86157200D01*
X136154762Y-86157200D02*
X136059524Y-86061961D01*
X136059524Y-86061961D02*
X136011905Y-85966723D01*
X136011905Y-85966723D02*
X135964286Y-85776247D01*
X135964286Y-85776247D02*
X135964286Y-85633390D01*
X135964286Y-85633390D02*
X136011905Y-85442914D01*
X136011905Y-85442914D02*
X136059524Y-85347676D01*
X136059524Y-85347676D02*
X136154762Y-85252438D01*
X136154762Y-85252438D02*
X136297619Y-85204819D01*
X136297619Y-85204819D02*
X136392857Y-85204819D01*
X136392857Y-85204819D02*
X136535714Y-85252438D01*
X136535714Y-85252438D02*
X136583333Y-85300057D01*
X137535714Y-86204819D02*
X136964286Y-86204819D01*
X137250000Y-86204819D02*
X137250000Y-85204819D01*
X137250000Y-85204819D02*
X137154762Y-85347676D01*
X137154762Y-85347676D02*
X137059524Y-85442914D01*
X137059524Y-85442914D02*
X136964286Y-85490533D01*
X113357142Y-85454819D02*
X113023809Y-84978628D01*
X112785714Y-85454819D02*
X112785714Y-84454819D01*
X112785714Y-84454819D02*
X113166666Y-84454819D01*
X113166666Y-84454819D02*
X113261904Y-84502438D01*
X113261904Y-84502438D02*
X113309523Y-84550057D01*
X113309523Y-84550057D02*
X113357142Y-84645295D01*
X113357142Y-84645295D02*
X113357142Y-84788152D01*
X113357142Y-84788152D02*
X113309523Y-84883390D01*
X113309523Y-84883390D02*
X113261904Y-84931009D01*
X113261904Y-84931009D02*
X113166666Y-84978628D01*
X113166666Y-84978628D02*
X112785714Y-84978628D01*
X114309523Y-85454819D02*
X113738095Y-85454819D01*
X114023809Y-85454819D02*
X114023809Y-84454819D01*
X114023809Y-84454819D02*
X113928571Y-84597676D01*
X113928571Y-84597676D02*
X113833333Y-84692914D01*
X113833333Y-84692914D02*
X113738095Y-84740533D01*
X115166666Y-84454819D02*
X114976190Y-84454819D01*
X114976190Y-84454819D02*
X114880952Y-84502438D01*
X114880952Y-84502438D02*
X114833333Y-84550057D01*
X114833333Y-84550057D02*
X114738095Y-84692914D01*
X114738095Y-84692914D02*
X114690476Y-84883390D01*
X114690476Y-84883390D02*
X114690476Y-85264342D01*
X114690476Y-85264342D02*
X114738095Y-85359580D01*
X114738095Y-85359580D02*
X114785714Y-85407200D01*
X114785714Y-85407200D02*
X114880952Y-85454819D01*
X114880952Y-85454819D02*
X115071428Y-85454819D01*
X115071428Y-85454819D02*
X115166666Y-85407200D01*
X115166666Y-85407200D02*
X115214285Y-85359580D01*
X115214285Y-85359580D02*
X115261904Y-85264342D01*
X115261904Y-85264342D02*
X115261904Y-85026247D01*
X115261904Y-85026247D02*
X115214285Y-84931009D01*
X115214285Y-84931009D02*
X115166666Y-84883390D01*
X115166666Y-84883390D02*
X115071428Y-84835771D01*
X115071428Y-84835771D02*
X114880952Y-84835771D01*
X114880952Y-84835771D02*
X114785714Y-84883390D01*
X114785714Y-84883390D02*
X114738095Y-84931009D01*
X114738095Y-84931009D02*
X114690476Y-85026247D01*
X103666666Y-68454819D02*
X103666666Y-69169104D01*
X103666666Y-69169104D02*
X103619047Y-69311961D01*
X103619047Y-69311961D02*
X103523809Y-69407200D01*
X103523809Y-69407200D02*
X103380952Y-69454819D01*
X103380952Y-69454819D02*
X103285714Y-69454819D01*
X104285714Y-68883390D02*
X104190476Y-68835771D01*
X104190476Y-68835771D02*
X104142857Y-68788152D01*
X104142857Y-68788152D02*
X104095238Y-68692914D01*
X104095238Y-68692914D02*
X104095238Y-68645295D01*
X104095238Y-68645295D02*
X104142857Y-68550057D01*
X104142857Y-68550057D02*
X104190476Y-68502438D01*
X104190476Y-68502438D02*
X104285714Y-68454819D01*
X104285714Y-68454819D02*
X104476190Y-68454819D01*
X104476190Y-68454819D02*
X104571428Y-68502438D01*
X104571428Y-68502438D02*
X104619047Y-68550057D01*
X104619047Y-68550057D02*
X104666666Y-68645295D01*
X104666666Y-68645295D02*
X104666666Y-68692914D01*
X104666666Y-68692914D02*
X104619047Y-68788152D01*
X104619047Y-68788152D02*
X104571428Y-68835771D01*
X104571428Y-68835771D02*
X104476190Y-68883390D01*
X104476190Y-68883390D02*
X104285714Y-68883390D01*
X104285714Y-68883390D02*
X104190476Y-68931009D01*
X104190476Y-68931009D02*
X104142857Y-68978628D01*
X104142857Y-68978628D02*
X104095238Y-69073866D01*
X104095238Y-69073866D02*
X104095238Y-69264342D01*
X104095238Y-69264342D02*
X104142857Y-69359580D01*
X104142857Y-69359580D02*
X104190476Y-69407200D01*
X104190476Y-69407200D02*
X104285714Y-69454819D01*
X104285714Y-69454819D02*
X104476190Y-69454819D01*
X104476190Y-69454819D02*
X104571428Y-69407200D01*
X104571428Y-69407200D02*
X104619047Y-69359580D01*
X104619047Y-69359580D02*
X104666666Y-69264342D01*
X104666666Y-69264342D02*
X104666666Y-69073866D01*
X104666666Y-69073866D02*
X104619047Y-68978628D01*
X104619047Y-68978628D02*
X104571428Y-68931009D01*
X104571428Y-68931009D02*
X104476190Y-68883390D01*
X139761905Y-52204819D02*
X139761905Y-51204819D01*
X139761905Y-51204819D02*
X140000000Y-51204819D01*
X140000000Y-51204819D02*
X140142857Y-51252438D01*
X140142857Y-51252438D02*
X140238095Y-51347676D01*
X140238095Y-51347676D02*
X140285714Y-51442914D01*
X140285714Y-51442914D02*
X140333333Y-51633390D01*
X140333333Y-51633390D02*
X140333333Y-51776247D01*
X140333333Y-51776247D02*
X140285714Y-51966723D01*
X140285714Y-51966723D02*
X140238095Y-52061961D01*
X140238095Y-52061961D02*
X140142857Y-52157200D01*
X140142857Y-52157200D02*
X140000000Y-52204819D01*
X140000000Y-52204819D02*
X139761905Y-52204819D01*
X140714286Y-51300057D02*
X140761905Y-51252438D01*
X140761905Y-51252438D02*
X140857143Y-51204819D01*
X140857143Y-51204819D02*
X141095238Y-51204819D01*
X141095238Y-51204819D02*
X141190476Y-51252438D01*
X141190476Y-51252438D02*
X141238095Y-51300057D01*
X141238095Y-51300057D02*
X141285714Y-51395295D01*
X141285714Y-51395295D02*
X141285714Y-51490533D01*
X141285714Y-51490533D02*
X141238095Y-51633390D01*
X141238095Y-51633390D02*
X140666667Y-52204819D01*
X140666667Y-52204819D02*
X141285714Y-52204819D01*
X113357142Y-86954819D02*
X113023809Y-86478628D01*
X112785714Y-86954819D02*
X112785714Y-85954819D01*
X112785714Y-85954819D02*
X113166666Y-85954819D01*
X113166666Y-85954819D02*
X113261904Y-86002438D01*
X113261904Y-86002438D02*
X113309523Y-86050057D01*
X113309523Y-86050057D02*
X113357142Y-86145295D01*
X113357142Y-86145295D02*
X113357142Y-86288152D01*
X113357142Y-86288152D02*
X113309523Y-86383390D01*
X113309523Y-86383390D02*
X113261904Y-86431009D01*
X113261904Y-86431009D02*
X113166666Y-86478628D01*
X113166666Y-86478628D02*
X112785714Y-86478628D01*
X114309523Y-86954819D02*
X113738095Y-86954819D01*
X114023809Y-86954819D02*
X114023809Y-85954819D01*
X114023809Y-85954819D02*
X113928571Y-86097676D01*
X113928571Y-86097676D02*
X113833333Y-86192914D01*
X113833333Y-86192914D02*
X113738095Y-86240533D01*
X114642857Y-85954819D02*
X115309523Y-85954819D01*
X115309523Y-85954819D02*
X114880952Y-86954819D01*
X120254819Y-88733333D02*
X120969104Y-88733333D01*
X120969104Y-88733333D02*
X121111961Y-88780952D01*
X121111961Y-88780952D02*
X121207200Y-88876190D01*
X121207200Y-88876190D02*
X121254819Y-89019047D01*
X121254819Y-89019047D02*
X121254819Y-89114285D01*
X120254819Y-87780952D02*
X120254819Y-88257142D01*
X120254819Y-88257142D02*
X120731009Y-88304761D01*
X120731009Y-88304761D02*
X120683390Y-88257142D01*
X120683390Y-88257142D02*
X120635771Y-88161904D01*
X120635771Y-88161904D02*
X120635771Y-87923809D01*
X120635771Y-87923809D02*
X120683390Y-87828571D01*
X120683390Y-87828571D02*
X120731009Y-87780952D01*
X120731009Y-87780952D02*
X120826247Y-87733333D01*
X120826247Y-87733333D02*
X121064342Y-87733333D01*
X121064342Y-87733333D02*
X121159580Y-87780952D01*
X121159580Y-87780952D02*
X121207200Y-87828571D01*
X121207200Y-87828571D02*
X121254819Y-87923809D01*
X121254819Y-87923809D02*
X121254819Y-88161904D01*
X121254819Y-88161904D02*
X121207200Y-88257142D01*
X121207200Y-88257142D02*
X121159580Y-88304761D01*
X126333333Y-61134819D02*
X126000000Y-60658628D01*
X125761905Y-61134819D02*
X125761905Y-60134819D01*
X125761905Y-60134819D02*
X126142857Y-60134819D01*
X126142857Y-60134819D02*
X126238095Y-60182438D01*
X126238095Y-60182438D02*
X126285714Y-60230057D01*
X126285714Y-60230057D02*
X126333333Y-60325295D01*
X126333333Y-60325295D02*
X126333333Y-60468152D01*
X126333333Y-60468152D02*
X126285714Y-60563390D01*
X126285714Y-60563390D02*
X126238095Y-60611009D01*
X126238095Y-60611009D02*
X126142857Y-60658628D01*
X126142857Y-60658628D02*
X125761905Y-60658628D01*
X127190476Y-60134819D02*
X127000000Y-60134819D01*
X127000000Y-60134819D02*
X126904762Y-60182438D01*
X126904762Y-60182438D02*
X126857143Y-60230057D01*
X126857143Y-60230057D02*
X126761905Y-60372914D01*
X126761905Y-60372914D02*
X126714286Y-60563390D01*
X126714286Y-60563390D02*
X126714286Y-60944342D01*
X126714286Y-60944342D02*
X126761905Y-61039580D01*
X126761905Y-61039580D02*
X126809524Y-61087200D01*
X126809524Y-61087200D02*
X126904762Y-61134819D01*
X126904762Y-61134819D02*
X127095238Y-61134819D01*
X127095238Y-61134819D02*
X127190476Y-61087200D01*
X127190476Y-61087200D02*
X127238095Y-61039580D01*
X127238095Y-61039580D02*
X127285714Y-60944342D01*
X127285714Y-60944342D02*
X127285714Y-60706247D01*
X127285714Y-60706247D02*
X127238095Y-60611009D01*
X127238095Y-60611009D02*
X127190476Y-60563390D01*
X127190476Y-60563390D02*
X127095238Y-60515771D01*
X127095238Y-60515771D02*
X126904762Y-60515771D01*
X126904762Y-60515771D02*
X126809524Y-60563390D01*
X126809524Y-60563390D02*
X126761905Y-60611009D01*
X126761905Y-60611009D02*
X126714286Y-60706247D01*
X138966667Y-75162295D02*
X138700000Y-74781342D01*
X138509524Y-75162295D02*
X138509524Y-74362295D01*
X138509524Y-74362295D02*
X138814286Y-74362295D01*
X138814286Y-74362295D02*
X138890476Y-74400390D01*
X138890476Y-74400390D02*
X138928571Y-74438485D01*
X138928571Y-74438485D02*
X138966667Y-74514676D01*
X138966667Y-74514676D02*
X138966667Y-74628961D01*
X138966667Y-74628961D02*
X138928571Y-74705152D01*
X138928571Y-74705152D02*
X138890476Y-74743247D01*
X138890476Y-74743247D02*
X138814286Y-74781342D01*
X138814286Y-74781342D02*
X138509524Y-74781342D01*
X139728571Y-75162295D02*
X139271428Y-75162295D01*
X139500000Y-75162295D02*
X139500000Y-74362295D01*
X139500000Y-74362295D02*
X139423809Y-74476580D01*
X139423809Y-74476580D02*
X139347619Y-74552771D01*
X139347619Y-74552771D02*
X139271428Y-74590866D01*
X128833333Y-86964819D02*
X128500000Y-86488628D01*
X128261905Y-86964819D02*
X128261905Y-85964819D01*
X128261905Y-85964819D02*
X128642857Y-85964819D01*
X128642857Y-85964819D02*
X128738095Y-86012438D01*
X128738095Y-86012438D02*
X128785714Y-86060057D01*
X128785714Y-86060057D02*
X128833333Y-86155295D01*
X128833333Y-86155295D02*
X128833333Y-86298152D01*
X128833333Y-86298152D02*
X128785714Y-86393390D01*
X128785714Y-86393390D02*
X128738095Y-86441009D01*
X128738095Y-86441009D02*
X128642857Y-86488628D01*
X128642857Y-86488628D02*
X128261905Y-86488628D01*
X129309524Y-86964819D02*
X129500000Y-86964819D01*
X129500000Y-86964819D02*
X129595238Y-86917200D01*
X129595238Y-86917200D02*
X129642857Y-86869580D01*
X129642857Y-86869580D02*
X129738095Y-86726723D01*
X129738095Y-86726723D02*
X129785714Y-86536247D01*
X129785714Y-86536247D02*
X129785714Y-86155295D01*
X129785714Y-86155295D02*
X129738095Y-86060057D01*
X129738095Y-86060057D02*
X129690476Y-86012438D01*
X129690476Y-86012438D02*
X129595238Y-85964819D01*
X129595238Y-85964819D02*
X129404762Y-85964819D01*
X129404762Y-85964819D02*
X129309524Y-86012438D01*
X129309524Y-86012438D02*
X129261905Y-86060057D01*
X129261905Y-86060057D02*
X129214286Y-86155295D01*
X129214286Y-86155295D02*
X129214286Y-86393390D01*
X129214286Y-86393390D02*
X129261905Y-86488628D01*
X129261905Y-86488628D02*
X129309524Y-86536247D01*
X129309524Y-86536247D02*
X129404762Y-86583866D01*
X129404762Y-86583866D02*
X129595238Y-86583866D01*
X129595238Y-86583866D02*
X129690476Y-86536247D01*
X129690476Y-86536247D02*
X129738095Y-86488628D01*
X129738095Y-86488628D02*
X129785714Y-86393390D01*
X135109580Y-73916666D02*
X135157200Y-73964285D01*
X135157200Y-73964285D02*
X135204819Y-74107142D01*
X135204819Y-74107142D02*
X135204819Y-74202380D01*
X135204819Y-74202380D02*
X135157200Y-74345237D01*
X135157200Y-74345237D02*
X135061961Y-74440475D01*
X135061961Y-74440475D02*
X134966723Y-74488094D01*
X134966723Y-74488094D02*
X134776247Y-74535713D01*
X134776247Y-74535713D02*
X134633390Y-74535713D01*
X134633390Y-74535713D02*
X134442914Y-74488094D01*
X134442914Y-74488094D02*
X134347676Y-74440475D01*
X134347676Y-74440475D02*
X134252438Y-74345237D01*
X134252438Y-74345237D02*
X134204819Y-74202380D01*
X134204819Y-74202380D02*
X134204819Y-74107142D01*
X134204819Y-74107142D02*
X134252438Y-73964285D01*
X134252438Y-73964285D02*
X134300057Y-73916666D01*
X134204819Y-73583332D02*
X134204819Y-72964285D01*
X134204819Y-72964285D02*
X134585771Y-73297618D01*
X134585771Y-73297618D02*
X134585771Y-73154761D01*
X134585771Y-73154761D02*
X134633390Y-73059523D01*
X134633390Y-73059523D02*
X134681009Y-73011904D01*
X134681009Y-73011904D02*
X134776247Y-72964285D01*
X134776247Y-72964285D02*
X135014342Y-72964285D01*
X135014342Y-72964285D02*
X135109580Y-73011904D01*
X135109580Y-73011904D02*
X135157200Y-73059523D01*
X135157200Y-73059523D02*
X135204819Y-73154761D01*
X135204819Y-73154761D02*
X135204819Y-73440475D01*
X135204819Y-73440475D02*
X135157200Y-73535713D01*
X135157200Y-73535713D02*
X135109580Y-73583332D01*
X142599905Y-94304819D02*
X142599905Y-93304819D01*
X142599905Y-93304819D02*
X142838000Y-93304819D01*
X142838000Y-93304819D02*
X142980857Y-93352438D01*
X142980857Y-93352438D02*
X143076095Y-93447676D01*
X143076095Y-93447676D02*
X143123714Y-93542914D01*
X143123714Y-93542914D02*
X143171333Y-93733390D01*
X143171333Y-93733390D02*
X143171333Y-93876247D01*
X143171333Y-93876247D02*
X143123714Y-94066723D01*
X143123714Y-94066723D02*
X143076095Y-94161961D01*
X143076095Y-94161961D02*
X142980857Y-94257200D01*
X142980857Y-94257200D02*
X142838000Y-94304819D01*
X142838000Y-94304819D02*
X142599905Y-94304819D01*
X144123714Y-94304819D02*
X143552286Y-94304819D01*
X143838000Y-94304819D02*
X143838000Y-93304819D01*
X143838000Y-93304819D02*
X143742762Y-93447676D01*
X143742762Y-93447676D02*
X143647524Y-93542914D01*
X143647524Y-93542914D02*
X143552286Y-93590533D01*
X113857142Y-67704819D02*
X113523809Y-67228628D01*
X113285714Y-67704819D02*
X113285714Y-66704819D01*
X113285714Y-66704819D02*
X113666666Y-66704819D01*
X113666666Y-66704819D02*
X113761904Y-66752438D01*
X113761904Y-66752438D02*
X113809523Y-66800057D01*
X113809523Y-66800057D02*
X113857142Y-66895295D01*
X113857142Y-66895295D02*
X113857142Y-67038152D01*
X113857142Y-67038152D02*
X113809523Y-67133390D01*
X113809523Y-67133390D02*
X113761904Y-67181009D01*
X113761904Y-67181009D02*
X113666666Y-67228628D01*
X113666666Y-67228628D02*
X113285714Y-67228628D01*
X114809523Y-67704819D02*
X114238095Y-67704819D01*
X114523809Y-67704819D02*
X114523809Y-66704819D01*
X114523809Y-66704819D02*
X114428571Y-66847676D01*
X114428571Y-66847676D02*
X114333333Y-66942914D01*
X114333333Y-66942914D02*
X114238095Y-66990533D01*
X115714285Y-66704819D02*
X115238095Y-66704819D01*
X115238095Y-66704819D02*
X115190476Y-67181009D01*
X115190476Y-67181009D02*
X115238095Y-67133390D01*
X115238095Y-67133390D02*
X115333333Y-67085771D01*
X115333333Y-67085771D02*
X115571428Y-67085771D01*
X115571428Y-67085771D02*
X115666666Y-67133390D01*
X115666666Y-67133390D02*
X115714285Y-67181009D01*
X115714285Y-67181009D02*
X115761904Y-67276247D01*
X115761904Y-67276247D02*
X115761904Y-67514342D01*
X115761904Y-67514342D02*
X115714285Y-67609580D01*
X115714285Y-67609580D02*
X115666666Y-67657200D01*
X115666666Y-67657200D02*
X115571428Y-67704819D01*
X115571428Y-67704819D02*
X115333333Y-67704819D01*
X115333333Y-67704819D02*
X115238095Y-67657200D01*
X115238095Y-67657200D02*
X115190476Y-67609580D01*
X113254819Y-62133333D02*
X113969104Y-62133333D01*
X113969104Y-62133333D02*
X114111961Y-62180952D01*
X114111961Y-62180952D02*
X114207200Y-62276190D01*
X114207200Y-62276190D02*
X114254819Y-62419047D01*
X114254819Y-62419047D02*
X114254819Y-62514285D01*
X113254819Y-61228571D02*
X113254819Y-61419047D01*
X113254819Y-61419047D02*
X113302438Y-61514285D01*
X113302438Y-61514285D02*
X113350057Y-61561904D01*
X113350057Y-61561904D02*
X113492914Y-61657142D01*
X113492914Y-61657142D02*
X113683390Y-61704761D01*
X113683390Y-61704761D02*
X114064342Y-61704761D01*
X114064342Y-61704761D02*
X114159580Y-61657142D01*
X114159580Y-61657142D02*
X114207200Y-61609523D01*
X114207200Y-61609523D02*
X114254819Y-61514285D01*
X114254819Y-61514285D02*
X114254819Y-61323809D01*
X114254819Y-61323809D02*
X114207200Y-61228571D01*
X114207200Y-61228571D02*
X114159580Y-61180952D01*
X114159580Y-61180952D02*
X114064342Y-61133333D01*
X114064342Y-61133333D02*
X113826247Y-61133333D01*
X113826247Y-61133333D02*
X113731009Y-61180952D01*
X113731009Y-61180952D02*
X113683390Y-61228571D01*
X113683390Y-61228571D02*
X113635771Y-61323809D01*
X113635771Y-61323809D02*
X113635771Y-61514285D01*
X113635771Y-61514285D02*
X113683390Y-61609523D01*
X113683390Y-61609523D02*
X113731009Y-61657142D01*
X113731009Y-61657142D02*
X113826247Y-61704761D01*
X130759580Y-66166666D02*
X130807200Y-66214285D01*
X130807200Y-66214285D02*
X130854819Y-66357142D01*
X130854819Y-66357142D02*
X130854819Y-66452380D01*
X130854819Y-66452380D02*
X130807200Y-66595237D01*
X130807200Y-66595237D02*
X130711961Y-66690475D01*
X130711961Y-66690475D02*
X130616723Y-66738094D01*
X130616723Y-66738094D02*
X130426247Y-66785713D01*
X130426247Y-66785713D02*
X130283390Y-66785713D01*
X130283390Y-66785713D02*
X130092914Y-66738094D01*
X130092914Y-66738094D02*
X129997676Y-66690475D01*
X129997676Y-66690475D02*
X129902438Y-66595237D01*
X129902438Y-66595237D02*
X129854819Y-66452380D01*
X129854819Y-66452380D02*
X129854819Y-66357142D01*
X129854819Y-66357142D02*
X129902438Y-66214285D01*
X129902438Y-66214285D02*
X129950057Y-66166666D01*
X129854819Y-65309523D02*
X129854819Y-65499999D01*
X129854819Y-65499999D02*
X129902438Y-65595237D01*
X129902438Y-65595237D02*
X129950057Y-65642856D01*
X129950057Y-65642856D02*
X130092914Y-65738094D01*
X130092914Y-65738094D02*
X130283390Y-65785713D01*
X130283390Y-65785713D02*
X130664342Y-65785713D01*
X130664342Y-65785713D02*
X130759580Y-65738094D01*
X130759580Y-65738094D02*
X130807200Y-65690475D01*
X130807200Y-65690475D02*
X130854819Y-65595237D01*
X130854819Y-65595237D02*
X130854819Y-65404761D01*
X130854819Y-65404761D02*
X130807200Y-65309523D01*
X130807200Y-65309523D02*
X130759580Y-65261904D01*
X130759580Y-65261904D02*
X130664342Y-65214285D01*
X130664342Y-65214285D02*
X130426247Y-65214285D01*
X130426247Y-65214285D02*
X130331009Y-65261904D01*
X130331009Y-65261904D02*
X130283390Y-65309523D01*
X130283390Y-65309523D02*
X130235771Y-65404761D01*
X130235771Y-65404761D02*
X130235771Y-65595237D01*
X130235771Y-65595237D02*
X130283390Y-65690475D01*
X130283390Y-65690475D02*
X130331009Y-65738094D01*
X130331009Y-65738094D02*
X130426247Y-65785713D01*
X139023809Y-77638485D02*
X138947619Y-77600390D01*
X138947619Y-77600390D02*
X138871428Y-77524200D01*
X138871428Y-77524200D02*
X138757142Y-77409914D01*
X138757142Y-77409914D02*
X138680952Y-77371819D01*
X138680952Y-77371819D02*
X138604761Y-77371819D01*
X138642857Y-77562295D02*
X138566666Y-77524200D01*
X138566666Y-77524200D02*
X138490476Y-77448009D01*
X138490476Y-77448009D02*
X138452380Y-77295628D01*
X138452380Y-77295628D02*
X138452380Y-77028961D01*
X138452380Y-77028961D02*
X138490476Y-76876580D01*
X138490476Y-76876580D02*
X138566666Y-76800390D01*
X138566666Y-76800390D02*
X138642857Y-76762295D01*
X138642857Y-76762295D02*
X138795238Y-76762295D01*
X138795238Y-76762295D02*
X138871428Y-76800390D01*
X138871428Y-76800390D02*
X138947619Y-76876580D01*
X138947619Y-76876580D02*
X138985714Y-77028961D01*
X138985714Y-77028961D02*
X138985714Y-77295628D01*
X138985714Y-77295628D02*
X138947619Y-77448009D01*
X138947619Y-77448009D02*
X138871428Y-77524200D01*
X138871428Y-77524200D02*
X138795238Y-77562295D01*
X138795238Y-77562295D02*
X138642857Y-77562295D01*
X139747618Y-77562295D02*
X139290475Y-77562295D01*
X139519047Y-77562295D02*
X139519047Y-76762295D01*
X139519047Y-76762295D02*
X139442856Y-76876580D01*
X139442856Y-76876580D02*
X139366666Y-76952771D01*
X139366666Y-76952771D02*
X139290475Y-76990866D01*
X113666666Y-63704819D02*
X113666666Y-64419104D01*
X113666666Y-64419104D02*
X113619047Y-64561961D01*
X113619047Y-64561961D02*
X113523809Y-64657200D01*
X113523809Y-64657200D02*
X113380952Y-64704819D01*
X113380952Y-64704819D02*
X113285714Y-64704819D01*
X114142857Y-64704819D02*
X114142857Y-63704819D01*
X114142857Y-63704819D02*
X114523809Y-63704819D01*
X114523809Y-63704819D02*
X114619047Y-63752438D01*
X114619047Y-63752438D02*
X114666666Y-63800057D01*
X114666666Y-63800057D02*
X114714285Y-63895295D01*
X114714285Y-63895295D02*
X114714285Y-64038152D01*
X114714285Y-64038152D02*
X114666666Y-64133390D01*
X114666666Y-64133390D02*
X114619047Y-64181009D01*
X114619047Y-64181009D02*
X114523809Y-64228628D01*
X114523809Y-64228628D02*
X114142857Y-64228628D01*
X115619047Y-63704819D02*
X115142857Y-63704819D01*
X115142857Y-63704819D02*
X115095238Y-64181009D01*
X115095238Y-64181009D02*
X115142857Y-64133390D01*
X115142857Y-64133390D02*
X115238095Y-64085771D01*
X115238095Y-64085771D02*
X115476190Y-64085771D01*
X115476190Y-64085771D02*
X115571428Y-64133390D01*
X115571428Y-64133390D02*
X115619047Y-64181009D01*
X115619047Y-64181009D02*
X115666666Y-64276247D01*
X115666666Y-64276247D02*
X115666666Y-64514342D01*
X115666666Y-64514342D02*
X115619047Y-64609580D01*
X115619047Y-64609580D02*
X115571428Y-64657200D01*
X115571428Y-64657200D02*
X115476190Y-64704819D01*
X115476190Y-64704819D02*
X115238095Y-64704819D01*
X115238095Y-64704819D02*
X115142857Y-64657200D01*
X115142857Y-64657200D02*
X115095238Y-64609580D01*
X113857142Y-66204819D02*
X113523809Y-65728628D01*
X113285714Y-66204819D02*
X113285714Y-65204819D01*
X113285714Y-65204819D02*
X113666666Y-65204819D01*
X113666666Y-65204819D02*
X113761904Y-65252438D01*
X113761904Y-65252438D02*
X113809523Y-65300057D01*
X113809523Y-65300057D02*
X113857142Y-65395295D01*
X113857142Y-65395295D02*
X113857142Y-65538152D01*
X113857142Y-65538152D02*
X113809523Y-65633390D01*
X113809523Y-65633390D02*
X113761904Y-65681009D01*
X113761904Y-65681009D02*
X113666666Y-65728628D01*
X113666666Y-65728628D02*
X113285714Y-65728628D01*
X114809523Y-66204819D02*
X114238095Y-66204819D01*
X114523809Y-66204819D02*
X114523809Y-65204819D01*
X114523809Y-65204819D02*
X114428571Y-65347676D01*
X114428571Y-65347676D02*
X114333333Y-65442914D01*
X114333333Y-65442914D02*
X114238095Y-65490533D01*
X115666666Y-65538152D02*
X115666666Y-66204819D01*
X115428571Y-65157200D02*
X115190476Y-65871485D01*
X115190476Y-65871485D02*
X115809523Y-65871485D01*
X130759580Y-68766666D02*
X130807200Y-68814285D01*
X130807200Y-68814285D02*
X130854819Y-68957142D01*
X130854819Y-68957142D02*
X130854819Y-69052380D01*
X130854819Y-69052380D02*
X130807200Y-69195237D01*
X130807200Y-69195237D02*
X130711961Y-69290475D01*
X130711961Y-69290475D02*
X130616723Y-69338094D01*
X130616723Y-69338094D02*
X130426247Y-69385713D01*
X130426247Y-69385713D02*
X130283390Y-69385713D01*
X130283390Y-69385713D02*
X130092914Y-69338094D01*
X130092914Y-69338094D02*
X129997676Y-69290475D01*
X129997676Y-69290475D02*
X129902438Y-69195237D01*
X129902438Y-69195237D02*
X129854819Y-69052380D01*
X129854819Y-69052380D02*
X129854819Y-68957142D01*
X129854819Y-68957142D02*
X129902438Y-68814285D01*
X129902438Y-68814285D02*
X129950057Y-68766666D01*
X129854819Y-68433332D02*
X129854819Y-67766666D01*
X129854819Y-67766666D02*
X130854819Y-68195237D01*
X129488095Y-50954819D02*
X129488095Y-51764342D01*
X129488095Y-51764342D02*
X129535714Y-51859580D01*
X129535714Y-51859580D02*
X129583333Y-51907200D01*
X129583333Y-51907200D02*
X129678571Y-51954819D01*
X129678571Y-51954819D02*
X129869047Y-51954819D01*
X129869047Y-51954819D02*
X129964285Y-51907200D01*
X129964285Y-51907200D02*
X130011904Y-51859580D01*
X130011904Y-51859580D02*
X130059523Y-51764342D01*
X130059523Y-51764342D02*
X130059523Y-50954819D01*
X130488095Y-51050057D02*
X130535714Y-51002438D01*
X130535714Y-51002438D02*
X130630952Y-50954819D01*
X130630952Y-50954819D02*
X130869047Y-50954819D01*
X130869047Y-50954819D02*
X130964285Y-51002438D01*
X130964285Y-51002438D02*
X131011904Y-51050057D01*
X131011904Y-51050057D02*
X131059523Y-51145295D01*
X131059523Y-51145295D02*
X131059523Y-51240533D01*
X131059523Y-51240533D02*
X131011904Y-51383390D01*
X131011904Y-51383390D02*
X130440476Y-51954819D01*
X130440476Y-51954819D02*
X131059523Y-51954819D01*
X133109580Y-57916666D02*
X133157200Y-57964285D01*
X133157200Y-57964285D02*
X133204819Y-58107142D01*
X133204819Y-58107142D02*
X133204819Y-58202380D01*
X133204819Y-58202380D02*
X133157200Y-58345237D01*
X133157200Y-58345237D02*
X133061961Y-58440475D01*
X133061961Y-58440475D02*
X132966723Y-58488094D01*
X132966723Y-58488094D02*
X132776247Y-58535713D01*
X132776247Y-58535713D02*
X132633390Y-58535713D01*
X132633390Y-58535713D02*
X132442914Y-58488094D01*
X132442914Y-58488094D02*
X132347676Y-58440475D01*
X132347676Y-58440475D02*
X132252438Y-58345237D01*
X132252438Y-58345237D02*
X132204819Y-58202380D01*
X132204819Y-58202380D02*
X132204819Y-58107142D01*
X132204819Y-58107142D02*
X132252438Y-57964285D01*
X132252438Y-57964285D02*
X132300057Y-57916666D01*
X132204819Y-57011904D02*
X132204819Y-57488094D01*
X132204819Y-57488094D02*
X132681009Y-57535713D01*
X132681009Y-57535713D02*
X132633390Y-57488094D01*
X132633390Y-57488094D02*
X132585771Y-57392856D01*
X132585771Y-57392856D02*
X132585771Y-57154761D01*
X132585771Y-57154761D02*
X132633390Y-57059523D01*
X132633390Y-57059523D02*
X132681009Y-57011904D01*
X132681009Y-57011904D02*
X132776247Y-56964285D01*
X132776247Y-56964285D02*
X133014342Y-56964285D01*
X133014342Y-56964285D02*
X133109580Y-57011904D01*
X133109580Y-57011904D02*
X133157200Y-57059523D01*
X133157200Y-57059523D02*
X133204819Y-57154761D01*
X133204819Y-57154761D02*
X133204819Y-57392856D01*
X133204819Y-57392856D02*
X133157200Y-57488094D01*
X133157200Y-57488094D02*
X133109580Y-57535713D01*
X127854819Y-88733333D02*
X128569104Y-88733333D01*
X128569104Y-88733333D02*
X128711961Y-88780952D01*
X128711961Y-88780952D02*
X128807200Y-88876190D01*
X128807200Y-88876190D02*
X128854819Y-89019047D01*
X128854819Y-89019047D02*
X128854819Y-89114285D01*
X127854819Y-88352380D02*
X127854819Y-87733333D01*
X127854819Y-87733333D02*
X128235771Y-88066666D01*
X128235771Y-88066666D02*
X128235771Y-87923809D01*
X128235771Y-87923809D02*
X128283390Y-87828571D01*
X128283390Y-87828571D02*
X128331009Y-87780952D01*
X128331009Y-87780952D02*
X128426247Y-87733333D01*
X128426247Y-87733333D02*
X128664342Y-87733333D01*
X128664342Y-87733333D02*
X128759580Y-87780952D01*
X128759580Y-87780952D02*
X128807200Y-87828571D01*
X128807200Y-87828571D02*
X128854819Y-87923809D01*
X128854819Y-87923809D02*
X128854819Y-88209523D01*
X128854819Y-88209523D02*
X128807200Y-88304761D01*
X128807200Y-88304761D02*
X128759580Y-88352380D01*
X120857142Y-85454819D02*
X120523809Y-84978628D01*
X120285714Y-85454819D02*
X120285714Y-84454819D01*
X120285714Y-84454819D02*
X120666666Y-84454819D01*
X120666666Y-84454819D02*
X120761904Y-84502438D01*
X120761904Y-84502438D02*
X120809523Y-84550057D01*
X120809523Y-84550057D02*
X120857142Y-84645295D01*
X120857142Y-84645295D02*
X120857142Y-84788152D01*
X120857142Y-84788152D02*
X120809523Y-84883390D01*
X120809523Y-84883390D02*
X120761904Y-84931009D01*
X120761904Y-84931009D02*
X120666666Y-84978628D01*
X120666666Y-84978628D02*
X120285714Y-84978628D01*
X121809523Y-85454819D02*
X121238095Y-85454819D01*
X121523809Y-85454819D02*
X121523809Y-84454819D01*
X121523809Y-84454819D02*
X121428571Y-84597676D01*
X121428571Y-84597676D02*
X121333333Y-84692914D01*
X121333333Y-84692914D02*
X121238095Y-84740533D01*
X122190476Y-84550057D02*
X122238095Y-84502438D01*
X122238095Y-84502438D02*
X122333333Y-84454819D01*
X122333333Y-84454819D02*
X122571428Y-84454819D01*
X122571428Y-84454819D02*
X122666666Y-84502438D01*
X122666666Y-84502438D02*
X122714285Y-84550057D01*
X122714285Y-84550057D02*
X122761904Y-84645295D01*
X122761904Y-84645295D02*
X122761904Y-84740533D01*
X122761904Y-84740533D02*
X122714285Y-84883390D01*
X122714285Y-84883390D02*
X122142857Y-85454819D01*
X122142857Y-85454819D02*
X122761904Y-85454819D01*
X140116667Y-94612295D02*
X139850000Y-94231342D01*
X139659524Y-94612295D02*
X139659524Y-93812295D01*
X139659524Y-93812295D02*
X139964286Y-93812295D01*
X139964286Y-93812295D02*
X140040476Y-93850390D01*
X140040476Y-93850390D02*
X140078571Y-93888485D01*
X140078571Y-93888485D02*
X140116667Y-93964676D01*
X140116667Y-93964676D02*
X140116667Y-94078961D01*
X140116667Y-94078961D02*
X140078571Y-94155152D01*
X140078571Y-94155152D02*
X140040476Y-94193247D01*
X140040476Y-94193247D02*
X139964286Y-94231342D01*
X139964286Y-94231342D02*
X139659524Y-94231342D01*
X140802381Y-94078961D02*
X140802381Y-94612295D01*
X140611905Y-93774200D02*
X140421428Y-94345628D01*
X140421428Y-94345628D02*
X140916667Y-94345628D01*
X149754819Y-76119047D02*
X149754819Y-76595237D01*
X149754819Y-76595237D02*
X148754819Y-76595237D01*
X149231009Y-75785713D02*
X149231009Y-75452380D01*
X149754819Y-75309523D02*
X149754819Y-75785713D01*
X149754819Y-75785713D02*
X148754819Y-75785713D01*
X148754819Y-75785713D02*
X148754819Y-75309523D01*
X149754819Y-74880951D02*
X148754819Y-74880951D01*
X148754819Y-74880951D02*
X148754819Y-74642856D01*
X148754819Y-74642856D02*
X148802438Y-74499999D01*
X148802438Y-74499999D02*
X148897676Y-74404761D01*
X148897676Y-74404761D02*
X148992914Y-74357142D01*
X148992914Y-74357142D02*
X149183390Y-74309523D01*
X149183390Y-74309523D02*
X149326247Y-74309523D01*
X149326247Y-74309523D02*
X149516723Y-74357142D01*
X149516723Y-74357142D02*
X149611961Y-74404761D01*
X149611961Y-74404761D02*
X149707200Y-74499999D01*
X149707200Y-74499999D02*
X149754819Y-74642856D01*
X149754819Y-74642856D02*
X149754819Y-74880951D01*
X149754819Y-73357142D02*
X149754819Y-73928570D01*
X149754819Y-73642856D02*
X148754819Y-73642856D01*
X148754819Y-73642856D02*
X148897676Y-73738094D01*
X148897676Y-73738094D02*
X148992914Y-73833332D01*
X148992914Y-73833332D02*
X149040533Y-73928570D01*
X120754819Y-62133333D02*
X121469104Y-62133333D01*
X121469104Y-62133333D02*
X121611961Y-62180952D01*
X121611961Y-62180952D02*
X121707200Y-62276190D01*
X121707200Y-62276190D02*
X121754819Y-62419047D01*
X121754819Y-62419047D02*
X121754819Y-62514285D01*
X121088152Y-61228571D02*
X121754819Y-61228571D01*
X120707200Y-61466666D02*
X121421485Y-61704761D01*
X121421485Y-61704761D02*
X121421485Y-61085714D01*
X136609580Y-57916666D02*
X136657200Y-57964285D01*
X136657200Y-57964285D02*
X136704819Y-58107142D01*
X136704819Y-58107142D02*
X136704819Y-58202380D01*
X136704819Y-58202380D02*
X136657200Y-58345237D01*
X136657200Y-58345237D02*
X136561961Y-58440475D01*
X136561961Y-58440475D02*
X136466723Y-58488094D01*
X136466723Y-58488094D02*
X136276247Y-58535713D01*
X136276247Y-58535713D02*
X136133390Y-58535713D01*
X136133390Y-58535713D02*
X135942914Y-58488094D01*
X135942914Y-58488094D02*
X135847676Y-58440475D01*
X135847676Y-58440475D02*
X135752438Y-58345237D01*
X135752438Y-58345237D02*
X135704819Y-58202380D01*
X135704819Y-58202380D02*
X135704819Y-58107142D01*
X135704819Y-58107142D02*
X135752438Y-57964285D01*
X135752438Y-57964285D02*
X135800057Y-57916666D01*
X136038152Y-57059523D02*
X136704819Y-57059523D01*
X135657200Y-57297618D02*
X136371485Y-57535713D01*
X136371485Y-57535713D02*
X136371485Y-56916666D01*
X121357142Y-67704819D02*
X121023809Y-67228628D01*
X120785714Y-67704819D02*
X120785714Y-66704819D01*
X120785714Y-66704819D02*
X121166666Y-66704819D01*
X121166666Y-66704819D02*
X121261904Y-66752438D01*
X121261904Y-66752438D02*
X121309523Y-66800057D01*
X121309523Y-66800057D02*
X121357142Y-66895295D01*
X121357142Y-66895295D02*
X121357142Y-67038152D01*
X121357142Y-67038152D02*
X121309523Y-67133390D01*
X121309523Y-67133390D02*
X121261904Y-67181009D01*
X121261904Y-67181009D02*
X121166666Y-67228628D01*
X121166666Y-67228628D02*
X120785714Y-67228628D01*
X122309523Y-67704819D02*
X121738095Y-67704819D01*
X122023809Y-67704819D02*
X122023809Y-66704819D01*
X122023809Y-66704819D02*
X121928571Y-66847676D01*
X121928571Y-66847676D02*
X121833333Y-66942914D01*
X121833333Y-66942914D02*
X121738095Y-66990533D01*
X123261904Y-67704819D02*
X122690476Y-67704819D01*
X122976190Y-67704819D02*
X122976190Y-66704819D01*
X122976190Y-66704819D02*
X122880952Y-66847676D01*
X122880952Y-66847676D02*
X122785714Y-66942914D01*
X122785714Y-66942914D02*
X122690476Y-66990533D01*
X135109580Y-65416666D02*
X135157200Y-65464285D01*
X135157200Y-65464285D02*
X135204819Y-65607142D01*
X135204819Y-65607142D02*
X135204819Y-65702380D01*
X135204819Y-65702380D02*
X135157200Y-65845237D01*
X135157200Y-65845237D02*
X135061961Y-65940475D01*
X135061961Y-65940475D02*
X134966723Y-65988094D01*
X134966723Y-65988094D02*
X134776247Y-66035713D01*
X134776247Y-66035713D02*
X134633390Y-66035713D01*
X134633390Y-66035713D02*
X134442914Y-65988094D01*
X134442914Y-65988094D02*
X134347676Y-65940475D01*
X134347676Y-65940475D02*
X134252438Y-65845237D01*
X134252438Y-65845237D02*
X134204819Y-65702380D01*
X134204819Y-65702380D02*
X134204819Y-65607142D01*
X134204819Y-65607142D02*
X134252438Y-65464285D01*
X134252438Y-65464285D02*
X134300057Y-65416666D01*
X134300057Y-65035713D02*
X134252438Y-64988094D01*
X134252438Y-64988094D02*
X134204819Y-64892856D01*
X134204819Y-64892856D02*
X134204819Y-64654761D01*
X134204819Y-64654761D02*
X134252438Y-64559523D01*
X134252438Y-64559523D02*
X134300057Y-64511904D01*
X134300057Y-64511904D02*
X134395295Y-64464285D01*
X134395295Y-64464285D02*
X134490533Y-64464285D01*
X134490533Y-64464285D02*
X134633390Y-64511904D01*
X134633390Y-64511904D02*
X135204819Y-65083332D01*
X135204819Y-65083332D02*
X135204819Y-64464285D01*
X130233538Y-79311034D02*
X130805958Y-79883454D01*
X130805958Y-79883454D02*
X130906973Y-79917126D01*
X130906973Y-79917126D02*
X130974317Y-79917126D01*
X130974317Y-79917126D02*
X131075332Y-79883454D01*
X131075332Y-79883454D02*
X131210019Y-79748767D01*
X131210019Y-79748767D02*
X131243691Y-79647752D01*
X131243691Y-79647752D02*
X131243691Y-79580408D01*
X131243691Y-79580408D02*
X131210019Y-79479393D01*
X131210019Y-79479393D02*
X130637599Y-78906973D01*
X130906973Y-78637599D02*
X131344706Y-78199867D01*
X131344706Y-78199867D02*
X131378378Y-78704943D01*
X131378378Y-78704943D02*
X131479393Y-78603928D01*
X131479393Y-78603928D02*
X131580408Y-78570256D01*
X131580408Y-78570256D02*
X131647752Y-78570256D01*
X131647752Y-78570256D02*
X131748767Y-78603928D01*
X131748767Y-78603928D02*
X131917126Y-78772286D01*
X131917126Y-78772286D02*
X131950798Y-78873302D01*
X131950798Y-78873302D02*
X131950798Y-78940645D01*
X131950798Y-78940645D02*
X131917126Y-79041660D01*
X131917126Y-79041660D02*
X131715095Y-79243691D01*
X131715095Y-79243691D02*
X131614080Y-79277363D01*
X131614080Y-79277363D02*
X131546737Y-79277363D01*
X121166666Y-63704819D02*
X121166666Y-64419104D01*
X121166666Y-64419104D02*
X121119047Y-64561961D01*
X121119047Y-64561961D02*
X121023809Y-64657200D01*
X121023809Y-64657200D02*
X120880952Y-64704819D01*
X120880952Y-64704819D02*
X120785714Y-64704819D01*
X121642857Y-64704819D02*
X121642857Y-63704819D01*
X121642857Y-63704819D02*
X122023809Y-63704819D01*
X122023809Y-63704819D02*
X122119047Y-63752438D01*
X122119047Y-63752438D02*
X122166666Y-63800057D01*
X122166666Y-63800057D02*
X122214285Y-63895295D01*
X122214285Y-63895295D02*
X122214285Y-64038152D01*
X122214285Y-64038152D02*
X122166666Y-64133390D01*
X122166666Y-64133390D02*
X122119047Y-64181009D01*
X122119047Y-64181009D02*
X122023809Y-64228628D01*
X122023809Y-64228628D02*
X121642857Y-64228628D01*
X122547619Y-63704819D02*
X123166666Y-63704819D01*
X123166666Y-63704819D02*
X122833333Y-64085771D01*
X122833333Y-64085771D02*
X122976190Y-64085771D01*
X122976190Y-64085771D02*
X123071428Y-64133390D01*
X123071428Y-64133390D02*
X123119047Y-64181009D01*
X123119047Y-64181009D02*
X123166666Y-64276247D01*
X123166666Y-64276247D02*
X123166666Y-64514342D01*
X123166666Y-64514342D02*
X123119047Y-64609580D01*
X123119047Y-64609580D02*
X123071428Y-64657200D01*
X123071428Y-64657200D02*
X122976190Y-64704819D01*
X122976190Y-64704819D02*
X122690476Y-64704819D01*
X122690476Y-64704819D02*
X122595238Y-64657200D01*
X122595238Y-64657200D02*
X122547619Y-64609580D01*
X112704819Y-88733333D02*
X113419104Y-88733333D01*
X113419104Y-88733333D02*
X113561961Y-88780952D01*
X113561961Y-88780952D02*
X113657200Y-88876190D01*
X113657200Y-88876190D02*
X113704819Y-89019047D01*
X113704819Y-89019047D02*
X113704819Y-89114285D01*
X112704819Y-88352380D02*
X112704819Y-87685714D01*
X112704819Y-87685714D02*
X113704819Y-88114285D01*
X123554819Y-58185713D02*
X123554819Y-57614285D01*
X124554819Y-57899999D02*
X123554819Y-57899999D01*
X124554819Y-57280951D02*
X123554819Y-57280951D01*
X124031009Y-57280951D02*
X124031009Y-56709523D01*
X124554819Y-56709523D02*
X123554819Y-56709523D01*
X123650057Y-56280951D02*
X123602438Y-56233332D01*
X123602438Y-56233332D02*
X123554819Y-56138094D01*
X123554819Y-56138094D02*
X123554819Y-55899999D01*
X123554819Y-55899999D02*
X123602438Y-55804761D01*
X123602438Y-55804761D02*
X123650057Y-55757142D01*
X123650057Y-55757142D02*
X123745295Y-55709523D01*
X123745295Y-55709523D02*
X123840533Y-55709523D01*
X123840533Y-55709523D02*
X123983390Y-55757142D01*
X123983390Y-55757142D02*
X124554819Y-56328570D01*
X124554819Y-56328570D02*
X124554819Y-55709523D01*
X138988095Y-87204819D02*
X138988095Y-88014342D01*
X138988095Y-88014342D02*
X139035714Y-88109580D01*
X139035714Y-88109580D02*
X139083333Y-88157200D01*
X139083333Y-88157200D02*
X139178571Y-88204819D01*
X139178571Y-88204819D02*
X139369047Y-88204819D01*
X139369047Y-88204819D02*
X139464285Y-88157200D01*
X139464285Y-88157200D02*
X139511904Y-88109580D01*
X139511904Y-88109580D02*
X139559523Y-88014342D01*
X139559523Y-88014342D02*
X139559523Y-87204819D01*
X140559523Y-88204819D02*
X139988095Y-88204819D01*
X140273809Y-88204819D02*
X140273809Y-87204819D01*
X140273809Y-87204819D02*
X140178571Y-87347676D01*
X140178571Y-87347676D02*
X140083333Y-87442914D01*
X140083333Y-87442914D02*
X139988095Y-87490533D01*
X137615604Y-65399983D02*
X137615604Y-65780936D01*
X137348937Y-64980936D02*
X137615604Y-65399983D01*
X137615604Y-65399983D02*
X137882270Y-64980936D01*
X138567984Y-65780936D02*
X138110841Y-65780936D01*
X138339413Y-65780936D02*
X138339413Y-64980936D01*
X138339413Y-64980936D02*
X138263222Y-65095221D01*
X138263222Y-65095221D02*
X138187032Y-65171412D01*
X138187032Y-65171412D02*
X138110841Y-65209507D01*
X130083333Y-59109580D02*
X130035714Y-59157200D01*
X130035714Y-59157200D02*
X129892857Y-59204819D01*
X129892857Y-59204819D02*
X129797619Y-59204819D01*
X129797619Y-59204819D02*
X129654762Y-59157200D01*
X129654762Y-59157200D02*
X129559524Y-59061961D01*
X129559524Y-59061961D02*
X129511905Y-58966723D01*
X129511905Y-58966723D02*
X129464286Y-58776247D01*
X129464286Y-58776247D02*
X129464286Y-58633390D01*
X129464286Y-58633390D02*
X129511905Y-58442914D01*
X129511905Y-58442914D02*
X129559524Y-58347676D01*
X129559524Y-58347676D02*
X129654762Y-58252438D01*
X129654762Y-58252438D02*
X129797619Y-58204819D01*
X129797619Y-58204819D02*
X129892857Y-58204819D01*
X129892857Y-58204819D02*
X130035714Y-58252438D01*
X130035714Y-58252438D02*
X130083333Y-58300057D01*
X130654762Y-58633390D02*
X130559524Y-58585771D01*
X130559524Y-58585771D02*
X130511905Y-58538152D01*
X130511905Y-58538152D02*
X130464286Y-58442914D01*
X130464286Y-58442914D02*
X130464286Y-58395295D01*
X130464286Y-58395295D02*
X130511905Y-58300057D01*
X130511905Y-58300057D02*
X130559524Y-58252438D01*
X130559524Y-58252438D02*
X130654762Y-58204819D01*
X130654762Y-58204819D02*
X130845238Y-58204819D01*
X130845238Y-58204819D02*
X130940476Y-58252438D01*
X130940476Y-58252438D02*
X130988095Y-58300057D01*
X130988095Y-58300057D02*
X131035714Y-58395295D01*
X131035714Y-58395295D02*
X131035714Y-58442914D01*
X131035714Y-58442914D02*
X130988095Y-58538152D01*
X130988095Y-58538152D02*
X130940476Y-58585771D01*
X130940476Y-58585771D02*
X130845238Y-58633390D01*
X130845238Y-58633390D02*
X130654762Y-58633390D01*
X130654762Y-58633390D02*
X130559524Y-58681009D01*
X130559524Y-58681009D02*
X130511905Y-58728628D01*
X130511905Y-58728628D02*
X130464286Y-58823866D01*
X130464286Y-58823866D02*
X130464286Y-59014342D01*
X130464286Y-59014342D02*
X130511905Y-59109580D01*
X130511905Y-59109580D02*
X130559524Y-59157200D01*
X130559524Y-59157200D02*
X130654762Y-59204819D01*
X130654762Y-59204819D02*
X130845238Y-59204819D01*
X130845238Y-59204819D02*
X130940476Y-59157200D01*
X130940476Y-59157200D02*
X130988095Y-59109580D01*
X130988095Y-59109580D02*
X131035714Y-59014342D01*
X131035714Y-59014342D02*
X131035714Y-58823866D01*
X131035714Y-58823866D02*
X130988095Y-58728628D01*
X130988095Y-58728628D02*
X130940476Y-58681009D01*
X130940476Y-58681009D02*
X130845238Y-58633390D01*
X121357142Y-66204819D02*
X121023809Y-65728628D01*
X120785714Y-66204819D02*
X120785714Y-65204819D01*
X120785714Y-65204819D02*
X121166666Y-65204819D01*
X121166666Y-65204819D02*
X121261904Y-65252438D01*
X121261904Y-65252438D02*
X121309523Y-65300057D01*
X121309523Y-65300057D02*
X121357142Y-65395295D01*
X121357142Y-65395295D02*
X121357142Y-65538152D01*
X121357142Y-65538152D02*
X121309523Y-65633390D01*
X121309523Y-65633390D02*
X121261904Y-65681009D01*
X121261904Y-65681009D02*
X121166666Y-65728628D01*
X121166666Y-65728628D02*
X120785714Y-65728628D01*
X122309523Y-66204819D02*
X121738095Y-66204819D01*
X122023809Y-66204819D02*
X122023809Y-65204819D01*
X122023809Y-65204819D02*
X121928571Y-65347676D01*
X121928571Y-65347676D02*
X121833333Y-65442914D01*
X121833333Y-65442914D02*
X121738095Y-65490533D01*
X122928571Y-65204819D02*
X123023809Y-65204819D01*
X123023809Y-65204819D02*
X123119047Y-65252438D01*
X123119047Y-65252438D02*
X123166666Y-65300057D01*
X123166666Y-65300057D02*
X123214285Y-65395295D01*
X123214285Y-65395295D02*
X123261904Y-65585771D01*
X123261904Y-65585771D02*
X123261904Y-65823866D01*
X123261904Y-65823866D02*
X123214285Y-66014342D01*
X123214285Y-66014342D02*
X123166666Y-66109580D01*
X123166666Y-66109580D02*
X123119047Y-66157200D01*
X123119047Y-66157200D02*
X123023809Y-66204819D01*
X123023809Y-66204819D02*
X122928571Y-66204819D01*
X122928571Y-66204819D02*
X122833333Y-66157200D01*
X122833333Y-66157200D02*
X122785714Y-66109580D01*
X122785714Y-66109580D02*
X122738095Y-66014342D01*
X122738095Y-66014342D02*
X122690476Y-65823866D01*
X122690476Y-65823866D02*
X122690476Y-65585771D01*
X122690476Y-65585771D02*
X122738095Y-65395295D01*
X122738095Y-65395295D02*
X122785714Y-65300057D01*
X122785714Y-65300057D02*
X122833333Y-65252438D01*
X122833333Y-65252438D02*
X122928571Y-65204819D01*
X134431009Y-58583333D02*
X134431009Y-58916666D01*
X134954819Y-58916666D02*
X133954819Y-58916666D01*
X133954819Y-58916666D02*
X133954819Y-58440476D01*
X134431009Y-57726190D02*
X134478628Y-57583333D01*
X134478628Y-57583333D02*
X134526247Y-57535714D01*
X134526247Y-57535714D02*
X134621485Y-57488095D01*
X134621485Y-57488095D02*
X134764342Y-57488095D01*
X134764342Y-57488095D02*
X134859580Y-57535714D01*
X134859580Y-57535714D02*
X134907200Y-57583333D01*
X134907200Y-57583333D02*
X134954819Y-57678571D01*
X134954819Y-57678571D02*
X134954819Y-58059523D01*
X134954819Y-58059523D02*
X133954819Y-58059523D01*
X133954819Y-58059523D02*
X133954819Y-57726190D01*
X133954819Y-57726190D02*
X134002438Y-57630952D01*
X134002438Y-57630952D02*
X134050057Y-57583333D01*
X134050057Y-57583333D02*
X134145295Y-57535714D01*
X134145295Y-57535714D02*
X134240533Y-57535714D01*
X134240533Y-57535714D02*
X134335771Y-57583333D01*
X134335771Y-57583333D02*
X134383390Y-57630952D01*
X134383390Y-57630952D02*
X134431009Y-57726190D01*
X134431009Y-57726190D02*
X134431009Y-58059523D01*
X134954819Y-56535714D02*
X134954819Y-57107142D01*
X134954819Y-56821428D02*
X133954819Y-56821428D01*
X133954819Y-56821428D02*
X134097676Y-56916666D01*
X134097676Y-56916666D02*
X134192914Y-57011904D01*
X134192914Y-57011904D02*
X134240533Y-57107142D01*
X120857142Y-86954819D02*
X120523809Y-86478628D01*
X120285714Y-86954819D02*
X120285714Y-85954819D01*
X120285714Y-85954819D02*
X120666666Y-85954819D01*
X120666666Y-85954819D02*
X120761904Y-86002438D01*
X120761904Y-86002438D02*
X120809523Y-86050057D01*
X120809523Y-86050057D02*
X120857142Y-86145295D01*
X120857142Y-86145295D02*
X120857142Y-86288152D01*
X120857142Y-86288152D02*
X120809523Y-86383390D01*
X120809523Y-86383390D02*
X120761904Y-86431009D01*
X120761904Y-86431009D02*
X120666666Y-86478628D01*
X120666666Y-86478628D02*
X120285714Y-86478628D01*
X121809523Y-86954819D02*
X121238095Y-86954819D01*
X121523809Y-86954819D02*
X121523809Y-85954819D01*
X121523809Y-85954819D02*
X121428571Y-86097676D01*
X121428571Y-86097676D02*
X121333333Y-86192914D01*
X121333333Y-86192914D02*
X121238095Y-86240533D01*
X122142857Y-85954819D02*
X122761904Y-85954819D01*
X122761904Y-85954819D02*
X122428571Y-86335771D01*
X122428571Y-86335771D02*
X122571428Y-86335771D01*
X122571428Y-86335771D02*
X122666666Y-86383390D01*
X122666666Y-86383390D02*
X122714285Y-86431009D01*
X122714285Y-86431009D02*
X122761904Y-86526247D01*
X122761904Y-86526247D02*
X122761904Y-86764342D01*
X122761904Y-86764342D02*
X122714285Y-86859580D01*
X122714285Y-86859580D02*
X122666666Y-86907200D01*
X122666666Y-86907200D02*
X122571428Y-86954819D01*
X122571428Y-86954819D02*
X122285714Y-86954819D01*
X122285714Y-86954819D02*
X122190476Y-86907200D01*
X122190476Y-86907200D02*
X122142857Y-86859580D01*
X126704819Y-64416666D02*
X126228628Y-64749999D01*
X126704819Y-64988094D02*
X125704819Y-64988094D01*
X125704819Y-64988094D02*
X125704819Y-64607142D01*
X125704819Y-64607142D02*
X125752438Y-64511904D01*
X125752438Y-64511904D02*
X125800057Y-64464285D01*
X125800057Y-64464285D02*
X125895295Y-64416666D01*
X125895295Y-64416666D02*
X126038152Y-64416666D01*
X126038152Y-64416666D02*
X126133390Y-64464285D01*
X126133390Y-64464285D02*
X126181009Y-64511904D01*
X126181009Y-64511904D02*
X126228628Y-64607142D01*
X126228628Y-64607142D02*
X126228628Y-64988094D01*
X125704819Y-64083332D02*
X125704819Y-63416666D01*
X125704819Y-63416666D02*
X126704819Y-63845237D01*
X138966667Y-76362295D02*
X138700000Y-75981342D01*
X138509524Y-76362295D02*
X138509524Y-75562295D01*
X138509524Y-75562295D02*
X138814286Y-75562295D01*
X138814286Y-75562295D02*
X138890476Y-75600390D01*
X138890476Y-75600390D02*
X138928571Y-75638485D01*
X138928571Y-75638485D02*
X138966667Y-75714676D01*
X138966667Y-75714676D02*
X138966667Y-75828961D01*
X138966667Y-75828961D02*
X138928571Y-75905152D01*
X138928571Y-75905152D02*
X138890476Y-75943247D01*
X138890476Y-75943247D02*
X138814286Y-75981342D01*
X138814286Y-75981342D02*
X138509524Y-75981342D01*
X139271428Y-75638485D02*
X139309524Y-75600390D01*
X139309524Y-75600390D02*
X139385714Y-75562295D01*
X139385714Y-75562295D02*
X139576190Y-75562295D01*
X139576190Y-75562295D02*
X139652381Y-75600390D01*
X139652381Y-75600390D02*
X139690476Y-75638485D01*
X139690476Y-75638485D02*
X139728571Y-75714676D01*
X139728571Y-75714676D02*
X139728571Y-75790866D01*
X139728571Y-75790866D02*
X139690476Y-75905152D01*
X139690476Y-75905152D02*
X139233333Y-76362295D01*
X139233333Y-76362295D02*
X139728571Y-76362295D01*
X105654819Y-88733333D02*
X106369104Y-88733333D01*
X106369104Y-88733333D02*
X106511961Y-88780952D01*
X106511961Y-88780952D02*
X106607200Y-88876190D01*
X106607200Y-88876190D02*
X106654819Y-89019047D01*
X106654819Y-89019047D02*
X106654819Y-89114285D01*
X106654819Y-88209523D02*
X106654819Y-88019047D01*
X106654819Y-88019047D02*
X106607200Y-87923809D01*
X106607200Y-87923809D02*
X106559580Y-87876190D01*
X106559580Y-87876190D02*
X106416723Y-87780952D01*
X106416723Y-87780952D02*
X106226247Y-87733333D01*
X106226247Y-87733333D02*
X105845295Y-87733333D01*
X105845295Y-87733333D02*
X105750057Y-87780952D01*
X105750057Y-87780952D02*
X105702438Y-87828571D01*
X105702438Y-87828571D02*
X105654819Y-87923809D01*
X105654819Y-87923809D02*
X105654819Y-88114285D01*
X105654819Y-88114285D02*
X105702438Y-88209523D01*
X105702438Y-88209523D02*
X105750057Y-88257142D01*
X105750057Y-88257142D02*
X105845295Y-88304761D01*
X105845295Y-88304761D02*
X106083390Y-88304761D01*
X106083390Y-88304761D02*
X106178628Y-88257142D01*
X106178628Y-88257142D02*
X106226247Y-88209523D01*
X106226247Y-88209523D02*
X106273866Y-88114285D01*
X106273866Y-88114285D02*
X106273866Y-87923809D01*
X106273866Y-87923809D02*
X106226247Y-87828571D01*
X106226247Y-87828571D02*
X106178628Y-87780952D01*
X106178628Y-87780952D02*
X106083390Y-87733333D01*
X139166666Y-58931009D02*
X138833333Y-58931009D01*
X138833333Y-59454819D02*
X138833333Y-58454819D01*
X138833333Y-58454819D02*
X139309523Y-58454819D01*
X140214285Y-59454819D02*
X139642857Y-59454819D01*
X139928571Y-59454819D02*
X139928571Y-58454819D01*
X139928571Y-58454819D02*
X139833333Y-58597676D01*
X139833333Y-58597676D02*
X139738095Y-58692914D01*
X139738095Y-58692914D02*
X139642857Y-58740533D01*
X140116667Y-98612295D02*
X139850000Y-98231342D01*
X139659524Y-98612295D02*
X139659524Y-97812295D01*
X139659524Y-97812295D02*
X139964286Y-97812295D01*
X139964286Y-97812295D02*
X140040476Y-97850390D01*
X140040476Y-97850390D02*
X140078571Y-97888485D01*
X140078571Y-97888485D02*
X140116667Y-97964676D01*
X140116667Y-97964676D02*
X140116667Y-98078961D01*
X140116667Y-98078961D02*
X140078571Y-98155152D01*
X140078571Y-98155152D02*
X140040476Y-98193247D01*
X140040476Y-98193247D02*
X139964286Y-98231342D01*
X139964286Y-98231342D02*
X139659524Y-98231342D01*
X140840476Y-97812295D02*
X140459524Y-97812295D01*
X140459524Y-97812295D02*
X140421428Y-98193247D01*
X140421428Y-98193247D02*
X140459524Y-98155152D01*
X140459524Y-98155152D02*
X140535714Y-98117057D01*
X140535714Y-98117057D02*
X140726190Y-98117057D01*
X140726190Y-98117057D02*
X140802381Y-98155152D01*
X140802381Y-98155152D02*
X140840476Y-98193247D01*
X140840476Y-98193247D02*
X140878571Y-98269438D01*
X140878571Y-98269438D02*
X140878571Y-98459914D01*
X140878571Y-98459914D02*
X140840476Y-98536104D01*
X140840476Y-98536104D02*
X140802381Y-98574200D01*
X140802381Y-98574200D02*
X140726190Y-98612295D01*
X140726190Y-98612295D02*
X140535714Y-98612295D01*
X140535714Y-98612295D02*
X140459524Y-98574200D01*
X140459524Y-98574200D02*
X140421428Y-98536104D01*
X138966667Y-78762295D02*
X138700000Y-78381342D01*
X138509524Y-78762295D02*
X138509524Y-77962295D01*
X138509524Y-77962295D02*
X138814286Y-77962295D01*
X138814286Y-77962295D02*
X138890476Y-78000390D01*
X138890476Y-78000390D02*
X138928571Y-78038485D01*
X138928571Y-78038485D02*
X138966667Y-78114676D01*
X138966667Y-78114676D02*
X138966667Y-78228961D01*
X138966667Y-78228961D02*
X138928571Y-78305152D01*
X138928571Y-78305152D02*
X138890476Y-78343247D01*
X138890476Y-78343247D02*
X138814286Y-78381342D01*
X138814286Y-78381342D02*
X138509524Y-78381342D01*
X139233333Y-77962295D02*
X139728571Y-77962295D01*
X139728571Y-77962295D02*
X139461905Y-78267057D01*
X139461905Y-78267057D02*
X139576190Y-78267057D01*
X139576190Y-78267057D02*
X139652381Y-78305152D01*
X139652381Y-78305152D02*
X139690476Y-78343247D01*
X139690476Y-78343247D02*
X139728571Y-78419438D01*
X139728571Y-78419438D02*
X139728571Y-78609914D01*
X139728571Y-78609914D02*
X139690476Y-78686104D01*
X139690476Y-78686104D02*
X139652381Y-78724200D01*
X139652381Y-78724200D02*
X139576190Y-78762295D01*
X139576190Y-78762295D02*
X139347619Y-78762295D01*
X139347619Y-78762295D02*
X139271428Y-78724200D01*
X139271428Y-78724200D02*
X139233333Y-78686104D01*
%TO.C,R8*%
D11*
X125745276Y-84477500D02*
X126254724Y-84477500D01*
X125745276Y-85522500D02*
X126254724Y-85522500D01*
%TO.C,TH1*%
X127277500Y-66745276D02*
X127277500Y-67254724D01*
X128322500Y-66745276D02*
X128322500Y-67254724D01*
%TO.C,CM1*%
D12*
X136850000Y-95150000D02*
X133650000Y-95150000D01*
X136850000Y-97350000D02*
X133650000Y-97350000D01*
%TO.C,C1*%
D11*
X137004724Y-86627500D02*
X136495276Y-86627500D01*
X137004724Y-87672500D02*
X136495276Y-87672500D01*
%TO.C,R16*%
X110745276Y-84477500D02*
X111254724Y-84477500D01*
X110745276Y-85522500D02*
X111254724Y-85522500D01*
%TO.C,J8*%
X102620000Y-52620000D02*
X104000000Y-52620000D01*
X102620000Y-54000000D02*
X102620000Y-52620000D01*
X102620000Y-55270000D02*
X102620000Y-68080000D01*
X102620000Y-55270000D02*
X105380000Y-55270000D01*
X102620000Y-68080000D02*
X105380000Y-68080000D01*
X105380000Y-55270000D02*
X105380000Y-68080000D01*
%TO.C,D2*%
X136990000Y-52600000D02*
X136990000Y-55900000D01*
X136990000Y-52600000D02*
X142500000Y-52600000D01*
X136990000Y-55900000D02*
X142500000Y-55900000D01*
%TO.C,R17*%
X110745276Y-85977500D02*
X111254724Y-85977500D01*
X110745276Y-87022500D02*
X111254724Y-87022500D01*
%TO.C,J5*%
X117120000Y-95380000D02*
X117120000Y-87650000D01*
X119880000Y-87650000D02*
X117120000Y-87650000D01*
X119880000Y-95380000D02*
X117120000Y-95380000D01*
X119880000Y-95380000D02*
X119880000Y-87650000D01*
X119880000Y-96650000D02*
X119880000Y-98030000D01*
X119880000Y-98030000D02*
X118500000Y-98030000D01*
%TO.C,R6*%
X126754724Y-58727500D02*
X126245276Y-58727500D01*
X126754724Y-59772500D02*
X126245276Y-59772500D01*
%TO.C,R1*%
X142145276Y-70937500D02*
X142654724Y-70937500D01*
X142145276Y-71982500D02*
X142654724Y-71982500D01*
%TO.C,R9*%
X125745276Y-85977500D02*
X126254724Y-85977500D01*
X125745276Y-87022500D02*
X126254724Y-87022500D01*
%TO.C,C3*%
X134290000Y-71496267D02*
X134290000Y-71203733D01*
X135310000Y-71496267D02*
X135310000Y-71203733D01*
%TO.C,JP2*%
X120477500Y-94507776D02*
X120477500Y-95017224D01*
X120477500Y-96332776D02*
X120477500Y-96842224D01*
X121522500Y-94507776D02*
X121522500Y-95017224D01*
X121522500Y-96332776D02*
X121522500Y-96842224D01*
%TO.C,JP1*%
X127977500Y-94507776D02*
X127977500Y-95017224D01*
X127977500Y-96332776D02*
X127977500Y-96842224D01*
X129022500Y-94507776D02*
X129022500Y-95017224D01*
X129022500Y-96332776D02*
X129022500Y-96842224D01*
%TO.C,JP4*%
X112977500Y-94507776D02*
X112977500Y-95017224D01*
X112977500Y-96332776D02*
X112977500Y-96842224D01*
X114022500Y-94507776D02*
X114022500Y-95017224D01*
X114022500Y-96332776D02*
X114022500Y-96842224D01*
D13*
%TO.C,J2*%
X144610913Y-89646447D02*
X144610913Y-90353553D01*
X145318019Y-90000000D01*
X144610913Y-89646447D01*
G36*
X145318019Y-90000000D02*
G01*
X144610913Y-90353553D01*
X144610913Y-89646447D01*
X145318019Y-90000000D01*
G37*
%TO.C,D1*%
D11*
X142428000Y-94690000D02*
X144248000Y-94690000D01*
X142428000Y-94740000D02*
X142428000Y-94690000D01*
X142428000Y-96640000D02*
X142428000Y-95860000D01*
X142428000Y-97810000D02*
X142428000Y-97760000D01*
X144248000Y-94690000D02*
X144248000Y-95690000D01*
X144248000Y-96810000D02*
X144248000Y-97810000D01*
X144248000Y-97810000D02*
X142428000Y-97810000D01*
X141888000Y-95870000D02*
X142128000Y-96200000D01*
X141648000Y-96200000D01*
X141888000Y-95870000D01*
G36*
X142128000Y-96200000D02*
G01*
X141648000Y-96200000D01*
X141888000Y-95870000D01*
X142128000Y-96200000D01*
G37*
%TO.C,R15*%
X111754724Y-66727500D02*
X111245276Y-66727500D01*
X111754724Y-67772500D02*
X111245276Y-67772500D01*
D13*
%TO.C,J1*%
X144610913Y-59646447D02*
X144610913Y-60353553D01*
X145318019Y-60000000D01*
X144610913Y-59646447D01*
G36*
X145318019Y-60000000D02*
G01*
X144610913Y-60353553D01*
X144610913Y-59646447D01*
X145318019Y-60000000D01*
G37*
%TO.C,J6*%
D11*
X110120000Y-52620000D02*
X111500000Y-52620000D01*
X110120000Y-54000000D02*
X110120000Y-52620000D01*
X110120000Y-55270000D02*
X110120000Y-63000000D01*
X110120000Y-55270000D02*
X112880000Y-55270000D01*
X110120000Y-63000000D02*
X112880000Y-63000000D01*
X112880000Y-55270000D02*
X112880000Y-63000000D01*
%TO.C,C6*%
X131065000Y-65738748D02*
X131065000Y-66261252D01*
X132535000Y-65738748D02*
X132535000Y-66261252D01*
%TO.C,Q1*%
X141090000Y-74100000D02*
X142910000Y-74100000D01*
X141090000Y-75100000D02*
X141090000Y-74100000D01*
X141090000Y-77220000D02*
X141090000Y-76220000D01*
X142910000Y-74100000D02*
X142910000Y-74150000D01*
X142910000Y-75270000D02*
X142910000Y-76050000D01*
X142910000Y-77170000D02*
X142910000Y-77220000D01*
X142910000Y-77220000D02*
X141090000Y-77220000D01*
X143450000Y-76040000D02*
X143210000Y-75710000D01*
X143690000Y-75710000D01*
X143450000Y-76040000D01*
G36*
X143450000Y-76040000D02*
G01*
X143210000Y-75710000D01*
X143690000Y-75710000D01*
X143450000Y-76040000D01*
G37*
%TO.C,JP5*%
X111245276Y-63727500D02*
X111754724Y-63727500D01*
X111245276Y-64772500D02*
X111754724Y-64772500D01*
%TO.C,R14*%
X111245276Y-65227500D02*
X111754724Y-65227500D01*
X111245276Y-66272500D02*
X111754724Y-66272500D01*
%TO.C,C7*%
X131277500Y-69345276D02*
X131277500Y-69854724D01*
X132322500Y-69345276D02*
X132322500Y-69854724D01*
%TO.C,U2*%
X128690000Y-53340000D02*
X128740000Y-53340000D01*
X128690000Y-55160000D02*
X128690000Y-53340000D01*
X128740000Y-55160000D02*
X128690000Y-55160000D01*
X130640000Y-55160000D02*
X129860000Y-55160000D01*
X131760000Y-53340000D02*
X131810000Y-53340000D01*
X131810000Y-53340000D02*
X131810000Y-55160000D01*
X131810000Y-55160000D02*
X131760000Y-55160000D01*
X131760000Y-52800000D02*
X132090000Y-52560000D01*
X132090000Y-53040000D01*
X131760000Y-52800000D01*
G36*
X132090000Y-53040000D02*
G01*
X131760000Y-52800000D01*
X132090000Y-52560000D01*
X132090000Y-53040000D01*
G37*
%TO.C,C5*%
X132227500Y-54504724D02*
X132227500Y-53995276D01*
X133272500Y-54504724D02*
X133272500Y-53995276D01*
%TO.C,J3*%
X124620000Y-95380000D02*
X124620000Y-87650000D01*
X127380000Y-87650000D02*
X124620000Y-87650000D01*
X127380000Y-95380000D02*
X124620000Y-95380000D01*
X127380000Y-95380000D02*
X127380000Y-87650000D01*
X127380000Y-96650000D02*
X127380000Y-98030000D01*
X127380000Y-98030000D02*
X126000000Y-98030000D01*
%TO.C,R12*%
X118245276Y-84477500D02*
X118754724Y-84477500D01*
X118245276Y-85522500D02*
X118754724Y-85522500D01*
%TO.C,R4*%
X139083276Y-94977500D02*
X139592724Y-94977500D01*
X139083276Y-96022500D02*
X139592724Y-96022500D01*
%TO.C,LED1*%
X145264000Y-76560000D02*
X145420000Y-76560000D01*
X147580000Y-76560000D02*
X147736000Y-76560000D01*
X145264484Y-76560000D02*
G75*
G02*
X145420000Y-73328563I1235516J1560000D01*
G01*
X145420000Y-76040961D02*
G75*
G02*
X145420000Y-73959039I1080000J1040961D01*
G01*
X147580000Y-73328563D02*
G75*
G02*
X147735516Y-76560000I-1080000J-1671437D01*
G01*
X147580000Y-73959039D02*
G75*
G02*
X147580000Y-76040961I-1080000J-1040961D01*
G01*
%TO.C,J4*%
X117620000Y-52620000D02*
X119000000Y-52620000D01*
X117620000Y-54000000D02*
X117620000Y-52620000D01*
X117620000Y-55270000D02*
X117620000Y-63000000D01*
X117620000Y-55270000D02*
X120380000Y-55270000D01*
X117620000Y-63000000D02*
X120380000Y-63000000D01*
X120380000Y-55270000D02*
X120380000Y-63000000D01*
%TO.C,C4*%
X133765000Y-53888748D02*
X133765000Y-54411252D01*
X135235000Y-53888748D02*
X135235000Y-54411252D01*
%TO.C,R11*%
X119254724Y-66727500D02*
X118745276Y-66727500D01*
X119254724Y-67772500D02*
X118745276Y-67772500D01*
%TO.C,C2*%
X134290000Y-67703733D02*
X134290000Y-67996267D01*
X135310000Y-67703733D02*
X135310000Y-67996267D01*
%TO.C,U3*%
X121894689Y-75000000D02*
X122106821Y-74787868D01*
X122106821Y-75212132D02*
X121894689Y-75000000D01*
X126787868Y-70106821D02*
X127000000Y-69894689D01*
X127000000Y-69894689D02*
X127212132Y-70106821D01*
X127000000Y-80105311D02*
X126787868Y-79893179D01*
X127212132Y-79893179D02*
X127000000Y-80105311D01*
X131893179Y-74787868D02*
X132105311Y-75000000D01*
X132105311Y-75000000D02*
X131893179Y-75212132D01*
X132352798Y-74342391D02*
X132925555Y-74434315D01*
X132444722Y-74915147D01*
X132352798Y-74342391D01*
G36*
X132925555Y-74434315D02*
G01*
X132444722Y-74915147D01*
X132352798Y-74342391D01*
X132925555Y-74434315D01*
G37*
%TO.C,JP3*%
X118745276Y-63727500D02*
X119254724Y-63727500D01*
X118745276Y-64772500D02*
X119254724Y-64772500D01*
%TO.C,J7*%
X109620000Y-95380000D02*
X109620000Y-87650000D01*
X112380000Y-87650000D02*
X109620000Y-87650000D01*
X112380000Y-95380000D02*
X109620000Y-95380000D01*
X112380000Y-95380000D02*
X112380000Y-87650000D01*
X112380000Y-96650000D02*
X112380000Y-98030000D01*
X112380000Y-98030000D02*
X111000000Y-98030000D01*
%TO.C,TH2*%
X125120000Y-52620000D02*
X126500000Y-52620000D01*
X125120000Y-54000000D02*
X125120000Y-52620000D01*
X125120000Y-55270000D02*
X125120000Y-57920000D01*
X125120000Y-55270000D02*
X127880000Y-55270000D01*
X125120000Y-57920000D02*
X127880000Y-57920000D01*
X127880000Y-55270000D02*
X127880000Y-57920000D01*
%TO.C,JP6*%
X105977500Y-53657776D02*
X105977500Y-54167224D01*
X105977500Y-55482776D02*
X105977500Y-55992224D01*
X107022500Y-53657776D02*
X107022500Y-54167224D01*
X107022500Y-55482776D02*
X107022500Y-55992224D01*
%TO.C,U1*%
X134690000Y-88190000D02*
X138810000Y-88190000D01*
X134690000Y-88285000D02*
X134690000Y-88190000D01*
X134690000Y-93310000D02*
X134690000Y-93215000D01*
X138810000Y-88190000D02*
X138810000Y-88285000D01*
X138810000Y-93215000D02*
X138810000Y-93310000D01*
X138810000Y-93310000D02*
X134690000Y-93310000D01*
X139350000Y-93220000D02*
X139590000Y-93550000D01*
X139110000Y-93550000D01*
X139350000Y-93220000D01*
G36*
X139590000Y-93550000D02*
G01*
X139110000Y-93550000D01*
X139350000Y-93220000D01*
X139590000Y-93550000D01*
G37*
%TO.C,Y1*%
D12*
X135800000Y-66700000D02*
X136400000Y-66100000D01*
X135800000Y-72500000D02*
X135800000Y-66700000D01*
X136400000Y-73100000D02*
X135800000Y-72500000D01*
X139600000Y-73100000D02*
X140200000Y-72500000D01*
X140200000Y-66700000D02*
X139600000Y-66100000D01*
X140200000Y-72500000D02*
X140200000Y-66700000D01*
%TO.C,C8*%
D11*
X129995276Y-56727500D02*
X130504724Y-56727500D01*
X129995276Y-57772500D02*
X130504724Y-57772500D01*
%TO.C,R10*%
X118745276Y-65227500D02*
X119254724Y-65227500D01*
X118745276Y-66272500D02*
X119254724Y-66272500D01*
%TO.C,FB1*%
X135727500Y-54504724D02*
X135727500Y-53995276D01*
X136772500Y-54504724D02*
X136772500Y-53995276D01*
%TO.C,R13*%
X118245276Y-85977500D02*
X118754724Y-85977500D01*
X118245276Y-87022500D02*
X118754724Y-87022500D01*
%TO.C,R7*%
X125777500Y-67254724D02*
X125777500Y-66745276D01*
X126822500Y-67254724D02*
X126822500Y-66745276D01*
%TO.C,R2*%
X142145276Y-72537500D02*
X142654724Y-72537500D01*
X142145276Y-73582500D02*
X142654724Y-73582500D01*
%TO.C,J9*%
X102620000Y-95270000D02*
X102620000Y-87540000D01*
X105380000Y-87540000D02*
X102620000Y-87540000D01*
X105380000Y-95270000D02*
X102620000Y-95270000D01*
X105380000Y-95270000D02*
X105380000Y-87540000D01*
X105380000Y-96540000D02*
X105380000Y-97920000D01*
X105380000Y-97920000D02*
X104000000Y-97920000D01*
%TO.C,F1*%
X138772936Y-56340000D02*
X140227064Y-56340000D01*
X138772936Y-58160000D02*
X140227064Y-58160000D01*
%TO.C,R5*%
X139083276Y-96477500D02*
X139592724Y-96477500D01*
X139083276Y-97522500D02*
X139592724Y-97522500D01*
%TO.C,R3*%
X142145276Y-77737500D02*
X142654724Y-77737500D01*
X142145276Y-78782500D02*
X142654724Y-78782500D01*
%TD*%
M02*
