%TF.GenerationSoftware,KiCad,Pcbnew,10.0.6*%
%TF.CreationDate,2026-09-24T12:55:50-05:00*%
%TF.ProjectId,SensorPack_v1,53656e73-6f72-4506-9163-6b5f76312e6b,rev?*%
%TF.SameCoordinates,Original*%
%TF.FileFunction,Plated,1,4,PTH,Drill*%
%TF.FilePolarity,Positive*%
%FSLAX46Y46*%
G04 Gerber Fmt 4.6, Leading zero omitted, Abs format (unit mm)*
G04 Created by KiCad (PCBNEW 10.0.6) date 2026-09-24 12:55:50*
%MOMM*%
%LPD*%
G01*
G04 APERTURE LIST*
%TA.AperFunction,ViaDrill*%
%ADD10C,0.300000*%
%TD*%
%TA.AperFunction,ComponentDrill*%
%ADD11C,0.900000*%
%TD*%
%TA.AperFunction,ComponentDrill*%
%ADD12C,1.000000*%
%TD*%
G04 APERTURE END LIST*
D10*
X101000000Y-51000000D03*
X101000000Y-65000000D03*
X101000000Y-80000000D03*
X101000000Y-86000000D03*
X101000000Y-94000000D03*
X101000000Y-99000000D03*
X102500000Y-71500000D03*
X105000000Y-75000000D03*
X107200000Y-75000000D03*
X107500000Y-99000000D03*
X108200000Y-73000000D03*
X108500000Y-55300000D03*
X109500000Y-67250000D03*
X110087500Y-85750000D03*
X111000000Y-83000000D03*
X112000000Y-51000000D03*
X112500000Y-68800000D03*
X113500000Y-93000000D03*
X113500000Y-98300000D03*
X116000000Y-78000000D03*
X116500000Y-83500000D03*
X117000000Y-67250000D03*
X117587500Y-85750000D03*
X119000000Y-73000000D03*
X121000000Y-78000000D03*
X121000000Y-93000000D03*
X121000000Y-98300000D03*
X122000000Y-51000000D03*
X122000000Y-91000000D03*
X122000000Y-99000000D03*
X123000000Y-55000000D03*
X123408000Y-75000000D03*
X124000000Y-83000000D03*
X125087500Y-85750000D03*
X125200000Y-66100000D03*
X125204000Y-73203900D03*
X125204000Y-76796100D03*
X125800000Y-81000000D03*
X127000000Y-71407900D03*
X127000000Y-75000000D03*
X127000000Y-78592100D03*
X127800000Y-65200000D03*
X128000000Y-83000000D03*
X128200000Y-81200000D03*
X128300000Y-57250000D03*
X128500000Y-93000000D03*
X128500000Y-98300000D03*
X128796000Y-73203900D03*
X128796000Y-76796100D03*
X129000000Y-91000000D03*
X130000000Y-69800000D03*
X130250000Y-52000000D03*
X130417000Y-71017200D03*
X130592000Y-75000000D03*
X131200000Y-56400000D03*
X131283000Y-71282800D03*
X131800000Y-64000000D03*
X131800000Y-67900000D03*
X132000000Y-61000000D03*
X132000000Y-81000000D03*
X132000000Y-99000000D03*
X132750000Y-56250000D03*
X132800000Y-69600000D03*
X132955000Y-88845000D03*
X133400000Y-73200000D03*
X133800000Y-67000000D03*
X133800000Y-94300000D03*
X134000000Y-76500000D03*
X134500000Y-56250000D03*
X134750000Y-87150000D03*
X134800000Y-69600000D03*
X136600000Y-65400000D03*
X136600000Y-73800000D03*
X137000000Y-52750000D03*
X137662000Y-89527500D03*
X137750000Y-91350000D03*
X139500000Y-80300000D03*
X139600000Y-83400000D03*
X140000000Y-61000000D03*
X140000000Y-66118300D03*
X140000000Y-69600000D03*
X140000000Y-73200000D03*
X140700000Y-78260000D03*
X142000000Y-51000000D03*
X142000000Y-99000000D03*
X142100000Y-94100000D03*
X142500000Y-52800000D03*
X142500000Y-55700000D03*
X143100000Y-75600000D03*
X144000000Y-65500000D03*
X144300000Y-54250000D03*
X144300000Y-58700000D03*
X145588000Y-96250000D03*
X146600000Y-70400000D03*
X146600000Y-79400000D03*
X151000000Y-70000000D03*
X151000000Y-79000000D03*
X152000000Y-51000000D03*
X152000000Y-99000000D03*
D11*
%TO.C,LED1*%
X146500000Y-72460000D03*
X146500000Y-75000000D03*
X146500000Y-77540000D03*
D12*
%TO.C,J10*%
X101250000Y-72460000D03*
X101250000Y-75000000D03*
X101250000Y-77540000D03*
X103790000Y-72460000D03*
X103790000Y-75000000D03*
X103790000Y-77540000D03*
%TO.C,J8*%
X104000000Y-54000000D03*
X104000000Y-56540000D03*
X104000000Y-59080000D03*
X104000000Y-61620000D03*
X104000000Y-64160000D03*
X104000000Y-66700000D03*
%TO.C,J9*%
X104000000Y-88920000D03*
X104000000Y-91460000D03*
X104000000Y-94000000D03*
X104000000Y-96540000D03*
%TO.C,J7*%
X111000000Y-89030000D03*
X111000000Y-91570000D03*
X111000000Y-94110000D03*
X111000000Y-96650000D03*
%TO.C,J6*%
X111500000Y-54000000D03*
X111500000Y-56540000D03*
X111500000Y-59080000D03*
X111500000Y-61620000D03*
%TO.C,J5*%
X118500000Y-89030000D03*
X118500000Y-91570000D03*
X118500000Y-94110000D03*
X118500000Y-96650000D03*
%TO.C,J4*%
X119000000Y-54000000D03*
X119000000Y-56540000D03*
X119000000Y-59080000D03*
X119000000Y-61620000D03*
%TO.C,J3*%
X126000000Y-89030000D03*
X126000000Y-91570000D03*
X126000000Y-94110000D03*
X126000000Y-96650000D03*
%TO.C,TH2*%
X126500000Y-54000000D03*
X126500000Y-56540000D03*
%TO.C,J1*%
X146732233Y-58232233D03*
X146732233Y-61767767D03*
%TO.C,J2*%
X146732233Y-88232233D03*
X146732233Y-91767767D03*
%TO.C,J1*%
X148500000Y-60000000D03*
%TO.C,J2*%
X148500000Y-90000000D03*
%TO.C,J1*%
X150267767Y-58232233D03*
X150267767Y-61767767D03*
%TO.C,J2*%
X150267767Y-88232233D03*
X150267767Y-91767767D03*
M02*
